<svg xmlns="http://www.w3.org/2000/svg" xmlns:xlink="http://www.w3.org/1999/xlink" width="31.055" height="63.943" viewBox="0 0 31.055 63.943"><defs><style>.a{fill:#084c94;}.b{fill:#08083d;}.c{fill:#a8cff0;}.d{fill:url(#a);}.e{fill:url(#b);}.f{fill:#a5e1be;}.g{fill:#23ce6b;}.h{fill:#277548;}.i{fill:#edf5fc;}</style><linearGradient id="a" x1="0.459" y1="0.759" x2="0.723" y2="-0.913" gradientUnits="objectBoundingBox"><stop offset="0" stop-color="#25054d"/><stop offset="1" stop-color="#45108a"/></linearGradient><linearGradient id="b" x1="0.992" y1="0.504" x2="-0.014" y2="0.504" gradientUnits="objectBoundingBox"><stop offset="0" stop-color="#45108a"/><stop offset="0.14" stop-color="#4d1299"/><stop offset="0.318" stop-color="#5915b3"/><stop offset="0.606" stop-color="#25054d"/><stop offset="0.833" stop-color="#3b0c75"/><stop offset="0.995" stop-color="#2f0960"/></linearGradient></defs><g transform="translate(0 44.14)"><path class="a" d="M31.055,60.9H0v1.657H0v.087c0,4.972,6.979,9.072,15.528,9.072S31.055,67.7,31.055,62.732v-.087h0Z" transform="translate(0 -51.915)"/><ellipse class="b" cx="15.528" cy="9.072" rx="15.528" ry="9.072" transform="translate(0)"/><path class="c" d="M15.528,69.985C7.066,69.985.174,65.972,0,61.087v.174c0,4.972,6.979,8.985,15.528,8.985s15.528-4.013,15.528-9.072V61C30.881,65.972,23.989,69.985,15.528,69.985Z" transform="translate(0 -51.928)"/></g><ellipse class="d" cx="13.085" cy="7.589" rx="13.085" ry="7.589" transform="translate(2.443 45.623)"/><path class="e" d="M15.885,57.621c5.583,0,10.381,2.006,12.213,4.885a4.936,4.936,0,0,0,.872-2.617c0-4.187-5.845-7.589-13.085-7.589S2.8,55.7,2.8,59.889a4.7,4.7,0,0,0,.872,2.617C5.5,59.715,10.3,57.621,15.885,57.621Z" transform="translate(-0.357 -6.677)"/><path class="f" d="M29.415,54.145V52.225a18.209,18.209,0,0,0-9.683-16.051l-1.4-.7a.9.9,0,0,1,0-1.57l2.268-1.4A18.417,18.417,0,0,0,29.415,16.9V11.4H2.2v5.408a18.233,18.233,0,0,0,8.985,15.7l2.355,1.4a.9.9,0,0,1,0,1.57l-1.4.7A18.058,18.058,0,0,0,2.2,52.313v1.745c-.174,2.181,1.134,4.362,4.013,6.019,5.321,3.053,13.957,3.053,19.279,0C28.281,58.506,29.589,56.325,29.415,54.145Z" transform="translate(-0.279 -1.455)"/><path class="g" d="M25.568,28.883a17.824,17.824,0,0,1-5.321,4.885l-2.355,1.4a2.011,2.011,0,0,0-.96,1.745c0,.436.436,4.449.7,7.153a4.362,4.362,0,0,0,2.879,3.664c4.449,1.57,7.938,1.4,7.938,6.717v2.094c.174,1.745-1.047,3.577-3.4,4.885a18.01,18.01,0,0,1-8.985,2.094h0A18.712,18.712,0,0,1,6.9,61.334c-2.355-1.4-3.577-3.14-3.4-4.972V54.443c0-5.409,3.577-5.234,8.113-6.8a4.362,4.362,0,0,0,2.879-3.664c.262-2.7.7-6.717.7-7.153a2.011,2.011,0,0,0-.96-1.745l-2.355-1.4a17.154,17.154,0,0,1-5.06-4.274C6.551,29.058,25.829,28.534,25.568,28.883Z" transform="translate(-0.444 -3.673)"/><path class="h" d="M10.032,0c5.54,0,10.032,2.617,10.032,5.845s-4.491,5.845-10.032,5.845S0,9.073,0,5.845,4.491,0,10.032,0Z" transform="translate(5.583 17.534)"/><g transform="translate(0 0)"><path class="a" d="M31.055,10.3H0v1.657H0v.087c0,4.972,6.979,9.072,15.528,9.072S31.055,17.1,31.055,12.045v-.087h0Z" transform="translate(0 -1.315)"/><ellipse class="b" cx="15.528" cy="9.072" rx="15.528" ry="9.072" transform="translate(0)"/><path class="c" d="M15.528,19.4C7.066,19.4.174,15.385,0,10.5v.174c0,4.972,6.979,9.072,15.528,9.072s15.528-4.013,15.528-9.072V10.5C30.881,15.385,23.989,19.4,15.528,19.4Z" transform="translate(0 -1.34)"/></g><path class="i" d="M14.859,51s-7.415,2.791-8.636,5.234S5.961,60.421,8.4,60.508C10.846,60.683,9.1,56.5,14.859,51Z" transform="translate(-0.727 -6.511)"/></svg>