<svg xmlns="http://www.w3.org/2000/svg" width="53.25" height="53.251" viewBox="0 0 53.25 53.251"><defs><style>.a{fill:#fff;}</style></defs><g transform="translate(0)"><g transform="translate(0 0)"><ellipse class="a" cx="1.109" cy="1.109" rx="1.109" ry="1.109" transform="translate(44.375 7.766)"/><ellipse class="a" cx="1.109" cy="1.109" rx="1.109" ry="1.109" transform="translate(38.828 7.766)"/><ellipse class="a" cx="1.109" cy="1.109" rx="1.109" ry="1.109" transform="translate(33.281 7.766)"/><path class="a" d="M20.875,20.857,26.2,15.975a1.153,1.153,0,0,1,.888-.444h8.431a1.015,1.015,0,0,0,.888-1.109V3.328A1.048,1.048,0,0,0,35.3,2.219H15.328a1.048,1.048,0,0,0-1.109,1.109V14.422a1.048,1.048,0,0,0,1.109,1.109h4.438a1.048,1.048,0,0,1,1.109,1.109ZM12,3.328A3.412,3.412,0,0,1,15.328,0H35.3a3.412,3.412,0,0,1,3.328,3.328V14.422A3.412,3.412,0,0,1,35.3,17.75H27.309l-6.878,6.434a.815.815,0,0,1-.666.222h-.444a1.22,1.22,0,0,1-.666-1.109V17.75H15.328A3.412,3.412,0,0,1,12,14.422Z" transform="translate(14.625 0)"/><path class="a" d="M17.422,7V24.75c0,.222-.222.666-.222.888L4.553,38.063A10.251,10.251,0,0,1,3,36.51l12.2-12.2V7h2.219Z" transform="translate(3.656 8.531)"/><path class="a" d="M10.719,7.109V8.219H8.5V7.109A1.048,1.048,0,0,1,9.609,6,1.048,1.048,0,0,1,10.719,7.109Z" transform="translate(10.36 7.313)"/><path class="a" d="M36.647,18.079A19.886,19.886,0,0,1,16.678,38.048,19.6,19.6,0,0,1,2.7,32.279a.815.815,0,0,0,.666.222,2.235,2.235,0,0,0,.666-.222l.888-.888a18.333,18.333,0,0,0,11.759,4.438,17.8,17.8,0,0,0,17.75-17.75,24.576,24.576,0,0,0-.444-4.216.81.81,0,0,1,.444-1.109.775.775,0,0,1,.444-.222c.666-.222,1.109.222,1.331.888a30.2,30.2,0,0,1,.444,4.659Z" transform="translate(3.291 15.203)"/><path class="a" d="M2.783,22.741a1.072,1.072,0,0,1,0-1.553L3.67,20.3l1.553,1.553-.888.888a.815.815,0,0,1-.666.222A1.334,1.334,0,0,1,2.783,22.741Z" transform="translate(2.986 24.741)"/><path class="a" d="M5.769,38.635a1.072,1.072,0,0,0,0,1.553A20.527,20.527,0,0,1,0,25.987,20.142,20.142,0,0,1,21.078,6.018a1.048,1.048,0,0,1,1.109,1.109,1.048,1.048,0,0,1-1.109,1.109V7.128a1.109,1.109,0,1,0-2.219,0V8.237A17.9,17.9,0,0,0,2.219,25.987a18.334,18.334,0,0,0,4.438,11.76Z" transform="translate(0 7.294)"/></g></g></svg>