<svg xmlns="http://www.w3.org/2000/svg" width="30.117" height="30.117" viewBox="0 0 30.117 30.117"><defs><style>.a{fill:#1976d2;}.b{fill:#fafafa;}</style></defs><path class="a" d="M26.352,0H3.765A3.768,3.768,0,0,0,0,3.765V26.353a3.768,3.768,0,0,0,3.765,3.765H26.352a3.768,3.768,0,0,0,3.765-3.765V3.765A3.768,3.768,0,0,0,26.352,0Z" transform="translate(0)"/><path class="b" d="M206.917,105.945h-4.973v-3.978c0-1.1.891-.994,1.989-.994h1.989V96h-3.978a5.967,5.967,0,0,0-5.967,5.967v3.978H192v4.973h3.978v10.939h5.967V110.918h2.983Z" transform="translate(-181.271 -91.74)"/></svg>