<svg xmlns="http://www.w3.org/2000/svg" xmlns:xlink="http://www.w3.org/1999/xlink" width="1920" height="230" viewBox="0 0 1920 230"><defs><style>.a{fill:#6184d8;}.b{fill:#08083d;}.c{clip-path:url(#a);}.d{opacity:0.7;}.e{fill:rgba(97,132,216,0.2);}</style><clipPath id="a"><rect class="a" width="1920" height="230" transform="translate(0 3554)"/></clipPath></defs><g transform="translate(0 -10726)"><path class="b" d="M0,0H1920V229.705H0Z" transform="translate(0 10726.295)"/><g class="c" transform="translate(0 7172)"><g class="d" transform="translate(-67 34)"><g transform="translate(739.628 1956.424) rotate(135)"><path class="e" d="M34.088,48.836V29.382H18.132V48.836H8.7V27.22H0V21.456H8.7V0L43.517,21.456h8.7V27.22h-8.7V48.836Z" transform="translate(1283 -591.801)"/><path class="e" d="M34.088,48.836V29.382H18.132V48.836H8.7V27.22H0V21.456H8.7V0L43.517,21.456h8.7V27.22h-8.7V48.836Z" transform="translate(1283 -788.716)"/><path class="e" d="M34.088,48.836V29.382H18.132V48.836H8.7V27.22H0V21.456H8.7V0L43.517,21.456h8.7V27.22h-8.7V48.836Z" transform="translate(1283 -690.258)"/><path class="e" d="M34.088,48.836V29.382H18.132V48.836H8.7V27.22H0V21.456H8.7V0L43.517,21.456h8.7V27.22h-8.7V48.836Z" transform="translate(1283 -887.173)"/><path class="e" d="M34.088,48.836V29.382H18.132V48.836H8.7V27.22H0V21.456H8.7V0L43.517,21.456h8.7V27.22h-8.7V48.836Z" transform="translate(1511.465 -591.801)"/><path class="e" d="M34.088,48.836V29.382H18.132V48.836H8.7V27.22H0V21.456H8.7V0L43.517,21.456h8.7V27.22h-8.7V48.836Z" transform="translate(1511.465 -788.716)"/><path class="e" d="M34.088,48.836V29.382H18.132V48.836H8.7V27.22H0V21.456H8.7V0L43.517,21.456h8.7V27.22h-8.7V48.836Z" transform="translate(1511.465 -690.258)"/><path class="e" d="M34.088,48.836V29.382H18.132V48.836H8.7V27.22H0V21.456H8.7V0L43.517,21.456h8.7V27.22h-8.7V48.836Z" transform="translate(1511.465 -887.173)"/><path class="e" d="M34.088,48.836V29.382H18.132V48.836H8.7V27.22H0V21.456H8.7V0L43.517,21.456h8.7V27.22h-8.7V48.836Z" transform="translate(1397.232 -591.801)"/><path class="e" d="M34.088,48.836V29.382H18.132V48.836H8.7V27.22H0V21.456H8.7V0L43.517,21.456h8.7V27.22h-8.7V48.836Z" transform="translate(1397.232 -788.716)"/><path class="e" d="M34.088,48.836V29.382H18.132V48.836H8.7V27.22H0V21.456H8.7V0L43.517,21.456h8.7V27.22h-8.7V48.836Z" transform="translate(1397.232 -690.258)"/><path class="e" d="M34.088,48.836V29.382H18.132V48.836H8.7V27.22H0V21.456H8.7V0L43.517,21.456h8.7V27.22h-8.7V48.836Z" transform="translate(1397.232 -887.173)"/><path class="e" d="M34.088,48.836V29.382H18.132V48.836H8.7V27.22H0V21.456H8.7V0L43.517,21.456h8.7V27.22h-8.7V48.836Z" transform="translate(1625.697 -591.801)"/><path class="e" d="M34.088,48.836V29.382H18.132V48.836H8.7V27.22H0V21.456H8.7V0L43.517,21.456h8.7V27.22h-8.7V48.836Z" transform="translate(1625.697 -788.716)"/><path class="e" d="M34.088,48.836V29.382H18.132V48.836H8.7V27.22H0V21.456H8.7V0L43.517,21.456h8.7V27.22h-8.7V48.836Z" transform="translate(1625.697 -690.258)"/><path class="e" d="M34.088,48.836V29.382H18.132V48.836H8.7V27.22H0V21.456H8.7V0L43.517,21.456h8.7V27.22h-8.7V48.836Z" transform="translate(1625.697 -887.173)"/><path class="e" d="M34.088,48.836V29.382H18.132V48.836H8.7V27.22H0V21.456H8.7V0L43.517,21.456h8.7V27.22h-8.7V48.836Z" transform="translate(1340.116 -591.801)"/><path class="e" d="M34.088,48.836V29.382H18.132V48.836H8.7V27.22H0V21.456H8.7V0L43.517,21.456h8.7V27.22h-8.7V48.836Z" transform="translate(1340.116 -788.716)"/><path class="e" d="M34.088,48.836V29.382H18.132V48.836H8.7V27.22H0V21.456H8.7V0L43.517,21.456h8.7V27.22h-8.7V48.836Z" transform="translate(1340.116 -690.258)"/><path class="e" d="M34.088,48.836V29.382H18.132V48.836H8.7V27.22H0V21.456H8.7V0L43.517,21.456h8.7V27.22h-8.7V48.836Z" transform="translate(1340.116 -887.173)"/><path class="e" d="M34.088,48.836V29.382H18.132V48.836H8.7V27.22H0V21.456H8.7V0L43.517,21.456h8.7V27.22h-8.7V48.836Z" transform="translate(1568.581 -591.801)"/><path class="e" d="M34.088,48.836V29.382H18.132V48.836H8.7V27.22H0V21.456H8.7V0L43.517,21.456h8.7V27.22h-8.7V48.836Z" transform="translate(1568.581 -788.716)"/><path class="e" d="M34.088,48.836V29.382H18.132V48.836H8.7V27.22H0V21.456H8.7V0L43.517,21.456h8.7V27.22h-8.7V48.836Z" transform="translate(1568.581 -690.258)"/><path class="e" d="M34.088,48.836V29.382H18.132V48.836H8.7V27.22H0V21.456H8.7V0L43.517,21.456h8.7V27.22h-8.7V48.836Z" transform="translate(1568.581 -887.173)"/><path class="e" d="M34.088,48.836V29.382H18.132V48.836H8.7V27.22H0V21.456H8.7V0L43.517,21.456h8.7V27.22h-8.7V48.836Z" transform="translate(1454.349 -591.801)"/><path class="e" d="M34.088,48.836V29.382H18.132V48.836H8.7V27.22H0V21.456H8.7V0L43.517,21.456h8.7V27.22h-8.7V48.836Z" transform="translate(1454.349 -788.716)"/><path class="e" d="M34.088,48.836V29.382H18.132V48.836H8.7V27.22H0V21.456H8.7V0L43.517,21.456h8.7V27.22h-8.7V48.836Z" transform="translate(1454.349 -690.258)"/><path class="e" d="M34.088,48.836V29.382H18.132V48.836H8.7V27.22H0V21.456H8.7V0L43.517,21.456h8.7V27.22h-8.7V48.836Z" transform="translate(1454.349 -887.173)"/><path class="e" d="M34.088,48.836V29.382H18.132V48.836H8.7V27.22H0V21.456H8.7V0L43.517,21.456h8.7V27.22h-8.7V48.836Z" transform="translate(1682.813 -591.801)"/><path class="e" d="M34.088,48.836V29.382H18.132V48.836H8.7V27.22H0V21.456H8.7V0L43.517,21.456h8.7V27.22h-8.7V48.836Z" transform="translate(1682.813 -788.716)"/><path class="e" d="M34.088,48.836V29.382H18.132V48.836H8.7V27.22H0V21.456H8.7V0L43.517,21.456h8.7V27.22h-8.7V48.836Z" transform="translate(1682.813 -690.258)"/><path class="e" d="M34.088,48.836V29.382H18.132V48.836H8.7V27.22H0V21.456H8.7V0L43.517,21.456h8.7V27.22h-8.7V48.836Z" transform="translate(1682.813 -887.173)"/><path class="e" d="M34.088,48.836V29.382H18.132V48.836H8.7V27.22H0V21.456H8.7V0L43.517,21.456h8.7V27.22h-8.7V48.836Z" transform="translate(1335.22 -587.57) rotate(180)"/><path class="e" d="M34.088,48.836V29.382H18.132V48.836H8.7V27.22H0V21.456H8.7V0L43.517,21.456h8.7V27.22h-8.7V48.836Z" transform="translate(1335.22 -784.485) rotate(180)"/><path class="e" d="M34.088,48.836V29.382H18.132V48.836H8.7V27.22H0V21.456H8.7V0L43.517,21.456h8.7V27.22h-8.7V48.836Z" transform="translate(1335.22 -686.027) rotate(180)"/><path class="e" d="M34.088,48.836V29.382H18.132V48.836H8.7V27.22H0V21.456H8.7V0L43.517,21.456h8.7V27.22h-8.7V48.836Z" transform="translate(1335.22 -882.942) rotate(180)"/><path class="e" d="M34.088,48.836V29.382H18.132V48.836H8.7V27.22H0V21.456H8.7V0L43.517,21.456h8.7V27.22h-8.7V48.836Z" transform="translate(1563.685 -587.57) rotate(180)"/><path class="e" d="M34.088,48.836V29.382H18.132V48.836H8.7V27.22H0V21.456H8.7V0L43.517,21.456h8.7V27.22h-8.7V48.836Z" transform="translate(1563.685 -784.485) rotate(180)"/><path class="e" d="M34.088,48.836V29.382H18.132V48.836H8.7V27.22H0V21.456H8.7V0L43.517,21.456h8.7V27.22h-8.7V48.836Z" transform="translate(1563.685 -686.027) rotate(180)"/><path class="e" d="M34.088,48.836V29.382H18.132V48.836H8.7V27.22H0V21.456H8.7V0L43.517,21.456h8.7V27.22h-8.7V48.836Z" transform="translate(1563.685 -882.942) rotate(180)"/><path class="e" d="M34.088,48.836V29.382H18.132V48.836H8.7V27.22H0V21.456H8.7V0L43.517,21.456h8.7V27.22h-8.7V48.836Z" transform="translate(1449.453 -587.57) rotate(180)"/><path class="e" d="M34.088,48.836V29.382H18.132V48.836H8.7V27.22H0V21.456H8.7V0L43.517,21.456h8.7V27.22h-8.7V48.836Z" transform="translate(1449.453 -784.485) rotate(180)"/><path class="e" d="M34.088,48.836V29.382H18.132V48.836H8.7V27.22H0V21.456H8.7V0L43.517,21.456h8.7V27.22h-8.7V48.836Z" transform="translate(1449.453 -686.027) rotate(180)"/><path class="e" d="M34.088,48.836V29.382H18.132V48.836H8.7V27.22H0V21.456H8.7V0L43.517,21.456h8.7V27.22h-8.7V48.836Z" transform="translate(1449.453 -882.942) rotate(180)"/><path class="e" d="M34.088,48.836V29.382H18.132V48.836H8.7V27.22H0V21.456H8.7V0L43.517,21.456h8.7V27.22h-8.7V48.836Z" transform="translate(1677.917 -587.57) rotate(180)"/><path class="e" d="M34.088,48.836V29.382H18.132V48.836H8.7V27.22H0V21.456H8.7V0L43.517,21.456h8.7V27.22h-8.7V48.836Z" transform="translate(1677.917 -784.485) rotate(180)"/><path class="e" d="M34.088,48.836V29.382H18.132V48.836H8.7V27.22H0V21.456H8.7V0L43.517,21.456h8.7V27.22h-8.7V48.836Z" transform="translate(1677.917 -686.027) rotate(180)"/><path class="e" d="M34.088,48.836V29.382H18.132V48.836H8.7V27.22H0V21.456H8.7V0L43.517,21.456h8.7V27.22h-8.7V48.836Z" transform="translate(1677.917 -882.942) rotate(180)"/><path class="e" d="M34.088,48.836V29.382H18.132V48.836H8.7V27.22H0V21.456H8.7V0L43.517,21.456h8.7V27.22h-8.7V48.836Z" transform="translate(1392.337 -587.57) rotate(180)"/><path class="e" d="M34.088,48.836V29.382H18.132V48.836H8.7V27.22H0V21.456H8.7V0L43.517,21.456h8.7V27.22h-8.7V48.836Z" transform="translate(1392.337 -784.485) rotate(180)"/><path class="e" d="M34.088,48.836V29.382H18.132V48.836H8.7V27.22H0V21.456H8.7V0L43.517,21.456h8.7V27.22h-8.7V48.836Z" transform="translate(1392.337 -686.027) rotate(180)"/><path class="e" d="M34.088,48.836V29.382H18.132V48.836H8.7V27.22H0V21.456H8.7V0L43.517,21.456h8.7V27.22h-8.7V48.836Z" transform="translate(1392.337 -882.942) rotate(180)"/><path class="e" d="M34.088,48.836V29.382H18.132V48.836H8.7V27.22H0V21.456H8.7V0L43.517,21.456h8.7V27.22h-8.7V48.836Z" transform="translate(1620.801 -587.57) rotate(180)"/><path class="e" d="M34.088,48.836V29.382H18.132V48.836H8.7V27.22H0V21.456H8.7V0L43.517,21.456h8.7V27.22h-8.7V48.836Z" transform="translate(1620.801 -784.485) rotate(180)"/><path class="e" d="M34.088,48.836V29.382H18.132V48.836H8.7V27.22H0V21.456H8.7V0L43.517,21.456h8.7V27.22h-8.7V48.836Z" transform="translate(1620.801 -686.027) rotate(180)"/><path class="e" d="M34.088,48.836V29.382H18.132V48.836H8.7V27.22H0V21.456H8.7V0L43.517,21.456h8.7V27.22h-8.7V48.836Z" transform="translate(1620.801 -882.942) rotate(180)"/><path class="e" d="M34.088,48.836V29.382H18.132V48.836H8.7V27.22H0V21.456H8.7V0L43.517,21.456h8.7V27.22h-8.7V48.836Z" transform="translate(1506.569 -587.57) rotate(180)"/><path class="e" d="M34.088,48.836V29.382H18.132V48.836H8.7V27.22H0V21.456H8.7V0L43.517,21.456h8.7V27.22h-8.7V48.836Z" transform="translate(1506.569 -784.485) rotate(180)"/><path class="e" d="M34.088,48.836V29.382H18.132V48.836H8.7V27.22H0V21.456H8.7V0L43.517,21.456h8.7V27.22h-8.7V48.836Z" transform="translate(1506.569 -686.027) rotate(180)"/><path class="e" d="M34.088,48.836V29.382H18.132V48.836H8.7V27.22H0V21.456H8.7V0L43.517,21.456h8.7V27.22h-8.7V48.836Z" transform="translate(1506.569 -882.942) rotate(180)"/><path class="e" d="M34.088,48.836V29.382H18.132V48.836H8.7V27.22H0V21.456H8.7V0L43.517,21.456h8.7V27.22h-8.7V48.836Z" transform="translate(1735.034 -587.57) rotate(180)"/><path class="e" d="M34.088,48.836V29.382H18.132V48.836H8.7V27.22H0V21.456H8.7V0L43.517,21.456h8.7V27.22h-8.7V48.836Z" transform="translate(1735.034 -784.485) rotate(180)"/><path class="e" d="M34.088,48.836V29.382H18.132V48.836H8.7V27.22H0V21.456H8.7V0L43.517,21.456h8.7V27.22h-8.7V48.836Z" transform="translate(1735.034 -686.027) rotate(180)"/><path class="e" d="M34.088,48.836V29.382H18.132V48.836H8.7V27.22H0V21.456H8.7V0L43.517,21.456h8.7V27.22h-8.7V48.836Z" transform="translate(1735.034 -882.942) rotate(180)"/></g></g></g></g></svg>