<svg xmlns="http://www.w3.org/2000/svg" xmlns:xlink="http://www.w3.org/1999/xlink" width="1920" height="713" viewBox="0 0 1920 713"><defs><style>.a{fill:#fff;}.b{fill:#08083d;}.c{clip-path:url(#a);}.d{fill:rgba(97,132,216,0.1);}</style><clipPath id="a"><rect class="a" width="1920" height="710" transform="translate(0 99)"/></clipPath></defs><g transform="translate(0 -99)"><rect class="b" width="1920" height="711" transform="translate(0 101)"/><g class="c"><g transform="translate(5054.853 -235.132) rotate(90)"><g transform="translate(679.677 3421.225) rotate(135)"><path class="d" d="M44.89,64.311V38.692H23.877V64.311H11.461V35.845H0v-7.59H11.461V0L57.306,28.255H68.768v7.59H57.306V64.311Z" transform="translate(0 447.705)"/><path class="d" d="M44.89,64.311V38.692H23.877V64.311H11.461V35.845H0v-7.59H11.461V0L57.306,28.255H68.768v7.59H57.306V64.311Z" transform="translate(0 188.394)"/><path class="d" d="M44.89,64.311V38.692H23.877V64.311H11.461V35.845H0v-7.59H11.461V0L57.306,28.255H68.768v7.59H57.306V64.311Z" transform="translate(0 318.05)"/><path class="d" d="M44.89,64.311V38.692H23.877V64.311H11.461V35.845H0v-7.59H11.461V0L57.306,28.255H68.768v7.59H57.306V64.311Z" transform="translate(0 58.739)"/><path class="d" d="M44.89,64.311V38.692H23.877V64.311H11.461V35.845H0v-7.59H11.461V0L57.306,28.255H68.768v7.59H57.306V64.311Z" transform="translate(300.858 447.705)"/><path class="d" d="M44.89,64.311V38.692H23.877V64.311H11.461V35.845H0v-7.59H11.461V0L57.306,28.255H68.768v7.59H57.306V64.311Z" transform="translate(300.858 188.394)"/><path class="d" d="M44.89,64.311V38.692H23.877V64.311H11.461V35.845H0v-7.59H11.461V0L57.306,28.255H68.768v7.59H57.306V64.311Z" transform="translate(300.858 318.05)"/><path class="d" d="M44.89,64.311V38.692H23.877V64.311H11.461V35.845H0v-7.59H11.461V0L57.306,28.255H68.768v7.59H57.306V64.311Z" transform="translate(300.858 58.739)"/><path class="d" d="M44.89,64.311V38.692H23.877V64.311H11.461V35.845H0v-7.59H11.461V0L57.306,28.255H68.768v7.59H57.306V64.311Z" transform="translate(150.429 447.705)"/><path class="d" d="M44.89,64.311V38.692H23.877V64.311H11.461V35.845H0v-7.59H11.461V0L57.306,28.255H68.768v7.59H57.306V64.311Z" transform="translate(150.429 188.394)"/><path class="d" d="M44.89,64.311V38.692H23.877V64.311H11.461V35.845H0v-7.59H11.461V0L57.306,28.255H68.768v7.59H57.306V64.311Z" transform="translate(150.429 318.05)"/><path class="d" d="M44.89,64.311V38.692H23.877V64.311H11.461V35.845H0v-7.59H11.461V0L57.306,28.255H68.768v7.59H57.306V64.311Z" transform="translate(150.429 58.739)"/><path class="d" d="M44.89,64.311V38.692H23.877V64.311H11.461V35.845H0v-7.59H11.461V0L57.306,28.255H68.768v7.59H57.306V64.311Z" transform="translate(451.287 447.705)"/><path class="d" d="M44.89,64.311V38.692H23.877V64.311H11.461V35.845H0v-7.59H11.461V0L57.306,28.255H68.768v7.59H57.306V64.311Z" transform="translate(451.287 188.394)"/><path class="d" d="M44.89,64.311V38.692H23.877V64.311H11.461V35.845H0v-7.59H11.461V0L57.306,28.255H68.768v7.59H57.306V64.311Z" transform="translate(451.287 318.05)"/><path class="d" d="M44.89,64.311V38.692H23.877V64.311H11.461V35.845H0v-7.59H11.461V0L57.306,28.255H68.768v7.59H57.306V64.311Z" transform="translate(451.287 58.739)"/><path class="d" d="M44.89,64.311V38.692H23.877V64.311H11.461V35.845H0v-7.59H11.461V0L57.306,28.255H68.768v7.59H57.306V64.311Z" transform="translate(75.215 447.705)"/><path class="d" d="M44.89,64.311V38.692H23.877V64.311H11.461V35.845H0v-7.59H11.461V0L57.306,28.255H68.768v7.59H57.306V64.311Z" transform="translate(75.215 188.394)"/><path class="d" d="M44.89,64.311V38.692H23.877V64.311H11.461V35.845H0v-7.59H11.461V0L57.306,28.255H68.768v7.59H57.306V64.311Z" transform="translate(75.215 318.05)"/><path class="d" d="M44.89,64.311V38.692H23.877V64.311H11.461V35.845H0v-7.59H11.461V0L57.306,28.255H68.768v7.59H57.306V64.311Z" transform="translate(75.215 58.739)"/><path class="d" d="M44.89,64.311V38.692H23.877V64.311H11.461V35.845H0v-7.59H11.461V0L57.306,28.255H68.768v7.59H57.306V64.311Z" transform="translate(376.072 447.705)"/><path class="d" d="M44.89,64.311V38.692H23.877V64.311H11.461V35.845H0v-7.59H11.461V0L57.306,28.255H68.768v7.59H57.306V64.311Z" transform="translate(376.072 188.394)"/><path class="d" d="M44.89,64.311V38.692H23.877V64.311H11.461V35.845H0v-7.59H11.461V0L57.306,28.255H68.768v7.59H57.306V64.311Z" transform="translate(376.072 318.05)"/><path class="d" d="M44.89,64.311V38.692H23.877V64.311H11.461V35.845H0v-7.59H11.461V0L57.306,28.255H68.768v7.59H57.306V64.311Z" transform="translate(376.072 58.739)"/><path class="d" d="M44.89,64.311V38.692H23.877V64.311H11.461V35.845H0v-7.59H11.461V0L57.306,28.255H68.768v7.59H57.306V64.311Z" transform="translate(225.644 447.705)"/><path class="d" d="M44.89,64.311V38.692H23.877V64.311H11.461V35.845H0v-7.59H11.461V0L57.306,28.255H68.768v7.59H57.306V64.311Z" transform="translate(225.644 188.394)"/><path class="d" d="M44.89,64.311V38.692H23.877V64.311H11.461V35.845H0v-7.59H11.461V0L57.306,28.255H68.768v7.59H57.306V64.311Z" transform="translate(225.644 318.05)"/><path class="d" d="M44.89,64.311V38.692H23.877V64.311H11.461V35.845H0v-7.59H11.461V0L57.306,28.255H68.768v7.59H57.306V64.311Z" transform="translate(225.644 58.739)"/><path class="d" d="M44.89,64.311V38.692H23.877V64.311H11.461V35.845H0v-7.59H11.461V0L57.306,28.255H68.768v7.59H57.306V64.311Z" transform="translate(526.502 447.705)"/><path class="d" d="M44.89,64.311V38.692H23.877V64.311H11.461V35.845H0v-7.59H11.461V0L57.306,28.255H68.768v7.59H57.306V64.311Z" transform="translate(526.502 188.394)"/><path class="d" d="M44.89,64.311V38.692H23.877V64.311H11.461V35.845H0v-7.59H11.461V0L57.306,28.255H68.768v7.59H57.306V64.311Z" transform="translate(526.502 318.05)"/><path class="d" d="M44.89,64.311V38.692H23.877V64.311H11.461V35.845H0v-7.59H11.461V0L57.306,28.255H68.768v7.59H57.306V64.311Z" transform="translate(526.502 58.739)"/><path class="d" d="M44.89,64.311V38.692H23.877V64.311H11.461V35.845H0v-7.59H11.461V0L57.306,28.255H68.768v7.59H57.306V64.311Z" transform="translate(68.768 453.277) rotate(180)"/><path class="d" d="M44.89,64.311V38.692H23.877V64.311H11.461V35.845H0v-7.59H11.461V0L57.306,28.255H68.768v7.59H57.306V64.311Z" transform="translate(68.768 193.966) rotate(180)"/><path class="d" d="M44.89,64.311V38.692H23.877V64.311H11.461V35.845H0v-7.59H11.461V0L57.306,28.255H68.768v7.59H57.306V64.311Z" transform="translate(68.768 323.622) rotate(180)"/><path class="d" d="M44.89,64.311V38.692H23.877V64.311H11.461V35.845H0v-7.59H11.461V0L57.306,28.255H68.768v7.59H57.306V64.311Z" transform="translate(68.768 64.311) rotate(180)"/><path class="d" d="M44.89,64.311V38.692H23.877V64.311H11.461V35.845H0v-7.59H11.461V0L57.306,28.255H68.768v7.59H57.306V64.311Z" transform="translate(369.626 453.277) rotate(180)"/><path class="d" d="M44.89,64.311V38.692H23.877V64.311H11.461V35.845H0v-7.59H11.461V0L57.306,28.255H68.768v7.59H57.306V64.311Z" transform="translate(369.626 193.966) rotate(180)"/><path class="d" d="M44.89,64.311V38.692H23.877V64.311H11.461V35.845H0v-7.59H11.461V0L57.306,28.255H68.768v7.59H57.306V64.311Z" transform="translate(369.626 323.622) rotate(180)"/><path class="d" d="M44.89,64.311V38.692H23.877V64.311H11.461V35.845H0v-7.59H11.461V0L57.306,28.255H68.768v7.59H57.306V64.311Z" transform="translate(369.626 64.311) rotate(180)"/><path class="d" d="M44.89,64.311V38.692H23.877V64.311H11.461V35.845H0v-7.59H11.461V0L57.306,28.255H68.768v7.59H57.306V64.311Z" transform="translate(219.197 453.277) rotate(180)"/><path class="d" d="M44.89,64.311V38.692H23.877V64.311H11.461V35.845H0v-7.59H11.461V0L57.306,28.255H68.768v7.59H57.306V64.311Z" transform="translate(219.197 193.966) rotate(180)"/><path class="d" d="M44.89,64.311V38.692H23.877V64.311H11.461V35.845H0v-7.59H11.461V0L57.306,28.255H68.768v7.59H57.306V64.311Z" transform="translate(219.197 323.622) rotate(180)"/><path class="d" d="M44.89,64.311V38.692H23.877V64.311H11.461V35.845H0v-7.59H11.461V0L57.306,28.255H68.768v7.59H57.306V64.311Z" transform="translate(219.197 64.311) rotate(180)"/><path class="d" d="M44.89,64.311V38.692H23.877V64.311H11.461V35.845H0v-7.59H11.461V0L57.306,28.255H68.768v7.59H57.306V64.311Z" transform="translate(520.055 453.277) rotate(180)"/><path class="d" d="M44.89,64.311V38.692H23.877V64.311H11.461V35.845H0v-7.59H11.461V0L57.306,28.255H68.768v7.59H57.306V64.311Z" transform="translate(520.055 193.966) rotate(180)"/><path class="d" d="M44.89,64.311V38.692H23.877V64.311H11.461V35.845H0v-7.59H11.461V0L57.306,28.255H68.768v7.59H57.306V64.311Z" transform="translate(520.055 323.622) rotate(180)"/><path class="d" d="M44.89,64.311V38.692H23.877V64.311H11.461V35.845H0v-7.59H11.461V0L57.306,28.255H68.768v7.59H57.306V64.311Z" transform="translate(520.055 64.311) rotate(180)"/><path class="d" d="M44.89,64.311V38.692H23.877V64.311H11.461V35.845H0v-7.59H11.461V0L57.306,28.255H68.768v7.59H57.306V64.311Z" transform="translate(143.982 453.277) rotate(180)"/><path class="d" d="M44.89,64.311V38.692H23.877V64.311H11.461V35.845H0v-7.59H11.461V0L57.306,28.255H68.768v7.59H57.306V64.311Z" transform="translate(143.982 193.966) rotate(180)"/><path class="d" d="M44.89,64.311V38.692H23.877V64.311H11.461V35.845H0v-7.59H11.461V0L57.306,28.255H68.768v7.59H57.306V64.311Z" transform="translate(143.982 323.622) rotate(180)"/><path class="d" d="M44.89,64.311V38.692H23.877V64.311H11.461V35.845H0v-7.59H11.461V0L57.306,28.255H68.768v7.59H57.306V64.311Z" transform="translate(143.982 64.311) rotate(180)"/><path class="d" d="M44.89,64.311V38.692H23.877V64.311H11.461V35.845H0v-7.59H11.461V0L57.306,28.255H68.768v7.59H57.306V64.311Z" transform="translate(444.84 453.277) rotate(180)"/><path class="d" d="M44.89,64.311V38.692H23.877V64.311H11.461V35.845H0v-7.59H11.461V0L57.306,28.255H68.768v7.59H57.306V64.311Z" transform="translate(444.84 193.966) rotate(180)"/><path class="d" d="M44.89,64.311V38.692H23.877V64.311H11.461V35.845H0v-7.59H11.461V0L57.306,28.255H68.768v7.59H57.306V64.311Z" transform="translate(444.84 323.622) rotate(180)"/><path class="d" d="M44.89,64.311V38.692H23.877V64.311H11.461V35.845H0v-7.59H11.461V0L57.306,28.255H68.768v7.59H57.306V64.311Z" transform="translate(444.84 64.311) rotate(180)"/><path class="d" d="M44.89,64.311V38.692H23.877V64.311H11.461V35.845H0v-7.59H11.461V0L57.306,28.255H68.768v7.59H57.306V64.311Z" transform="translate(294.411 453.277) rotate(180)"/><path class="d" d="M44.89,64.311V38.692H23.877V64.311H11.461V35.845H0v-7.59H11.461V0L57.306,28.255H68.768v7.59H57.306V64.311Z" transform="translate(294.411 193.966) rotate(180)"/><path class="d" d="M44.89,64.311V38.692H23.877V64.311H11.461V35.845H0v-7.59H11.461V0L57.306,28.255H68.768v7.59H57.306V64.311Z" transform="translate(294.411 323.622) rotate(180)"/><path class="d" d="M44.89,64.311V38.692H23.877V64.311H11.461V35.845H0v-7.59H11.461V0L57.306,28.255H68.768v7.59H57.306V64.311Z" transform="translate(294.411 64.311) rotate(180)"/><path class="d" d="M44.89,64.311V38.692H23.877V64.311H11.461V35.845H0v-7.59H11.461V0L57.306,28.255H68.768v7.59H57.306V64.311Z" transform="translate(595.269 453.277) rotate(180)"/><path class="d" d="M44.89,64.311V38.692H23.877V64.311H11.461V35.845H0v-7.59H11.461V0L57.306,28.255H68.768v7.59H57.306V64.311Z" transform="translate(595.269 193.966) rotate(180)"/><path class="d" d="M44.89,64.311V38.692H23.877V64.311H11.461V35.845H0v-7.59H11.461V0L57.306,28.255H68.768v7.59H57.306V64.311Z" transform="translate(595.269 323.622) rotate(180)"/><path class="d" d="M44.89,64.311V38.692H23.877V64.311H11.461V35.845H0v-7.59H11.461V0L57.306,28.255H68.768v7.59H57.306V64.311Z" transform="translate(595.269 64.311) rotate(180)"/></g><g transform="translate(1106.343 2994.56) rotate(135)"><path class="d" d="M44.89,64.311V38.692H23.877V64.311H11.461V35.845H0v-7.59H11.461V0L57.306,28.255H68.768v7.59H57.306V64.311Z" transform="translate(0 447.705)"/><path class="d" d="M44.89,64.311V38.692H23.877V64.311H11.461V35.845H0v-7.59H11.461V0L57.306,28.255H68.768v7.59H57.306V64.311Z" transform="translate(0 188.394)"/><path class="d" d="M44.89,64.311V38.692H23.877V64.311H11.461V35.845H0v-7.59H11.461V0L57.306,28.255H68.768v7.59H57.306V64.311Z" transform="translate(0 318.05)"/><path class="d" d="M44.89,64.311V38.692H23.877V64.311H11.461V35.845H0v-7.59H11.461V0L57.306,28.255H68.768v7.59H57.306V64.311Z" transform="translate(0 58.739)"/><path class="d" d="M44.89,64.311V38.692H23.877V64.311H11.461V35.845H0v-7.59H11.461V0L57.306,28.255H68.768v7.59H57.306V64.311Z" transform="translate(300.858 447.705)"/><path class="d" d="M44.89,64.311V38.692H23.877V64.311H11.461V35.845H0v-7.59H11.461V0L57.306,28.255H68.768v7.59H57.306V64.311Z" transform="translate(300.858 188.394)"/><path class="d" d="M44.89,64.311V38.692H23.877V64.311H11.461V35.845H0v-7.59H11.461V0L57.306,28.255H68.768v7.59H57.306V64.311Z" transform="translate(300.858 318.05)"/><path class="d" d="M44.89,64.311V38.692H23.877V64.311H11.461V35.845H0v-7.59H11.461V0L57.306,28.255H68.768v7.59H57.306V64.311Z" transform="translate(300.858 58.739)"/><path class="d" d="M44.89,64.311V38.692H23.877V64.311H11.461V35.845H0v-7.59H11.461V0L57.306,28.255H68.768v7.59H57.306V64.311Z" transform="translate(150.429 447.705)"/><path class="d" d="M44.89,64.311V38.692H23.877V64.311H11.461V35.845H0v-7.59H11.461V0L57.306,28.255H68.768v7.59H57.306V64.311Z" transform="translate(150.429 188.394)"/><path class="d" d="M44.89,64.311V38.692H23.877V64.311H11.461V35.845H0v-7.59H11.461V0L57.306,28.255H68.768v7.59H57.306V64.311Z" transform="translate(150.429 318.05)"/><path class="d" d="M44.89,64.311V38.692H23.877V64.311H11.461V35.845H0v-7.59H11.461V0L57.306,28.255H68.768v7.59H57.306V64.311Z" transform="translate(150.429 58.739)"/><path class="d" d="M44.89,64.311V38.692H23.877V64.311H11.461V35.845H0v-7.59H11.461V0L57.306,28.255H68.768v7.59H57.306V64.311Z" transform="translate(451.287 447.705)"/><path class="d" d="M44.89,64.311V38.692H23.877V64.311H11.461V35.845H0v-7.59H11.461V0L57.306,28.255H68.768v7.59H57.306V64.311Z" transform="translate(451.287 188.394)"/><path class="d" d="M44.89,64.311V38.692H23.877V64.311H11.461V35.845H0v-7.59H11.461V0L57.306,28.255H68.768v7.59H57.306V64.311Z" transform="translate(451.287 318.05)"/><path class="d" d="M44.89,64.311V38.692H23.877V64.311H11.461V35.845H0v-7.59H11.461V0L57.306,28.255H68.768v7.59H57.306V64.311Z" transform="translate(451.287 58.739)"/><path class="d" d="M44.89,64.311V38.692H23.877V64.311H11.461V35.845H0v-7.59H11.461V0L57.306,28.255H68.768v7.59H57.306V64.311Z" transform="translate(75.215 447.705)"/><path class="d" d="M44.89,64.311V38.692H23.877V64.311H11.461V35.845H0v-7.59H11.461V0L57.306,28.255H68.768v7.59H57.306V64.311Z" transform="translate(75.215 188.394)"/><path class="d" d="M44.89,64.311V38.692H23.877V64.311H11.461V35.845H0v-7.59H11.461V0L57.306,28.255H68.768v7.59H57.306V64.311Z" transform="translate(75.215 318.05)"/><path class="d" d="M44.89,64.311V38.692H23.877V64.311H11.461V35.845H0v-7.59H11.461V0L57.306,28.255H68.768v7.59H57.306V64.311Z" transform="translate(75.215 58.739)"/><path class="d" d="M44.89,64.311V38.692H23.877V64.311H11.461V35.845H0v-7.59H11.461V0L57.306,28.255H68.768v7.59H57.306V64.311Z" transform="translate(376.072 447.705)"/><path class="d" d="M44.89,64.311V38.692H23.877V64.311H11.461V35.845H0v-7.59H11.461V0L57.306,28.255H68.768v7.59H57.306V64.311Z" transform="translate(376.072 188.394)"/><path class="d" d="M44.89,64.311V38.692H23.877V64.311H11.461V35.845H0v-7.59H11.461V0L57.306,28.255H68.768v7.59H57.306V64.311Z" transform="translate(376.072 318.05)"/><path class="d" d="M44.89,64.311V38.692H23.877V64.311H11.461V35.845H0v-7.59H11.461V0L57.306,28.255H68.768v7.59H57.306V64.311Z" transform="translate(376.072 58.739)"/><path class="d" d="M44.89,64.311V38.692H23.877V64.311H11.461V35.845H0v-7.59H11.461V0L57.306,28.255H68.768v7.59H57.306V64.311Z" transform="translate(225.644 447.705)"/><path class="d" d="M44.89,64.311V38.692H23.877V64.311H11.461V35.845H0v-7.59H11.461V0L57.306,28.255H68.768v7.59H57.306V64.311Z" transform="translate(225.644 188.394)"/><path class="d" d="M44.89,64.311V38.692H23.877V64.311H11.461V35.845H0v-7.59H11.461V0L57.306,28.255H68.768v7.59H57.306V64.311Z" transform="translate(225.644 318.05)"/><path class="d" d="M44.89,64.311V38.692H23.877V64.311H11.461V35.845H0v-7.59H11.461V0L57.306,28.255H68.768v7.59H57.306V64.311Z" transform="translate(225.644 58.739)"/><path class="d" d="M44.89,64.311V38.692H23.877V64.311H11.461V35.845H0v-7.59H11.461V0L57.306,28.255H68.768v7.59H57.306V64.311Z" transform="translate(526.502 447.705)"/><path class="d" d="M44.89,64.311V38.692H23.877V64.311H11.461V35.845H0v-7.59H11.461V0L57.306,28.255H68.768v7.59H57.306V64.311Z" transform="translate(526.502 188.394)"/><path class="d" d="M44.89,64.311V38.692H23.877V64.311H11.461V35.845H0v-7.59H11.461V0L57.306,28.255H68.768v7.59H57.306V64.311Z" transform="translate(526.502 318.05)"/><path class="d" d="M44.89,64.311V38.692H23.877V64.311H11.461V35.845H0v-7.59H11.461V0L57.306,28.255H68.768v7.59H57.306V64.311Z" transform="translate(526.502 58.739)"/><path class="d" d="M44.89,64.311V38.692H23.877V64.311H11.461V35.845H0v-7.59H11.461V0L57.306,28.255H68.768v7.59H57.306V64.311Z" transform="translate(68.768 453.277) rotate(180)"/><path class="d" d="M44.89,64.311V38.692H23.877V64.311H11.461V35.845H0v-7.59H11.461V0L57.306,28.255H68.768v7.59H57.306V64.311Z" transform="translate(68.768 193.966) rotate(180)"/><path class="d" d="M44.89,64.311V38.692H23.877V64.311H11.461V35.845H0v-7.59H11.461V0L57.306,28.255H68.768v7.59H57.306V64.311Z" transform="translate(68.768 323.622) rotate(180)"/><path class="d" d="M44.89,64.311V38.692H23.877V64.311H11.461V35.845H0v-7.59H11.461V0L57.306,28.255H68.768v7.59H57.306V64.311Z" transform="translate(68.768 64.311) rotate(180)"/><path class="d" d="M44.89,64.311V38.692H23.877V64.311H11.461V35.845H0v-7.59H11.461V0L57.306,28.255H68.768v7.59H57.306V64.311Z" transform="translate(369.626 453.277) rotate(180)"/><path class="d" d="M44.89,64.311V38.692H23.877V64.311H11.461V35.845H0v-7.59H11.461V0L57.306,28.255H68.768v7.59H57.306V64.311Z" transform="translate(369.626 193.966) rotate(180)"/><path class="d" d="M44.89,64.311V38.692H23.877V64.311H11.461V35.845H0v-7.59H11.461V0L57.306,28.255H68.768v7.59H57.306V64.311Z" transform="translate(369.626 323.622) rotate(180)"/><path class="d" d="M44.89,64.311V38.692H23.877V64.311H11.461V35.845H0v-7.59H11.461V0L57.306,28.255H68.768v7.59H57.306V64.311Z" transform="translate(369.626 64.311) rotate(180)"/><path class="d" d="M44.89,64.311V38.692H23.877V64.311H11.461V35.845H0v-7.59H11.461V0L57.306,28.255H68.768v7.59H57.306V64.311Z" transform="translate(219.197 453.277) rotate(180)"/><path class="d" d="M44.89,64.311V38.692H23.877V64.311H11.461V35.845H0v-7.59H11.461V0L57.306,28.255H68.768v7.59H57.306V64.311Z" transform="translate(219.197 193.966) rotate(180)"/><path class="d" d="M44.89,64.311V38.692H23.877V64.311H11.461V35.845H0v-7.59H11.461V0L57.306,28.255H68.768v7.59H57.306V64.311Z" transform="translate(219.197 323.622) rotate(180)"/><path class="d" d="M44.89,64.311V38.692H23.877V64.311H11.461V35.845H0v-7.59H11.461V0L57.306,28.255H68.768v7.59H57.306V64.311Z" transform="translate(219.197 64.311) rotate(180)"/><path class="d" d="M44.89,64.311V38.692H23.877V64.311H11.461V35.845H0v-7.59H11.461V0L57.306,28.255H68.768v7.59H57.306V64.311Z" transform="translate(520.055 453.277) rotate(180)"/><path class="d" d="M44.89,64.311V38.692H23.877V64.311H11.461V35.845H0v-7.59H11.461V0L57.306,28.255H68.768v7.59H57.306V64.311Z" transform="translate(520.055 193.966) rotate(180)"/><path class="d" d="M44.89,64.311V38.692H23.877V64.311H11.461V35.845H0v-7.59H11.461V0L57.306,28.255H68.768v7.59H57.306V64.311Z" transform="translate(520.055 323.622) rotate(180)"/><path class="d" d="M44.89,64.311V38.692H23.877V64.311H11.461V35.845H0v-7.59H11.461V0L57.306,28.255H68.768v7.59H57.306V64.311Z" transform="translate(520.055 64.311) rotate(180)"/><path class="d" d="M44.89,64.311V38.692H23.877V64.311H11.461V35.845H0v-7.59H11.461V0L57.306,28.255H68.768v7.59H57.306V64.311Z" transform="translate(143.982 453.277) rotate(180)"/><path class="d" d="M44.89,64.311V38.692H23.877V64.311H11.461V35.845H0v-7.59H11.461V0L57.306,28.255H68.768v7.59H57.306V64.311Z" transform="translate(143.982 193.966) rotate(180)"/><path class="d" d="M44.89,64.311V38.692H23.877V64.311H11.461V35.845H0v-7.59H11.461V0L57.306,28.255H68.768v7.59H57.306V64.311Z" transform="translate(143.982 323.622) rotate(180)"/><path class="d" d="M44.89,64.311V38.692H23.877V64.311H11.461V35.845H0v-7.59H11.461V0L57.306,28.255H68.768v7.59H57.306V64.311Z" transform="translate(143.982 64.311) rotate(180)"/><path class="d" d="M44.89,64.311V38.692H23.877V64.311H11.461V35.845H0v-7.59H11.461V0L57.306,28.255H68.768v7.59H57.306V64.311Z" transform="translate(444.84 453.277) rotate(180)"/><path class="d" d="M44.89,64.311V38.692H23.877V64.311H11.461V35.845H0v-7.59H11.461V0L57.306,28.255H68.768v7.59H57.306V64.311Z" transform="translate(444.84 193.966) rotate(180)"/><path class="d" d="M44.89,64.311V38.692H23.877V64.311H11.461V35.845H0v-7.59H11.461V0L57.306,28.255H68.768v7.59H57.306V64.311Z" transform="translate(444.84 323.622) rotate(180)"/><path class="d" d="M44.89,64.311V38.692H23.877V64.311H11.461V35.845H0v-7.59H11.461V0L57.306,28.255H68.768v7.59H57.306V64.311Z" transform="translate(444.84 64.311) rotate(180)"/><path class="d" d="M44.89,64.311V38.692H23.877V64.311H11.461V35.845H0v-7.59H11.461V0L57.306,28.255H68.768v7.59H57.306V64.311Z" transform="translate(294.411 453.277) rotate(180)"/><path class="d" d="M44.89,64.311V38.692H23.877V64.311H11.461V35.845H0v-7.59H11.461V0L57.306,28.255H68.768v7.59H57.306V64.311Z" transform="translate(294.411 193.966) rotate(180)"/><path class="d" d="M44.89,64.311V38.692H23.877V64.311H11.461V35.845H0v-7.59H11.461V0L57.306,28.255H68.768v7.59H57.306V64.311Z" transform="translate(294.411 323.622) rotate(180)"/><path class="d" d="M44.89,64.311V38.692H23.877V64.311H11.461V35.845H0v-7.59H11.461V0L57.306,28.255H68.768v7.59H57.306V64.311Z" transform="translate(294.411 64.311) rotate(180)"/><path class="d" d="M44.89,64.311V38.692H23.877V64.311H11.461V35.845H0v-7.59H11.461V0L57.306,28.255H68.768v7.59H57.306V64.311Z" transform="translate(595.269 453.277) rotate(180)"/><path class="d" d="M44.89,64.311V38.692H23.877V64.311H11.461V35.845H0v-7.59H11.461V0L57.306,28.255H68.768v7.59H57.306V64.311Z" transform="translate(595.269 193.966) rotate(180)"/><path class="d" d="M44.89,64.311V38.692H23.877V64.311H11.461V35.845H0v-7.59H11.461V0L57.306,28.255H68.768v7.59H57.306V64.311Z" transform="translate(595.269 323.622) rotate(180)"/><path class="d" d="M44.89,64.311V38.692H23.877V64.311H11.461V35.845H0v-7.59H11.461V0L57.306,28.255H68.768v7.59H57.306V64.311Z" transform="translate(595.269 64.311) rotate(180)"/></g></g></g></g></svg>