<svg xmlns="http://www.w3.org/2000/svg" width="225.707" height="166.36" viewBox="0 0 225.707 166.36"><defs><style>.a{opacity:0.5;}.b{fill:#ebebeb;}.c{fill:#2e2e5e;}.d{fill:#08083d;}.e,.j{fill:#dcb7af;}.e{opacity:0.7;}.f{fill:#9ae5ad;}.g{fill:#f0e1d9;}.h{fill:#96aee9;}.i{fill:#f0f3fe;}.k{fill:#56225e;}.l{fill:#277548;}.m{fill:#23ce6b;}</style></defs><g transform="translate(0 0)"><g transform="translate(0 28.192)"><g class="a" transform="translate(19.782 26.583)"><path class="b" d="M105.316,332.605c40.209,21.463,105.4,21.463,145.61,0s40.21-56.261,0-77.724-105.4-21.463-145.611,0S65.106,311.143,105.316,332.605Z" transform="translate(-75.159 -238.785)"/></g><path class="c" d="M295.568,180.291c7.078,4.084,7.146,10.754.068,14.838L162.573,272.448c-7.079,4.084-18.513,4.084-25.592,0L83.893,241.82c-7.078-4.084-7.147-10.754-.068-14.838l133.063-77.319c7.079-4.084,18.513-4.084,25.592,0Zm-21.1,24.026,11.094-6.466-73.44-42.4L93.966,224.124l73.44,42.4,107.063-62.209M113.7,255.228a15.425,15.425,0,0,0,13.817,0c3.811-2.178,3.743-5.785-.068-7.963a15.425,15.425,0,0,0-13.817,0c-3.811,2.178-3.743,5.785.068,7.963m136.942-89.435a1.875,1.875,0,0,0-1.7,0,.543.543,0,0,0,0,1.021l17.084,9.869a1.875,1.875,0,0,0,1.7,0,.543.543,0,0,0,0-1.021l-17.084-9.869m-6.058-4.288a3.46,3.46,0,0,0-3.063,0,.945.945,0,0,0,0,1.77,3.459,3.459,0,0,0,3.063,0c.885-.476.885-1.293,0-1.77m18.853,6.6a2.168,2.168,0,0,0-1.838,0c-.476.272-.476.749,0,1.089a2.168,2.168,0,0,0,1.838,0c.544-.34.544-.817,0-1.089" transform="translate(-78.38 -146.6)"/><path class="d" d="M300.865,207v.817a.41.41,0,0,1-.068.272.514.514,0,0,1-.068.272c0,.068-.068.2-.068.272s-.068.136-.068.272c0,.068-.068.2-.068.272s-.068.136-.068.2c-.068.068-.068.2-.136.272,0,.068-.068.136-.136.2s-.068.2-.136.272-.068.136-.136.2c-.068.136-.136.2-.2.34-.068.068-.068.136-.136.2a1.194,1.194,0,0,1-.272.34l-.136.136a3.4,3.4,0,0,1-.477.544l-.136.136-.408.408-.2.2c-.068.068-.2.136-.272.2a.939.939,0,0,1-.272.2c-.068.068-.2.136-.272.2s-.2.136-.272.2a1.483,1.483,0,0,1-.34.2c-.068.068-.2.136-.272.2-.136.068-.2.136-.34.2s-.272.2-.408.272L162.494,291.738l-1.225.613c-.136.068-.2.136-.34.136a8.322,8.322,0,0,1-1.157.476.238.238,0,0,0-.136.068c-.408.136-.885.34-1.293.476-.272.068-.613.2-.953.272-.2.068-.476.136-.681.2l-1.021.2a2.9,2.9,0,0,1-.749.136.409.409,0,0,0-.272.068l-1.225.2a.509.509,0,0,0-.34.068c-.272,0-.476.068-.749.068-.408,0-.817.068-1.225.068h-2.654a4.49,4.49,0,0,1-.953-.068c-.272,0-.544-.068-.817-.068s-.613-.068-.885-.068c-.272-.068-.544-.068-.817-.136a4.6,4.6,0,0,0-.953-.136c-.272-.068-.476-.068-.749-.136-.408-.068-.749-.2-1.157-.272-.272-.068-.476-.136-.749-.2-.136-.068-.272-.068-.408-.136-.34-.136-.749-.272-1.089-.408-.136-.068-.2-.068-.34-.136-.34-.136-.613-.272-.953-.408-.136-.068-.34-.136-.476-.2-.477-.2-.885-.477-1.361-.681L83.677,261.11c-3.539-2.042-5.377-4.764-5.377-7.487v9.256c0,2.723,1.77,5.377,5.377,7.487l53.089,30.628a8.477,8.477,0,0,0,1.361.68c.136.068.34.136.476.2a4.169,4.169,0,0,0,.817.34c.068,0,.068.068.136.068.136.068.2.068.34.136.34.136.749.272,1.089.408.136.068.272.068.408.136.068,0,.136.068.272.068.136.068.34.068.476.136.34.068.749.2,1.157.272.068,0,.2.068.272.068.136,0,.272.068.476.068a4.593,4.593,0,0,0,.953.136c.136,0,.272.068.408.068a.862.862,0,0,1,.408.068,3.885,3.885,0,0,0,.885.068c.136,0,.272.068.408.068h.408c.272,0,.613.068.885.068h2.586c.408,0,.817-.068,1.225-.068h.681a.51.51,0,0,0,.34-.068l1.225-.2a.409.409,0,0,0,.272-.068h.136c.2-.068.408-.068.613-.136l1.021-.2c.272-.068.476-.136.681-.2a5.018,5.018,0,0,0,.953-.272c.068,0,.136-.068.2-.068.34-.136.749-.272,1.089-.408a.238.238,0,0,0,.136-.068c.408-.136.749-.34,1.157-.476.136-.068.2-.136.34-.136l1.225-.613,133.063-77.319c.068-.068.136-.068.2-.136s.136-.068.2-.136c.136-.068.2-.136.34-.2.068-.068.2-.136.272-.2a.941.941,0,0,0,.272-.2c.068-.068.2-.136.272-.2s.2-.136.272-.2a.94.94,0,0,1,.272-.2c.068-.068.2-.136.272-.2.068,0,.068-.068.136-.068l.068-.068.408-.408.136-.136c.136-.2.34-.34.477-.544h0c0-.068.068-.068.068-.136.068-.136.2-.2.272-.34.068-.068.068-.136.136-.2.068-.136.136-.2.2-.34l.068-.068c0-.068.068-.068.068-.136.068-.068.068-.2.136-.272s.068-.136.136-.2.068-.2.136-.272c0-.068.068-.068.068-.136s0-.068.068-.136c0-.068.068-.2.068-.272s.068-.136.068-.272c0-.068.068-.2.068-.272s0-.068.068-.136v-.068a.409.409,0,0,1,.068-.272v-.749h0Z" transform="translate(-78.3 -165.89)"/><path class="e" d="M301.963,202.071l-11.094,6.4L129.9,216.909,228.523,159.6Z" transform="translate(-94.78 -150.752)"/><path class="d" d="M142.386,294.282c3.471,2.042,3.539,5.309.068,7.283a13.707,13.707,0,0,1-12.592,0c-3.471-2.042-3.539-5.309-.068-7.283A13.707,13.707,0,0,1,142.386,294.282Z" transform="translate(-93.925 -193.276)"/><path class="f" d="M315.118,183.284,299.6,192.337l.136-18.037Z" transform="translate(-148.977 -155.447)"/><path class="f" d="M259.017,185.3l-20.351,11.911-11.366-6.6L247.719,178.7Z" transform="translate(-125.886 -156.852)"/><path class="g" d="M315.882,183.776,292.4,197.525l.34-27.225,4.7,2.723-.136,18.037,15.518-9.052Z" transform="translate(-146.678 -154.169)"/><path class="h" d="M330.169,211.412l-11.366,6.6-6.6-3.811,11.366-6.6Z" transform="translate(-153.001 -166.082)"/><path class="h" d="M253.38,208.776l-10.686,6.194-6.806,4.016-9.6-5.581L210.5,204.216l6.738-4.016,15.859,9.257,10.686-6.262Z" transform="translate(-120.521 -163.718)"/><path class="g" d="M254.963,197.815l-24.3,14.225L195,191.349,249.11,159.7l6.33,3.675Zm-17.22,4.22,10.686-6.262-9.6-5.581-10.686,6.262-15.859-9.188-6.806,3.948L221.34,200.4l9.6,5.581,6.806-3.948m-.34-29.4-20.419,11.911,11.366,6.6,20.419-11.911-11.366-6.6" transform="translate(-115.571 -150.784)"/><path class="h" d="M345.674,215.088l-28.042,16.4-7.487,4.356-7.283-4.22L286.8,222.3l7.487-4.424L310.35,227.2l28.042-16.4Z" transform="translate(-144.889 -167.104)"/><path class="g" d="M147.7,243.283a8.984,8.984,0,0,0-3.131-1.089L129.6,233.482,169.689,210l35.665,20.691-39.476,23.141ZM139.2,233.89l8.44,4.9,17.016,9.869,7.963-4.628L155.6,234.162l15.586-9.12,17.016,9.869,7.963-4.628-17.016-9.869-8.44-4.9-7.963,4.628-15.586,9.12L139.2,233.89m40.361,2.859-7.691-4.492-3.88,2.246,7.691,4.492,3.88-2.246" transform="translate(-94.684 -166.848)"/><path class="f" d="M197.571,247.192l-3.88,2.246L186,245.014l3.88-2.314Z" transform="translate(-112.696 -177.292)"/><path class="i" d="M123.2,246.986l4.424-2.586,14.974,8.712a12.117,12.117,0,0,0-7.351.885Z" transform="translate(-92.64 -177.835)"/><path class="g" d="M335.2,209.691l5.717,3.335-54.11,31.649L254,225.549,308.11,193.9l19.874,11.571-28.042,16.4-16.063-9.325-7.487,4.356,16.063,9.325,7.283,4.22,7.487-4.356ZM285.99,238.413l7.487-4.356-23.345-13.544-7.487,4.356,23.346,13.545m18.989-35.188-11.3,6.6,6.6,3.812,11.3-6.6-6.6-3.811" transform="translate(-134.414 -161.706)"/><path class="h" d="M297.533,246.544l-7.487,4.356L266.7,237.356,274.187,233Z" transform="translate(-138.47 -174.194)"/><path class="h" d="M200.6,232.87l-7.963,4.628-17.016-9.869-15.586,9.12,17.016,9.869-7.9,4.628-17.016-9.869-8.44-4.9,7.963-4.628,15.586-9.12,7.963-4.628,8.372,4.9Z" transform="translate(-99.187 -169.435)"/><path class="h" d="M283.625,273.776l-7.963,4.628h0L269.4,274.8l7.9-4.7,6.262,3.675Z" transform="translate(-139.332 -186.042)"/><path class="g" d="M259.3,272.848,274.41,264l9.665,5.649-3.743,2.178-6.262-3.675-7.9,4.7,6.262,3.607-3.471,2.042Z" transform="translate(-136.106 -184.094)"/><path class="h" d="M222.62,275.938l-10.414,6.126L200.5,275.326l10.482-6.126Z" transform="translate(-117.327 -185.755)"/><path class="i" d="M259.675,238.031l-9.665-5.649L234.9,241.23l9.665,5.649-4.424,2.586L207.267,230.34l-19.942,11.707-4.424-2.586,39.476-23.141-35.6-20.691,4.424-2.587,35.6,20.691,24.3-14.225L251.575,165l6.194,3.607-.34,27.225,23.482-13.749,4.424,2.586-54.042,31.649L264.1,235.445Z" transform="translate(-111.706 -152.476)"/><path class="i" d="M154.6,288.7l8.3-4.9,4.492,2.586-8.372,4.9Z" transform="translate(-102.668 -190.418)"/><path class="g" d="M189.4,272.707,209.342,261l32.874,19.126-5.717,3.335-13-7.555-16.539,9.665c.408-1.361-.34-2.859-2.178-3.948Zm18.037-6.126-10.414,6.126,11.639,6.806,10.414-6.126-11.639-6.806" transform="translate(-113.782 -183.136)"/><path class="g" d="M184.786,296.516a11.8,11.8,0,0,0,6.806,1.293l-10.618,6.262L161.1,292.5l8.372-4.9Z" transform="translate(-104.744 -191.632)"/><path class="f" d="M236.755,290.423l-33.487,19.6L190.2,302.47l10.618-6.262a9.6,9.6,0,0,0,4.22-1.294,4.191,4.191,0,0,0,2.11-2.45l16.539-9.665Z" transform="translate(-114.038 -190.099)"/><path class="j" d="M254.821,257.1l-7.963,4.628-10.958-6.4,7.9-4.628Z" transform="translate(-128.633 -179.847)"/><path class="h" d="M243.917,263.938,225.2,253.048l15.178-8.848L259.1,255.09Z" transform="translate(-125.216 -177.771)"/><path class="g" d="M259.1,255.09l-15.178,8.848L225.2,253.048l15.178-8.848Zm-15.654,4.56,7.963-4.628-11.026-6.4-7.963,4.628,11.026,6.4" transform="translate(-125.216 -177.771)"/><path class="g" d="M128.064,261.913l18.173,10.55-8.372,4.9L102.2,256.672l14.293-8.372,11.979,7.01a1.706,1.706,0,0,0-.476.272C125,257.284,125,260.143,128.064,261.913Z" transform="translate(-85.933 -179.08)"/><path class="k" d="M224.41,256.865c1.633.953,1.633,2.45,0,3.4a6.211,6.211,0,0,1-5.785,0c-1.633-.953-1.633-2.45,0-3.4A6.21,6.21,0,0,1,224.41,256.865Z" transform="translate(-122.725 -181.587)"/><path class="i" d="M223.975,258.132a.945.945,0,0,1,0,1.77,3.459,3.459,0,0,1-3.063,0,.945.945,0,0,1,0-1.77A3.459,3.459,0,0,1,223.975,258.132Z" transform="translate(-123.651 -182.106)"/></g><g transform="translate(70.692 0)"><path class="l" d="M203.971,203.821a55.1,55.1,0,0,1,8.053-13.6,48.252,48.252,0,0,1,12.542-11.09,32.176,32.176,0,0,1,3.7-1.848c5.545-2.244,10.166-1.98,13.466,0l6.469,3.7c-3.433-1.98-7.921-2.244-13.466,0a24.128,24.128,0,0,0-3.7,1.848,46.207,46.207,0,0,0-12.542,11.09,55.1,55.1,0,0,0-8.053,13.6,40.509,40.509,0,0,0-3.565,16.107,27.343,27.343,0,0,0,.924,7.393,24.228,24.228,0,0,0,2.508,4.885,45.946,45.946,0,0,0,5.941,7.921c4.753,5.413,9.242,11.09,12.278,19.407a1.353,1.353,0,0,0,.66.792l-6.469-3.7a1.352,1.352,0,0,1-.66-.792c-3.036-8.317-7.525-13.994-12.278-19.407a51.689,51.689,0,0,1-5.941-7.921,33.7,33.7,0,0,1-2.508-4.885,20.579,20.579,0,0,1-.924-7.393A44.97,44.97,0,0,1,203.971,203.821Z" transform="translate(-200.381 -175.699)"/><path class="m" d="M208.9,206.61a55.1,55.1,0,0,1,8.053-13.6,48.248,48.248,0,0,1,12.542-11.09,32.19,32.19,0,0,1,3.7-1.848c7.657-3.036,13.334-1.32,16.767,2.9,2.112,2.508,3.565,6.337,3.7,11.882.132,5.809-1.452,11.222-3.433,16.239-.924,2.508-1.848,5.017-2.9,7.393-3.037,7.393-6.337,14.522-9.11,22.048a184.969,184.969,0,0,0-6.073,18.879,6.158,6.158,0,0,1-2.64,3.7,1.645,1.645,0,0,1-2.641-.66c-3.036-8.317-7.525-13.995-12.278-19.407a51.679,51.679,0,0,1-5.941-7.921,33.7,33.7,0,0,1-2.509-4.885,20.58,20.58,0,0,1-.924-7.393A46.412,46.412,0,0,1,208.9,206.61Zm20.6,12.806c5.677-3.3,10.166-11.09,10.166-17.559s-4.621-8.978-10.166-5.809-10.166,11.09-10.166,17.559c0,6.337,4.621,8.977,10.166,5.809" transform="translate(-198.844 -174.791)"/><path class="i" d="M227.33,188.771c-7.525,4.357-13.73,15.051-13.73,23.764s6.205,12.278,13.73,7.921c7.657-4.357,13.73-15.051,13.73-23.764C241.193,187.847,234.988,184.282,227.33,188.771Z" transform="translate(-196.148 -172.135)"/></g></g></svg>