<svg xmlns="http://www.w3.org/2000/svg" xmlns:xlink="http://www.w3.org/1999/xlink" width="220" height="220" viewBox="0 0 220 220"><defs><style>.a{fill:none;}.b{fill:#ebebeb;}.c{fill:#23ce6b;}.d{opacity:0.1;}.e{fill:#fff;}.f{fill:#a5a5a5;}.g{fill:#0a2b38;}.h{fill:#6a707c;}.i{fill:#04385b;}.j{fill:#003451;}.k{fill:#084476;}.l{fill:#013e68;}.m{fill:#0a507f;}.n{fill:#dcfffe;}.o{fill:#b8e8e5;}.p{fill:#030e16;}.q{fill:#eb9e9d;}.r{fill:#fcb7ac;}.s{fill:#ffa8a7;}.t{fill:#280f0a;}.u{fill:#140705;}.v{fill:#1e160d;}.w{fill:#2b333a;}.x{fill:#343f49;}.y{fill:#2c363d;}.z{isolation:isolate;}.aa{fill:#231f20;}.ab{fill:#2b2b2b;}.ac{fill:#090b0c;}.ad{fill:#1c2123;}.ae{clip-path:url(#a);}.af{fill:#674300;}.ag{clip-path:url(#b);}.ah{clip-path:url(#c);}.ai{fill:#191f21;}.aj{fill:#171b1c;}.ak{fill:#475563;}.al{fill:#a8a8a8;}.am{fill:#ff7e4d;}.an{fill:#6d8ddb;}.ao{fill:#96aee9;}.ap{fill:#ffbdb2;}.aq{fill:#0072bf;}.ar{fill:#414e5c;}.as{fill:#9cdafd;}.at{fill:#3b4a56;}.au{fill:#ffd8a6;}.av{fill:#f8c8c1;}.aw{fill:#febdb2;}.ax{fill:#332a21;}.ay{fill:#1b2123;}.az{fill:#141718;}.ba{fill:#111515;}.bb{clip-path:url(#d);}.bc{fill:#0c0e0f;}.bd{clip-path:url(#e);}.be{fill:#121616;}.bf{fill:#121516;}.bg{fill:#111415;}.bh{fill:#111314;}.bi{fill:#101314;}.bj{fill:#101213;}.bk{fill:#0f1212;}.bl{fill:#0f1112;}.bm{fill:#0e1111;}.bn{fill:#0e1011;}.bo{fill:#0d1010;}.bp{fill:#0d0f10;}.bq{fill:#0c0f0f;}</style><clipPath id="a"><path class="a" d="M111.7,422.435l-.009,3.614a1.7,1.7,0,0,1-.019.258l.011-3.612A2.03,2.03,0,0,0,111.7,422.435Z" transform="translate(-111.674 -422.435)"/></clipPath><clipPath id="b"><path class="a" d="M111.566,423.828l-.011,3.612a7.745,7.745,0,0,1-2.056.632l.011-3.614A7.763,7.763,0,0,0,111.566,423.828Z" transform="translate(-109.499 -423.828)"/></clipPath><clipPath id="c"><path class="a" d="M122.493,425.764l-.009,3.612a.873.873,0,0,1-.233.569,3.105,3.105,0,0,1-2.971.576l.011-3.612a3.107,3.107,0,0,0,2.969-.578A.856.856,0,0,0,122.493,425.764Z" transform="translate(-119.279 -425.764)"/></clipPath><clipPath id="d"><path class="a" d="M97.68,401.976l2.9-1.686a.234.234,0,0,0-.087.074l-2.9,1.686A.332.332,0,0,1,97.68,401.976Z" transform="translate(-97.591 -400.29)"/></clipPath><clipPath id="e"><path class="a" d="M111.014,414.2l-2.9,1.687c-.426.246-.717.215-.817.157-.28-.165-1.563-.906-3.151-1.823l2.9-1.687c1.587.917,2.871,1.66,3.151,1.824C110.3,414.417,110.588,414.446,111.014,414.2Z" transform="translate(-104.144 -412.535)"/></clipPath></defs><g transform="translate(0)"><g transform="translate(15.573 110.083)"><path class="b" d="M104.547,332.605c39.183,21.463,102.712,21.463,141.9,0s39.184-56.261,0-77.724-102.712-21.463-141.9,0S65.363,311.143,104.547,332.605Z" transform="translate(-75.159 -238.785)"/></g><g transform="translate(0 53.922)"><g transform="translate(0 0)"><g transform="translate(187.849 40.304)"><path class="c" d="M400.58,273.495l-6.226-3.594s-1.525-13.333-.51-23.66c1.426-14.51,10.8-31.969,21.975-27.869s-5.126,18.878-8.755,31.184S400.58,273.495,400.58,273.495Z" transform="translate(-393.495 -217.764)"/><path class="d" d="M400.58,273.495l-6.226-3.594s-1.525-13.333-.51-23.66c1.426-14.51,10.8-31.969,21.975-27.869s-5.126,18.878-8.755,31.184S400.58,273.495,400.58,273.495Z" transform="translate(-393.495 -217.764)"/><g transform="translate(3.174 3.612)"><path class="e" d="M399.427,274.241a.24.24,0,0,1-.238-.209c-2.117-16.262,3.676-40.889,15.373-50.225a.24.24,0,1,1,.3.376c-11.572,9.237-17.3,33.653-15.2,49.788a.239.239,0,0,1-.207.269A.178.178,0,0,1,399.427,274.241Z" transform="translate(-398.759 -223.754)"/></g></g><g transform="translate(193.778 59.543)"><path class="c" d="M407.805,288.732l-4.43-2.558a48.869,48.869,0,0,1,3.732-20.264c3.9-9.676,13.594-17.7,18.468-16.017s4.752,5.143,2.376,8.768S411.12,270.926,407.805,288.732Z" transform="translate(-403.328 -249.667)"/><g transform="translate(1.491 3.364)"><path class="e" d="M406.041,291.186h-.016a.241.241,0,0,1-.224-.255c1.46-22.769,12.979-33.968,19.9-35.678a.24.24,0,1,1,.116.467c-7.288,1.8-18.165,13.927-19.533,35.242A.24.24,0,0,1,406.041,291.186Z" transform="translate(-405.8 -255.246)"/></g></g><g transform="translate(11.949)"><path class="c" d="M87.193,292.82s.826-13.371-6.942-22.533-17.877-9.133-21.228-7.425-5.591,6.586.168,10.078S77.2,283.416,79.233,289.652Z" transform="translate(-55.649 -261.981)"/><path class="d" d="M87.193,292.82s.826-13.371-6.942-22.533-17.877-9.133-21.228-7.425-5.591,6.586.168,10.078S77.2,283.416,79.233,289.652Z" transform="translate(-55.649 -261.981)"/><g transform="translate(5.082 2.703)"><path class="e" d="M86.91,291.253a.3.3,0,0,1-.3-.27c-1.6-14.794-16.385-22.994-22.28-23.921a.3.3,0,0,1-.25-.345.306.306,0,0,1,.345-.251c6.029.948,21.147,9.331,22.785,24.452a.3.3,0,0,1-.267.332Z" transform="translate(-64.077 -266.464)"/></g></g><g transform="translate(0 17.023)"><path class="c" d="M72.822,297.286c-1.947-4.438-4.15-6.43-10.483-5.37s-5.4.9-13.178-1.085a15.513,15.513,0,0,0-10.073.446c-2.647,1.191-4.627,3.62-2.063,6.187,2.881,2.884,7.183,3.853,10.383,6.379a5.023,5.023,0,0,1,1.666,2.007c.836,2.134-.838,4.54-.351,6.78.471,2.164,2.84,3.428,5.05,3.574s4.384-.519,6.585-.771,4.674.017,6.189,1.632c1.629,1.736,1.672,4.5,3.185,6.339,2.272,2.761,7.854,3.524,10.85,1.8l7.893-4.55c5.219-7.033-2.986-12.6-7.325-18.061C79.047,299.946,73.992,299.952,72.822,297.286Z" transform="translate(-35.833 -290.21)"/><g transform="translate(5.019 2.877)"><path class="e" d="M86.879,318.311a.3.3,0,0,1-.257-.143c-9-14.589-33.492-21.967-42.186-22.585a.3.3,0,0,1-.28-.322.309.309,0,0,1,.322-.28c8.785.625,33.537,8.094,42.657,22.87a.3.3,0,0,1-.256.46Z" transform="translate(-44.156 -294.98)"/></g><g transform="translate(18.919 12.957)"><path class="e" d="M67.508,318.071a.3.3,0,0,1-.18-.543c.314-.234,7.79-5.722,15.057-5.832h0a.3.3,0,0,1,0,.6c-7.074.107-14.632,5.657-14.707,5.713A.3.3,0,0,1,67.508,318.071Z" transform="translate(-67.206 -311.696)"/></g></g></g></g><path d="M62.509,336.138a14.732,14.732,0,0,0-9.761,11.491c-.667,3.808-8.368,37.513,1.447,43.315s25.152-6.251,25.905-11.332C81.679,369.019,78.156,327.847,62.509,336.138Z" transform="translate(-1.943 -315.267)"/><path class="f" d="M84.356,463.026h0V400.961H80.418v62.065h0c0,.622.878,1.126,1.965,1.132s1.973-.5,1.973-1.121Z" transform="translate(23.415 -251.073)"/><path class="f" d="M39.5,430.48h0V379.443H35.364V430.48h0c0,.652.922,1.184,2.062,1.186s2.069-.524,2.071-1.174Z" transform="translate(-12.457 -272.309)"/><path d="M133.955,431.624h0V375.158h-3.94v56.466h0c0,.617.88,1.128,1.965,1.132s1.973-.5,1.974-1.122Z" transform="translate(62.955 -276.195)"/><g transform="translate(49.809 55.526)"><g transform="translate(7.653)"><path class="g" d="M58.647,356.1V372.66l-3.77-2.18V353.926Z" transform="translate(-54.877 -351.735)"/><path d="M60.684,353.918v16.558l-3.772,2.176V356.094Z" transform="translate(-53.142 -351.742)"/><path class="g" d="M58.647,360.715v16.558l-3.77-2.18V358.535Z" transform="translate(-54.877 -347.807)"/><path d="M60.684,358.529v16.558l-3.772,2.176V360.709Z" transform="translate(-53.142 -347.812)"/><path class="h" d="M58.647,357.1l-3.77-2.176,3.77-2.176,3.772,2.176Z" transform="translate(-54.877 -352.743)"/></g><g transform="translate(14.247 44.996)"><g transform="translate(0 17.317)"><path class="g" d="M58.774,388.016l2.388-1.378a.82.82,0,0,1,.133-.094c.928-.537,2.441.335,3.382,1.952s.952,3.362.028,3.9l-2.586,1.463-1.815-3.14.026-.017Z" transform="translate(-58.149 -386.385)"/><path d="M62.529,393.157c-.922.541-2.438-.333-3.379-1.95s-.954-3.364-.028-3.9,2.438.333,3.378,1.95S63.459,392.622,62.529,393.157Z" transform="translate(-58.436 -385.738)"/></g><g transform="translate(24.99 2.804)"><path class="g" d="M72.267,380.178l2.384-1.378a1.327,1.327,0,0,1,.135-.091c.928-.541,2.441.335,3.384,1.952s.956,3.364.028,3.9c-.069.037-2.586,1.465-2.586,1.465L73.8,382.888l.026-.017Z" transform="translate(-71.639 -378.55)"/><path d="M76.025,385.323c-.928.537-2.443-.333-3.38-1.951s-.958-3.367-.03-3.9,2.439.333,3.38,1.952S76.947,384.786,76.025,385.323Z" transform="translate(-71.928 -377.903)"/></g><g transform="translate(0.138 3.205)"><path class="g" d="M58.849,380.4l2.388-1.378a.741.741,0,0,1,.137-.094c.926-.534,2.436.335,3.378,1.952s.954,3.364.026,3.9l-2.586,1.465L60.379,383.1l.028-.013Z" transform="translate(-58.223 -378.766)"/><path d="M62.6,385.537c-.924.545-2.438-.333-3.377-1.949s-.958-3.366-.03-3.9,2.441.337,3.38,1.95S63.534,385,62.6,385.537Z" transform="translate(-58.511 -378.119)"/></g><g transform="translate(24.976 17.082)"><path class="g" d="M72.261,387.889l2.38-1.378a.976.976,0,0,1,.139-.094c.924-.537,2.441.335,3.378,1.952s.956,3.365.03,3.9L75.6,393.739l-1.812-3.14.028-.018Z" transform="translate(-71.63 -386.258)"/><path d="M76.015,393.031c-.926.539-2.439-.333-3.38-1.952s-.954-3.364-.028-3.9,2.439.337,3.382,1.952S76.943,392.494,76.015,393.031Z" transform="translate(-71.92 -385.612)"/></g><g transform="translate(1.256)"><g transform="translate(0 1.349)"><path d="M59.114,394.7v-2.243l30.117-14.69v2.241L61.449,396.045Z" transform="translate(-59.114 -377.765)"/><path d="M89.328,394.7v-2.243l-30.115-14.69v2.241l27.781,16.039Z" transform="translate(-59.031 -377.765)"/></g><path class="g" d="M59.114,393.075l27.78-16.039,2.337,1.349L61.449,394.424Z" transform="translate(-59.114 -377.036)"/><path class="g" d="M89.328,393.075,61.547,377.036l-2.334,1.349,27.781,16.039Z" transform="translate(-59.031 -377.036)"/></g></g><path d="M66.291,392.88h0V370.323h4.2V392.88h0c0,.659-.935,1.2-2.093,1.206s-2.1-.528-2.1-1.191Z" transform="translate(-37.498 -337.761)"/><path d="M102.232,372.125s7.057,4.3,1.389,8.668c-5.546,4.275-20.377,15.118-29.482,12.427S52.54,381.759,51.366,380.4s-1.054-3.466,3.686-6.955c3.4-2.5,19.949-11.615,20.9-11.954s4.016-2.138,10.267,1.139c5.888,3.1,17.989,10.965,17.989,10.965Z" transform="translate(-50.745 -345.965)"/></g><g transform="translate(52.142 0)"><g transform="translate(0 15.747)"><path class="i" d="M67.881,349c4.355,7.679,10.632,11.454,11.527,18.193.152,1.161,6.935-7.276,5.453-9.695-3.458-5.657-5.5-9.939-8.218-14.74-4.353-7.678-7-7.959-9.715-6.422S63.527,341.319,67.881,349Z" transform="translate(-41.108 -330.548)"/><path class="j" d="M76.63,352.854c-.615-2.478-5.779-8.216-5.779-8.216l-3.188.126c4,5.509,8.517,9.08,9.265,14.716.044.35.695-.178,1.534-1.139C77.752,356.214,76.924,354.039,76.63,352.854Z" transform="translate(-38.629 -322.838)"/><path class="k" d="M66.089,339.55c-.7.15-8.118,3.879-11.415,7.616-2.415,2.745-2.717,9.226-2.684,10.082.1,2.765,3.9,19.6,4.492,23.349s.135,7.881.135,10.411c0,2.35-.724,9.367-.511,10.5.711,3.771,10.549,3.019,12.438,2.908,6.085-.363,13.734-4.968,13.1-7.942-1.815-8.544-1.147-33.383-.363-36.421s6.718-18.639,2.03-22.786a8.432,8.432,0,0,0-5.064-1.676C73.067,335.845,66.958,339.368,66.089,339.55Z" transform="translate(-51.988 -330.548)"/><path class="j" d="M54.674,342.784c-2.415,2.745-2.717,9.226-2.684,10.082.1,2.765,3.9,19.6,4.492,23.349s.135,7.881.135,10.411c0,.793-.083,2.117-.183,3.566a7.475,7.475,0,0,0,3.23-.293c1.984-1.326-2.28-25.517-4.008-32.842-3.667-15.555.519-14.11,1.206-16.326A18.676,18.676,0,0,0,54.674,342.784Z" transform="translate(-51.988 -326.166)"/><path class="l" d="M65.707,335.845c-.532.12-7.252,1.81-9.372,6.461-1.828,4.014.8,9.483.411,9.6s4.545.248,5.677,1a5.94,5.94,0,0,0-2.447,1.865c-.572,1.071,15.826,10.206,15.833,13.1,0,0,4.777-14.557,4.223-17.165-.143-.663-3.1-1.167-3.1-1.167.2-1.008,2.087-2.536,2.087-2.536C79,345.708,71.753,334.452,65.707,335.845Z" transform="translate(-48.84 -330.433)"/><path class="m" d="M66.462,335.09c-.533.122-7.252,1.81-9.372,6.461-1.828,4.014.8,9.485.411,9.6s4.545.248,5.677,1a5.951,5.951,0,0,0-2.447,1.867c-.572,1.069,14.427,11.6,14.435,14.5,0,0,6.175-15.953,5.622-18.563-.144-.663-3.1-1.167-3.1-1.167.2-1.008,2.087-2.536,2.087-2.536C79.759,344.953,72.508,333.7,66.462,335.09Z" transform="translate(-48.197 -331.076)"/><path class="n" d="M72.951,347.441a29.018,29.018,0,0,1,.891,9.806c-.178,3.349-.595,5.633-.972,8.826-.687-6.564-3.869-10.626-8-15.614a54.412,54.412,0,0,0-4.256-4.62,5.836,5.836,0,0,1-1.452-4.54c.346-2.988,2.758-3.091,4.773-3.362,3.143-.426,5.79.661,7.522,4.316C71.458,342.253,72.434,345.7,72.951,347.441Z" transform="translate(-45.901 -328.622)"/><path class="o" d="M65.874,351.624c.809-.906.989-2.821,1.576-3.916.441-.824.343-1.043,1.337-.572a4.959,4.959,0,0,1,1.947,2.367c1.117-1.3.661-4.91.4-6.412a7.86,7.86,0,0,0-3.7-4.727l-.389,1.852a2.793,2.793,0,0,0-.022-.9c-.961-.35-2.167-.932-3.414-1.395-1.943.248-4.121.491-4.451,3.321a5.836,5.836,0,0,0,1.452,4.54c.7.665,1.432,1.417,2.147,2.2.283.193.563.395.835.615a6.717,6.717,0,0,1,1.8,2.451C65.559,351.238,65.716,351.433,65.874,351.624Z" transform="translate(-45.901 -328.563)"/><path class="p" d="M69.581,353.167a40,40,0,0,0-4.134-9.7l-1.367.767s.474,6.44,1.315,7.722l-.067-.109c.721.987,3.323,9.432,3.323,9.432h0a25.919,25.919,0,0,0,.93-8.115Z" transform="translate(-41.682 -323.832)"/><path class="p" d="M63.019,344.26s2.015,2.25,2.645,2,1.417.1,1.273-2.995S63.877,341.844,63.019,344.26Z" transform="translate(-42.586 -325.441)"/><path class="n" d="M68.731,337.932c1.678.872,2.843,4.779,3.128,6.446a13.315,13.315,0,0,1,.167,4.694,4.958,4.958,0,0,0-1.947-2.367c-.995-.47-.9-.252-1.337.572-.615,1.147-.774,3.21-1.689,4.053a8.547,8.547,0,0,0-2.163-3.167c-1.043-.846-2.21-1.421-3.251-2.337-1.378-1.211-3.525-2.608-3.969-4.464-.339-1.424.959-3.223,2.167-4.04,2.3-1.561,6.125.706,8.483,1.563a2.78,2.78,0,0,1,.022.9Z" transform="translate(-47.192 -329.53)"/><path class="q" d="M59.419,332.868c0,2.445.408,3.679.07,6.616a24.712,24.712,0,0,0-.53,3.441c0,2.225,2.415,3.178,3.642,3.808,1.124.585,3.38.661,5.1,2.252a11.388,11.388,0,0,0,.363-4.79c-.213-1.269.05-3.121-.385-4.379-.491-1.384-1.8-2.139-1.8-3.59Z" transform="translate(-46.046 -332.868)"/></g><path class="r" d="M69.592,328.327a16.672,16.672,0,0,0,1.493,3.729,2.509,2.509,0,0,1,.285,1.986,5.352,5.352,0,0,0,.545,3.582,8.961,8.961,0,0,1,.269,4.568c-.13,1.195-.07,2.567-.987,3.44-2.271,2.163-5.473.808-8.228.354-2.725-.45-2.962-4.245-4.136-6.238-2.115-3.6-1.987-9.174,1.965-11.6,1.771-1.078,4.836-1.989,6.909-1.586.719.139,2.313,1.4,1.81,2.243Z" transform="translate(-47.315 -322.575)"/><path class="s" d="M60.291,338.98c-1.671-3.223-6.338-8.463-2.8-10.378.382-.206,6.211-.089,6.692-.259a7.423,7.423,0,0,1,1.348-.144s-3.015,2.152-2.836,2.943c.559,2.441-1.293,6.242-.622,7.031s1.5,2.312,1.154,2.495a.934.934,0,0,0-.265,1.121c.163.313,2.128,3.184,3.677,3.329h0c-.95-.217-1.743-.337-2.649-.537C61.65,344.066,61.219,340.764,60.291,338.98Z" transform="translate(-48.399 -321.101)"/><path class="t" d="M56.7,326.672c2.123-2.667,7.272-2.777,11.7-1.561,2.206.606,3.167,3.358,3.167,3.358.587.708-1.36,2.745-1.882,3.138a9.1,9.1,0,0,1-3.588,1.485,17.136,17.136,0,0,1-2.421.361,11.541,11.541,0,0,0-1.806.08c-1.2.331-.95,1.967-1.008,2.975a15.2,15.2,0,0,0-.141,2.443c.037.406,1.469,4.721.861,4.94-.837.3-4.957-3.2-5.568-5.442C55.615,336.969,52.953,331.388,56.7,326.672Z" transform="translate(-49.654 -324.366)"/><path class="u" d="M61.583,343.787c.42-.15-.133-2.254-.528-3.675a17.561,17.561,0,0,1-3.725-7.089c-.993-4.51,3.075-8.235,3.414-8.537-.113.02-.233.033-.345.059l-.376.085a6.022,6.022,0,0,0-3.319,1.937c-3.751,4.716-1.089,10.3-.689,11.777C56.626,340.583,60.746,344.086,61.583,343.787Z" transform="translate(-49.654 -324.263)"/><path class="s" d="M57.409,335.078c.8,1.326,1.924,2.115,2.51,1.763a2.492,2.492,0,0,0,.22-3.147c-.8-1.324-2.551-2-3.128-1.656S56.6,333.754,57.409,335.078Z" transform="translate(-48.001 -317.905)"/></g><g transform="translate(17.164 51.042)"><path class="v" d="M115.194,414.588c.383.917,1.05,5.418.65,6.19a3.179,3.179,0,0,1-3.408,1.811c-1.873-.213-3.288-2.288-4.634-2.539a51.72,51.72,0,0,1-8.1-3.547c-1.43-.739-3.267-3.269-2.791-4.764a4.128,4.128,0,0,1,3.314-2.08,39.875,39.875,0,0,0,5.507.821,13.954,13.954,0,0,0,2.938.4c.678.031,3.7-.206,3.673.924Z" transform="translate(19.095 -294.721)"/><path class="w" d="M113.4,401.566c-.485-2.856-.182-5.133-.294-8.311-.082-2.347-12.425.424-12.547,6.1,0,0,2.715,22.073,1.222,29.089l-.194,1.173a1.742,1.742,0,0,0,.5,1.8,7.671,7.671,0,0,0,2.817,1.348c2.182.478,5.079.2,6.568-1.458C115.13,427.238,115.039,411.134,113.4,401.566Z" transform="translate(22.177 -309.396)"/><g transform="translate(96.863 90.125)"><path class="v" d="M103.676,420.2c.157.982,1.254,4.6-.357,7.614a2.776,2.776,0,0,1-3.743.949c-.639-.3-2.647-3-3.9-3.564a52.592,52.592,0,0,1-6.307-4.267,8.9,8.9,0,0,1-2.389-2.56c-.624-1.28-1.032-3.221-.217-4.568.591-.974,1.523-1.376,2.206-1,2.4,1.3,4.438,1.5,6.149,2.243a24.024,24.024,0,0,0,3.571,1.456A54.21,54.21,0,0,1,103.676,420.2Z" transform="translate(-86.309 -382.268)"/><path class="x" d="M109.136,406.968c.232-2.88,1.091-5.012,1.763-8.126.5-2.291-11.669-4.757-13.188.715,0,0-2.7,23.016-5.879,29.453l-.478,1.089s-1.187,2.091-.545,3.012a9.715,9.715,0,0,0,2.823,2.841c2,1,6.525,2.193,7.465.17C104.209,429.43,108.364,416.65,109.136,406.968Z" transform="translate(-82.636 -396.253)"/><path class="y" d="M102.121,398.652l-5.17,4.642c-1.021,7.259-2.96,19.295-5.12,23.672l-.478,1.089s-1.187,2.091-.545,3.012a9.715,9.715,0,0,0,2.823,2.841l.039.018c-.683-5.242,1.871-13.881,2.821-16.024C97.711,415.152,102.121,398.652,102.121,398.652Z" transform="translate(-82.636 -394.209)"/></g><g transform="translate(110.924 91.319)"><g transform="translate(0.173 25.716)"><g transform="translate(0 26.225)"><g class="z"><path class="aa" d="M95.936,427.632l.013-.093c0-.035.011-.069.017-.1l.015-.068L96,427.3l.024-.091.017-.052c.011-.035.022-.069.035-.1l.015-.041.056-.143.009-.015c.017-.043.037-.083.057-.124l.02-.037c.019-.041.041-.078.061-.117l.013-.02c.026-.046.054-.089.08-.133l.026-.035c.02-.033.041-.061.063-.093l.035-.046c.019-.028.039-.052.057-.078s.033-.039.052-.059l.048-.054c.028-.033.056-.063.085-.093l.054-.054.043-.041.074-.063.043-.035c.026-.022.054-.043.081-.063l.039-.026c.039-.028.081-.054.122-.078a1.3,1.3,0,0,1,.161-.08c.015-.009.033-.015.048-.022l.091-.032.057-.013.052-.013c.022,0,.046-.007.069-.009l.037-.006c.028,0,.057,0,.083,0h.019a.741.741,0,0,1,.094.011l.022.006a.535.535,0,0,1,.072.022l.02.006a.422.422,0,0,1,.083.041l-.848-.495-.006,0a.694.694,0,0,0-.065-.03l-.013-.006-.022-.007-.033-.013-.035-.007-.024-.006-.013,0a.492.492,0,0,0-.076-.007h-.024c-.02,0-.041,0-.061,0h-.02l-.039,0-.035,0-.032.007-.054.011-.028.007-.028.009-.091.03-.033.011-.019.009c-.052.024-.106.05-.159.08s-.082.05-.122.078l-.039.03-.082.059-.043.039a.734.734,0,0,0-.072.063l-.044.039-.026.026-.028.028c-.03.03-.057.061-.085.091l-.028.03-.02.026-.05.061-.033.039-.024.035-.037.048-.024.033c-.013.02-.026.039-.039.057l-.024.039-.011.013c-.022.037-.046.072-.065.109l-.006.007-.013.022-.043.08-.019.035-.02.039-.017.033-.041.091-.007.015,0,.006c-.017.037-.031.078-.046.115l-.006.02-.017.043-.022.059-.013.045-.015.052-.011.033-.013.057-.017.065-.006.024-.007.048c-.007.031-.013.067-.019.1l-.006.03-.006.063,0,.044c0,.048-.006.1-.006.143a.963.963,0,0,0,.291.765c.026.02.054.039.081.057l.848.491a.893.893,0,0,1-.372-.822c0-.045,0-.093.006-.141Z" transform="translate(-95.08 -424.94)"/><g transform="translate(0.848 0.492)"><path class="ab" d="M96.814,425.381c.706-.408,1.28-.08,1.284.73a2.81,2.81,0,0,1-1.276,2.212c-.708.408-1.282.082-1.284-.733A2.81,2.81,0,0,1,96.814,425.381Z" transform="translate(-95.538 -425.205)"/></g></g><g class="z" transform="translate(1.33 0.832)"><path class="aa" d="M96.656,428.079c0-.03.007-.061.013-.093s.009-.067.017-.1.007-.046.013-.068.011-.044.017-.067.015-.061.024-.091l.017-.052c.009-.035.022-.069.033-.1l.015-.041c.019-.048.037-.094.057-.141l.007-.017c.019-.043.037-.083.059-.126l.019-.035c.02-.039.041-.078.063-.117L97.02,427c.026-.044.054-.087.082-.132l.024-.037c.02-.031.043-.061.065-.091l.035-.048.057-.074.05-.061.048-.056.085-.091c.019-.017.035-.035.056-.054l.043-.039.072-.065.044-.035a.843.843,0,0,1,.08-.061l.039-.028c.041-.03.082-.054.122-.078a1.187,1.187,0,0,1,.161-.08c.017-.009.033-.015.05-.022l.091-.03.057-.017.052-.011.069-.011.037,0c.028,0,.056,0,.081,0h.019a.8.8,0,0,1,.1.013l.022.006c.024.006.048.013.07.02l.022.007a.488.488,0,0,1,.082.041l-.846-.493-.007,0a.35.35,0,0,0-.065-.033l-.011,0-.022-.007-.033-.013-.037-.007-.022,0-.013,0c-.024,0-.052-.007-.076-.009h-.026c-.019,0-.039,0-.059,0l-.02,0-.039,0-.035,0-.033.006-.052.011-.03.006-.028.011-.091.031-.031.011-.019.009q-.078.033-.161.078c-.041.024-.081.052-.12.078l-.041.03-.08.059-.044.037c-.024.02-.048.041-.072.063l-.043.041-.028.026-.026.03c-.03.028-.059.059-.087.091l-.026.028-.022.026-.05.061-.033.039-.024.035-.035.046-.024.035-.039.057-.026.037-.011.017-.067.107,0,.007-.013.022-.043.078-.02.037-.019.039-.019.033-.041.091-.007.015,0,.006c-.017.039-.031.076-.046.115l-.007.02-.015.043-.022.057-.013.044-.017.056-.009.032-.015.057-.017.067,0,.022a.407.407,0,0,0-.009.046c-.006.033-.013.068-.017.1l-.006.03c0,.022,0,.043-.006.063l-.006.046c0,.046-.006.093-.006.141a.962.962,0,0,0,.291.765.78.78,0,0,0,.081.056l.85.495a.9.9,0,0,1-.374-.824c0-.044,0-.091.006-.141Z" transform="translate(-95.798 -425.389)"/><g transform="translate(0.848 0.491)"><path class="ab" d="M97.532,425.83c.708-.409,1.282-.082,1.284.732a2.812,2.812,0,0,1-1.274,2.21c-.709.409-1.284.082-1.285-.734A2.807,2.807,0,0,1,97.532,425.83Z" transform="translate(-96.256 -425.654)"/></g></g></g><g transform="translate(39.371 14.489)"><g class="z"><path class="aa" d="M117.2,421.3a.74.74,0,0,1,.011-.093c0-.035.011-.069.017-.1l.015-.069.015-.065.024-.093.017-.052c.011-.035.022-.069.035-.1l.015-.041a1.521,1.521,0,0,1,.057-.143l.007-.015c.017-.043.037-.083.057-.124l.019-.037c.02-.041.041-.078.063-.117l.013-.02c.026-.046.052-.089.08-.133l.026-.035c.02-.033.041-.063.063-.093s.024-.033.035-.048.039-.05.057-.072l.05-.063.05-.054a.986.986,0,0,1,.085-.091l.054-.056.043-.041.074-.063.043-.035c.026-.022.054-.043.08-.061l.039-.028c.041-.028.081-.054.124-.078a1.41,1.41,0,0,1,.159-.08l.05-.02a.479.479,0,0,1,.091-.03.333.333,0,0,1,.057-.017l.052-.013c.024,0,.044-.007.069-.009l.037-.006c.03,0,.056,0,.083,0h.019a.771.771,0,0,1,.094.011l.022.005a.452.452,0,0,1,.07.022l.022.007a.382.382,0,0,1,.083.039l-.848-.495-.006,0-.065-.03-.013-.005-.022-.007-.033-.013-.037-.007-.022-.006-.011,0-.078-.009h-.024c-.02,0-.041,0-.061,0l-.02,0-.039.006-.037,0-.03.007-.054.011-.028.007-.03.009c-.03.009-.059.02-.089.031l-.033.009-.019.009c-.052.024-.1.05-.159.08s-.083.052-.122.078l-.039.03c-.028.02-.054.039-.082.061l-.043.037a.735.735,0,0,0-.072.063c-.015.013-.03.024-.044.039l-.026.026-.028.03c-.03.028-.057.059-.087.091l-.026.03-.022.026a.536.536,0,0,0-.048.061l-.033.037-.026.035-.035.048-.024.033-.039.057-.026.039-.009.015c-.024.035-.044.072-.067.107l0,.007-.013.022-.043.08-.019.035-.02.039-.017.033c-.015.031-.028.059-.041.091l-.007.017,0,0c-.019.039-.033.078-.048.115l-.007.02-.015.043-.02.059-.015.044-.015.054-.011.032-.015.057-.015.065-.006.024-.009.046c-.006.035-.011.069-.017.1l-.006.03-.006.063,0,.045c0,.048-.007.1-.007.143a.963.963,0,0,0,.293.765c.026.02.054.039.081.057l.848.493a.9.9,0,0,1-.374-.822c0-.046,0-.095.006-.143Z" transform="translate(-116.336 -418.604)"/><g transform="translate(0.848 0.494)"><path class="ab" d="M118.072,419.046c.706-.408,1.28-.08,1.284.73a2.81,2.81,0,0,1-1.276,2.212c-.708.408-1.284.081-1.285-.732A2.814,2.814,0,0,1,118.072,419.046Z" transform="translate(-116.794 -418.871)"/></g></g><g class="z" transform="translate(1.332 0.834)"><path class="aa" d="M117.913,421.746c0-.031.007-.063.011-.093s.011-.068.019-.1l.013-.069.017-.067c.007-.031.015-.061.024-.091l.015-.052c.011-.035.024-.069.035-.1l.015-.041c.019-.048.037-.095.057-.141l.007-.017c.019-.043.039-.083.059-.122l.019-.039c.019-.041.041-.078.061-.115l.013-.022c.026-.046.054-.089.081-.133l.024-.035c.02-.033.043-.061.065-.093l.035-.048.057-.074.048-.059c.017-.018.033-.037.05-.057s.056-.061.085-.091l.056-.054.043-.039c.024-.022.048-.044.072-.065l.044-.035a.82.82,0,0,1,.08-.061l.039-.028q.061-.042.122-.078a1.432,1.432,0,0,1,.161-.08l.05-.022c.03-.011.061-.02.091-.03s.037-.011.056-.015.037-.009.054-.013.044-.007.067-.009l.039-.006c.028,0,.056,0,.081,0h.02a.514.514,0,0,1,.093.011l.024.006.07.02.02.007a.592.592,0,0,1,.083.041l-.846-.493-.007,0a.413.413,0,0,0-.065-.031l-.011-.006-.022-.007-.033-.013-.037-.006-.024-.007-.011,0c-.026,0-.05-.007-.078-.009h-.024c-.019,0-.039,0-.059,0l-.022,0-.039,0-.035,0-.031.007-.054.009-.028.007-.028.009c-.03.009-.061.02-.091.031l-.031.011-.019.007c-.052.024-.106.05-.159.08s-.083.052-.124.08l-.039.028-.08.061-.044.037c-.024.02-.048.039-.072.061l-.043.043-.028.024-.028.03c-.028.028-.057.059-.085.091l-.028.028-.02.026-.05.061a.369.369,0,0,1-.033.041l-.024.033a.485.485,0,0,0-.035.05l-.026.031-.039.057-.024.039-.011.015-.067.107,0,.007-.011.022-.044.08-.019.035-.02.039-.017.033c-.015.032-.028.061-.041.091l-.007.017,0,.006c-.017.037-.031.074-.048.115l-.006.019-.015.044-.022.056-.013.044-.017.056-.009.031-.015.059-.017.065,0,.022-.009.048c-.006.033-.013.067-.019.1l-.006.03-.006.063,0,.046c0,.046-.006.093-.006.141a.969.969,0,0,0,.291.765c.028.02.056.039.083.057l.846.493a.9.9,0,0,1-.372-.822c0-.046,0-.093.006-.143Z" transform="translate(-117.055 -419.054)"/><g transform="translate(0.848 0.491)"><path class="ab" d="M118.789,419.5c.706-.409,1.282-.081,1.284.732a2.809,2.809,0,0,1-1.276,2.21c-.708.409-1.282.081-1.284-.732A2.815,2.815,0,0,1,118.789,419.5Z" transform="translate(-117.513 -419.319)"/></g></g></g><g transform="translate(43.633 30.183)"><g class="z"><path class="aa" d="M119.495,429.769c0-.031.006-.063.011-.094s.011-.067.017-.1l.015-.069a.348.348,0,0,1,.017-.067c.007-.032.015-.061.024-.091a.452.452,0,0,1,.015-.054l.035-.1.015-.043c.017-.046.037-.093.056-.141l.009-.017c.019-.041.037-.083.057-.122l.018-.041c.022-.037.043-.078.063-.115l.013-.022c.026-.043.052-.087.082-.13l.024-.037c.02-.031.041-.061.063-.091l.035-.05.057-.072c.017-.022.033-.041.05-.061l.05-.054c.028-.033.056-.063.085-.093l.054-.054.044-.041c.022-.022.048-.042.07-.063l.044-.037.082-.061.039-.028a1.213,1.213,0,0,1,.122-.076,1.1,1.1,0,0,1,.161-.082l.048-.02c.031-.011.061-.022.091-.031l.057-.017.052-.009c.024,0,.046-.007.069-.009l.039-.006a.567.567,0,0,1,.081,0h.019a.51.51,0,0,1,.094.011l.022.006a.434.434,0,0,1,.07.019l.022.007a.587.587,0,0,1,.083.043l-.846-.495-.009,0a.334.334,0,0,0-.063-.032l-.013,0-.02-.007-.033-.013-.039-.009-.022,0-.011,0c-.026,0-.052-.007-.078-.009h-.024c-.02,0-.041,0-.061,0l-.02,0-.039,0-.037,0-.031.007-.052.011-.028.006-.03.011a.817.817,0,0,0-.089.03l-.031.011-.019.009a1.316,1.316,0,0,0-.161.081c-.041.022-.081.048-.122.076l-.039.028c-.026.02-.054.041-.08.063l-.044.033c-.024.022-.05.043-.072.065l-.044.041-.026.026-.028.028c-.03.03-.057.059-.085.091l-.028.03-.02.024-.052.063-.031.039-.024.035-.037.046-.024.033-.039.059-.024.035-.011.017-.067.109,0,.007-.011.02-.044.08-.018.037-.019.037-.019.035c-.015.03-.028.059-.041.089l-.007.017,0,0c-.015.039-.031.078-.044.117l-.009.02-.015.043c-.007.019-.015.039-.02.057l-.013.044-.017.052-.009.035-.015.057c-.006.022-.013.043-.017.065l-.006.024-.007.044-.018.1-.006.028-.006.065,0,.044c0,.048-.006.1-.006.141a.954.954,0,0,0,.291.765.593.593,0,0,0,.081.057l.848.493a.892.892,0,0,1-.372-.821,1.171,1.171,0,0,1,.006-.141Z" transform="translate(-118.637 -427.077)"/><g transform="translate(0.848 0.493)"><path class="ab" d="M120.371,427.519c.706-.409,1.282-.082,1.284.73a2.8,2.8,0,0,1-1.276,2.21c-.708.409-1.282.082-1.284-.73A2.8,2.8,0,0,1,120.371,427.519Z" transform="translate(-119.095 -427.343)"/></g></g><g class="z" transform="translate(1.33 0.832)"><path class="aa" d="M120.213,430.216l.011-.091.017-.1.015-.07.017-.065c.007-.032.015-.061.024-.091l.017-.052.033-.1.015-.043.057-.141.007-.017c.019-.041.039-.082.059-.124l.019-.037c.02-.039.041-.078.063-.117l.013-.022c.024-.043.052-.087.08-.13l.024-.037c.02-.032.043-.061.065-.091l.033-.05c.02-.024.039-.048.059-.074l.05-.059c.015-.02.033-.037.048-.056l.085-.091.056-.054.043-.043.072-.061a.365.365,0,0,1,.044-.035c.026-.022.054-.043.08-.063l.039-.028c.041-.028.082-.054.122-.076a1.2,1.2,0,0,1,.161-.081l.05-.02c.031-.011.059-.022.091-.031l.056-.015.054-.011c.022,0,.044-.007.067-.009l.039-.006a.6.6,0,0,1,.082,0h.019a.548.548,0,0,1,.1.011l.022.006a.518.518,0,0,1,.07.02l.02.006c.03.013.057.026.085.041l-.848-.493-.007,0-.063-.032-.013,0-.022-.007-.033-.013-.037-.009-.022-.006-.013,0c-.026,0-.052-.007-.078-.009h-.024c-.019,0-.039,0-.061,0l-.019,0-.039,0-.037,0-.031.007-.052.011-.028.006-.03.011-.091.03-.031.011-.019.009a1.421,1.421,0,0,0-.161.08q-.061.036-.122.078l-.039.03-.08.059-.044.035-.07.065-.044.039-.028.028-.028.028c-.028.03-.056.061-.085.091l-.026.03-.022.026a.775.775,0,0,0-.048.061.217.217,0,0,0-.033.039l-.026.035-.035.046-.026.035-.037.057-.026.035-.009.017-.067.109,0,.007-.013.022c-.015.024-.03.052-.044.08l-.019.035-.019.039-.017.033c-.015.03-.028.059-.043.089l-.006.018,0,0c-.017.037-.031.078-.046.113l-.007.022-.015.041-.022.059-.013.044-.017.052-.009.033-.015.059-.015.065-.007.022-.007.046-.017.1-.006.03-.006.063-.006.044c0,.048-.006.094-.006.143a.966.966,0,0,0,.293.765.709.709,0,0,0,.082.056l.848.493a.889.889,0,0,1-.374-.821c0-.046,0-.1.006-.143Z" transform="translate(-119.355 -427.526)"/><g transform="translate(0.848 0.493)"><path class="ab" d="M121.089,427.968c.706-.409,1.282-.082,1.284.73a2.8,2.8,0,0,1-1.276,2.212c-.706.408-1.282.081-1.284-.732A2.812,2.812,0,0,1,121.089,427.968Z" transform="translate(-119.813 -427.792)"/></g></g></g><g transform="translate(0.357)"><g transform="translate(11.949 12.438)"><g class="z"><path class="aa" d="M102.58,420.187l.013-.093c0-.033.011-.068.017-.1l.013-.069.017-.065c.007-.032.017-.063.024-.093l.017-.054c.011-.033.022-.069.035-.1l.015-.043c.017-.046.037-.093.056-.141l.007-.015c.019-.043.039-.085.059-.124l.019-.039c.02-.037.041-.078.063-.115l.013-.022c.026-.044.052-.089.08-.132l.024-.037c.022-.03.043-.061.065-.093l.035-.046.057-.074.05-.061.05-.054a1,1,0,0,1,.085-.091.5.5,0,0,1,.054-.056l.043-.041c.024-.022.048-.043.072-.063l.044-.037.082-.059.039-.03c.039-.026.08-.054.12-.078s.109-.056.161-.078l.05-.02c.031-.013.061-.022.091-.032s.039-.013.056-.017a.266.266,0,0,1,.054-.009.46.46,0,0,1,.067-.011l.039,0a.628.628,0,0,1,.083,0h.019a.552.552,0,0,1,.094.013l.022,0a.439.439,0,0,1,.07.02l.02.007a.447.447,0,0,1,.085.041l-.848-.493-.006-.006c-.022-.011-.043-.022-.065-.031l-.013,0-.022-.006a.128.128,0,0,0-.033-.013l-.035-.009-.024-.006-.013,0c-.024-.006-.05-.007-.076-.011h-.085l-.02,0-.039,0-.037.006-.031.005-.052.013-.028.006-.03.009a.817.817,0,0,0-.089.03l-.033.013-.019.009a1.168,1.168,0,0,0-.159.08,1.129,1.129,0,0,0-.122.078l-.039.026c-.028.02-.054.041-.081.063l-.043.035c-.024.02-.05.043-.072.063l-.044.041-.026.026-.03.028c-.028.03-.056.059-.083.093l-.028.028-.022.026-.048.061-.033.041-.024.031-.037.05-.024.033-.039.057-.024.037-.011.017c-.022.035-.046.072-.067.109l0,.006-.013.022-.044.078-.017.039-.02.037-.017.033c-.015.028-.028.059-.041.091l-.007.015,0,.006c-.015.039-.031.076-.046.115l-.007.022-.015.041-.02.058-.015.046-.015.052-.009.033-.015.057c-.006.022-.013.043-.017.067l-.007.022-.006.046c-.007.035-.013.069-.019.1l-.006.026-.006.065,0,.044c0,.048-.006.1-.006.141a.951.951,0,0,0,.291.765.605.605,0,0,0,.082.059l.848.491a.892.892,0,0,1-.372-.821,1.179,1.179,0,0,1,0-.141Z" transform="translate(-101.724 -417.496)"/><g transform="translate(0.848 0.492)"><path class="ab" d="M103.456,417.936c.708-.408,1.282-.078,1.284.734a2.805,2.805,0,0,1-1.274,2.21c-.708.409-1.282.08-1.284-.732A2.809,2.809,0,0,1,103.456,417.936Z" transform="translate(-102.182 -417.762)"/></g></g><g class="z" transform="translate(1.33 0.832)"><path class="aa" d="M103.3,420.634c0-.028.007-.059.011-.089s.011-.07.019-.1l.013-.068.017-.067c.007-.03.015-.059.024-.091l.015-.052.035-.1.015-.041c.019-.048.037-.094.057-.143l.007-.015c.019-.043.037-.083.057-.126l.018-.035.065-.117.011-.024c.026-.043.052-.085.081-.13l.024-.035.063-.093.035-.048c.02-.024.039-.05.059-.074s.033-.041.048-.061l.05-.054.085-.093.056-.052.043-.043.072-.063.043-.035c.028-.022.054-.041.081-.061l.039-.028a1.244,1.244,0,0,1,.122-.078,1.073,1.073,0,0,1,.161-.08c.017-.007.033-.015.05-.02s.061-.024.089-.033a.369.369,0,0,1,.057-.013.53.53,0,0,1,.052-.013c.024,0,.046-.007.069-.009l.039,0a.4.4,0,0,1,.082,0h.019a.576.576,0,0,1,.1.013l.02,0,.07.018.024.009a.566.566,0,0,1,.083.041l-.848-.493-.007-.006a.7.7,0,0,0-.065-.03l-.013-.006-.02-.007-.033-.011-.037-.009-.022-.006-.013,0a.49.49,0,0,0-.078-.011h-.083l-.022,0-.039,0-.035.006-.033.006-.052.011-.028.006-.03.011-.089.03-.032.013-.019.007a1.479,1.479,0,0,0-.161.082c-.041.024-.081.048-.122.076l-.039.03c-.026.018-.054.039-.08.061l-.044.035-.072.063-.043.041-.028.026-.028.028-.085.091-.028.03-.02.028-.05.059-.032.041-.026.033-.035.048-.026.033-.037.057-.026.037-.011.015-.067.109,0,.007-.011.024-.044.076-.019.037-.02.039-.017.033c-.013.03-.028.059-.041.091l-.007.017,0,0c-.017.037-.031.078-.046.115l-.009.022-.015.041-.02.059-.013.044-.017.052-.011.033-.013.057-.017.067-.006.022-.007.046c-.007.035-.013.07-.017.1l-.006.028-.007.063,0,.044c0,.048-.006.1-.006.141a.953.953,0,0,0,.293.767.522.522,0,0,0,.082.056l.848.493a.889.889,0,0,1-.374-.821,1.2,1.2,0,0,1,.006-.141Z" transform="translate(-102.442 -417.945)"/><g transform="translate(0.848 0.493)"><path class="ab" d="M104.176,418.387c.706-.409,1.282-.08,1.284.732a2.81,2.81,0,0,1-1.276,2.212c-.708.406-1.282.08-1.284-.734A2.8,2.8,0,0,1,104.176,418.387Z" transform="translate(-102.9 -418.211)"/></g></g></g><g transform="translate(19.043 37.964)"><g class="z"><path class="aa" d="M106.412,433.968l.011-.091c0-.035.011-.067.017-.1l.015-.07c0-.022.009-.043.015-.065l.024-.091.017-.054c.011-.035.022-.069.035-.1l.015-.043c.017-.048.037-.094.056-.141l.007-.015.059-.126.018-.037c.02-.039.041-.078.063-.117l.013-.022c.026-.044.052-.087.08-.13l.024-.037.065-.093.035-.048c.019-.024.039-.048.057-.074l.05-.061.05-.054c.028-.032.056-.061.085-.091l.054-.054.043-.041c.024-.022.048-.043.074-.065l.043-.035.08-.061.041-.028a.933.933,0,0,1,.12-.076,1.218,1.218,0,0,1,.163-.082l.048-.02c.031-.011.061-.022.091-.032a.526.526,0,0,1,.057-.015l.052-.011c.024,0,.046-.009.067-.011l.039,0c.03,0,.056,0,.083,0h.019a.872.872,0,0,1,.094.013l.022.006a.45.45,0,0,1,.07.02l.02.006a.527.527,0,0,1,.085.041l-.848-.493-.006,0a.538.538,0,0,0-.065-.031l-.013,0-.022-.009-.033-.011-.035-.009-.024,0-.011,0c-.026,0-.052-.007-.078-.009h-.024c-.02,0-.041,0-.061,0l-.02,0-.039,0-.037,0-.032.007a.292.292,0,0,0-.052.011l-.028.006-.03.009a.874.874,0,0,0-.089.031l-.033.011-.017.009a1.607,1.607,0,0,0-.161.08q-.061.036-.122.078l-.039.03c-.028.019-.054.037-.082.059l-.043.035c-.024.02-.048.043-.072.065l-.044.039-.026.026-.028.028-.085.093-.028.03-.022.026q-.025.028-.05.061l-.031.039-.024.035-.037.046-.024.035c-.013.017-.026.037-.039.057l-.024.037-.011.015c-.022.037-.046.07-.067.109l0,.007-.013.022c-.015.024-.03.052-.043.078l-.019.037-.02.037-.017.035c-.015.03-.028.059-.041.089l-.007.017,0,.006c-.015.037-.031.076-.046.115l-.007.02-.015.043-.02.057-.015.044-.015.052-.009.033-.015.059-.017.065-.006.024-.007.045c-.007.035-.013.07-.019.1l-.006.028-.006.065,0,.045c0,.048-.006.094-.006.141a.956.956,0,0,0,.291.765.809.809,0,0,0,.081.057l.848.493a.9.9,0,0,1-.372-.822c0-.044,0-.093,0-.141Z" transform="translate(-105.554 -431.277)"/><g transform="translate(0.848 0.494)"><path class="ab" d="M107.286,431.72c.708-.409,1.284-.082,1.285.73a2.815,2.815,0,0,1-1.276,2.212c-.708.408-1.282.082-1.284-.733A2.8,2.8,0,0,1,107.286,431.72Z" transform="translate(-106.012 -431.544)"/></g></g><g class="z" transform="translate(1.33 0.833)"><path class="aa" d="M107.13,434.418c0-.032.007-.061.013-.093a.9.9,0,0,1,.017-.1l.013-.07.017-.065c.007-.032.015-.061.024-.093l.017-.052.033-.1.015-.041c.019-.048.037-.095.057-.139l.007-.019c.019-.041.037-.083.057-.124l.02-.037c.02-.041.041-.078.063-.117l.013-.02c.024-.046.052-.089.08-.133l.024-.035.063-.093.037-.046c.019-.026.037-.05.057-.074l.05-.063.048-.054c.028-.03.056-.061.085-.091L108,432.7l.043-.041.072-.063.044-.035.08-.059.039-.03a1.218,1.218,0,0,1,.122-.076,1.309,1.309,0,0,1,.161-.081l.05-.02c.03-.011.061-.02.089-.03s.039-.013.057-.017l.054-.011a.413.413,0,0,1,.067-.011l.039,0a.607.607,0,0,1,.081,0h.019a.543.543,0,0,1,.1.013l.022,0,.069.022.024.007a.42.42,0,0,1,.083.039l-.848-.493-.007,0a.688.688,0,0,0-.065-.031l-.013,0-.02-.009-.033-.011-.037-.009-.022,0-.013,0a.358.358,0,0,0-.078-.007h-.022l-.063,0-.02,0-.039,0-.035,0-.031.009a.281.281,0,0,0-.054.011l-.028.006-.028.009c-.03.009-.059.02-.091.033l-.031.009-.019.009c-.052.024-.106.048-.161.08s-.082.052-.122.078l-.039.028c-.026.02-.054.039-.08.061l-.043.037a.783.783,0,0,0-.074.063l-.043.039-.028.026-.028.03-.085.091-.028.03-.02.026q-.025.028-.05.061l-.031.037-.026.035-.035.048-.024.035-.039.056-.026.039-.011.017c-.022.035-.044.07-.065.107l0,.007-.013.022-.044.078-.017.035-.02.041-.017.032c-.015.031-.03.061-.041.091l-.009.017,0,.006c-.017.037-.031.076-.046.113l-.009.022-.015.043c-.006.018-.015.037-.02.057l-.013.044-.017.052-.009.033-.015.057-.017.069-.006.02-.007.048c-.006.033-.013.069-.017.1l-.006.028-.007.063,0,.048c0,.046-.006.093-.006.141a.947.947,0,0,0,.293.763.539.539,0,0,0,.081.057l.848.493a.9.9,0,0,1-.374-.822c0-.046,0-.094.006-.141Z" transform="translate(-106.272 -431.727)"/><g transform="translate(0.848 0.492)"><path class="ab" d="M108.006,432.169c.708-.409,1.282-.082,1.284.73a2.815,2.815,0,0,1-1.276,2.212c-.708.409-1.282.081-1.284-.733A2.8,2.8,0,0,1,108.006,432.169Z" transform="translate(-106.73 -431.993)"/></g></g></g><g transform="translate(0 8.542)"><g class="z"><path class="ac" d="M101.863,416.035l-.009,3.612a1.058,1.058,0,0,0,.293.695l.011-3.614A1.053,1.053,0,0,1,101.863,416.035Z" transform="translate(-89.664 -414.845)"/><path class="ad" d="M119.116,417.076a2.677,2.677,0,0,1-.12.48l-.076.124a1.321,1.321,0,0,1-.13.287l-.007.039a1.923,1.923,0,0,1-.189.207,2.4,2.4,0,0,1-.23.176c-.039.024-.069.056-.109.078l-.011,3.616.037-.02c.028-.017.048-.037.074-.056a1.89,1.89,0,0,0,.23-.169l.035-.024a1.724,1.724,0,0,0,.15-.163l0,0,.007-.009c.03-.039.057-.08.081-.119a1.073,1.073,0,0,0,.048-.107l0-.009,0,0c.013-.037.295-.076.3-.111s.282-.074.282-.111v-.959h-.463Z" transform="translate(-75.696 -413.958)"/><g transform="translate(12.482 1.883)"><path class="ac" d="M109.965,425.419l-.01,3.612-7.944-9.008.011-3.614Z" transform="translate(-102.012 -416.409)"/></g><g transform="translate(29.964 4.515)"><path class="ac" d="M124.045,417.83l-.011,3.612-12.584,7.313.011-3.614Z" transform="translate(-111.45 -417.83)"/></g><g class="z" transform="translate(30.379 13.044)"><g class="ae"><g class="z" transform="translate(-0.119 0.047)"><path class="af" d="M111.61,422.5v0Z" transform="translate(-111.61 -422.46)"/><path class="ac" d="M111.7,422.462l-.011,3.614a1.954,1.954,0,0,1-.017.207l.011-3.612a1.992,1.992,0,0,0,.017-.209Z" transform="translate(-111.555 -422.459)"/></g></g></g><path class="ad" d="M107.545,424.326a6.289,6.289,0,0,1-.754-.359,4.42,4.42,0,0,1-.769-.55l-.011,3.614a4.4,4.4,0,0,0,.769.548,6.142,6.142,0,0,0,.754.361c.03.011.052.028.081.039.146.057.3.111.45.159l.009-3.612C107.893,424.466,107.719,424.4,107.545,424.326Z" transform="translate(-86.122 -408.555)"/><g class="z" transform="translate(26.35 15.625)"><g class="ag"><path class="ad" d="M110.671,424.18a8.362,8.362,0,0,1-1.03.256l-.132.022-.011,3.614c.044-.009.087-.015.132-.024a8.182,8.182,0,0,0,1.03-.254,7.369,7.369,0,0,0,.895-.354l.011-3.612A7.484,7.484,0,0,1,110.671,424.18Z" transform="translate(-109.499 -423.828)"/></g></g><g transform="translate(2.539 14.861)"><path class="ac" d="M114,423.416l-.011,3.614-17.349,1.592.01-3.614Z" transform="translate(-96.644 -423.416)"/></g><path class="ac" d="M97.31,424.87l-.043,0a3.659,3.659,0,0,1-.461-.054l-.033-.006a3.629,3.629,0,0,1-.4-.109c-.024-.009-.048-.015-.072-.024a2.761,2.761,0,0,1-.372-.17,1.241,1.241,0,0,1-.615-.7.788.788,0,0,1-.028-.215l-.011,3.614a.787.787,0,0,0,.03.213,1.229,1.229,0,0,0,.615.7,2.178,2.178,0,0,0,.317.154l.054.017.074.026c.046.013.091.031.139.046.076.02.152.039.23.056l.031.006.033.005c.052.011.1.02.152.028q.1.014.211.022c.033,0,.067,0,.1.006l.044,0c.022,0,.046,0,.069,0q.111,0,.222,0c.074,0,.148-.007.22-.013l.009-3.616A3.656,3.656,0,0,1,97.31,424.87Z" transform="translate(-95.273 -408.404)"/><g transform="translate(28.406 15.625)"><path class="ac" d="M126.679,428.558l-.01,3.612-16.06-4.73.011-3.612Z" transform="translate(-110.609 -423.828)"/></g><g class="z" transform="translate(44.465 19.211)"><g class="ah"><path class="ad" d="M122.444,426.021a.95.95,0,0,1-.059.124,1.055,1.055,0,0,1-.087.13l-.039.048c-.031.035-.067.07-.1.1a1.768,1.768,0,0,1-.293.217,2.361,2.361,0,0,1-.519.232,3.032,3.032,0,0,1-.42.105q-.139.025-.283.039c-.078.007-.159.013-.239.017s-.146,0-.22,0-.143-.006-.213-.011-.139-.013-.209-.024a2.089,2.089,0,0,1-.215-.037q-.119-.025-.233-.056l-.022-.007-.011,3.612.022.009c.078.02.154.039.233.056s.144.028.217.039.139.017.209.022.141.009.211.011.148,0,.22,0,.161-.007.239-.015c.1-.009.191-.022.285-.041a3.4,3.4,0,0,0,.42-.1,2.435,2.435,0,0,0,.517-.233,1.782,1.782,0,0,0,.295-.217,1.3,1.3,0,0,0,.1-.1l.041-.05a1,1,0,0,0,.087-.13.832.832,0,0,0,.057-.124.561.561,0,0,0,.035-.12.715.715,0,0,0,.015-.124l.009-3.616a.71.71,0,0,1-.013.126A1.009,1.009,0,0,1,122.444,426.021Z" transform="translate(-119.279 -425.756)"/></g></g><g transform="translate(23.611 16.254)"><path class="ad" d="M110.77,424.168l-.011,3.614-2.739,10.245.01-3.612Z" transform="translate(-108.02 -424.168)"/></g><path class="ac" d="M109.953,430.035l-.024.035a1.136,1.136,0,0,1-.163.195l-.009.011c-.019.017-.043.03-.061.044a1.7,1.7,0,0,1-.209.156c-.015.009-.033.017-.05.026a2.6,2.6,0,0,1-.409.183c-.043.015-.085.03-.13.043a2.175,2.175,0,0,1-.228.056,1.777,1.777,0,0,1-.2.043c-.031.006-.063-.181-.094-.176-.12.015-.241-.159-.367-.159h-.028c-.139,0-.282.191-.426.178a4.074,4.074,0,0,1-.695-.037c-.009,0-.015.043-.024.041a2.579,2.579,0,0,1-.535-.2,1.085,1.085,0,0,1-.648-.889l-.009,3.619a1.1,1.1,0,0,0,.648.9,2.059,2.059,0,0,0,.313.152c.07.028.144.052.222.076l.022.007.02.007a2.272,2.272,0,0,0,.241.057c.078.017.159.032.243.044.063.007.126.017.191.022l.05.006c.065,0,.132-.495.2-.493s.119-.5.18-.5h.044c.082,0,.163.495.241.485.037,0,.072.241.107.237s.065.117.1.113.054.056.08.05c.043-.007.08.011.12,0,.08-.018.156-.02.23-.041.022-.007.046,0,.069-.009s.039-.017.059-.024a2.523,2.523,0,0,0,.411-.181.339.339,0,0,1,.039-.015l.009-.007a1.961,1.961,0,0,0,.211-.156c.017-.015.041-.028.056-.043l0,0,.011-.009a1.35,1.35,0,0,0,.122-.132c.015-.02.028-.043.043-.063l.024-.035.02-.032a.832.832,0,0,0,.057-.124.362.362,0,0,0,.024-.08l.011-3.612A.818.818,0,0,1,109.953,430.035Z" transform="translate(-86.437 -403.301)"/><path class="ac" d="M106.5,432.9a2.885,2.885,0,0,0,1.717-.107c.926-.352-1.108-1.408-1.108-1.408Z" transform="translate(-85.701 -401.766)"/><g transform="translate(0.01)"><path class="ai" d="M137.94,418.181c.895.517.741,1.226-.113,1.726l-12.584,7.311a1.971,1.971,0,0,1,.415,1.478l16.081,4.764a2.744,2.744,0,0,1,.559.233c.658.38.852.974.415,1.476a3.107,3.107,0,0,1-2.969.578l-16.059-4.731a7.763,7.763,0,0,1-2.056.63l-2.741,10.247c-.182.691-1.3,1.163-2.5,1.058a3.083,3.083,0,0,1-1.254-.365c-.482-.278-.735-.68-.622-1.1l2.714-10.124a6.694,6.694,0,0,1-1.284-.559,4.421,4.421,0,0,1-.769-.55l-17.352,1.591a3.314,3.314,0,0,1-1.895-.354,1.241,1.241,0,0,1-.615-.7c-.194-.721.624-1.367,1.819-1.478l17.272-1.572a3.192,3.192,0,0,1,1.306-1.46l-7.942-9.009c-.558-.628-.382-1.536,1.056-1.643a2.646,2.646,0,0,1,2.43.13,1.673,1.673,0,0,1,.415.328l7.876,8.982a9.307,9.307,0,0,1,2.693.252l12.449-7.233A3.752,3.752,0,0,1,137.94,418.181Z" transform="translate(-95.279 -415.393)"/></g></g></g><g transform="translate(19.889 13.346)"><g transform="translate(0.008 5.21)"><path class="ac" d="M114.3,421.623c1.9,1.1,1.9,2.88.013,3.98a7.566,7.566,0,0,1-6.861,0c-1.9-1.1-1.919-2.88-.028-3.98A7.585,7.585,0,0,1,114.3,421.623Z" transform="translate(-106.015 -420.799)"/></g><rect class="ac" width="9.72" height="5.148" transform="translate(0 2.812)"/><g transform="translate(0.008)"><path class="ai" d="M114.3,418.812c1.9,1.1,1.9,2.877.013,3.977a7.554,7.554,0,0,1-6.861,0c-1.9-1.1-1.919-2.88-.028-3.977A7.574,7.574,0,0,1,114.3,418.812Z" transform="translate(-106.015 -417.987)"/></g></g><g transform="translate(21.6)"><g transform="translate(0.004 14.018)"><path class="ac" d="M112.31,418.884a1.363,1.363,0,0,1,.009,2.58,4.9,4.9,0,0,1-4.451,0c-1.234-.711-1.245-1.869-.019-2.58A4.917,4.917,0,0,1,112.31,418.884Z" transform="translate(-106.937 -418.349)"/></g><rect class="ac" width="6.306" height="13.977" transform="translate(0 1.826)"/><g transform="translate(0.004)"><path class="ai" d="M112.31,411.314a1.365,1.365,0,0,1,.009,2.582,4.9,4.9,0,0,1-4.451,0c-1.234-.713-1.245-1.869-.019-2.582A4.928,4.928,0,0,1,112.31,411.314Z" transform="translate(-106.937 -410.781)"/></g></g></g></g><g transform="translate(0)"><g transform="translate(0 5.199)"><path class="ac" d="M96.719,413.094c-1.734,1.437-3.6,8.246,2.15,10.821,6.2,2.777,23.092,10.849,33.087,9.419a39.447,39.447,0,0,0,13.1-4.907c4.127-2.384,7.49-5.212,8.513-7.572.42-.969,1.182-4.723.3-7.063-2.123-5.618-12.479-9.135-16.452-12.132-4.429-3.34-9.954-1.6-11.691-.6a3.741,3.741,0,0,0-.333.219c-4.271,3.256-11.682,7.6-12.832,8.267s-8.676,4.944-14.312,7.405C98.132,417,96.854,413.014,96.719,413.094Z" transform="translate(-94.987 -399.704)"/></g><g transform="translate(0.527 0.27)"><path class="aj" d="M97.629,414.482c-1.739,1-4.753,4.2,1,6.774,6.2,2.777,23.092,10.849,33.087,9.417a39.366,39.366,0,0,0,13.1-4.907c4.127-2.382,7.49-5.21,8.513-7.57,2.5-5.785-11.376-15.6-16.152-19.2-4.429-3.34-9.954-1.6-11.691-.6a2.812,2.812,0,0,0-.333.219c-4.271,3.256-11.682,7.6-12.832,8.265s-8.676,4.944-14.312,7.405A3.907,3.907,0,0,0,97.629,414.482Z" transform="translate(-95.271 -397.043)"/></g><g transform="translate(2.748)"><path class="ak" d="M98.7,413.376c-1.641.948-4.492,3.966.943,6.4,5.859,2.625,21.821,10.252,31.266,8.9a37.2,37.2,0,0,0,12.379-4.638c3.9-2.252,7.081-4.923,8.048-7.153,2.363-5.468-10.752-14.74-15.264-18.141-4.184-3.156-9.408-1.515-11.049-.567a3.243,3.243,0,0,0-.315.2c-4.036,3.078-11.039,7.181-12.127,7.815s-8.2,4.671-13.523,7A3.678,3.678,0,0,0,98.7,413.376Z" transform="translate(-96.47 -396.898)"/></g></g></g><path class="w" d="M123.791,422.3c-2.919-3.436-6.664-5.927-9.835-9.126-3.76-3.8-9.293-6.857-11.643-11.843-.709-1.506-1.137-4.9.911-7.068,1.182-1.252,3.875-3.814,4.647-2.886.808.965,3.154,1.582,3.986,2.313,1.547,1.367,11.221,9,14.414,11.36,2.61,1.928,4.142,3.232,6.931,5.494,0,0,3.673,1.647-2.023,7.072S124.217,422.789,123.791,422.3Z" transform="translate(22.652 -310.456)"/><path class="x" d="M131.036,402.1c2.024-.83,4.056,2.819,3.923,4.288-.367,4.012-7.663,8.848-10.867,10.517-3.469,1.8-8.754,3.612-11.717,3.469-1.487-.07-4.714-1.656-5.455-2.98-1.343-2.4.335-9.376,1.823-11.9a8.7,8.7,0,0,1,2.1-2.3Z" transform="translate(25.689 -301.249)"/><path class="x" d="M120.052,424.958a93.562,93.562,0,0,1-12.032-8.1c-4.09-3.434-9.876-5.981-12.669-10.736-.843-1.439-1.576-4.783.267-7.124,1.061-1.356,3.162-3.19,4.368-3.293,1.926-.172,3.282,1.289,4.177,1.941,1.663,1.222,11.993,7.942,15.388,10.006,2.771,1.682,9.885,6.125,13.347,9.452,0,0,2.6,3.51-2.008,5.764C125,425.75,120.617,425.282,120.052,424.958Z" transform="translate(16.75 -306.61)"/><path class="x" d="M131.036,402.1c2.024-.83,4.056,2.819,3.923,4.288-.367,4.012-7.663,8.848-10.867,10.517-3.469,1.8-8.754,3.612-11.717,3.469-1.487-.07-4.714-1.656-5.455-2.98-1.343-2.4.335-9.376,1.823-11.9a8.7,8.7,0,0,1,2.1-2.3Z" transform="translate(25.689 -301.249)"/><path class="al" d="M121.054,461.415l96.426-57.631v-3.469L128.685,347.6,32.264,405.223V408.7Z" transform="translate(-32.264 -347.596)"/><path class="am" d="M74.623,383.262,61.388,390.9l17.7,10.222,13.235-7.642Z" transform="translate(-9.219 -317.2)"/><path class="an" d="M121.054,461.415l96.426-57.631v-3.469L128.685,347.6,32.264,405.223V408.7Z" transform="translate(-32.264 -347.596)"/><path class="ao" d="M121.05,457.931l96.413-57.626L128.681,347.6,32.269,405.218Z" transform="translate(-32.259 -347.596)"/><g transform="translate(103.757 39.212)"><path class="ap" d="M94.431,382.307a12.544,12.544,0,0,0,.17,1.589,15.543,15.543,0,0,1-.683,2.784,5.342,5.342,0,0,0,.191,3.041c.513,1.115,1.767,3.827,2.956,4.256,2.654.965,3.388-3.458,3.84-5.183.934-3.579-1.026-9.721-5.927-8.456Z" transform="translate(-87.078 -359.046)"/><path class="k" d="M106.273,368.766l13,26.132-16.106,9.3-13-26.134Z" transform="translate(-90.166 -368.766)"/><path class="e" d="M90.939,377.4l13.884-8.013,11.692,23.5-13.884,8.017Z" transform="translate(-89.507 -368.235)"/><path class="aq" d="M93.055,373.965l6.161-3.554.913,1.915-6.16,3.556Z" transform="translate(-87.704 -367.364)"/><path class="ap" d="M98.033,382.657a3.827,3.827,0,0,0-.22-.691c-.989.052-1.069,1.15-1.4,1.806s-.947,1.05-1.111,1.823c-.193.889.4,1.391.4,2.223s-.424,1.506-.5,2.33c-.178,1.823,2.015,3.642,2.856,1.393a6.477,6.477,0,0,0-.15-5.134c-.463-1.006-.167-1.193.148-2.21.194-.624.4-1.915-.243-2.23a5.712,5.712,0,0,0-.387,1.2Z" transform="translate(-85.884 -357.516)"/></g><g transform="translate(110.657 29.573)"><path class="ar" d="M127,384.858c1.606,7.948,3.6,18.376.671,18.971-1.1.22-5.516.563-5.942-2-1-6.011-3.968-10.962-4.971-15.935-1.608-7.946.143-9.758,3.065-10.354S125.391,376.908,127,384.858Z" transform="translate(-76.686 -353.44)"/><path class="as" d="M128.562,397.262c-7.3-2.047-19.988-7.876-19.223-10.421.289-.95.989-3.956,3.4-3.679,3.777.432,12.14,4.984,19.769,6.881,1.669.415,2.639,1.939,1.873,4.481S133.73,398.708,128.562,397.262Z" transform="translate(-82.516 -346.873)"/><path class="ar" d="M115.394,379.719a18.126,18.126,0,0,0-7.159,5.538c-2.021,2.617-1.91,8.485-1.832,9.254.25,2.493,1.53,27.03.935,29.24-.926,3.454-1.587,9.4,3,11.191a17.744,17.744,0,0,0,9.252.622c5.473-.685,13.362-5.021,12.9-7.733-.871-5.044-1.106-26.963-.576-29.751s3.241-15.8-.426-20.9a4.567,4.567,0,0,0-3.91-1.669C122.914,376.039,116.172,379.5,115.394,379.719Z" transform="translate(-85.018 -353.399)"/><path class="at" d="M110.09,416.531c-.669-1.211,2.588-26.837,2.588-26.837l-5.686,6.07c.309,7.155.526,14.7.209,15.879-.926,3.454-1.587,9.4,3,11.191.048.019.093.028.141.044C110.617,420.414,110.469,417.222,110.09,416.531Z" transform="translate(-84.879 -341.291)"/><g transform="translate(15.205 30.977)"><path class="ak" d="M116.741,393.713c-2.543,9.113-5.416,21.329-8.456,20.551-1.137-.3-6.029-2.375-5.123-5.279,2.128-6.783,1.876-13.4,3.467-19.1,2.541-9.113,5.108-10.171,8.144-9.393S119.288,384.6,116.741,393.713Z" transform="translate(-103.051 -380.286)"/></g><path class="ak" d="M108.491,408.737c-6.018-5.008-15.363-16.365-13.377-19.065.743-1.013,2.886-4.279,5.064-3.093,3.421,1.856,9.23,10.176,15.637,15.127,1.4,1.08,3.647,1.13,2.465,4.423C117.154,409.283,112.749,412.279,108.491,408.737Z" transform="translate(-94.842 -344.164)"/><g transform="translate(25.209)"><g transform="translate(0 3.364)"><path class="au" d="M109.793,367.321c.039,1.274-.906,2.886-1.174,4.116a2.407,2.407,0,0,0,.056,1.9,5.02,5.02,0,0,1,.078,3.429,8.43,8.43,0,0,0,.493,4.3c.315,1.091.485,2.384,1.476,3.047,2.473,1.652,5.253.676,7.75-.189,2.469-.867,2.054-5.251,2.827-7.3,1.384-3.7.359-8.88-3.719-10.491a10.709,10.709,0,0,0-6.7-.358c-.648.246.9.85,1.51,1.552Z" transform="translate(-108.452 -365.378)"/></g><g transform="translate(0 3.364)"><path class="av" d="M109.793,367.321c.039,1.274-.906,2.886-1.174,4.116a2.407,2.407,0,0,0,.056,1.9,5.02,5.02,0,0,1,.078,3.429,8.43,8.43,0,0,0,.493,4.3c.315,1.091.485,2.384,1.476,3.047,2.473,1.652,5.253.676,7.75-.189,2.469-.867,2.054-5.251,2.827-7.3,1.384-3.7.359-8.88-3.719-10.491a10.709,10.709,0,0,0-6.7-.358c-.648.246.9.85,1.51,1.552Z" transform="translate(-108.452 -365.378)"/></g><g transform="translate(5.045 15.891)"><path class="av" d="M111.176,376.3s1.621,4.9.624,6.275c-.387.532,1.587,1.7,3.432,1.736,2.934.059,6.322-1.532,5.329-3.962-.533-1.308-1.937-2.6-1.048-7.9C119.795,370.788,111.176,376.3,111.176,376.3Z" transform="translate(-111.176 -372.142)"/></g><path class="aw" d="M114.188,375.7a13.4,13.4,0,0,1-2.549.465c.252,1.335.369,2.775-.1,3.425-.259.356.541.985,1.643,1.38.4-.169.585-.311.487-.374C113.142,380.253,115.885,375.162,114.188,375.7Z" transform="translate(-105.866 -353.255)"/><g transform="translate(1.04)"><path class="ax" d="M122.015,365.312c-3.838-2.595-9-2.241-11.473.641a6.66,6.66,0,0,0-1.471,3.751c-.432.752,1.667.648,2.173,3.682,2.6,15.653,9.917,10.024,10.154,9.465,1.878-4.457,3.138-3.436,4-6.111C126.707,372.7,127.4,368.963,122.015,365.312Z" transform="translate(-109.014 -363.562)"/></g><path class="ax" d="M117.964,373.461c-3.729-.77-7.905-5.188-7.905-5.188l0,0a5.452,5.452,0,0,1,.3,1.095c2.6,15.653,9.917,10.024,10.154,9.465,1.878-4.457,3.138-3.436,4-6.111.131-.406.254-.806.367-1.206A8.436,8.436,0,0,1,117.964,373.461Z" transform="translate(-107.086 -359.547)"/><g transform="translate(3.379 12.575)"><path class="av" d="M112.624,373.526c-.53,1.373-.835,2.647-1.432,2.417a2.356,2.356,0,0,1-.719-2.9c.535-1.371.826-2.684,1.469-2.693C113.156,370.327,113.158,372.166,112.624,373.526Z" transform="translate(-110.277 -370.351)"/></g></g><path class="ak" d="M124.509,376.988a3.4,3.4,0,0,1-1.219,4.186,8.26,8.26,0,0,1-4.423,2.293c-2.076.27-6.829-1.471-7.5-1.543a14.578,14.578,0,0,0-2.113-.156c1.065-1.026,2.247-1.01,3.317-2.545.167-.237.822-1.128,1.115-1.2a1.493,1.493,0,0,0,.417.941,4.338,4.338,0,0,0,1.726.9c1.467.546,4.308.374,5.375-.8,1.417-1.563.4-2.693.128-3.488,1.439.291,2.7.611,3.175,1.4Z" transform="translate(-82.558 -353.316)"/></g></g><path class="m" d="M53.341,354.872c2.169,8.555,7.524,23.7,10.541,22.929,1.137-.287,5.184-6.062,4.394-8.781-1.837-6.372-2.773-12.392-4.127-17.739-2.167-8.554-5.355-9.641-8.374-8.874S51.174,346.315,53.341,354.872Z" transform="translate(0.643 -307.663)"/><path class="m" d="M60.527,367.362c8.326,1.232,28.321-4.721,28.5-7.626.069-1.087.5-4.436-2.106-5.075-4.1-1-16.624,2.756-25.292,1.786-1.9-.215-3.966,3.41-4.149,6.314S57.947,366.975,60.527,367.362Z" transform="translate(4.638 -296.446)"/><path class="l" d="M60.527,365.458c8.2,1.213,27.7-4.542,28.469-7.487-.858-.508-1.912-1.611-2.054-1.13-.665,2.262-20.875,5.955-22.927,6.177s-3.721-1.443-6.168-4.077v0a8.676,8.676,0,0,0-.363,1.919C57.3,363.76,57.947,365.071,60.527,365.458Z" transform="translate(4.639 -294.425)"/><path class="i" d="M81.14,353.669a35.6,35.6,0,0,1,1.378,7.783c.182,2.482,1.019,3.73-.056,6.062-.963,2.089-5.6,2.825-5.855.774-.439-3.506-4.723-8.205-4.686-15.514.007-1.6.4-7.339,2.873-7.246S79.024,346.718,81.14,353.669Z" transform="translate(16.475 -304.661)"/><path class="j" d="M72.116,348.058a20.733,20.733,0,0,0-.194,2.56c-.022,4.718,1.752,8.346,3.132,11.269a2.967,2.967,0,0,0,.817-1.019c.7-1.654-2.256-8.452-2.869-10.93A7.568,7.568,0,0,0,72.116,348.058Z" transform="translate(16.546 -302.4)"/><g transform="translate(180.817 94.446)"><path class="v" d="M123.454,376.351v1.056l4.112,2.377,6.942-4.008v-1.06Z" transform="translate(-123.454 -372.341)"/><path class="g" d="M130.393,373.434l-6.94,4.01,4.112,2.373,6.942-4.008Z" transform="translate(-123.454 -373.434)"/></g><g transform="translate(89.421 53.416)"><path class="r" d="M86.1,355.213a.3.3,0,0,0-.276-.052c-.895.22-1.171,1.024-1.521,1.721a2.785,2.785,0,0,1-.711,1.093c-.015.011-.024.028-.043.037a3.327,3.327,0,0,1-.567.157,5.876,5.876,0,0,0-1.724,1.295c-.12.08-.224.148-.289.2a5.514,5.514,0,0,1-1.878.509,7.69,7.69,0,0,1-3.13-.75A.8.8,0,0,1,76.279,358a3.561,3.561,0,0,1,1.156-.006c.391.028,1.624.378,2.073.128,0,0,.382-.233.752-.511.443-.332.7-.446.967-.643-.25-.05-.622-.159-.756-.176-.454-.039-.924.022-1.38-.011a4.914,4.914,0,0,1,.546-.248c.137-.076.383-.358.53-.363a3.162,3.162,0,0,1,.622.272c.148.067.309.139.474.2.043.013.083.033.122.044l-.011-.011c.085.019.165.035.232.043a5.6,5.6,0,0,0,1.856-.2c.478-.117,1.2-.385,1.076-1.03-.159-.793-1.736-.8-2.347-.983a2.153,2.153,0,0,1-.785-.506,1.68,1.68,0,0,0-1.03-.567,1.446,1.446,0,0,0-.971.335c-.319.246-.593.576-.928.854-.019.015-.037.028-.054.039l.02.009.011.006H78.44c-.052.095-.111.185-.178.283-.372.552-2.273,1.458-3.036.926v0c-.259.122-.52.246-.783.348-.787.313-1.548.637-1.806,1.535a4.038,4.038,0,0,0,.834,3.536,7.452,7.452,0,0,0,2.328,1.048c.044.017.107.037.161.056.219.076.511.157.845.239.035.009.07.015.1.022a6.383,6.383,0,0,0,1.826.233l.026-.006c.845-.022,2.56-.119,3.5-.256a3.89,3.89,0,0,0,.426-.076,3.747,3.747,0,0,0,1.854-1.334,2.617,2.617,0,0,0,.832-1.274,4.838,4.838,0,0,0,.293-1.308l.022-.017a1.4,1.4,0,0,0,.43-1.028C86.172,357.184,86.512,355.554,86.1,355.213Zm-4.023,6.633a1.389,1.389,0,0,1-.326.176c-.426.133-.895.322-1.374.489a5.939,5.939,0,0,1-1.552.374,2.292,2.292,0,0,1-.987-.117,1.833,1.833,0,0,1-.256-.115c-.609-.343-2.217-.6-2.53-1.348a.712.712,0,0,1,.7-1.052c.541.059.606.289,1.054.482.337.146.848.059,1.215.169.426.128.708.411,1.128.3s1.56-.411,2.789-.711l.007-.024c.056,0,.115-.013.169-.019.346-.081.695-.168,1.035-.248a12.311,12.311,0,0,0,1.4-.765c.1-.057.2-.126.306-.189A7.236,7.236,0,0,1,82.076,361.846Z" transform="translate(-72.504 -350.94)"/><g transform="translate(2.458)"><path class="ap" d="M77.2,358.777a6.38,6.38,0,0,1-1.826-.233c-.03,0-.063,0-.1,0l0-.026c-.333-.082-.626-.163-.845-.239-.239.152-.1.415.08.539a5.772,5.772,0,0,0,1.361.459,2.776,2.776,0,0,0,1.448.317,10.287,10.287,0,0,0,1.874-.317,8.745,8.745,0,0,0,1.356-.663c.039-.022.107-.056.178-.1-.941.137-2.656.233-3.5.256Z" transform="translate(-73.431 -346.811)"/><path class="ap" d="M83.37,353.895l.044,0c-.811-.582-2.406-1.469-3.484-1.176a1.529,1.529,0,0,1-1.126.046c-.415-.12-.761-.333-1.18-.491a2.14,2.14,0,0,0-1.174-.146c-.543.211-.778,1.272-.945,1.754-.276.808-2.408,2.449-1.41,3.151v0c.763.532,2.664-.374,3.036-.926a2.967,2.967,0,0,0,.161-.3c.007,0,.089-.146.217-.313-.052.085-.1.172-.163.274.335-.278.609-.607.928-.854a1.446,1.446,0,0,1,.971-.335,1.68,1.68,0,0,1,1.03.567,2.153,2.153,0,0,0,.785.506c.611.185,2.188.191,2.347.984.128.645-.6.913-1.076,1.03a5.6,5.6,0,0,1-1.856.2c-.067-.007-.146-.024-.232-.043l.011.011c-.039-.011-.08-.032-.122-.044-.165-.065-.326-.137-.474-.2a3.159,3.159,0,0,0-.622-.272c-.146.005-.393.287-.53.363a4.915,4.915,0,0,0-.546.248c.456.033.926-.028,1.38.011.133.017.506.126.756.176-.263.2-.524.311-.967.643-.37.278-.752.511-.752.511-.448.25-1.682-.1-2.073-.128a3.562,3.562,0,0,0-1.156.006.8.8,0,0,0-.319,1.423,7.691,7.691,0,0,0,3.13.75,5.513,5.513,0,0,0,1.878-.509c.065-.052.169-.12.289-.2a5.876,5.876,0,0,1,1.724-1.295,3.327,3.327,0,0,0,.567-.157c.019-.009.028-.026.043-.037a2.785,2.785,0,0,0,.711-1.093c.35-.7.626-1.5,1.521-1.721a.3.3,0,0,1,.276.052A3.008,3.008,0,0,0,83.37,353.895Z" transform="translate(-73.831 -352.089)"/><path class="ap" d="M75.71,354.112h.014l-.01-.006Z" transform="translate(-72.231 -350.37)"/><path class="ap" d="M82.017,357.527c-.341.08-.689.167-1.035.248-.054.006-.113.015-.169.019l-.007.024c-1.23.3-2.363.589-2.789.711s-.7-.17-1.128-.3c-.367-.109-.878-.022-1.215-.169-.448-.193-.513-.422-1.054-.482a.712.712,0,0,0-.7,1.052c.313.745,1.921,1.006,2.53,1.348a1.837,1.837,0,0,0,.256.115,2.294,2.294,0,0,0,.987.117,5.941,5.941,0,0,0,1.552-.374c.48-.167.948-.356,1.374-.489a1.388,1.388,0,0,0,.326-.176,7.236,7.236,0,0,0,2.782-2.6c-.106.063-.206.132-.306.189A12.322,12.322,0,0,1,82.017,357.527Z" transform="translate(-73.827 -348.268)"/></g></g><g transform="translate(154.448 82.755)"><path class="ap" d="M110.721,382.482c.106.07.213.111.32.172a18.759,18.759,0,0,1-1.1-6.376c.228-1.189.5-3.56-.239-4.725-.726-1.145-.232-4.155-.213-4.266-.291.874-.706,1.769-.871,2.521a2.407,2.407,0,0,0,.056,1.9,5.019,5.019,0,0,1,.078,3.428,8.431,8.431,0,0,0,.493,4.3C109.559,380.526,109.73,381.819,110.721,382.482Z" transform="translate(-108.452 -367.288)"/><path class="ap" d="M111.17,376.226a10.287,10.287,0,0,0,3.434-.561.55.55,0,0,0-.146.022A16.7,16.7,0,0,1,111.17,376.226Z" transform="translate(-106.136 -360.149)"/></g><path class="at" d="M105.989,389.827c-1.16,4.153-1.348,8.8-2.186,13.642,1.106,1.678,2.067,2.9,1.626,1.308-.711-2.564,4.114-17.822,6.274-24.422C109.673,380.877,107.824,383.246,105.989,389.827Z" transform="translate(42.252 -272.201)"/><path class="at" d="M117.473,406.12c-3.284.828-7.224-.941-9.295-2.171-1.849-1.1-9.237-10.791-13.021-15.85l-.043.059c-1.986,2.7,7.359,14.057,13.377,19.065A5.9,5.9,0,0,0,117.473,406.12Z" transform="translate(34.783 -265.103)"/><path class="y" d="M106.435,409.082a5.165,5.165,0,0,0,.48,2.256c.741,1.324,3.968,2.91,5.455,2.98,2.095.1,5.342-.78,8.3-1.937C115.663,413.185,110.621,411.433,106.435,409.082Z" transform="translate(44.265 -246.084)"/><path class="y" d="M106.786,411.574a93.566,93.566,0,0,0,12.032,8.1c.478.274,3.68.643,8.213-.985-9.817-.043-19.213-8.617-21.219-10.976-2.186-2.567-9.635-6.742-9.885-5.657a4.827,4.827,0,0,0,.934,2.121C99.84,406.988,103.77,409.042,106.786,411.574Z" transform="translate(35.494 -252.369)"/><path class="l" d="M63.881,376.628c.5-.126,1.548-1.3,2.51-2.806a16.659,16.659,0,0,1-4.182-3.679c-2.017-2.174-9.315-19.463-9.254-26.563-.861,1.9-.9,5.059.385,10.119C55.509,362.254,60.864,377.395,63.881,376.628Z" transform="translate(0.657 -306.397)"/><g transform="translate(130.946 101.789)"><g transform="translate(0)"><g transform="translate(24.454)"><path class="aj" d="M125.895,380.97c-.367.219-7.326,5.171-10.156,10.467-1.356,2.539-7.529,50.961-5.657,54.973s7.2,5.823,8.039,5.342,7.663-9.046,8.209-9.363,10.926-6.309,11.76-6.789,3.869-3.96,5.709-10.121c1.671-5.577,1.934-38.968.343-46.61-.148-.717-2.217-2-3.2-2.323-3.319-1.085-9.748,1.371-10.115,1.574A27.78,27.78,0,0,0,125.895,380.97Z" transform="translate(-109.732 -376.271)"/><g transform="translate(2.911 1.546)"><path class="ac" d="M127.465,381.9c-.367.22-7.324,5.17-10.156,10.469-1.354,2.539-7.529,50.957-5.655,54.971s4.91,3.99,5.746,3.508,11.228-6.483,11.775-6.8,10.926-6.309,11.76-6.79,3.869-3.96,5.709-10.121-2.706-48.388-4.071-49.355c-2.852-2.017-9.808,1.063-10.173,1.267A27.907,27.907,0,0,0,127.465,381.9Z" transform="translate(-111.303 -377.106)"/></g><g transform="translate(5.656 8.458)"><path class="ay" d="M126.862,385.019c-.32.189-6.381,4.5-8.846,9.117-1.18,2.21-6.555,44.38-4.925,47.873s4.279,3.473,5,3.054,9.778-5.646,10.254-5.922,9.515-5.492,10.241-5.912,3.371-3.447,4.971-8.813-2.356-42.14-3.545-42.985c-2.484-1.756-8.541.928-8.859,1.106A24.089,24.089,0,0,0,126.862,385.019Z" transform="translate(-112.785 -380.838)"/></g></g><g transform="translate(0 42.531)"><g class="z"><g transform="translate(7.148 20.625)"><path class="az" d="M100.388,412.056l2.9-1.688,6.957,4.014-2.9,1.688Z" transform="translate(-100.388 -410.368)"/></g><path class="ba" d="M97.336,405.085c0-.087,0-.174,0-.259v-.087l0-.044c0-.122,0-.243.009-.363,0-.039,0-.078.006-.117l.007-.1.007-.132c.011-.119.022-.233.037-.348l0-.028.009-.061c.011-.087.024-.174.039-.257.011-.065.026-.13.039-.193L97.5,403l.011-.059c.028-.12.059-.241.094-.358l.015-.046c.011-.035.024-.07.035-.1.024-.072.046-.144.07-.213s.056-.141.083-.209l2.9-1.686c-.059.135-.107.276-.156.421-.011.035-.024.07-.035.106-.046.15-.085.3-.12.461l-.019.089c-.03.146-.056.295-.076.448l-.009.059c-.02.167-.037.337-.048.509l-.007.106c-.009.17-.013.346-.013.524v.085c0,.163.006.326.015.493,0,.033,0,.067.006.1.011.185.026.371.044.561,0,.044.011.093.017.139.017.15.035.3.057.454.007.059.015.117.024.178.024.158.052.319.082.48.007.046.015.093.022.141.041.209.083.42.13.635.017.07.033.143.052.215.033.148.067.3.106.448q.05.2.106.4c.026.1.052.2.08.3.067.243.139.487.213.728l0,.009c.078.254.159.509.243.761l.078.224c.067.2.137.4.209.6.03.087.061.174.093.257.085.23.17.461.259.689.02.054.041.107.063.161q.175.447.356.887l.083.194q.2.494.415.971c.093.207.185.413.278.619l.085.183c.065.141.128.28.193.417.1.221.206.437.309.65l.085.174c.074.152.148.3.22.448.059.119.117.233.174.35l.061.12.239.467.054.1c.059.117.119.23.176.339.028.052.054.1.08.152.043.082.083.159.126.235.05.093.1.185.146.274l.094.174.137.252c.028.048.056.1.082.15.048.083.091.161.133.239l.065.115c.061.109.119.209.17.3l-2.9,1.687-.17-.3c-.02-.033-.041-.072-.061-.107l-.137-.248c-.026-.048-.054-.1-.08-.145-.044-.083-.091-.165-.139-.254l-.094-.174c-.048-.091-.1-.18-.148-.276-.017-.033-.033-.061-.048-.094s-.05-.093-.076-.139-.052-.1-.08-.152l-.174-.333c-.019-.037-.037-.072-.056-.107-.078-.152-.157-.307-.237-.465l-.065-.13c-.044-.091-.091-.178-.137-.27a.625.625,0,0,0-.035-.07l-.22-.45c-.028-.059-.057-.115-.085-.176-.1-.211-.206-.43-.309-.65l-.009-.021c-.059-.126-.12-.257-.182-.391-.03-.063-.059-.124-.087-.189-.093-.2-.185-.407-.278-.615v0c-.141-.317-.28-.641-.417-.969l-.048-.115-.031-.08c-.122-.293-.241-.587-.357-.887l-.017-.039c-.017-.041-.031-.085-.046-.124-.089-.228-.174-.456-.259-.685-.017-.046-.033-.089-.05-.135l-.044-.124c-.07-.2-.139-.4-.207-.595-.019-.057-.041-.113-.057-.169l-.019-.059c-.083-.25-.165-.5-.243-.754l-.006-.015v0c-.074-.241-.146-.483-.213-.726l-.009-.031c-.026-.089-.048-.182-.072-.272-.035-.132-.07-.265-.1-.4l-.011-.041c-.035-.137-.065-.274-.1-.411-.015-.07-.033-.143-.05-.213l0-.02c-.043-.2-.083-.389-.119-.584l-.006-.031-.026-.139c-.02-.126-.043-.25-.063-.374-.007-.035-.011-.072-.017-.107-.007-.057-.017-.119-.024-.176s-.02-.137-.03-.206-.02-.167-.03-.25c0-.046-.011-.093-.015-.139l-.007-.069c-.013-.144-.024-.287-.035-.432l0-.061c0-.033,0-.067-.006-.1C97.343,405.239,97.337,405.161,97.336,405.085Z" transform="translate(-95.847 -398.298)"/><g class="z" transform="translate(1.966 1.958)"><g class="bb"><g class="z"><path class="bc" d="M97.68,401.976l2.9-1.686a.234.234,0,0,0-.087.074l-2.9,1.686a.332.332,0,0,1,.089-.074Z" transform="translate(-97.591 -400.29)"/></g></g></g><g class="z" transform="translate(14.104 24.639)"><g class="bd"><g class="z"><path class="be" d="M104.144,414.222l2.9-1.687c1.587.917,2.871,1.66,3.151,1.824h0l-2.9,1.687,0,0c-.28-.165-1.563-.906-3.151-1.823Z" transform="translate(-104.144 -412.535)"/><path class="bf" d="M105.847,415.206l2.9-1.686.007,0-2.9,1.686-.007,0Z" transform="translate(-102.692 -411.695)"/><path class="ba" d="M105.851,415.208l2.9-1.686.007,0-2.9,1.686-.006,0Z" transform="translate(-102.689 -411.693)"/><path class="bg" d="M105.854,415.21l2.9-1.686.01,0-2.9,1.688-.01-.005Z" transform="translate(-102.686 -411.692)"/><path class="bh" d="M105.86,415.214l2.9-1.688.01,0-2.9,1.688-.011,0Z" transform="translate(-102.682 -411.69)"/><path class="bi" d="M105.866,415.216l2.9-1.688.014.006-2.9,1.686-.014,0Z" transform="translate(-102.677 -411.688)"/><path class="bj" d="M105.874,415.217l2.9-1.686.017,0-2.9,1.688-.017-.005Z" transform="translate(-102.67 -411.686)"/><path class="bk" d="M105.883,415.221l2.9-1.687.02.006-2.9,1.686-.02,0Z" transform="translate(-102.662 -411.685)"/><path class="bl" d="M105.894,415.222l2.9-1.686.028,0-2.9,1.687-.028-.006Z" transform="translate(-102.653 -411.682)"/><path class="bm" d="M105.909,415.225l2.9-1.687.035,0-2.9,1.687-.035,0Z" transform="translate(-102.64 -411.68)"/><path class="bn" d="M105.928,415.227l2.9-1.687.046,0-2.9,1.687-.046,0Z" transform="translate(-102.624 -411.679)"/><path class="bo" d="M105.953,415.23l2.9-1.687c.022,0,.043,0,.067,0l-2.9,1.687c-.022,0-.044,0-.067,0Z" transform="translate(-102.602 -411.679)"/><path class="bp" d="M105.989,415.232l2.9-1.687c.03,0,.063-.007.1-.013l-2.9,1.686c-.033.007-.067.011-.1.015Z" transform="translate(-102.572 -411.685)"/><path class="bq" d="M106.041,415.238l2.9-1.685a1.437,1.437,0,0,0,.163-.044l-2.9,1.686a.755.755,0,0,1-.161.044Z" transform="translate(-102.527 -411.706)"/><path class="bc" d="M106.128,415.257l2.9-1.686a1.664,1.664,0,0,0,.291-.137l-2.9,1.687a1.8,1.8,0,0,1-.293.135Z" transform="translate(-102.453 -411.769)"/></g></g></g><path class="bc" d="M106.848,421.928l.009-.006c.078-.046.156-.1.232-.15.028-.02.056-.044.082-.065.054-.041.107-.078.159-.124.033-.028.065-.057.1-.085l.143-.13c.033-.033.067-.07.1-.106s.091-.089.133-.137.07-.08.106-.119l.128-.148c.035-.044.069-.089.1-.135s.083-.1.124-.159.069-.094.1-.144.08-.111.12-.17.069-.1.1-.154.078-.119.117-.18.07-.117.106-.174.074-.12.111-.185l.1-.182.107-.194c.035-.063.067-.126.1-.191s.07-.133.106-.2.065-.132.1-.2.063-.126.091-.191c.106-.222.209-.452.307-.685l.05-.118c.1-.235.193-.472.283-.717.015-.041.03-.085.046-.126.081-.226.163-.456.241-.687l.011-.035q.111-.339.211-.683c.015-.043.028-.087.039-.132.059-.2.115-.4.169-.606.009-.035.019-.07.026-.1.044-.174.087-.346.126-.519.011-.046.022-.091.031-.137.083-.361.156-.722.219-1.08l0-.024c.05-.291.093-.576.13-.858l.007-.063c.026-.211.048-.419.065-.622l.013-.159c.011-.13.019-.256.024-.382,0-.052.007-.1.009-.154,0-.117.007-.23.009-.344l0-.122c0-.043,0-.082,0-.124,0-.089,0-.18,0-.267,0-.046-.006-.091-.006-.135-.006-.1-.009-.2-.017-.3l2.9-1.686c0,.044.006.089.009.133l.006.165c0,.046.006.089.007.137l0,.043c0,.072-.052.148-.052.222,0,.043-.05.082-.05.126v.018c0,.033.05.069.05.1,0,.113.022.228.019.345,0,.017.011.033.011.05,0,.033,0,.07,0,.1-.007.126-.011.254-.02.383,0,.03,0,.059-.006.089l-.006.069c-.019.206-.039.413-.065.624l0,.019-.007.044c-.035.282-.078.565-.128.854l0,.009,0,.019q-.092.536-.217,1.078l-.009.048-.022.091c-.041.172-.082.344-.126.517-.009.033-.017.07-.026.1-.054.2-.109.4-.167.606l-.015.056-.026.078c-.067.23-.137.457-.211.682l-.011.035c-.078.232-.157.461-.241.685l-.028.08-.02.05c-.091.243-.185.482-.282.717l-.05.117c-.1.235-.2.463-.306.687l-.019.039-.074.15c-.031.067-.063.133-.1.2s-.069.139-.106.206-.067.128-.1.189l-.107.195c-.033.061-.069.122-.1.181s-.072.126-.109.185-.07.117-.107.174l-.024.043c-.031.046-.061.093-.093.137s-.067.106-.1.154-.081.119-.122.174-.067.1-.1.141-.083.109-.124.163-.069.089-.1.13-.085.1-.13.152-.067.08-.1.117-.091.093-.133.139l-.1.1c-.048.046-.1.089-.143.13l-.1.087c-.052.043-.106.083-.159.124l-.081.063c-.08.057-.161.107-.241.158l-2.9,1.686Z" transform="translate(-87.735 -392.161)"/><path class="ba" d="M119.753,415.614l0-.015c-.028-.109-.059-.22-.094-.332l-.007-.026c-.037-.113-.076-.224-.12-.337l-.006-.015c-.043-.107-.091-.217-.141-.326l-.017-.039c-.05-.105-.1-.215-.159-.322l-.02-.039c-.02-.041-.046-.08-.067-.12-.061-.109-.126-.22-.193-.332l-.111-.18c-.03-.046-.059-.094-.091-.139s-.069-.1-.1-.154c-.069-.1-.141-.2-.217-.307-.039-.054-.078-.107-.119-.161l-.107-.141-.167-.213-.117-.143c-.057-.07-.115-.139-.174-.209-.044-.05-.089-.1-.133-.156s-.113-.124-.169-.187l-.172-.193-.156-.163c-.074-.08-.15-.159-.226-.239l-.144-.146c-.113-.113-.228-.228-.346-.341-.039-.039-.08-.078-.12-.117-.174-.167-.352-.333-.535-.5-.035-.031-.07-.063-.107-.094-.219-.2-.441-.391-.671-.585l-.011-.007c-.285-.241-.58-.48-.88-.717l0,0q-.5-.392-1.017-.774c-.028-.02-.054-.041-.08-.057-.363-.269-.733-.53-1.109-.789l-.085-.057q-.639-.439-1.295-.856c-.03-.019-.059-.037-.089-.057q-.709-.447-1.426-.871l-.393-.23c-.393-.226-.785-.448-1.178-.659l-.1-.054c-.23-.124-.456-.244-.683-.361l-.128-.069c-.235-.12-.467-.239-.7-.352a.338.338,0,0,0-.046-.022c-.213-.106-.426-.209-.637-.309l-.119-.056c-.215-.1-.426-.2-.637-.293l-.133-.059-.546-.239-.061-.026c-.194-.083-.385-.161-.576-.237-.048-.02-.1-.039-.144-.057-.139-.056-.278-.111-.415-.163-.035-.013-.069-.028-.1-.039-.169-.065-.333-.124-.495-.181l-.072-.024c-.3-.106-.6-.2-.88-.289l-.063-.02c-.252-.076-.493-.143-.726-.2l-.033-.009c-.2-.05-.4-.095-.587-.132l-.057-.011c-.157-.031-.309-.057-.459-.078l-.087-.011c-.132-.019-.261-.033-.383-.041l-.05,0c-.094-.006-.187-.007-.276-.009h-.089c-.078,0-.15,0-.222.009l-.059,0c-.087.009-.17.02-.25.035l-.05.013a1.431,1.431,0,0,0-.187.05l-.061.02a1.368,1.368,0,0,0-.2.091l2.9-1.689a1.338,1.338,0,0,1,.2-.087l.026-.011.035-.011a1.436,1.436,0,0,1,.187-.05l.035-.009.015,0c.08-.017.163-.028.25-.037h.013l.048,0c.07-.006.144-.007.22-.009l.043,0,.046,0c.089,0,.182,0,.276.009l.039,0,.011,0c.122.009.252.024.383.041l.041,0,.048.009c.146.019.3.044.459.074l.017.005.037.006c.189.039.385.082.589.135l.009,0,.022.005c.233.057.476.126.726.2l.028.007.037.011c.283.087.578.183.88.289l.033.011.039.015c.163.057.328.117.495.18l.1.039c.139.052.28.106.42.165.026.009.052.017.078.028s.043.019.063.028c.191.076.385.156.58.239l.056.022.552.241.076.035.056.024c.211.095.422.193.637.295l.119.054.639.309.033.017.011.005c.232.115.465.233.7.354l.124.065c.228.118.457.239.687.365l.052.026.046.026c.391.213.785.432,1.178.661.119.069.239.137.357.207l.033.02q.72.422,1.428.872l.046.03.043.028q.656.417,1.295.854l.035.022.048.037c.378.257.75.52,1.113.787l.046.033.03.024c.348.254.689.476,1.021.737l0-.035h0a7.506,7.506,0,0,0,.878.754l.011.028,0,.011c.232.194.454.393.672.589l.067.061c.013.011.024.026.039.037.182.165.361.332.535.5l.039.037c.028.026.056.054.083.081q.175.17.345.339c.026.028.054.054.08.08l.065.069c.076.078.152.157.224.235.037.039.074.074.109.115l.048.052c.059.063.115.126.172.191.039.044.082.089.12.133l.046.056c.046.05.089.1.135.156l.115.135c.02.024.039.05.059.072l.115.143c.032.037.061.074.091.111s.052.069.078.1.072.093.107.141l.061.082.059.082c.072.1.144.2.215.306a1.052,1.052,0,0,1,.061.089l.044.065.089.139c.024.039.05.078.074.115s.024.044.037.067c.067.109.132.222.193.331.013.028.031.054.044.08l.022.041.019.037c.019.035.037.067.054.1.03.061.059.118.087.18l.02.045.017.037c.013.028.026.056.039.085s.041.089.057.135.031.072.044.107l.006.013.006.013c.017.046.033.091.05.135s.031.089.046.133l.019.057.009.024.015.052c.013.045.028.089.039.133s.024.089.035.132l0,.015,0,.015.024.1.026.126c.006.033.011.065.017.1l0,.011,0,.013c.007.043.013.083.019.126s.009.081.013.122l.007.074-2.9,1.686c-.009-.109-.022-.222-.041-.333l0-.013C119.8,415.833,119.779,415.725,119.753,415.614Z" transform="translate(-96.076 -399.233)"/><g transform="translate(0 1.687)"><path class="bc" d="M120.315,415.512c.389,5.09-3.29,14.644-6.535,12.769l-3.151-1.819c-3.171-1.832-7.339-4.238-7.559-4.362-.441-.728-8.835-14.529-5.933-21.321.722-1.691,6.34.182,11.865,3.371C114.57,407.364,120.041,411.915,120.315,415.512Zm-5.564,10.841c2.35-1.606,4.373-8.059,4.11-11.523-.128-1.676-3.629-5.4-9.859-9-6.081-3.512-10.078-4.232-10.506-3.654-2.175,5.088,3.593,15.807,5.181,18.595l6.957,4.014c1.587.917,2.871,1.658,3.151,1.823.113.065.459.094.967-.252Z" transform="translate(-96.529 -400.144)"/></g></g></g></g></g></g></svg>