<svg xmlns="http://www.w3.org/2000/svg" xmlns:xlink="http://www.w3.org/1999/xlink" width="220" height="220" viewBox="0 0 220 220"><defs><style>.a,.i{opacity:0.5;}.b{fill:#ebebeb;}.c{fill:#08083d;}.d{fill:#4e4e98;}.e{fill:#2b2b70;}.ae,.f{fill:#2e2e5e;}.g{fill:url(#a);}.h{fill:#bcbec0;}.h,.i,.n{mix-blend-mode:multiply;}.h,.i,.k,.n{isolation:isolate;}.i{fill:url(#b);}.j{fill:#96aee9;}.k{mix-blend-mode:color-dodge;}.l{fill:#efefef;}.l,.m{opacity:0.3;}.m,.r{fill:#fff;}.n{fill:url(#c);}.o{fill:url(#d);}.p{fill:#7cf1ad;}.q{fill:url(#e);}.s{fill:url(#f);}.t{fill:#46df86;}.u{fill:url(#g);}.v{fill:#c2c2c2;}.w{fill:url(#h);}.x{fill:#6184d8;}.y{fill:url(#j);}.z{fill:url(#k);}.aa{fill:url(#l);}.ab{fill:#8dadfb;}.ac{fill:url(#m);}.ad{fill:#d2d2d2;}.ae{opacity:0.6;}.af{fill:#1b2f5e;}.ag{fill:#445c97;}.ah{fill:#bfcef3;}.ai{fill:#2e61dc;}.aj{fill:#658ff6;}.ak{fill:#4f4f98;}.al{fill:#49c67d;}.am{opacity:0.1;}.an{fill:url(#n);}</style><linearGradient id="a" x1="-140.048" y1="506.206" x2="-136.4" y2="506.206" gradientUnits="objectBoundingBox"><stop offset="0" stop-color="#311b61"/><stop offset="0.203" stop-color="#290e52"/><stop offset="0.495" stop-color="#200041"/><stop offset="1" stop-color="#0f001f"/></linearGradient><linearGradient id="b" x1="192.901" y1="0.611" x2="195.01" y2="0.068" gradientUnits="objectBoundingBox"><stop offset="0.096" stop-color="#45108a"/><stop offset="1" stop-color="#7c1dc9"/></linearGradient><linearGradient id="c" x1="0.679" y1="0.626" x2="0.224" y2="-0.196" gradientUnits="objectBoundingBox"><stop offset="0" stop-color="#fff"/><stop offset="1"/></linearGradient><radialGradient id="d" cx="0.504" cy="0.501" r="0.655" gradientTransform="translate(0.18) scale(0.64 1)" gradientUnits="objectBoundingBox"><stop offset="0" stop-color="#271273"/><stop offset="0.084" stop-color="#200f5f"/><stop offset="0.26" stop-color="#14093d"/><stop offset="0.439" stop-color="#0b0522"/><stop offset="0.62" stop-color="#05020f"/><stop offset="0.805" stop-color="#010003"/><stop offset="1"/></radialGradient><radialGradient id="e" cx="1.361" cy="0.165" r="1.081" gradientTransform="translate(-0.032) scale(1.064 1)" xlink:href="#d"/><linearGradient id="f" x1="-3.996" y1="0.5" x2="1.009" y2="0.5" gradientUnits="objectBoundingBox"><stop offset="0.035" stop-color="#9d9eb3"/><stop offset="0.581" stop-color="#d4d1d8"/><stop offset="1" stop-color="#eeebf2"/></linearGradient><linearGradient id="g" x1="-3.962" y1="0.5" x2="1" y2="0.5" xlink:href="#f"/><linearGradient id="h" x1="-4.266" y1="-14.494" x2="-3.111" y2="-14.494" gradientUnits="objectBoundingBox"><stop offset="0.035" stop-color="#6b24d6"/><stop offset="0.294" stop-color="#7733dc"/><stop offset="0.794" stop-color="#965bec"/><stop offset="1" stop-color="#a56ef4"/></linearGradient><radialGradient id="j" cx="5.206" cy="-3.412" r="4.448" gradientTransform="translate(-0.08) scale(1.161 1)" xlink:href="#d"/><linearGradient id="k" x1="-0.877" y1="0.998" x2="1.957" y2="0.101" gradientUnits="objectBoundingBox"><stop offset="0.035" stop-color="#138bbd"/><stop offset="0.226" stop-color="#169ac6"/><stop offset="0.595" stop-color="#1ec2df"/><stop offset="1" stop-color="#2af6ff"/></linearGradient><radialGradient id="l" cx="0.5" cy="0.516" r="0.55" gradientTransform="translate(0.049) scale(0.901 1)" xlink:href="#d"/><linearGradient id="m" x1="-1.542" y1="0.5" x2="1" y2="0.5" xlink:href="#f"/><linearGradient id="n" x1="1.472" y1="0.822" x2="-0.378" y2="-0.348" gradientUnits="objectBoundingBox"><stop offset="0.035" stop-color="#ffa98c"/><stop offset="0.317" stop-color="#feb892"/><stop offset="0.86" stop-color="#fee0a3"/><stop offset="1" stop-color="#feeca8"/></linearGradient></defs><g transform="translate(0)"><g class="a" transform="translate(0 110.083)"><path class="b" d="M107.378,332.605c42.958,21.463,112.606,21.463,155.563,0s42.958-56.261,0-77.724-112.606-21.463-155.563,0S64.419,311.143,107.378,332.605Z" transform="translate(-75.159 -238.785)"/></g><g transform="translate(117.407 0)"><path class="c" d="M535.584,247.86l-49.577-28.624c-5.593-3.229-10.126-11.89-10.126-19.347V67.859c0-3.792-3.117-4.63-1.229-5.992.072-.052,4.426-2.03,4.508-2.061a7.31,7.31,0,0,1,6.847.4l49.577,28.624c5.593,3.229,10.126,11.891,10.126,19.347V240.2c0,3.962-1.28,6.787-3.319,8.079-.121.076-5.367,2.571-5.5,2.616C535.083,251.5,538.029,249.271,535.584,247.86Z" transform="translate(-471.148 -59.14)"/><path class="d" d="M529.405,251.138l-49.577-28.624c-5.592-3.229-10.126-11.89-10.126-19.347V71.137c0-7.456,4.534-10.884,10.126-7.655l49.577,28.623C535,95.335,539.531,104,539.531,111.453v132.03C539.531,250.939,535,254.367,529.405,251.138Z" transform="translate(-469.702 -60.181)"/><path class="e" d="M471.772,204.95V72.757c0-6.537,3.974-9.541,8.877-6.711l49.315,28.472c4.9,2.83,8.876,10.424,8.876,16.96V243.671c0,6.537-3.974,9.541-8.876,6.711L480.649,221.91C475.746,219.08,471.772,211.486,471.772,204.95Z" transform="translate(-470.391 -61.085)"/><path class="f" d="M474.729,207.122V75.6c0-5.471,3.327-7.986,7.43-5.617l48.262,27.864c4.1,2.369,7.431,8.725,7.431,14.2V243.565c0,5.471-3.327,7.986-7.431,5.617l-48.262-27.864C478.056,218.949,474.729,212.593,474.729,207.122Z" transform="translate(-471.376 -62.453)"/><path class="g" d="M576.378,175.782v-8.913a3.706,3.706,0,0,1,1.548-2.957h0c.854-.494,1.548.031,1.548,1.17v8.913a3.708,3.708,0,0,1-1.548,2.957h0C577.071,177.445,576.378,176.922,576.378,175.782Z" transform="translate(-505.218 -93.961)"/><path class="f" d="M577.479,176.97c-.442,0-.6-.55-.6-1.021v-8.913a3.393,3.393,0,0,1,1.38-2.667.926.926,0,0,1,.447-.141c.442,0,.6.55.6,1.021v8.913a3.4,3.4,0,0,1-1.38,2.668A.932.932,0,0,1,577.479,176.97Z" transform="translate(-505.386 -94.128)"/><path class="d" d="M577.338,176.177v-8.913a3.393,3.393,0,0,1,1.38-2.667.96.96,0,0,1,.4-.132.474.474,0,0,0-.406-.237.933.933,0,0,0-.447.141,3.4,3.4,0,0,0-1.38,2.668v8.913c0,.471.157,1.021.6,1.021.015,0,.035-.007.051-.008A1.485,1.485,0,0,1,577.338,176.177Z" transform="translate(-505.386 -94.128)"/><path class="h" d="M530.355,99.346,483.211,72.127c-3.868-2.233-7-.446-7,3.992v133a15.429,15.429,0,0,0,7,12.078l47.144,27.219c3.868,2.233,7,.446,7-3.992v-133A15.429,15.429,0,0,0,530.355,99.346Zm6.394,145.081a5.2,5.2,0,0,1-.937,3.274,2.858,2.858,0,0,1-2.313,1.071h0a5.838,5.838,0,0,1-2.838-.881l-47.144-27.219a14.774,14.774,0,0,1-6.7-11.551v-133c0-2.68,1.245-4.345,3.251-4.345a5.846,5.846,0,0,1,2.838.881l47.145,27.219a14.78,14.78,0,0,1,6.7,11.551Z" transform="translate(-471.868 -63.144)"/><path class="i" d="M510.4,251.654a12.791,12.791,0,0,1,5.144,6.547c.971-1.564,2.908-1.9,5.144-.607a12.8,12.8,0,0,1,5.808,10.018c0,6.727-10.952,8.72-10.952,8.72s-10.952-14.639-10.952-21.367C504.594,251.285,507.194,249.8,510.4,251.654Z" transform="translate(-481.319 -122.97)"/><path class="j" d="M508.854,252.686A12.791,12.791,0,0,1,514,259.232c.971-1.564,2.909-1.9,5.144-.606a12.8,12.8,0,0,1,5.808,10.018c0,6.727-10.953,8.72-10.953,8.72S503.046,262.725,503.046,256C503.046,252.317,505.646,250.834,508.854,252.686Z" transform="translate(-480.803 -123.314)"/><g class="k" transform="translate(23.666 128.578)"><path class="l" d="M508.7,253.118a12.785,12.785,0,0,1,5.144,6.547,3,3,0,0,1,.716-.784,12.68,12.68,0,0,0-5-6.193c-1.752-1.011-3.32-1.022-4.385-.228A4.511,4.511,0,0,1,508.7,253.118Z" transform="translate(-505.18 -251.894)"/><path class="m" d="M524.994,261.595c-1.749-1.01-3.309-1.014-4.373-.223a4.492,4.492,0,0,1,3.512.654,12.8,12.8,0,0,1,5.808,10.018c0,3.125-2.364,5.228-4.9,6.584,2.828-1.325,5.756-3.536,5.756-7.014A12.8,12.8,0,0,0,524.994,261.595Z" transform="translate(-510.321 -254.861)"/></g></g><path class="n" d="M475.626,277.23l-3.5-9.839,3.5-13.174Z" transform="translate(-359.879 -129.391)"/><g transform="translate(96.491 41.451)"><path class="o" d="M555.431,141.515h0l0,0Z" transform="translate(-481.595 -131.604)"/><g transform="translate(0.02)"><path class="p" d="M511.439,128.472v.005c-5.218-2.908-12.39-2.424-20.307,2.147l-26,15.01,13.027,7.555,26.009-15.017c7.67-4.428,14.641-5.021,19.812-2.409Z" transform="translate(-451.553 -126.659)"/><path class="q" d="M444.775,162.946V183.4l13.038-7.528v-5.382l13.57-7.834L458.356,155.1Z" transform="translate(-444.775 -136.13)"/><path class="r" d="M444.775,162.946l13.038,7.548,13.57-7.834L458.356,155.1Z" transform="translate(-444.775 -136.13)"/></g><g transform="translate(13.058 7.547)"><g transform="translate(0)"><path class="s" d="M477.89,166.43l-13.57,7.835,13.57-7.835Z" transform="translate(-464.32 -147.447)"/><path class="t" d="M510.672,141.939l-26.009,15.017.117.068v20.322L510.672,162.4c6.1-3.519,11.054-.692,11.054,6.3,0,.089,0,.178-.006.267l17.827-10.217c0-.113.008-.229.008-.342h0C539.554,140.1,526.623,132.73,510.672,141.939Z" transform="translate(-471.093 -137.973)"/><path class="u" d="M477.89,166.43l-13.57,7.835v20.458l13.687-7.9V166.5Z" transform="translate(-464.32 -147.447)"/><path class="v" d="M477.89,166.43l-13.57,7.835v20.458l13.687-7.9V166.5Z" transform="translate(-464.32 -147.447)"/></g><path class="w" d="M503.9,198.134,464.32,220.985v20.458L503.9,218.593c15.853-9.153,28.716-31.236,28.874-49.475l-17.827,10.217C514.824,186.279,509.917,194.66,503.9,198.134Z" transform="translate(-464.32 -148.342)"/><g transform="translate(0 20.776)"><path class="x" d="M521.773,179.335c-.123,6.944-5.03,15.324-11.048,18.8l-25.9,14.955.01.006v20.446l25.892-14.949c15.853-9.153,28.716-31.236,28.875-49.475Z" transform="translate(-471.146 -169.118)"/><path class="u" d="M478,235.036l-13.677,7.9V263.39l13.687-7.9V235.042Z" transform="translate(-464.32 -191.064)"/><path class="v" d="M478,235.036l-13.677,7.9V263.39l13.687-7.9V235.042Z" transform="translate(-464.32 -191.064)"/></g></g><g transform="translate(0.02 30.458)"><path class="y" d="M444.775,262.683l6.116-3.531-6.116-3.568Z" transform="translate(-444.775 -200.041)"/><path class="z" d="M534.512,180.41c0-.092.006-.185.006-.276,0-6.993-4.958-9.821-11.054-6.3l-.378.218,11.406,6.341Z" transform="translate(-470.848 -172.319)"/><path class="aa" d="M457.813,222.915l39.579-22.851c6.016-3.473,10.92-11.848,11.048-18.79l-.02-.019-11.406-6.341-1.806,1.043c-.978,6.418-5.471,13.451-10.854,16.558l-39.579,22.851v13.359l6.115,3.568,6.923-4Z" transform="translate(-444.775 -173.183)"/><g transform="translate(0 1.732)"><path class="ab" d="M515.251,181.256l-11.406-6.341-1.806,1.043c-.978,6.418-5.471,13.451-10.854,16.558l-25.891,14.948,13.026,7.555,25.9-14.955c6.016-3.473,10.92-11.848,11.048-18.79Z" transform="translate(-451.607 -174.915)"/><path class="ac" d="M444.775,231.613v13.359l6.116,3.568,6.923-4v-5.382l13.677-7.9-13.027-7.555Z" transform="translate(-444.775 -191.161)"/><path class="r" d="M444.775,231.613l13.038,7.548,13.677-7.9-13.027-7.555Z" transform="translate(-444.775 -191.161)"/></g></g><path class="ad" d="M457.8,263.5l-13.059-7.651V235.466L457.8,243.04Z" transform="translate(-444.744 -162.885)"/><path class="ad" d="M457.8,194.853,444.744,187.2V166.822L457.8,174.4Z" transform="translate(-444.744 -140.031)"/><path class="ae" d="M533.748,135.687c.055.027.113.048.167.076l-12.543-7.291v.005c-5.217-2.908-12.389-2.424-20.307,2.147l-6.1,3.52,13.571,7.3v20.395l5.563-3.212-.378.218-1.806,1.043c-.978,6.418-5.471,13.451-10.854,16.558l-5.993,3.4,13.468,7.8v20.027l5.563-3.212c15.853-9.153,28.716-31.236,28.874-49.475,0-.114.008-.229.008-.342C542.985,145.044,539.427,138.46,533.748,135.687Z" transform="translate(-461.466 -126.659)"/></g><g transform="translate(3.16 78.502)"><g transform="translate(20.696 74.17)"><path class="af" d="M388.837,247.025v3.347l29.172-16.283v-3.54Z" transform="translate(-366.613 -217.568)"/><path class="ag" d="M384.488,247.7v3.347l-22.251-12.855v-3.54Z" transform="translate(-362.237 -218.243)"/><path class="x" d="M362.237,231.42l22.251,13.049,29.144-16.476-22.3-12.981Z" transform="translate(-362.237 -215.012)"/><path class="r" d="M400.222,223.33h0a3.3,3.3,0,0,0-2.984-.005l-5.924,3.42-3.039-1.755a5,5,0,0,0-4.522-.008h0a.44.44,0,0,0,0,.834l2.569,1.484a2.14,2.14,0,0,1,1.219,1.608l.233,3.549,6.547,3.78a2.99,2.99,0,0,0,2.7.005l3.206-1.851,4-2.308,2.139-1.235c.8-.46.875-1.21.119-1.7a2.865,2.865,0,0,0-1.349-.4c.778-.476.761-1.227-.05-1.7a3.286,3.286,0,0,0-2.077-.313l.022-.013c.813-.47.876-1.24.082-1.724a3.322,3.322,0,0,0-2.506-.251C401.02,224.294,400.89,223.716,400.222,223.33Z" transform="translate(-365.728 -216.321)"/><path class="v" d="M392.859,240.194l-3.054,1.763a2.517,2.517,0,0,1-2.267.094L380.01,237.7c-.581-.336-.508-.922.163-1.308l3.054-1.764a2.519,2.519,0,0,1,2.267-.094l7.528,4.346C393.6,239.22,393.53,239.806,392.859,240.194Z" transform="translate(-365.097 -218.187)"/></g><g transform="translate(61.758 12.847)"><path class="ah" d="M433.355,191.529l.886-2.483s-2.722-1.4-3.093-1.535a3.4,3.4,0,0,0-2.738.093,4.155,4.155,0,0,0-2.071,3.83l-.895-.411c-.258-.151-.886-.408-.886-.408v.011a3.357,3.357,0,0,0-2.541.16c-1.993.992-2.668,3.877-1.508,6.443a10.259,10.259,0,0,0,4.333,4.16v.037l4.226,2.121.125-.353c.975.322,1.61.484,1.61.484S434.1,196.436,433.355,191.529Z" transform="translate(-419.942 -187.268)"/><path class="j" d="M432.181,189.5a4.229,4.229,0,0,0-2.069,4.085,3.845,3.845,0,0,0-4.324-.9c-1.993.993-2.668,3.878-1.508,6.443,2.12,4.69,11.546,7.1,11.546,7.1s4.184-9.185,2.064-13.876C436.731,189.783,434.175,188.507,432.181,189.5Z" transform="translate(-421.198 -187.899)"/></g><g transform="translate(14.701 0)"><path class="ai" d="M364.941,187.8l27.893-16.2c3.32-1.917,6.01.118,6.01,4.544v4.364c0,4.425-2.691,9.568-6.01,11.485l-10.407,6.006-4.6,13.55-4.6-8.235-8.285,4.874c-3.319,1.917-6.01-.118-6.01-4.544v-4.363C358.931,194.861,361.622,189.719,364.941,187.8Z" transform="translate(-355.833 -169.072)"/><path class="aj" d="M371.614,205.081,373.486,204l4.6,8.234-3.692-2.176Z" transform="translate(-356.093 -169.751)"/><path class="aj" d="M361.779,185.948l27.892-16.2a3.926,3.926,0,0,1,3.755-.406l.032-.035,3.285,1.929-.012.04a3.821,3.821,0,0,0-3.963.289l-27.892,16.2c-3.32,1.917-6.011,7.058-6.011,11.486v4.363c0,2.151.64,3.731,1.674,4.573l-1.832-1.207a5.41,5.41,0,0,1-2.94-5.183v-4.364C355.768,193.006,358.46,187.865,361.779,185.948Z" transform="translate(-355.768 -169.034)"/><g transform="translate(7.132 9.438)"><path class="r" d="M372.081,199.308l6.373-3.51v1.3l-6.373,3.51Z" transform="translate(-363.235 -179.02)"/><path class="r" d="M381.736,184.064l-6.35,3.518v-1.3l6.35-3.518Z" transform="translate(-363.302 -178.753)"/><path class="r" d="M381.486,191.178v1.3l-6.861,3.762v-1.3Z" transform="translate(-363.287 -178.926)"/><path class="r" d="M374.371,191.038v-1.3l2.488-1.436v1.3Z" transform="translate(-363.282 -178.867)"/><path class="r" d="M370.448,189.116v1.3L366.4,192.7v-1.3Z" transform="translate(-363.118 -178.883)"/><path class="r" d="M383.672,185.784l-5.434,2.99v-1.3l5.434-2.99Z" transform="translate(-363.361 -178.788)"/><path class="r" d="M376.689,192.372v-1.3l4.026-2.161v1.3Z" transform="translate(-363.329 -178.879)"/><path class="r" d="M379.915,196.325v-1.3l1.119-.651v1.3Z" transform="translate(-363.395 -178.991)"/><path class="r" d="M375.275,191.872v1.3l-4.189,2.386v-1.3Z" transform="translate(-363.214 -178.94)"/><path class="r" d="M382.956,191.7v-1.3l1.48-.863v1.3Z" transform="translate(-363.458 -178.892)"/><path class="r" d="M372.954,190.522v1.3l-5.259,2.944v-1.3Z" transform="translate(-363.145 -178.912)"/><path class="r" d="M370.711,201.442l-2.094,1.2v-1.3l2.094-1.2Z" transform="translate(-363.164 -179.109)"/><path class="r" d="M374.034,188.41l-2.174,1.23v-1.3l2.174-1.23Z" transform="translate(-363.23 -178.842)"/><path class="r" d="M388.079,181.932l5.616-3.263v1.3l-5.616,3.263Z" transform="translate(-363.563 -178.669)"/><path class="r" d="M389.407,183.972l2.076-1.21v1.3l-2.076,1.21Z" transform="translate(-363.59 -178.753)"/><path class="r" d="M385.795,188.661l9.7-5.568v1.3l-9.7,5.568Z" transform="translate(-363.516 -178.76)"/><path class="r" d="M382.127,188.085l5.85-3.333v1.3l-5.85,3.333Z" transform="translate(-363.441 -178.794)"/><path class="r" d="M382.385,194.859v-1.3l4.658-2.667v1.3Z" transform="translate(-363.446 -178.92)"/><path class="r" d="M386.738,184.056l-1.625.941v-1.3l1.625-.942Z" transform="translate(-363.502 -178.753)"/><path class="r" d="M369.621,196.366l-6.572,3.744v-1.3l6.572-3.744Z" transform="translate(-363.05 -179.005)"/><path class="r" d="M373.146,197.08l-7.24,4.141v-1.3l7.24-4.141Z" transform="translate(-363.108 -179.02)"/></g></g><g transform="translate(46.899 42.745)"><path class="f" d="M383.328,283.543v-2.692l-2.081.823L362.5,270.85a4.879,4.879,0,0,0-4.413-.008l-11.033,6.37-1.547-1.154v2.716a1.5,1.5,0,0,0,.907,1.363l12.453,7.19.039,7.167,6.187-3.572,1.245.718a4.878,4.878,0,0,0,4.414.008l11.687-6.747A1.477,1.477,0,0,0,383.328,283.543Z" transform="translate(-345.49 -267.442)"/><path class="ak" d="M382.417,278.042l-19.924-11.5a4.879,4.879,0,0,0-4.413-.008l-11.688,6.748c-1.215.7-1.209,1.842.014,2.548l12.453,7.19.039,7.167,6.188-3.572,1.245.718a4.878,4.878,0,0,0,4.414.008l11.687-6.747C383.645,279.889,383.639,278.748,382.417,278.042Z" transform="translate(-345.484 -266.007)"/><path class="r" d="M367.147,277.167c0,.746-1.041,1.35-2.333,1.348s-2.344-.61-2.348-1.356,1.041-1.349,2.333-1.347S367.143,276.421,367.147,277.167Z" transform="translate(-351.138 -269.272)"/><ellipse class="r" cx="1.351" cy="2.341" rx="1.351" ry="2.341" transform="translate(16.717 12.346) rotate(-89.69)"/><path class="r" d="M383.326,286.508c0,.746-1.041,1.349-2.333,1.347s-2.344-.609-2.348-1.355,1.041-1.349,2.333-1.347S383.322,285.762,383.326,286.508Z" transform="translate(-356.525 -272.381)"/><path class="f" d="M371.778,296.895v2.876l-6.187,3.572v-2.876Z" transform="translate(-352.179 -276.291)"/></g><g transform="translate(0 52.897)"><path class="al" d="M436.9,265.977V264.07l-3.39.813-3.7-.669a1.208,1.208,0,0,1-.861-.5l-1.936-3.565a1.8,1.8,0,0,0-2.312-.215L421,262.974a1.736,1.736,0,0,1-1.08.316l-6.459-.06h-.034l-1.308-1.308v1.994l.026.015a.557.557,0,0,0,.261.5l3.879,3a.514.514,0,0,1,.193.693l-1.158,1.987-.955-.156v1.853a.426.426,0,0,0,0,.182v.034l.009,0c.13.43.9.746,1.708.59l6.11-1.187a2.125,2.125,0,0,1,1.2.112l5.189,2.239c.869.375,2.1.015,2.081-.609l-.1-3.729c-.006-.248.2-.481.548-.624l5.262-2.143C436.784,266.5,436.951,266.23,436.9,265.977Z" transform="translate(-412.115 -257.651)"/><path class="t" d="M429.836,260.841l6.174,1.118c1.033.187,1.254.976.373,1.335l-5.262,2.144c-.35.142-.555.375-.548.624l.1,3.729c.017.625-1.213.985-2.081.609l-5.189-2.239a2.12,2.12,0,0,0-1.2-.111l-6.11,1.186c-1.023.2-2-.368-1.66-.958l2.055-3.528a.515.515,0,0,0-.193-.693l-3.879-3c-.65-.5-.026-1.212,1.056-1.2l6.459.059a1.736,1.736,0,0,0,1.08-.316l3.713-3.038a1.8,1.8,0,0,1,2.312.215l1.936,3.565A1.207,1.207,0,0,0,429.836,260.841Z" transform="translate(-412.131 -256.247)"/><g class="am" transform="translate(24.788 26.171)"><path class="an" d="M454.578,301.108v-.032h0A.305.305,0,0,1,454.578,301.108Z" transform="translate(-454.576 -301.076)"/></g></g><path class="r" d="M392.3,239.649c0,.313-.436.566-.977.564s-.982-.255-.984-.568.436-.565.977-.564S392.294,239.336,392.3,239.649Z" transform="translate(-343.105 -204.725)"/></g></g></svg>