<svg xmlns="http://www.w3.org/2000/svg" width="220" height="200.966" viewBox="0 0 220 200.966"><defs><style>.a{fill:#ebebeb;}.b{fill:#23ce6b;}.c{opacity:0.1;}.d,.m,.n{fill:#fff;}.e{fill:#4d4d9b;}.f{fill:#08083d;}.g{fill:#2e2e5e;}.h{fill:#96aee9;}.i{fill:#f5f5f5;}.j{fill:#6184d8;}.k{fill:#37474f;}.l{fill:#263238;}.m{opacity:0.4;}.n{opacity:0.7;}.o{fill:#e6e6e6;}.p{fill:#2e61dc;}</style></defs><g transform="translate(0)"><g transform="translate(22.349 91.049)"><path class="a" d="M103.329,332.605c37.56,21.463,98.457,21.463,136.017,0s37.561-56.261,0-77.724-98.457-21.463-136.017,0S65.769,311.143,103.329,332.605Z" transform="translate(-75.159 -238.785)"/></g><g transform="translate(0 79.102)"><g transform="translate(189.7)"><path class="b" d="M400.172,270.286,394.3,266.9s-1.437-12.566-.481-22.3c1.344-13.674,10.175-30.128,20.71-26.264s-4.831,17.791-8.251,29.389S400.172,270.286,400.172,270.286Z" transform="translate(-393.495 -217.764)"/><path class="c" d="M400.172,270.286,394.3,266.9s-1.437-12.566-.481-22.3c1.344-13.674,10.175-30.128,20.71-26.264s-4.831,17.791-8.251,29.389S400.172,270.286,400.172,270.286Z" transform="translate(-393.495 -217.764)"/><g transform="translate(2.992 3.404)"><path class="d" d="M399.388,271.335a.227.227,0,0,1-.224-.2c-2-15.325,3.465-38.534,14.488-47.334a.226.226,0,1,1,.282.354c-10.906,8.706-16.3,31.715-14.322,46.921a.225.225,0,0,1-.195.254Z" transform="translate(-398.759 -223.754)"/></g></g><g transform="translate(195.288 18.131)"><path class="b" d="M407.548,286.482l-4.175-2.411a46.056,46.056,0,0,1,3.517-19.1c3.68-9.119,12.812-16.685,17.4-15.095s4.478,4.847,2.239,8.263S410.672,269.7,407.548,286.482Z" transform="translate(-403.328 -249.667)"/><g transform="translate(1.405 3.17)"><path class="d" d="M406.027,289.117h-.015a.227.227,0,0,1-.211-.24c1.376-21.458,12.232-32.012,18.751-33.624a.227.227,0,0,1,.109.44c-6.868,1.7-17.12,13.125-18.408,33.213A.226.226,0,0,1,406.027,289.117Z" transform="translate(-405.8 -255.246)"/></g></g><g transform="translate(11.261 25.13)"><path class="b" d="M85.377,291.044s.778-12.6-6.542-21.235-16.848-8.607-20.005-7-5.269,6.207.159,9.5,16.97,9.872,18.887,15.749Z" transform="translate(-55.649 -261.981)"/><path class="c" d="M85.377,291.044s.778-12.6-6.542-21.235-16.848-8.607-20.005-7-5.269,6.207.159,9.5,16.97,9.872,18.887,15.749Z" transform="translate(-55.649 -261.981)"/><g transform="translate(4.79 2.548)"><path class="d" d="M85.6,289.826a.284.284,0,0,1-.282-.254c-1.51-13.942-15.441-21.67-21-22.544a.284.284,0,0,1-.236-.325.288.288,0,0,1,.325-.236c5.682.893,19.929,8.794,21.473,23.044a.285.285,0,0,1-.252.313Z" transform="translate(-64.077 -266.464)"/></g></g><g transform="translate(0 41.173)"><path class="b" d="M70.693,296.879c-1.835-4.183-3.911-6.059-9.879-5.06s-5.087.845-12.419-1.022a14.62,14.62,0,0,0-9.493.421c-2.494,1.122-4.361,3.412-1.944,5.831,2.715,2.718,6.769,3.631,9.785,6.012a4.733,4.733,0,0,1,1.57,1.891c.788,2.011-.79,4.278-.331,6.39.444,2.039,2.677,3.231,4.759,3.368s4.132-.489,6.206-.726,4.405.016,5.833,1.538c1.535,1.636,1.575,4.242,3,5.974,2.141,2.6,7.4,3.321,10.225,1.693l7.438-4.288c4.918-6.628-2.814-11.877-6.9-17.021C76.559,299.385,71.795,299.391,70.693,296.879Z" transform="translate(-35.833 -290.21)"/><g transform="translate(4.73 2.711)"><path class="d" d="M84.419,316.968a.283.283,0,0,1-.242-.135c-8.486-13.749-31.563-20.7-39.757-21.285a.284.284,0,0,1-.264-.3.291.291,0,0,1,.3-.264c8.279.589,31.606,7.627,40.2,21.554a.284.284,0,0,1-.242.433Z" transform="translate(-44.156 -294.98)"/></g><g transform="translate(17.83 12.211)"><path class="d" d="M67.491,317.7a.284.284,0,0,1-.169-.512c.3-.22,7.342-5.392,14.19-5.5h0a.284.284,0,0,1,0,.568c-6.666.1-13.789,5.331-13.86,5.384A.28.28,0,0,1,67.491,317.7Z" transform="translate(-67.206 -311.696)"/></g></g></g><g transform="translate(26.279 0)"><path class="e" d="M114.071,297.246a5.278,5.278,0,0,0,2.461,4.087l68.952,39.809a5.438,5.438,0,0,0,4.922,0l94.345-54.47a4.623,4.623,0,0,0,0-8.173L215.8,238.69a5.438,5.438,0,0,0-4.922,0l-94.347,54.47A5.276,5.276,0,0,0,114.071,297.246Z" transform="translate(-109.453 -147.441)"/><path class="f" d="M142.519,308.581l-25.988,15a4.624,4.624,0,0,0,0,8.173l68.952,39.809a5.034,5.034,0,0,0,2.461.589V308.581Z" transform="translate(-109.453 -177.866)"/><path class="g" d="M108.255,224.386a5.279,5.279,0,0,1-2.309-4.175V137.927a5.439,5.439,0,0,1,2.461-4.262l94.346-54.471a4.624,4.624,0,0,1,7.078,4.087v82.284a5.441,5.441,0,0,1-2.461,4.262L113.024,224.3A5.277,5.277,0,0,1,108.255,224.386Z" transform="translate(-105.946 -78.579)"/><path class="f" d="M117.49,184.986l-10.823-6.248a5.028,5.028,0,0,0-.721,2.426v82.284a4.623,4.623,0,0,0,7.077,4.087l10.762-6.213Z" transform="translate(-105.946 -121.815)"/><path class="e" d="M114.07,142.829v82.284c0,1.569,1.1,2.205,2.461,1.421l94.347-54.47a5.441,5.441,0,0,0,2.461-4.262V85.517c0-1.57-1.1-2.206-2.461-1.421l-94.347,54.47A5.441,5.441,0,0,0,114.07,142.829Z" transform="translate(-109.453 -80.816)"/><path class="g" d="M117.626,296l68.953,39.809a5.438,5.438,0,0,0,4.922,0l94.346-54.47c1.359-.785,1.359-2.057,0-2.842L216.894,238.69a5.438,5.438,0,0,0-4.922,0l-94.346,54.47C116.267,293.944,116.267,295.217,117.626,296Z" transform="translate(-110.548 -147.441)"/><path class="d" d="M119.608,147.865l91.7-52.941c.816-.471,1.477-.089,1.477.852v71.23a3.264,3.264,0,0,1-1.477,2.557l-91.7,52.94c-.816.471-1.476.089-1.476-.852V150.423A3.264,3.264,0,0,1,119.608,147.865Z" transform="translate(-111.206 -85.548)"/><path class="f" d="M132.1,297.6l87.573-50.56a2.721,2.721,0,0,1,2.461,0l4.479,2.586a.75.75,0,0,1,0,1.421L139.023,301.6a2.717,2.717,0,0,1-2.461,0l-4.466-2.578A.75.75,0,0,1,132.1,297.6Z" transform="translate(-117.015 -151.175)"/><path class="f" d="M152.409,309.33l87.572-50.561a2.721,2.721,0,0,1,2.461,0l27.551,15.907a.75.75,0,0,1,0,1.421l-87.472,50.49a2.729,2.729,0,0,1-2.463,0l-27.645-15.844A.747.747,0,0,1,152.409,309.33Z" transform="translate(-125.783 -156.236)"/><path class="h" d="M232.751,283.147l2.742-1.583c.117-.068.11-.181-.015-.253l-3.171-1.831a.485.485,0,0,0-.438-.009l-2.742,1.583c-.116.067-.11.18.016.252l3.17,1.831A.485.485,0,0,0,232.751,283.147Zm-5.411-6.29L224.6,278.44c-.116.068-.109.181.016.253l3.17,1.831a.485.485,0,0,0,.438.009l2.742-1.583c.117-.067.11-.18-.015-.252l-3.171-1.831A.484.484,0,0,0,227.34,276.857Zm-8.858,5.114-4.64,2.679c-.117.067-.109.181.015.252l3.171,1.831a.485.485,0,0,0,.438.009l4.64-2.679c.117-.067.109-.18-.016-.252l-3.17-1.831A.485.485,0,0,0,218.481,281.972Zm4.851-2.8-2.742,1.583c-.116.067-.11.18.016.252l3.17,1.831a.485.485,0,0,0,.438.009l2.742-1.583c.117-.068.11-.18-.015-.252l-3.171-1.831A.482.482,0,0,0,223.333,279.171Zm-10.757,6.211-2.742,1.583c-.116.068-.11.18.015.252l3.171,1.831a.483.483,0,0,0,.438.009l2.742-1.583c.116-.068.11-.18-.015-.252l-3.171-1.831A.481.481,0,0,0,212.576,285.381Zm-4.008,2.314-2.742,1.583c-.117.067-.11.18.015.253l3.171,1.83a.481.481,0,0,0,.437.009l2.742-1.583c.116-.068.11-.181-.016-.253l-3.17-1.83A.484.484,0,0,0,208.568,287.7Zm12.471,7.444,2.742-1.583c.116-.067.11-.18-.016-.252l-3.17-1.831a.485.485,0,0,0-.438-.009l-2.742,1.583c-.117.068-.11.181.015.253l3.171,1.831A.484.484,0,0,0,221.039,295.139Zm-4.007,2.314,2.742-1.583c.117-.067.109-.18-.016-.252l-3.17-1.831a.485.485,0,0,0-.438-.009l-2.742,1.583c-.117.067-.109.18.015.252l3.171,1.831A.485.485,0,0,0,217.032,297.453Zm-4.008,2.314,2.742-1.583c.117-.067.11-.18-.015-.252l-3.171-1.831a.485.485,0,0,0-.438-.009l-2.742,1.583c-.117.067-.11.18.015.252l3.171,1.831A.484.484,0,0,0,213.024,299.766Zm-4.007,2.314,2.742-1.583c.117-.067.109-.18-.016-.252l-3.17-1.831a.485.485,0,0,0-.438-.009l-2.742,1.583c-.116.067-.11.18.015.252l3.17,1.831A.485.485,0,0,0,209.017,302.08Zm19.726-16.619,2.742-1.583c.117-.067.11-.18-.015-.252l-3.171-1.831a.484.484,0,0,0-.437-.009l-2.742,1.583c-.116.067-.11.18.015.252l3.171,1.831A.485.485,0,0,0,228.744,285.461Zm-3.7,7.364,6.116-3.531c.116-.068.11-.181-.016-.253l-7.7-4.445a.482.482,0,0,0-.437-.008l-3.164,1.826c-.116.068-.11.181.015.253l4.077,2.353c.125.072.132.185.015.252l-2.531,1.462c-.117.067-.11.18.015.252l3.171,1.831A.483.483,0,0,0,225.047,292.825Zm-20.486-2.816-2.742,1.583c-.117.068-.109.181.016.252l3.17,1.831a.485.485,0,0,0,.438.009l2.742-1.583c.116-.068.109-.18-.016-.253l-3.17-1.83A.484.484,0,0,0,204.561,290.009Zm-4.007,2.314-2.742,1.583c-.117.068-.11.181.015.253L201,295.989a.485.485,0,0,0,.438.009l2.742-1.583c.117-.067.11-.181-.015-.252l-3.171-1.831A.484.484,0,0,0,200.554,292.322Zm-20.025,25.944a.482.482,0,0,0,.437.009l2.742-1.583c.116-.067.109-.181-.016-.253l-3.17-1.83a.485.485,0,0,0-.438-.009l-2.742,1.583c-.117.068-.109.18.015.253Zm-12.034-7.435-2.742,1.583c-.117.067-.11.18.015.252l3.171,1.831a.484.484,0,0,0,.437.009l2.742-1.583c.116-.067.11-.18-.016-.252l-3.17-1.83A.484.484,0,0,0,168.494,310.831Zm6.45,5.429a.485.485,0,0,0,.438.009l2.742-1.583c.117-.067.11-.181-.015-.252l-3.171-1.831a.482.482,0,0,0-.437-.009l-2.742,1.583c-.117.068-.11.181.016.253Zm12.66,3.412,2.742-1.583c.117-.068.11-.181-.015-.253l-3.171-1.831a.483.483,0,0,0-.438-.009l-2.742,1.583c-.116.067-.109.18.016.252l3.17,1.831A.483.483,0,0,0,187.6,319.673Zm-4.445,2.3a.484.484,0,0,0,.437.009l2.742-1.583c.117-.067.11-.18-.015-.252l-3.171-1.831a.485.485,0,0,0-.438-.009l-2.742,1.583c-.117.067-.11.18.015.252ZM172.5,308.518,169.76,310.1c-.117.067-.11.18.016.252l3.17,1.831a.485.485,0,0,0,.438.009l2.742-1.583c.116-.067.11-.18-.015-.252l-3.171-1.831A.485.485,0,0,0,172.5,308.518Zm20.037-11.568-2.742,1.583c-.116.068-.109.181.016.253l3.17,1.831a.485.485,0,0,0,.438.009l2.742-1.583c.117-.067.109-.18-.016-.252l-3.171-1.831A.484.484,0,0,0,192.539,296.95Zm-16.03,9.255-2.742,1.583c-.117.067-.109.18.016.252l3.17,1.831a.483.483,0,0,0,.438.009l2.742-1.583c.117-.067.109-.18-.016-.252l-3.171-1.831A.482.482,0,0,0,176.509,306.2Zm20.037-11.569-2.742,1.583c-.117.067-.11.18.015.252l3.171,1.831a.482.482,0,0,0,.437.008l2.742-1.583c.117-.067.11-.18-.015-.252l-3.171-1.831A.485.485,0,0,0,196.546,294.636Zm-8.014,4.627-2.742,1.583c-.117.067-.11.18.015.252l3.171,1.831a.483.483,0,0,0,.438.009l2.742-1.583c.117-.067.11-.18-.015-.252l-3.171-1.831A.482.482,0,0,0,188.531,299.263Zm-4.007,2.314-2.742,1.583c-.117.067-.11.18.015.252l3.171,1.831a.485.485,0,0,0,.438.009l2.742-1.583c.116-.067.109-.18-.016-.252l-3.171-1.831A.484.484,0,0,0,184.524,301.577Zm-4.008,2.314-2.742,1.583c-.117.067-.11.18.015.252l3.171,1.831a.484.484,0,0,0,.437.009l2.742-1.583c.117-.067.11-.18-.016-.252l-3.17-1.831A.486.486,0,0,0,180.516,303.891ZM201,306.707l2.742-1.583c.116-.068.11-.181-.015-.253l-3.171-1.831a.484.484,0,0,0-.438-.009l-2.742,1.583c-.117.067-.11.18.015.252l3.171,1.831A.485.485,0,0,0,201,306.707Zm35.2-34.964-2.742,1.583c-.117.068-.11.181.015.253l3.171,1.831a.482.482,0,0,0,.437.009l2.742-1.583c.117-.067.109-.18-.016-.252l-3.17-1.831A.485.485,0,0,0,236.2,271.743Zm-4.851,2.8-2.742,1.583c-.116.067-.11.18.015.252l3.171,1.831a.482.482,0,0,0,.437.009l2.742-1.583c.116-.067.11-.18-.015-.252l-3.171-1.831A.485.485,0,0,0,231.347,274.544Zm8.858-5.114-2.742,1.583c-.116.067-.11.181.015.253l3.171,1.83a.482.482,0,0,0,.437.009l2.742-1.583c.117-.068.11-.181-.015-.253l-3.171-1.831A.485.485,0,0,0,240.205,269.429Zm-20.743,21.389,2.742-1.583c.116-.067.109-.18-.016-.252l-3.17-1.831a.485.485,0,0,0-.438-.009l-2.742,1.583c-.117.067-.109.18.015.252l3.171,1.831A.483.483,0,0,0,219.463,290.819Zm25.187-23.694a.485.485,0,0,0-.438-.008l-2.742,1.583c-.117.068-.11.18.016.252l3.17,1.831a.481.481,0,0,0,.437.009l2.742-1.583c.117-.067.11-.18-.015-.252Zm-39.64,37.269,2.742-1.583c.116-.068.11-.181-.015-.253l-3.171-1.831a.484.484,0,0,0-.437-.009l-2.742,1.583c-.116.067-.11.18.016.252l3.17,1.831A.486.486,0,0,0,205.01,304.394Zm49.143-28.373,2.742-1.583c.117-.067.109-.18-.016-.252l-3.171-1.831a.484.484,0,0,0-.437-.009l-2.742,1.583c-.116.067-.11.18.016.252l3.17,1.831A.483.483,0,0,0,254.153,276.02Zm-8.537-.3,2.742-1.583c.117-.067.109-.18-.016-.252l-3.171-1.831a.484.484,0,0,0-.437-.009l-2.742,1.583c-.117.068-.11.181.015.253l3.171,1.831A.484.484,0,0,0,245.616,275.719Zm3.563-5.98a.484.484,0,0,0-.438-.009L246,271.314c-.116.067-.109.18.016.252l3.171,1.831a.486.486,0,0,0,.437.009l2.742-1.583c.117-.067.11-.18-.015-.252Zm.844-.487,7.7,4.445a.484.484,0,0,0,.437.009l2.742-1.583c.117-.068.109-.181-.015-.253l-7.7-4.445a.485.485,0,0,0-.438-.009L250.008,269C249.891,269.067,249.9,269.18,250.024,269.253Zm-9.3,5.105-2.742,1.583c-.116.067-.11.18.015.252l3.171,1.83a.482.482,0,0,0,.438.009l2.742-1.583c.116-.068.109-.18-.016-.252l-3.17-1.831A.485.485,0,0,0,240.728,274.358Zm-30.161,17.413-2.742,1.583c-.116.067-.11.18.015.252l3.171,1.831a.484.484,0,0,0,.437.009l2.742-1.583c.116-.067.11-.18-.016-.252L211,291.78A.484.484,0,0,0,210.567,291.771Zm39.141-13.446a.485.485,0,0,0,.438.009l2.742-1.583c.116-.068.109-.181-.016-.253l-3.171-1.831a.484.484,0,0,0-.437-.009l-2.742,1.583c-.117.067-.11.18.015.252Zm-35.134,11.132-2.742,1.583c-.117.067-.109.18.016.252l3.17,1.831a.485.485,0,0,0,.438.009l2.742-1.583c.117-.067.11-.18-.015-.252l-3.171-1.831A.484.484,0,0,0,214.574,289.457Zm-30.039,26.5a.484.484,0,0,0,.437.009l2.742-1.583c.117-.068.11-.181-.016-.253l-3.17-1.831a.483.483,0,0,0-.438-.009l-2.742,1.583c-.117.067-.11.181.015.252Zm-6.028-5.672-2.742,1.583c-.116.068-.109.181.016.253l3.171,1.83a.482.482,0,0,0,.437.009l2.742-1.583c.117-.068.109-.18-.016-.253l-3.17-1.831A.485.485,0,0,0,178.507,310.281Zm10.472,3.367,2.742-1.583c.117-.068.11-.181-.015-.253l-3.171-1.83a.483.483,0,0,0-.438-.009l-2.742,1.583c-.117.067-.11.181.015.252l3.171,1.831A.482.482,0,0,0,188.98,313.648Zm4.008-2.314,2.742-1.583c.116-.068.11-.18-.015-.253l-3.171-1.831a.484.484,0,0,0-.437-.009l-2.742,1.583c-.117.068-.11.18.016.252l3.171,1.831A.484.484,0,0,0,192.988,311.334Zm4.007-2.314,2.742-1.583c.116-.068.109-.181-.015-.253l-3.171-1.831a.484.484,0,0,0-.438-.009l-2.742,1.583c-.117.067-.109.18.016.252l3.171,1.831A.484.484,0,0,0,196.995,309.021Zm-14.48-1.054-2.742,1.583c-.117.067-.11.18.015.253l3.171,1.83a.484.484,0,0,0,.438.009l2.742-1.583c.117-.067.11-.181-.015-.253l-3.171-1.83A.483.483,0,0,0,182.515,307.967Zm4.008-2.314-2.742,1.583c-.116.068-.11.18.015.252l3.171,1.831a.484.484,0,0,0,.438.009l2.742-1.583c.116-.067.109-.18-.016-.252l-3.171-1.831A.486.486,0,0,0,186.522,305.653Zm16.029-9.254-2.742,1.583c-.117.067-.109.18.016.252l3.17,1.831a.485.485,0,0,0,.438.009l2.742-1.583c.117-.067.11-.18-.015-.252l-3.171-1.831A.482.482,0,0,0,202.552,296.4Zm-4.008,2.313L195.8,300.3c-.117.067-.11.181.015.252l3.171,1.831a.484.484,0,0,0,.437.009l2.742-1.583c.117-.068.11-.181-.015-.253l-3.171-1.831A.485.485,0,0,0,198.544,298.712Zm8.015-4.627-2.742,1.583c-.117.067-.109.18.016.252l3.17,1.831a.485.485,0,0,0,.438.009l2.742-1.583c.116-.067.109-.18-.016-.252L207,294.094A.485.485,0,0,0,206.559,294.085Zm-16.03,9.255-2.742,1.583c-.117.067-.11.18.015.252l3.171,1.831a.482.482,0,0,0,.437.009l2.742-1.583c.116-.068.109-.181-.016-.253l-3.171-1.83A.484.484,0,0,0,190.53,303.339Zm4.007-2.314-2.742,1.583c-.116.068-.109.18.016.252l3.171,1.831a.484.484,0,0,0,.437.009l2.742-1.583c.117-.067.11-.18-.015-.252l-3.171-1.83A.483.483,0,0,0,194.537,301.026Zm-2.926,16.334,2.742-1.583c.116-.067.109-.18-.015-.252l-3.171-1.831a.485.485,0,0,0-.438-.009l-2.742,1.583c-.117.067-.109.18.016.252l3.17,1.831A.486.486,0,0,0,191.611,317.359ZM168.1,314.985l-3.171-1.831a.484.484,0,0,0-.437-.009l-2.742,1.583c-.117.067-.109.18.016.252l3.17,1.831a.485.485,0,0,0,.438.009l2.742-1.583C168.227,315.17,168.22,315.057,168.1,314.985Zm6.005,1.763-3.171-1.831a.484.484,0,0,0-.438-.009l-4.218,2.435c-.117.067-.11.181.015.253l3.171,1.83a.484.484,0,0,0,.438.009L174.116,317C174.232,316.932,174.226,316.82,174.1,316.748Zm-10.87-5.3-3.17-1.831a.485.485,0,0,0-.438-.009l-3.375,1.949c-.117.067-.11.18.015.252l3.171,1.831a.484.484,0,0,0,.437.009l3.375-1.949C163.363,311.631,163.355,311.518,163.23,311.446Zm2.588-1.494a.484.484,0,0,0,.437.009L169,308.378c.116-.067.11-.18-.015-.252L165.81,306.3a.484.484,0,0,0-.437-.009l-2.742,1.583c-.117.068-.11.181.015.253Zm13.866,8.8-3.171-1.831a.484.484,0,0,0-.437-.008l-5.273,3.044c-.117.068-.11.181.015.253l3.171,1.831a.484.484,0,0,0,.437.009l5.273-3.045C179.816,318.939,179.809,318.826,179.684,318.753Zm2.631,3.711-3.171-1.83a.483.483,0,0,0-.438-.01l-3.375,1.949c-.117.067-.109.18.016.252l3.17,1.831a.485.485,0,0,0,.438.009l3.375-1.949C182.448,322.65,182.44,322.537,182.316,322.464Zm13.3-29.715a.484.484,0,0,0,.437.009l2.742-1.583c.117-.067.11-.18-.015-.252l-3.17-1.831a.485.485,0,0,0-.438-.009l-2.742,1.583c-.117.067-.11.18.015.252Zm-8.015,4.627a.485.485,0,0,0,.438.009l2.742-1.583c.116-.067.11-.18-.015-.252l-3.171-1.831a.484.484,0,0,0-.437-.009l-2.742,1.583c-.117.067-.11.18.015.252Zm-17.773,10.261a.482.482,0,0,0,.437.009L173,306.064c.117-.067.11-.18-.015-.252l-3.171-1.831a.483.483,0,0,0-.438-.009l-2.742,1.583c-.117.067-.11.18.015.252Zm21.78-12.575a.485.485,0,0,0,.438.009l2.742-1.583c.117-.067.109-.18-.016-.252l-3.17-1.831a.485.485,0,0,0-.438-.009l-2.742,1.583c-.117.067-.109.18.015.252Zm-8.014,4.627a.484.484,0,0,0,.437.009l2.742-1.583c.117-.068.11-.181-.016-.253l-3.17-1.831a.483.483,0,0,0-.438-.009l-2.742,1.583c-.117.067-.109.18.016.252Zm.927,23.072a.483.483,0,0,0-.438-.009l-4.218,2.435c-.117.067-.11.18.015.252l3.171,1.831a.485.485,0,0,0,.438.009l4.218-2.435c.117-.067.11-.181-.016-.253Zm-6.678-19.751a.487.487,0,0,0,.438.008l2.742-1.583c.116-.068.109-.18-.016-.253l-3.17-1.831a.483.483,0,0,0-.438-.009l-2.742,1.583c-.117.067-.109.18.016.252Zm-4.007,2.314a.485.485,0,0,0,.438.009l2.742-1.583c.117-.067.11-.181-.015-.252l-3.171-1.831a.484.484,0,0,0-.437-.009l-2.742,1.583c-.116.068-.11.181.015.253ZM258.76,279.9a.482.482,0,0,0-.437-.009l-6.749,3.9c-.117.068-.11.181.015.253l3.171,1.83a.482.482,0,0,0,.438.009l6.749-3.9c.116-.068.109-.18-.016-.252Zm-8.858,5.114a.484.484,0,0,0-.437-.009l-2.742,1.583c-.117.068-.109.181.016.253l3.17,1.831a.483.483,0,0,0,.438.009l2.742-1.583c.116-.067.109-.18-.016-.253Zm-54.283,30.033,2.742-1.583c.117-.067.11-.18-.016-.252l-3.17-1.831a.485.485,0,0,0-.438-.009L192,312.954c-.116.067-.11.18.015.252l3.171,1.831A.485.485,0,0,0,195.619,315.046Zm46.268-25.406a.485.485,0,0,0-.438-.009l-2.742,1.583c-.116.068-.109.181.016.253l3.171,1.831a.484.484,0,0,0,.437.009l2.742-1.583c.117-.067.11-.18-.015-.252Zm20.881-12.056a.483.483,0,0,0-.438-.009l-2.742,1.583c-.116.068-.109.181.016.252l3.171,1.831a.484.484,0,0,0,.437.009l2.742-1.583c.116-.068.109-.181-.015-.253Zm7.178-.483-7.7-4.446a.484.484,0,0,0-.437-.009l-2.742,1.583c-.116.067-.11.18.016.252l7.7,4.446a.485.485,0,0,0,.438.009l2.742-1.583C270.078,277.287,270.071,277.173,269.946,277.1Zm-43.034,21.184a.484.484,0,0,0-.437-.009l-3.375,1.948c-.117.067-.11.181.015.253l3.171,1.83a.482.482,0,0,0,.437.009l3.375-1.948c.117-.067.11-.181-.015-.252Zm10.124-5.845a.484.484,0,0,0-.437-.009l-4.219,2.436c-.117.067-.11.18.015.252l3.171,1.831a.485.485,0,0,0,.438.009l4.218-2.436c.116-.067.11-.18-.015-.252Zm-19.4,11.2a.483.483,0,0,0-.438-.009l-22.567,13.029c-.117.068-.11.181.015.252l3.171,1.831a.48.48,0,0,0,.437.009l22.568-13.029c.117-.068.11-.181-.015-.253ZM193.8,317.4a.484.484,0,0,0-.437-.009l-3.375,1.948c-.117.067-.11.18.015.253l3.171,1.831a.484.484,0,0,0,.437.009l3.375-1.948c.116-.068.109-.18-.016-.252Zm28.473-16.439a.484.484,0,0,0-.437-.009L218.46,302.9c-.117.068-.11.181.015.253l3.171,1.83a.482.482,0,0,0,.438.009l3.375-1.948c.116-.067.109-.18-.016-.252Zm-33.114,19.118a.484.484,0,0,0-.437-.009l-3.375,1.948c-.117.068-.11.18.016.252l3.17,1.831a.483.483,0,0,0,.438.009l3.375-1.948c.116-.068.109-.18-.016-.253Zm42.395-24.476a.485.485,0,0,0-.438-.009l-3.375,1.949c-.116.067-.109.18.016.252l3.171,1.831a.482.482,0,0,0,.437.009l3.375-1.948c.117-.067.11-.18-.016-.252Zm14.342-8.28a.485.485,0,0,0-.438-.009l-2.742,1.583c-.116.067-.11.18.016.252l3.17,1.831a.485.485,0,0,0,.438.009l2.742-1.583c.117-.067.11-.18-.015-.252Zm8.781-6.377,2.742-1.583c.117-.068.11-.181-.015-.253l-3.171-1.831a.483.483,0,0,0-.438-.008l-2.742,1.583c-.116.067-.109.18.016.252l3.171,1.831A.484.484,0,0,0,254.675,280.949Zm-17.917-.115,2.742-1.583c.117-.067.109-.18-.015-.252l-3.171-1.831a.484.484,0,0,0-.437-.009l-2.742,1.583c-.116.067-.109.18.016.252l3.17,1.831A.485.485,0,0,0,236.758,280.834Zm-9.08,15.7,8.015-4.627c.117-.067.109-.18-.016-.252l-3.171-1.831a.484.484,0,0,0-.437-.009l-8.015,4.627c-.116.067-.11.181.016.253l3.17,1.83A.484.484,0,0,0,227.678,296.536Zm22.553-13.282a.484.484,0,0,0,.437.009l2.742-1.583c.117-.068.11-.181-.015-.253l-3.171-1.831a.482.482,0,0,0-.437-.009l-2.742,1.583c-.116.067-.109.181.016.252Zm-4.092-2.606,2.742-1.583c.117-.067.11-.18-.015-.252l-3.171-1.831a.484.484,0,0,0-.437-.009l-2.742,1.583c-.117.067-.11.18.015.252l3.171,1.831A.484.484,0,0,0,246.138,280.648Zm-22.468,18.2,2.742-1.583c.117-.068.11-.18-.015-.252l-3.171-1.831a.483.483,0,0,0-.438-.009l-2.742,1.583c-.117.068-.11.18.015.253l3.171,1.83A.48.48,0,0,0,223.67,298.85Zm17.7-10.481a.483.483,0,0,0,.438.008l2.742-1.583c.117-.067.11-.181-.015-.252l-3.171-1.831a.484.484,0,0,0-.437-.009l-2.742,1.583c-.117.068-.11.181.016.253Zm-37.738,22.05,2.742-1.583c.116-.067.109-.18-.016-.252l-3.17-1.831a.485.485,0,0,0-.438-.009l-2.742,1.583c-.117.067-.11.18.015.252l3.17,1.831A.485.485,0,0,0,203.633,310.418Zm4.007-2.314,2.742-1.583c.117-.067.11-.18-.015-.252l-3.171-1.831a.486.486,0,0,0-.437-.009l-2.742,1.583c-.117.067-.11.18.015.252L207.2,308.1A.482.482,0,0,0,207.641,308.1Zm-8.015,4.627,2.742-1.583c.116-.067.11-.18-.015-.252l-3.171-1.831a.484.484,0,0,0-.437-.009L196,310.64c-.117.067-.11.18.015.252l3.171,1.831A.483.483,0,0,0,199.626,312.731Zm16.029-9.255,2.742-1.583c.117-.067.11-.18-.015-.252l-3.171-1.831a.482.482,0,0,0-.437-.009l-2.742,1.583c-.116.067-.11.18.016.252l3.17,1.831A.485.485,0,0,0,215.656,303.477Zm-4.008,2.314,2.742-1.583c.116-.067.11-.18-.015-.252l-3.171-1.831a.484.484,0,0,0-.438-.009l-2.742,1.583c-.117.068-.11.181.015.253l3.171,1.831A.484.484,0,0,0,211.648,305.79Zm8.015-4.627,2.742-1.583c.117-.067.109-.181-.015-.253l-3.171-1.83a.484.484,0,0,0-.438-.009l-2.742,1.583c-.116.067-.109.181.016.253l3.17,1.831A.483.483,0,0,0,219.663,301.163ZM238,266.936a.485.485,0,0,0,.438.009l2.742-1.583c.116-.067.11-.18-.015-.252l-.844-.487a.485.485,0,0,0-.438-.009l-2.742,1.583c-.116.067-.109.18.016.252ZM218.28,279.663a.482.482,0,0,0,.437.009l2.742-1.583c.117-.067.11-.181-.015-.253l-3.171-1.83a.483.483,0,0,0-.438-.01l-2.742,1.583c-.117.067-.11.181.015.253Zm8.015-4.627a.484.484,0,0,0,.437.009l2.742-1.583c.117-.068.11-.181-.015-.253l-3.171-1.831a.484.484,0,0,0-.437-.009l-2.742,1.583c-.116.067-.11.181.016.252Zm-12.908,7.452a.482.482,0,0,0,.437.009l2.742-1.583c.116-.067.11-.181-.016-.253l-3.17-1.831a.485.485,0,0,0-.438-.009l-2.742,1.583c-.117.067-.11.181.015.253Zm8.9-5.139a.484.484,0,0,0,.438.009l2.742-1.583c.116-.067.11-.18-.015-.252l-3.171-1.831a.481.481,0,0,0-.437-.009l-2.742,1.583c-.116.068-.11.18.015.252Zm-16.916,9.767a.485.485,0,0,0,.438.009l2.742-1.583c.117-.067.11-.181-.015-.253l-3.171-1.83a.483.483,0,0,0-.438-.009l-2.742,1.583c-.117.068-.11.181.015.253Zm4.007-2.314a.483.483,0,0,0,.438.009l2.742-1.583c.117-.068.109-.18-.016-.252l-3.171-1.831a.482.482,0,0,0-.437-.009l-2.742,1.583c-.117.068-.109.18.016.253Zm20.6-13.239a.484.484,0,0,0,.438.009l2.742-1.583c.116-.067.109-.18-.016-.252l-.844-.487a.484.484,0,0,0-.437-.009l-2.742,1.583c-.116.067-.11.18.015.252ZM242,264.622a.483.483,0,0,0,.438.009l2.742-1.583c.116-.068.109-.181-.016-.253l-.844-.488a.487.487,0,0,0-.438-.008l-2.742,1.583c-.117.068-.11.181.015.253Zm6.66,3.845a.485.485,0,0,0,.438.009l2.742-1.583c.117-.068.109-.181-.015-.253l-3.171-1.831a.484.484,0,0,0-.437-.009l-2.742,1.583c-.117.067-.11.181.016.252Zm10.018,10.168,2.742-1.583c.116-.067.11-.18-.015-.252l-3.171-1.831a.485.485,0,0,0-.438-.009l-2.742,1.583c-.117.067-.11.18.015.252l3.171,1.831A.484.484,0,0,0,258.682,278.635ZM233.99,269.25a.482.482,0,0,0,.437.009l2.742-1.583c.117-.068.109-.181-.016-.253l-.844-.487a.484.484,0,0,0-.437-.009l-2.742,1.583c-.116.067-.11.18.016.252Zm-32.626,20.18a.482.482,0,0,0,.437.009l2.742-1.583c.117-.067.11-.18-.015-.252l-3.171-1.831a.483.483,0,0,0-.438-.009l-2.742,1.583c-.116.067-.109.18.016.252Z" transform="translate(-127.624 -157.867)"/><path class="h" d="M264.368,340.737l30.011-17.327,18.469,10.663L282.836,351.4Z" transform="translate(-174.333 -184.267)"/></g><g transform="translate(55.18 17.092)"><path class="i" d="M145.481,160.713l89.426-51.629c1.749-1.01,3.18-.184,3.18,1.836v69.263a3.277,3.277,0,0,1-1.477,2.557l-91.7,52.941c-.812.469-1.477.085-1.477-.852V164.257A4.539,4.539,0,0,1,145.481,160.713Z" transform="translate(-143.435 -108.653)"/><path class="j" d="M238.086,112.578v-1.659c0-2.019-1.43-2.846-3.179-1.836l-89.426,51.629a4.539,4.539,0,0,0-2.046,3.544v2.968Z" transform="translate(-143.435 -108.653)"/><path class="d" d="M285.685,122.1a2.42,2.42,0,0,0-1.1,1.9c0,.7.491.981,1.1.632a2.42,2.42,0,0,0,1.1-1.9C286.78,122.034,286.29,121.751,285.685,122.1Z" transform="translate(-204.369 -114.393)"/><path class="d" d="M293.332,117.685a2.421,2.421,0,0,0-1.1,1.9c0,.7.49.982,1.1.633a2.421,2.421,0,0,0,1.1-1.9C294.427,117.619,293.937,117.336,293.332,117.685Z" transform="translate(-207.67 -112.487)"/><path class="d" d="M300.979,113.271a2.42,2.42,0,0,0-1.1,1.9c0,.7.49.981,1.1.632a2.419,2.419,0,0,0,1.095-1.9C302.074,113.2,301.584,112.922,300.979,113.271Z" transform="translate(-210.971 -110.582)"/></g><g transform="translate(49.777 61.491)"><g transform="translate(0 46.076)"><g transform="translate(17.075 0)"><rect class="k" width="4.017" height="17.045" transform="translate(8.523 0) rotate(30)"/><rect class="l" width="2.009" height="17.045" transform="translate(10.262 1.004) rotate(30)"/></g><g transform="translate(0 8.537)"><path class="h" d="M138.832,317.921c-1.587,2.752-9.085-1.622-7.517-4.34l19.58-30.534a.381.381,0,0,1,.511-.124l3.932,2.27a.381.381,0,0,1,.148.5Z" transform="translate(-131.1 -282.871)"/><path class="c" d="M141.371,318.9l16.654-32.224a.381.381,0,0,0-.148-.5l-1.79-1.034-19.1,33.937C138.733,319.93,140.655,320.143,141.371,318.9Z" transform="translate(-133.64 -283.849)"/></g></g><g transform="translate(17.99)"><path class="h" d="M210.046,204.547c-.006-.233-.017-.46-.034-.688s-.028-.449-.051-.671c-.011-.148-.028-.3-.045-.443-.04-.386-.1-.767-.159-1.131-.028-.165-.057-.335-.091-.5s-.062-.313-.1-.466c-.1-.421-.2-.83-.318-1.222-.063-.188-.119-.375-.182-.557a.5.5,0,0,1-.028-.085c-.068-.182-.131-.358-.2-.529-.08-.2-.159-.4-.25-.585-.062-.142-.125-.278-.2-.415a2.053,2.053,0,0,0-.148-.3c-.057-.119-.119-.239-.188-.352-.017-.028-.028-.057-.045-.08-.057-.1-.119-.2-.182-.307-.04-.068-.085-.131-.125-.193a10.372,10.372,0,0,0-.978-1.3c-.062-.068-.125-.136-.182-.2s-.1-.108-.153-.159c-.062-.068-.131-.131-.2-.2a6.351,6.351,0,0,0-.591-.529c-.1-.085-.2-.165-.3-.239s-.2-.153-.313-.227a5.491,5.491,0,0,0-.506-.33l-.136-.085-.028-.023h-.006l-8.053-4.649h-.011l-.045-.028a10.1,10.1,0,0,0-5.058-1.279,17.831,17.831,0,0,0-8.769,2.682c-10.832,6.257-19.619,21.471-19.619,33.986,0,6.24,2.182,10.628,5.712,12.685l.034.017v.006l8.059,4.643c0,.006,0,.006.006.006l.034.023v-.006c.034.017.063.034.1.051a5.2,5.2,0,0,0,.466.244c.193.1.392.182.591.261.176.074.358.142.54.2a2.781,2.781,0,0,0,.29.085,1.969,1.969,0,0,0,.313.091,3.248,3.248,0,0,0,.318.08,1.711,1.711,0,0,0,.233.051c.136.028.284.057.426.074a.288.288,0,0,0,.1.017q.256.043.512.068c2.922.307,6.32-.517,9.957-2.614,10.838-6.257,19.624-21.477,19.624-33.986C210.063,205.138,210.057,204.843,210.046,204.547ZM196.9,195.7a17.5,17.5,0,0,1,.619,4.774c0,11.037-8.076,25.023-17.635,30.542a17.046,17.046,0,0,1-4.473,1.858,17.718,17.718,0,0,1-.619-4.78c0-11.037,8.076-25.023,17.635-30.542A17.011,17.011,0,0,1,196.9,195.7Z" transform="translate(-162.755 -186.776)"/><path class="c" d="M176.287,255.345l-7.822-4.514c-3.529-2.063-5.712-6.45-5.712-12.679a38.928,38.928,0,0,1,4.643-17.311l8.058,4.647a38.853,38.853,0,0,0-4.643,17.311C170.812,248.9,172.889,253.231,176.287,255.345Z" transform="translate(-162.754 -201.481)"/><path class="m" d="M216.167,208.082c-.006-.233-.017-.46-.034-.688s-.028-.449-.051-.671c-.011-.148-.028-.3-.045-.443-.04-.386-.1-.767-.159-1.131-.028-.165-.057-.335-.091-.5s-.063-.313-.1-.466c-.1-.421-.2-.83-.318-1.222-.063-.188-.119-.375-.182-.557a.5.5,0,0,1-.028-.085c-.068-.182-.131-.358-.2-.529-.08-.2-.159-.4-.25-.585-.062-.142-.125-.278-.2-.415a2.051,2.051,0,0,0-.148-.3c-.057-.119-.119-.239-.188-.352-.017-.028-.028-.057-.045-.08-.057-.1-.119-.2-.182-.307-.04-.068-.085-.131-.125-.193a10.369,10.369,0,0,0-.978-1.3c-.063-.068-.125-.136-.182-.2s-.1-.108-.153-.159c-.063-.068-.131-.131-.2-.2a6.355,6.355,0,0,0-.591-.529c-.1-.085-.2-.165-.3-.239s-.2-.153-.313-.227a5.488,5.488,0,0,0-.506-.33c-3.563-2.165-8.542-1.91-14.043,1.267-10.838,6.257-19.624,21.471-19.624,33.986,0,6.337,2.251,10.764,5.882,12.776a5.2,5.2,0,0,0,.466.244c.193.1.392.182.591.261.176.074.358.142.54.2a2.792,2.792,0,0,0,.29.085,1.969,1.969,0,0,0,.313.091,3.238,3.238,0,0,0,.318.08,1.706,1.706,0,0,0,.233.051c.136.028.284.057.426.074a.29.29,0,0,0,.1.017q.256.043.511.068c2.922.307,6.32-.517,9.957-2.614,10.838-6.257,19.624-21.477,19.624-33.986C216.184,208.673,216.179,208.378,216.167,208.082Zm-21.6,31.434a14.05,14.05,0,0,1-6.774,2.143c-3.757,0-5.484-2.563-6.263-5.251a17.718,17.718,0,0,1-.619-4.78c0-11.037,8.076-25.023,17.635-30.542a17.01,17.01,0,0,1,4.473-1.853,9.883,9.883,0,0,1,2.3-.29c6.212,0,6.877,7.013,6.877,10.031C212.2,220.011,204.13,234,194.571,239.516Z" transform="translate(-168.876 -190.311)"/><path class="c" d="M215.693,212c0,11.037-8.07,25.023-17.629,30.542a14.05,14.05,0,0,1-6.774,2.143c-3.757,0-5.484-2.563-6.263-5.251a17.044,17.044,0,0,0,4.473-1.858c9.559-5.518,17.635-19.5,17.635-30.542a17.5,17.5,0,0,0-.619-4.774,9.883,9.883,0,0,1,2.3-.29C215.028,201.966,215.693,208.979,215.693,212Z" transform="translate(-172.368 -193.333)"/><path class="n" d="M211.789,210.07c0,11.037-8.07,25.023-17.629,30.542a14.05,14.05,0,0,1-6.774,2.143,7.13,7.13,0,0,1-1.188-.1,8.694,8.694,0,0,1-1.642-3.228,17.718,17.718,0,0,1-.619-4.78c0-11.037,8.076-25.023,17.635-30.542a17.011,17.011,0,0,1,4.473-1.853,9.884,9.884,0,0,1,2.3-.29,7.2,7.2,0,0,1,1.193.1C211.5,204.376,211.789,208.087,211.789,210.07Z" transform="translate(-171.898 -193.333)"/></g></g><g transform="translate(112.225 16.349)"><path class="o" d="M257.173,157.716V170.3c0,.942.661,1.323,1.477.852l82.463-47.61a3.264,3.264,0,0,0,1.476-2.557V108.4c0-.942-.661-1.323-1.477-.852l-82.462,47.611A3.263,3.263,0,0,0,257.173,157.716Z" transform="translate(-257.173 -107.346)"/><g transform="translate(0 39.333)"><path class="p" d="M258.649,185.034l14.685-8.479,0,15.994-14.684,8.478c-.816.471-1.477.089-1.477-.852V187.592A3.263,3.263,0,0,1,258.649,185.034Z" transform="translate(-257.173 -176.555)"/><path class="d" d="M270.919,188.578a3.237,3.237,0,0,0-3.3.243,8.482,8.482,0,0,0-3.889,6.736,3.647,3.647,0,0,0,.778,2.424l-1.562,2.706a.852.852,0,1,0,1.476.852l1.563-2.707a2.771,2.771,0,0,0,.513.053,3.984,3.984,0,0,0,1.974-.591,8.481,8.481,0,0,0,3.889-6.736A3.238,3.238,0,0,0,270.919,188.578Zm-3.3,8.24a1.293,1.293,0,0,1-2.184-1.261,6.826,6.826,0,0,1,3.037-5.26,2.329,2.329,0,0,1,1.119-.358.945.945,0,0,1,.477.115,1.675,1.675,0,0,1,.588,1.5A6.824,6.824,0,0,1,267.618,196.818Z" transform="translate(-259.615 -181.595)"/></g></g></g></svg>