<svg xmlns="http://www.w3.org/2000/svg" width="53.177" height="53.177" viewBox="0 0 53.177 53.177"><defs><style>.a{fill:#fff;}</style></defs><g transform="translate(13.294)"><path class="a" d="M19.294,22.157h-.042a1.115,1.115,0,0,1-.844-.443l-2.991-3.988H9.324A3.328,3.328,0,0,1,6,14.4V3.324A3.328,3.328,0,0,1,9.324,0H29.265a3.328,3.328,0,0,1,3.324,3.324V14.4a3.328,3.328,0,0,1-3.324,3.324h-5.59l-3.547,4.053A1.1,1.1,0,0,1,19.294,22.157ZM9.324,2.216A1.108,1.108,0,0,0,8.216,3.324V14.4A1.108,1.108,0,0,0,9.324,15.51h6.647a1.107,1.107,0,0,1,.886.443l2.5,3.337,2.978-3.4a1.11,1.11,0,0,1,.833-.377h6.093A1.108,1.108,0,0,0,30.373,14.4V3.324a1.108,1.108,0,0,0-1.108-1.108Z" transform="translate(-6)"/></g><g transform="translate(41.456 2.216)"><path class="a" d="M21.568,23.157h-.044a1.107,1.107,0,0,1-.844-.445l-1.75-2.349a1.108,1.108,0,1,1,1.777-1.325l.931,1.25,2.973-3.4a1.112,1.112,0,0,1,.835-.379h1.662A1.108,1.108,0,0,0,28.215,15.4V4.324a1.108,1.108,0,0,0-1.108-1.108H22.676a1.108,1.108,0,0,1,0-2.216h4.431a3.328,3.328,0,0,1,3.324,3.324V15.4a3.328,3.328,0,0,1-3.324,3.324H25.949L22.4,22.778a1.1,1.1,0,0,1-.833.379Z" transform="translate(-18.71 -1)"/></g><g transform="translate(0 2.216)"><path class="a" d="M8.863,23.157a1.1,1.1,0,0,1-.833-.379L4.482,18.726H3.324A3.328,3.328,0,0,1,0,15.4V4.324A3.328,3.328,0,0,1,3.324,1H7.755a1.108,1.108,0,0,1,0,2.216H3.324A1.108,1.108,0,0,0,2.216,4.324V15.4A1.108,1.108,0,0,0,3.324,16.51H4.985a1.1,1.1,0,0,1,.833.379l2.973,3.4.931-1.25A1.108,1.108,0,1,1,11.5,20.363l-1.75,2.349a1.1,1.1,0,0,1-.842.445H8.863Z" transform="translate(0 -1)"/></g><g transform="translate(39.883 28.804)"><path class="a" d="M22.431,21.863a4.431,4.431,0,1,1,4.431-4.431A4.436,4.436,0,0,1,22.431,21.863Zm0-6.647a2.216,2.216,0,1,0,2.216,2.216A2.219,2.219,0,0,0,22.431,15.216Z" transform="translate(-18 -13)"/></g><g transform="translate(39.883 39.883)"><path class="a" d="M30.186,26.863a1.108,1.108,0,0,1-1.108-1.108V23.539a3.328,3.328,0,0,0-3.324-3.324H19.108a1.108,1.108,0,0,1,0-2.216h6.647a5.547,5.547,0,0,1,5.539,5.539v2.216A1.108,1.108,0,0,1,30.186,26.863Z" transform="translate(-18 -18)"/></g><g transform="translate(4.431 28.804)"><path class="a" d="M6.431,21.863a4.431,4.431,0,1,1,4.431-4.431A4.436,4.436,0,0,1,6.431,21.863Zm0-6.647a2.216,2.216,0,1,0,2.216,2.216A2.219,2.219,0,0,0,6.431,15.216Z" transform="translate(-2 -13)"/></g><g transform="translate(0 39.883)"><path class="a" d="M1.108,26.863A1.108,1.108,0,0,1,0,25.755V23.539A5.547,5.547,0,0,1,5.539,18h6.647a1.108,1.108,0,0,1,0,2.216H5.539a3.328,3.328,0,0,0-3.324,3.324v2.216A1.108,1.108,0,0,1,1.108,26.863Z" transform="translate(0 -18)"/></g><g transform="translate(19.941 25.481)"><path class="a" d="M15.647,24.794a6.647,6.647,0,1,1,6.647-6.647A6.655,6.655,0,0,1,15.647,24.794Zm0-11.079a4.431,4.431,0,1,0,4.431,4.431A4.436,4.436,0,0,0,15.647,13.716Z" transform="translate(-9 -11.5)"/></g><g transform="translate(14.402 42.099)"><path class="a" d="M29.765,30.079a1.108,1.108,0,0,1-1.108-1.108V24.539a3.328,3.328,0,0,0-3.324-3.324H12.039a3.328,3.328,0,0,0-3.324,3.324v4.431a1.108,1.108,0,1,1-2.216,0V24.539A5.547,5.547,0,0,1,12.039,19H25.334a5.547,5.547,0,0,1,5.539,5.539v4.431A1.108,1.108,0,0,1,29.765,30.079Z" transform="translate(-6.5 -19)"/></g></svg>