<svg xmlns="http://www.w3.org/2000/svg" width="220" height="212.403" viewBox="0 0 220 212.403"><defs><style>.a{fill:#f5f5f5;}.b{fill:#e6e6e6;}.c,.w{fill:#6184d8;}.d,.y{opacity:0.3;}.ah,.e,.h,.o{fill:#fff;}.ai,.f,.h,.v,.x{opacity:0.2;}.g{fill:#7cf1ad;}.i{fill:#46df86;}.j{fill:#ba68c8;}.k{fill:#35c873;}.l{fill:#1bb75d;}.m{fill:#96aee9;}.ah,.n{opacity:0.1;}.o{opacity:0.05;}.p{fill:#8f8f8f;}.q{fill:#292954;}.r{fill:#263238;}.s{fill:#37474f;}.t{fill:#3b3b6d;}.u{fill:#f28f8f;}.v{fill:#f59594;}.w{stroke:rgba(0,0,0,0);stroke-miterlimit:10;}.x{fill:#ffa8a7;}.y{fill:#9b6060;}.z{fill:#4d71c9;}.aa{opacity:0.15;}.ab{fill:#638be9;}.ac{fill:#4d69ac;}.ad{fill:#e0e0e0;}.ae{fill:#455a64;}.af{fill:#ebebeb;}.ag{fill:#f0f0f0;}.aj{opacity:0;}</style></defs><g transform="translate(0 77.378)"><path class="a" d="M206.962,231.122c-43.1-26.364-112.742-26.364-155.559,0s-42.592,69.112.5,95.476,112.745,26.366,155.565,0S250.062,257.488,206.962,231.122Z" transform="translate(-19.436 -211.349)"/></g><g transform="translate(18.427 86.47)"><path class="b" d="M159.625,392.016l-68.32-39.449,13.656-7.92,68.33,39.478Z" transform="translate(-73.4 -286.355)"/><path class="b" d="M202.055,297.282h0l-36.6-22.649h0l-36.6-22.648h0l-36.6-22.649L55.887,251.984l36.6,22.648h0l36.6,22.649h0l36.6,22.648h0l36.6,22.649,36.365-22.649Z" transform="translate(-55.887 -229.335)"/></g><g transform="translate(15.038 79.661)"><g transform="translate(174.087 69.579)"><path class="c" d="M421.951,378.69l-2.337-1.917a55.491,55.491,0,0,1,.325-11.2,18.088,18.088,0,0,1,4.64-9.844,6.939,6.939,0,0,1,3.974-2.2,3.58,3.58,0,0,1,3.775,2.049c.552,1.518-.282,3.166-1.17,4.515-1.894,2.877-4.153,5.5-6.009,8.4A20.478,20.478,0,0,0,421.951,378.69Z" transform="translate(-419.489 -353.503)"/><path class="c" d="M424.114,388.068l2.337,1.917a23.705,23.705,0,0,1,7.4-9.361,20.664,20.664,0,0,0,3.276-2.522,4.431,4.431,0,0,0,1.328-3.759,4.02,4.02,0,0,0-3.967-2.895,7.781,7.781,0,0,0-4.806,2.01A15.578,15.578,0,0,0,424.114,388.068Z" transform="translate(-421.652 -362.377)"/><path class="d" d="M424.114,388.068l2.337,1.917a23.705,23.705,0,0,1,7.4-9.361,20.664,20.664,0,0,0,3.276-2.522,4.431,4.431,0,0,0,1.328-3.759,4.02,4.02,0,0,0-3.967-2.895,7.781,7.781,0,0,0-4.806,2.01A15.578,15.578,0,0,0,424.114,388.068Z" transform="translate(-421.652 -362.377)"/><path class="e" d="M421.555,380.062h0a.2.2,0,0,1-.2-.206c.1-5.462,1.321-15.551,8.462-21.752a.2.2,0,1,1,.265.305c-3.014,2.618-8.1,8.886-8.323,21.454A.2.2,0,0,1,421.555,380.062Z" transform="translate(-420.411 -355.753)"/><path class="e" d="M426.4,390.663h-.02a.2.2,0,0,1-.181-.221,20.032,20.032,0,0,1,10.113-16,.2.2,0,1,1,.2.35A19.645,19.645,0,0,0,426.6,390.48.2.2,0,0,1,426.4,390.663Z" transform="translate(-422.806 -363.841)"/></g><g transform="translate(0)"><path class="c" d="M60.174,221.784c-.915-.876-1.963-1.832-2.028-3.1a2.779,2.779,0,0,1,1.822-2.593,4.2,4.2,0,0,1,3.283.25,8.919,8.919,0,0,1,2.628,2.1,21.06,21.06,0,0,1,4.961,18.4,1.535,1.535,0,0,1-.622,1.1c-.612.324-1.309-.246-1.727-.8a12.7,12.7,0,0,1-2.032-4.022c-.366-1.224-.2-2.578-.663-3.735A23.426,23.426,0,0,0,60.174,221.784Z" transform="translate(-53.614 -215.865)"/><path class="e" d="M71.889,237.543h0a.244.244,0,0,1-.243-.245,23.926,23.926,0,0,0-8.958-18.468.244.244,0,1,1,.3-.384A24.425,24.425,0,0,1,72.133,237.3.244.244,0,0,1,71.889,237.543Z" transform="translate(-55.815 -217.116)"/><path class="c" d="M62.259,256.322a3.856,3.856,0,0,1-4.368-1.179c-1.048-1.589-.392-4.036-1.8-5.319a6.023,6.023,0,0,0-2.984-1c-1.042-.216-2.2-.792-2.356-1.845-.206-1.4,1.509-2.555,1.268-3.947-.238-1.369-2.131-1.8-2.69-3.073a2.422,2.422,0,0,1,1.584-3,5.478,5.478,0,0,1,3.712.3,16.441,16.441,0,0,0,3.6,1.181c1.309.161,2.823-.1,3.786.8,1.286,1.2.55,3.5,1.544,4.95.666.973,1.922,1.311,2.883,1.994a4.49,4.49,0,0,1-.172,7.463C64.99,254.631,63.844,255.813,62.259,256.322Z" transform="translate(-49.185 -226.189)"/><path class="f" d="M62.259,256.322a3.856,3.856,0,0,1-4.368-1.179c-1.048-1.589-.392-4.036-1.8-5.319a6.023,6.023,0,0,0-2.984-1c-1.042-.216-2.2-.792-2.356-1.845-.206-1.4,1.509-2.555,1.268-3.947-.238-1.369-2.131-1.8-2.69-3.073a2.422,2.422,0,0,1,1.584-3,5.478,5.478,0,0,1,3.712.3,16.441,16.441,0,0,0,3.6,1.181c1.309.161,2.823-.1,3.786.8,1.286,1.2.55,3.5,1.544,4.95.666.973,1.922,1.311,2.883,1.994a4.49,4.49,0,0,1-.172,7.463C64.99,254.631,63.844,255.813,62.259,256.322Z" transform="translate(-49.185 -226.189)"/><path class="e" d="M63.98,247.1a.278.278,0,0,0-.018-.024c-.231-.334-.47-.663-.724-.98a17.687,17.687,0,0,0-8.857-5.892.244.244,0,0,0-.134.469,17.2,17.2,0,0,1,8.611,5.729c.069.086.13.179.2.266a7.564,7.564,0,0,0-7.079.771.244.244,0,0,0,.153.434.241.241,0,0,0,.153-.054,7.307,7.307,0,0,1,7.34-.384,17.22,17.22,0,0,1,2.954,8.618.244.244,0,0,0,.244.229h.015a.243.243,0,0,0,.229-.258A17.714,17.714,0,0,0,63.98,247.1Z" transform="translate(-51.6 -227.897)"/></g></g><g transform="translate(25.964 74.579)"><g transform="translate(0 1.233)"><path class="g" d="M102.761,208.252,70.84,226.8,70.8,242.393l32.131,18.551,31.922-18.551.043-15.589Z" transform="translate(-70.797 -208.252)"/><path class="h" d="M134.934,226.8,102.8,208.252,70.881,226.8l32.131,18.551Z" transform="translate(-70.839 -208.252)"/><path class="d" d="M134.4,263.5l-.043,15.589,31.922-18.551.043-15.589Z" transform="translate(-102.226 -226.398)"/></g><g transform="translate(33.875 3.337)"><path class="i" d="M178.215,212.414l-31.922,18.551-.043,35.509,32.131,18.551L210.3,266.474l.043-35.509Z" transform="translate(-146.25 -212.414)"/><path class="h" d="M210.387,230.965l-32.131-18.551-31.922,18.551,32.131,18.551Z" transform="translate(-146.292 -212.414)"/><path class="d" d="M209.852,267.661l-.043,35.509,31.922-18.551.043-35.509Z" transform="translate(-177.679 -230.56)"/></g><g transform="translate(68.566 5.593)"><path class="j" d="M255.482,216.876,223.56,235.427l-.043,55.7,32.131,18.551,31.922-18.551.043-55.7Z" transform="translate(-223.518 -216.876)"/><path class="h" d="M287.654,235.427l-32.131-18.551L223.6,235.427l32.131,18.551Z" transform="translate(-223.559 -216.876)"/><path class="d" d="M287.12,272.124l-.043,55.7L319,309.274l.043-55.7Z" transform="translate(-254.946 -235.022)"/></g><g transform="translate(68.584 5.446)"><path class="k" d="M255.524,216.586,223.6,235.137l-.043,55.772L255.69,309.46l31.922-18.551.043-55.772Z" transform="translate(-223.56 -216.586)"/><path class="h" d="M287.7,235.137l-32.131-18.551-31.922,18.551,32.131,18.551Z" transform="translate(-223.601 -216.586)"/><path class="d" d="M287.162,271.833l-.043,55.772,31.922-18.551.043-55.772Z" transform="translate(-254.989 -234.731)"/></g><g transform="translate(104.063)"><path class="l" d="M334.549,205.813l-31.922,18.551-.043,84.381L334.715,327.3l31.922-18.551.043-84.381Z" transform="translate(-302.584 -205.813)"/><path class="h" d="M366.721,224.364,334.59,205.813l-31.922,18.551L334.8,242.915Z" transform="translate(-302.626 -205.813)"/><path class="d" d="M366.186,261.06l-.043,84.381,31.922-18.551.043-84.381Z" transform="translate(-334.013 -223.959)"/></g></g><g transform="translate(32.827 95.347)"><path class="m" d="M171.712,248.371l-2.187-1.476-16.632,33.758,2.187,1.476,9.765-5.638c-.423,15.871-4.827,23.824-9.1,28.4-.226.059-.454.116-.683.171l-.4.093q-.4.09-.8.171c-.12.025-.239.05-.359.074-.2.038-.4.074-.607.111-.15.026-.3.055-.45.079-.214.036-.432.068-.648.1-.144.022-.286.045-.43.065-.239.033-.481.062-.723.092-.126.016-.251.033-.378.047-.335.038-.672.072-1.013.1l-.108.011q-.552.049-1.115.086c-.477.031-.957.054-1.439.072-.146.006-.292.009-.438.013q-.524.015-1.052.02l-.434,0q-.872,0-1.753-.027l-.3-.012q-.817-.031-1.643-.086l-.278-.017q-.841-.061-1.691-.147l-.4-.042q-.743-.08-1.492-.178l-.3-.038q-.824-.113-1.655-.249l-.4-.068q-.677-.115-1.358-.245c-.142-.027-.282-.053-.424-.081-.544-.107-1.089-.22-1.637-.342l-.247-.057q-.711-.16-1.425-.337l-.5-.124q-.631-.16-1.264-.333c-.131-.035-.261-.069-.392-.106q-.814-.226-1.633-.473c-.125-.037-.251-.078-.377-.116q-.631-.193-1.263-.4l-.523-.171q-.614-.2-1.23-.418c-.144-.05-.287-.1-.431-.149q-.809-.287-1.622-.591l-.294-.113q-.673-.256-1.349-.524c-.176-.07-.352-.141-.528-.212q-.581-.235-1.163-.48c-.17-.071-.34-.142-.51-.215q-.748-.318-1.5-.653l-.145-.064q-.818-.366-1.639-.753l-.484-.23q-.6-.283-1.192-.575l-.543-.268q-.628-.312-1.257-.636l-.418-.214q-.827-.429-1.655-.877c-.3-.161-.6-.327-.9-.492-.156-.085-.311-.169-.467-.256q-.668-.372-1.338-.757l-.042-.024-13.7,7.963,0,2.221c15.524,8.928,30.724,13.181,43.963,12.3a35.428,35.428,0,0,0,16.061-4.585c-.108.065-.213.132-.322.2h0l13.7-7.962a26.015,26.015,0,0,0,3.46-2.4c.146-.12.294-.245.443-.372l.131-.112q.174-.149.349-.3l.121-.107q.228-.2.46-.42l.079-.075q.193-.182.388-.372l.14-.137c.128-.126.255-.255.384-.387l.093-.095q.234-.243.469-.5l.116-.128q.183-.2.366-.412l.138-.16c.148-.173.3-.349.444-.53l.029-.036c.156-.193.312-.391.467-.594l.131-.173q.179-.237.356-.484l.126-.174c.154-.217.306-.438.459-.666l.065-.1c.1-.145.192-.29.287-.44.029-.046.057-.094.085-.14.074-.117.147-.238.22-.358.089-.147.178-.295.266-.446.073-.124.145-.252.217-.38q.13-.23.258-.466c.072-.132.144-.267.214-.4q.127-.242.252-.49c.07-.14.14-.28.209-.423.037-.076.075-.149.111-.225.064-.135.127-.274.19-.411.03-.065.06-.128.089-.193q.2-.442.394-.9c.029-.069.057-.141.086-.211q.156-.381.308-.775l.1-.26c.022-.058.044-.114.066-.172.037-.1.072-.208.109-.309.1-.275.2-.553.293-.838.055-.163.109-.33.163-.5q.137-.422.267-.857c.031-.1.065-.2.1-.308.022-.075.042-.156.064-.232.067-.235.132-.476.2-.717.055-.2.11-.407.163-.615.063-.249.124-.5.185-.76.036-.151.074-.3.11-.45.014-.064.027-.132.042-.2.049-.218.1-.442.142-.665.052-.245.1-.49.152-.741.045-.229.087-.464.13-.7.032-.175.066-.344.1-.522.015-.085.027-.175.042-.26.036-.215.071-.435.105-.654.044-.281.087-.563.129-.851.032-.227.064-.457.094-.688.021-.158.044-.311.065-.471.017-.137.031-.281.048-.42q.04-.337.078-.68.051-.466.1-.944c.022-.232.044-.464.065-.7.01-.109.021-.214.03-.324.019-.228.033-.466.05-.7s.033-.445.048-.672c.024-.381.044-.769.064-1.16.01-.2.022-.4.031-.6,0-.041,0-.081.007-.122.022-.517.038-1.045.051-1.579,0-.041,0-.081,0-.123q.02-.875.025-1.781c0-.058,0-.116,0-.174l7.963-4.6Z" transform="translate(-91.305 -246.895)"/><path class="c" d="M171.712,248.371l-16.632,33.758-2.187-1.476L169.525,246.9Zm-19.579,63.074q.444-.287.873-.591c.114-.081.229-.161.342-.244.381-.279.756-.565,1.119-.863.146-.121.294-.245.443-.372h0l.13-.111c.1-.083.193-.168.29-.254l.059-.052.12-.107c.152-.136.306-.276.46-.42l.081-.077h0l.118-.113c.089-.085.178-.169.268-.257l.14-.137.093-.093c.1-.1.193-.193.289-.292h0l.094-.1h0c.1-.109.21-.222.315-.336.051-.055.1-.107.153-.163l.116-.128q.184-.2.367-.413l.138-.159c.047-.055.094-.113.142-.169.1-.119.2-.238.3-.362h0l.029-.035c.041-.051.083-.106.124-.158.115-.144.229-.288.343-.436h0c.043-.057.087-.115.13-.173.09-.119.179-.242.268-.365.03-.04.06-.079.089-.12.041-.058.083-.114.124-.173h0c.086-.122.172-.25.259-.376.067-.1.133-.191.2-.29h0c.022-.033.043-.067.065-.1.057-.086.113-.177.17-.265.067-.1.134-.207.2-.314s.147-.238.22-.358c.089-.147.177-.294.265-.444.073-.125.146-.253.219-.382.056-.1.112-.2.168-.3.03-.054.06-.107.089-.162.072-.132.144-.267.215-.4.054-.1.108-.209.161-.314.03-.059.061-.116.09-.175q.105-.21.209-.424l.035-.073c.089-.185.178-.372.266-.563.03-.065.06-.128.089-.194.084-.187.167-.382.25-.574.048-.111.1-.217.144-.33.029-.07.058-.142.087-.213q.156-.379.308-.772h0l.1-.261c.038-.1.076-.209.114-.314l.061-.167c.1-.274.2-.552.293-.836.042-.125.083-.252.124-.379.013-.04.026-.079.039-.119h0q.136-.421.266-.857h0l.011-.039c.05-.166.1-.332.148-.5.068-.235.133-.476.2-.718.006-.022.012-.044.018-.067.049-.181.1-.362.145-.547h0c.063-.249.124-.5.185-.759.051-.215.1-.428.152-.647s.1-.441.142-.664c.029-.136.057-.275.085-.413.023-.11.046-.217.068-.329.045-.229.087-.464.13-.7h0q.059-.325.116-.654l.023-.126c.036-.216.071-.437.106-.657h0c.044-.28.087-.561.128-.846h0c.032-.228.064-.459.095-.692.038-.293.076-.588.112-.888q.04-.338.078-.68.051-.466.1-.945c.022-.231.044-.463.065-.7.029-.336.055-.679.08-1.024.016-.222.033-.443.048-.67.024-.381.044-.77.064-1.16.01-.2.022-.4.031-.6q.036-.839.058-1.707c0-.04,0-.078,0-.118q.023-.977.026-1.993l-.013-.008-1.954,1.128c-.423,15.871-4.827,23.824-9.1,28.4a28.827,28.827,0,0,1-2.772,2.592,25.1,25.1,0,0,1-3.55,2.433q-.333.188-.673.369c-.148.078-.294.158-.444.234-.244.124-.492.243-.742.36-.137.065-.273.132-.414.2-.311.141-.627.275-.947.405l-.122.052q-.668.271-1.36.515c-.241.084-.488.163-.734.243-.144.047-.286.1-.431.141-.31.1-.626.185-.944.273-.157.043-.315.086-.475.128q-.4.105-.81.2c-.184.044-.37.085-.556.126-.3.066-.6.133-.91.193-.079.016-.16.029-.24.044-.324.061-.651.12-.981.173l-.425.066q-.416.064-.839.12c-.154.02-.308.04-.464.059q-.429.052-.866.1c-.143.014-.285.03-.428.043-.427.04-.856.076-1.292.1-.489.032-.982.055-1.477.073l-.4.012q-.524.014-1.051.02l-.434,0c-.581,0-1.165-.008-1.753-.027l-.089,0q-.92-.031-1.85-.094h-.008l-.276-.017h-.015q-.864-.062-1.737-.152l-.09-.01q-.868-.089-1.744-.2l-.3-.038h0q-.985-.135-1.98-.3l-.078-.014q-.677-.114-1.358-.245c-.141-.027-.282-.053-.424-.081-.543-.107-1.089-.22-1.637-.342l-.248-.057q-.71-.16-1.425-.337l-.495-.124q-.631-.161-1.266-.333l-.038-.011c-.659-.18-1.32-.368-1.985-.567l-.382-.118q-.744-.228-1.492-.473l-.022-.007q-.747-.245-1.5-.506c-.144-.05-.288-.1-.432-.15q-.836-.3-1.675-.611l-.246-.095q-.671-.255-1.344-.522l-.527-.212q-.772-.312-1.546-.641l-.056-.023q-.779-.331-1.56-.679l-.014-.007-.139-.061q-.817-.366-1.638-.753l-.491-.234q-.591-.281-1.185-.572l-.547-.27q-.691-.343-1.384-.7l-.289-.148q-.826-.429-1.654-.876c-.3-.164-.606-.331-.909-.5-.152-.083-.3-.165-.454-.249q-.691-.385-1.382-.782l0,2.221c15.524,8.928,30.724,13.181,43.963,12.3a35.428,35.428,0,0,0,16.061-4.585c.133-.08.267-.16.4-.242S152,311.533,152.133,311.445Z" transform="translate(-91.305 -246.895)"/><path class="h" d="M93.149,349.163c.3.168.607.335.909.5q.828.447,1.654.876l.289.148q.692.357,1.384.7l.547.27q.594.291,1.185.572l.491.234q.82.385,1.638.753l.139.061.014.007q.782.348,1.56.679l.056.023q.774.329,1.546.642l.527.212q.673.268,1.344.522l.246.095q.839.316,1.675.611c.144.051.288.1.432.15q.75.261,1.5.506l.022.007q.748.245,1.492.473l.382.118c.664.2,1.325.387,1.985.567l.038.011q.635.172,1.266.333l.495.124q.714.177,1.425.337l.248.057c.547.122,1.093.235,1.637.342.142.028.283.054.424.081q.682.13,1.358.245l.078.014q.995.168,1.98.3h0l.3.038q.876.115,1.744.2l.09.01q.873.089,1.737.152h.015l.276.017h.008q.93.062,1.85.094l.089,0c.588.019,1.172.027,1.753.027l.434,0q.527,0,1.051-.02c.133,0,.268-.007.4-.012.494-.018.987-.041,1.477-.073.436-.029.865-.065,1.292-.1.144-.013.286-.029.428-.043q.436-.045.866-.1c.156-.019.31-.039.464-.059q.423-.056.839-.12l.425-.066c.33-.054.657-.112.981-.173.079-.015.16-.028.24-.044.307-.06.609-.127.91-.193.186-.041.372-.082.556-.126q.409-.1.81-.2c.159-.041.317-.084.475-.128.317-.088.633-.177.944-.273.146-.045.287-.095.431-.141.246-.08.492-.158.734-.243q.693-.243,1.36-.515l.122-.052c.32-.131.636-.265.947-.405.14-.063.276-.13.414-.2.25-.118.5-.237.742-.36.15-.076.3-.155.444-.234q.34-.18.673-.369a25.1,25.1,0,0,0,3.55-2.433,28.832,28.832,0,0,0,2.772-2.592c-.226.059-.454.116-.683.171l-.4.093q-.4.09-.8.171c-.12.025-.239.05-.359.074-.2.038-.4.074-.607.111-.15.026-.3.055-.45.079-.214.036-.432.068-.648.1-.144.022-.286.045-.43.065-.239.033-.481.062-.723.092-.126.016-.251.033-.378.048-.335.038-.672.072-1.013.1l-.108.011q-.552.049-1.115.086c-.477.032-.957.054-1.439.072-.146.006-.292.009-.438.013q-.524.015-1.052.02l-.434,0c-.581,0-1.165-.008-1.753-.027-.1,0-.2-.008-.3-.012q-.818-.03-1.643-.086l-.278-.017q-.841-.061-1.691-.147c-.133-.013-.267-.028-.4-.042q-.743-.08-1.492-.178l-.3-.038q-.824-.113-1.655-.249c-.134-.022-.269-.046-.4-.068q-.677-.115-1.358-.245l-.424-.08c-.544-.108-1.089-.22-1.637-.342l-.247-.057q-.71-.16-1.425-.337l-.5-.124q-.631-.16-1.264-.333c-.131-.035-.261-.069-.392-.106q-.814-.226-1.633-.473c-.125-.037-.251-.078-.377-.116q-.631-.193-1.263-.4l-.523-.171q-.614-.2-1.23-.418c-.144-.05-.287-.1-.431-.149q-.809-.287-1.622-.591l-.294-.113q-.673-.256-1.349-.524c-.176-.07-.352-.141-.528-.212q-.581-.235-1.163-.48c-.17-.071-.34-.142-.51-.215q-.748-.318-1.5-.653l-.145-.064q-.818-.366-1.639-.753l-.484-.231q-.6-.283-1.192-.575l-.543-.268q-.628-.312-1.257-.636l-.418-.214q-.827-.429-1.655-.876c-.3-.162-.6-.327-.9-.492-.156-.085-.311-.169-.467-.256q-.668-.372-1.338-.757l-.042-.024-13.7,7.963q.691.4,1.382.782C92.846,349,93,349.08,93.149,349.163Z" transform="translate(-91.309 -293.017)"/></g><g transform="translate(17.004 8.89)"><path class="b" d="M62.567,77.652c2.244-1.3,4.14-.661,4.742,1.352a6.654,6.654,0,0,1,2.424-2.7c1.758-1.015,3.189-.2,3.194,1.82l0,.927,2.36-1.362c1.232-.711,2.232-.139,2.236,1.277a4.893,4.893,0,0,1-2.222,3.848L55.311,94.36c-1.232.711-2.235.143-2.238-1.273A4.9,4.9,0,0,1,55.3,89.235l2.36-1.363,0-1.707A10.833,10.833,0,0,1,62.567,77.652Z" transform="translate(-53.073 -75.869)"/><g transform="translate(22.273 8.066)"><path class="b" d="M103.948,93.1c1.611-.93,2.971-.475,3.4.971a4.781,4.781,0,0,1,1.74-1.937c1.262-.728,2.289-.143,2.293,1.307l0,.666,1.694-.978c.884-.511,1.6-.1,1.605.917a3.512,3.512,0,0,1-1.594,2.762L98.74,105.1c-.884.511-1.6.1-1.607-.914a3.52,3.52,0,0,1,1.6-2.765l1.694-.978,0-1.225A7.776,7.776,0,0,1,103.948,93.1Z" transform="translate(-97.133 -91.824)"/></g><g transform="translate(168.44 5.638)"><path class="b" d="M422.944,88.3c-1.611-.93-2.971-.474-3.4.971a4.778,4.778,0,0,0-1.74-1.937c-1.262-.728-2.288-.144-2.293,1.306l0,.666-1.694-.978c-.884-.511-1.6-.1-1.605.916a3.511,3.511,0,0,0,1.594,2.762l14.351,8.285c.884.511,1.6.1,1.607-.913a3.519,3.519,0,0,0-1.6-2.765l-1.694-.978,0-1.225A7.776,7.776,0,0,0,422.944,88.3Z" transform="translate(-412.207 -87.023)"/></g></g><g transform="translate(94.81 0)"><path class="c" d="M238.62,59.65a.388.388,0,0,0-.2-.338h0l-1.752-.973-.009-.005-.006,0h0a.386.386,0,0,0-.379.005l-12,6.926a1.184,1.184,0,0,0-.586,1.018l.013,4.46-4.151,4.293c-.373.386-.413.967-.123,1.058l1.656.912a.254.254,0,0,0,.227.075l2.409-.294.01,3.274a.387.387,0,0,0,.191.334h0l.007,0,1.743.967.025.014.019.008a.382.382,0,0,0,.356-.015l12-6.926a1.17,1.17,0,0,0,.585-1.018Zm-12.858,6.813c-.014.015-.027.029-.039.045C225.735,66.492,225.748,66.477,225.762,66.463Zm-.113.145c-.01.014-.02.028-.028.043C225.629,66.636,225.639,66.622,225.648,66.608Zm-.167.393c0,.017-.007.033-.01.05C225.474,67.033,225.478,67.017,225.482,67Zm.369-.624c.014-.012.027-.025.041-.036C225.877,66.351,225.864,66.364,225.85,66.376Z" transform="translate(-219.243 -58.284)"/><path class="n" d="M229.875,98.922a.386.386,0,0,0,.186.33l-1.743-.967-.007,0h0a.387.387,0,0,1-.191-.334l-.01-3.274,1.753-.213Z" transform="translate(-223.627 -76.171)"/><path class="h" d="M228.737,65.262l12-6.926a.386.386,0,0,1,.379-.005h0l.006,0,.009.005,1.752.973h0a.388.388,0,0,0-.389,0l-12,6.926a1.17,1.17,0,0,0-.5.568L228.254,65.8A1.171,1.171,0,0,1,228.737,65.262Z" transform="translate(-223.699 -58.284)"/><path class="n" d="M228.063,78.092l-.013-4.46a1.18,1.18,0,0,1,.1-.48l1.742,1.006a1.176,1.176,0,0,0-.088.45l.013,4.46-1.757-.976Z" transform="translate(-223.598 -65.636)"/><path class="o" d="M219.556,87.217l4.151-4.293,1.757.976h0l-4.151,4.293c-.322.333-.395.81-.224.994l-1.656-.912C219.144,88.183,219.184,87.6,219.556,87.217Z" transform="translate(-219.243 -70.468)"/><path class="e" d="M243.09,72.725a.218.218,0,0,1,.268,0l2.348,2.252c.165.156.008.609-.265.766l-1.3.75.03,5.342-2.081,1.2-.03-5.343-1.3.75c-.272.157-.432-.112-.268-.459l2.328-4.952A.7.7,0,0,1,243.09,72.725Z" transform="translate(-229.719 -65.402)"/></g><g transform="translate(52.297 14.484)"><path class="n" d="M206.7,234.262a11.254,11.254,0,0,0-4.954-5.06c-7.3-4.218-19.11-4.218-26.368,0s-7.219,11.056.085,15.273c5.866,3.386,14.627,4.048,21.612,2v-6.514Z" transform="translate(-150.356 -155.719)"/><g transform="translate(1.343)"><path class="p" d="M155.772,143.2l8.516-6.651.828,1.5-8.644,6.779Z" transform="translate(-144.681 -111.469)"/><path class="q" d="M186.753,161.128l4.779-.437c-.6,3.034-1.671,7.238-1.671,7.238l-3.108-3.56Z" transform="translate(-160.001 -123.406)"/><g transform="translate(0 47.57)"><path d="M134.352,190.755a4.979,4.979,0,0,1,1.019-3.025,22.808,22.808,0,0,1,1.665-1.719,3.73,3.73,0,0,0,.933-1.482,6.547,6.547,0,0,1,.82-1.776,2.947,2.947,0,0,1,1.748-1.292,1.038,1.038,0,0,1,.831.152c-.042-.056-.088-.115-.14-.177a1.069,1.069,0,0,0-1.083-.369,3.005,3.005,0,0,0-1.783,1.319,6.653,6.653,0,0,0-.837,1.812,3.809,3.809,0,0,1-.952,1.512,23.357,23.357,0,0,0-1.7,1.754,5.085,5.085,0,0,0-1.039,3.087,1.718,1.718,0,0,0,.424,1.273,1.129,1.129,0,0,0,.641.281.973.973,0,0,1-.131-.1A1.681,1.681,0,0,1,134.352,190.755Z" transform="translate(-133.833 -181.036)"/><path class="r" d="M142.1,182.21a1.054,1.054,0,0,0-.231-.21,1.038,1.038,0,0,0-.831-.152,2.947,2.947,0,0,0-1.748,1.292,6.547,6.547,0,0,0-.82,1.776,3.73,3.73,0,0,1-.933,1.482,22.808,22.808,0,0,0-1.665,1.719,4.979,4.979,0,0,0-1.019,3.025,1.681,1.681,0,0,0,.415,1.248.973.973,0,0,0,.131.1,1.321,1.321,0,0,0,1.129.106,2.5,2.5,0,0,0,1.059-.8c.288-.342.528-.722.816-1.065a10.019,10.019,0,0,1,1.643-1.462l1.623-1.244.739-5.412S142.277,182.423,142.1,182.21Z" transform="translate(-134.34 -181.423)"/></g><path class="q" d="M159.042,180.789l-.249,6.69c-3.033-3.075-10.928-5.942-10.928-5.942-2.992,2.2-2.327,4.737-1.205,5.942,6.192,3.366,13.255,7.9,14.876,7.521s3.763-2.829,5.33-7.461Z" transform="translate(-139.707 -133.344)"/><g transform="translate(15.664 36.808)"><g transform="translate(15.499 39.814)"><path class="r" d="M205.172,247.151a1.149,1.149,0,0,1-.663.582,3.137,3.137,0,0,1-.888.159,8.428,8.428,0,0,1-1.952-.03,3.6,3.6,0,0,1-1.775-.763,7.041,7.041,0,0,1-1.134-1.445,13.277,13.277,0,0,0-3.067-3.173,5.7,5.7,0,0,0,.129.65,12.343,12.343,0,0,1,2.938,3.076,7.024,7.024,0,0,0,1.134,1.445,3.594,3.594,0,0,0,1.775.764,8.428,8.428,0,0,0,1.952.03,3.138,3.138,0,0,0,.888-.159,1.149,1.149,0,0,0,.663-.582.985.985,0,0,0,.031-.65A.834.834,0,0,1,205.172,247.151Z" transform="translate(-195.584 -240.47)"/><path class="s" d="M204.8,243.967a4.853,4.853,0,0,0-1.03-.807,9.014,9.014,0,0,1-3.473-4.655l-4.643.261a2.823,2.823,0,0,0-.063,1.749,13.277,13.277,0,0,1,3.067,3.173,7.043,7.043,0,0,0,1.134,1.445,3.6,3.6,0,0,0,1.775.763,8.425,8.425,0,0,0,1.952.03,3.136,3.136,0,0,0,.888-.159,1.149,1.149,0,0,0,.663-.582.833.833,0,0,0,.031-.1A1.255,1.255,0,0,0,204.8,243.967Z" transform="translate(-195.477 -238.504)"/></g><path class="t" d="M165.29,159.746c-1,4.9-.623,7.064,3.2,10.638s10.1,8.6,10.1,8.6c-1.538,4.986.748,11.552.831,14.086s.706,6.815.706,6.815c3.491,1.87,5.361,0,5.361,0V177.864a7.979,7.979,0,0,0-1.969-5.247l-7.61-8.716v-3.241Z" transform="translate(-164.819 -159.746)"/></g><g transform="translate(32.528 11.338)"><path class="u" d="M215.294,121.9a4.143,4.143,0,0,0,2.048.147c0-1.327-.009-2.806.107-4.735.249-4.155-.873-6.441-1.8-7.272a2.706,2.706,0,0,0-3.117-.318c-.6.526.859,2.438,1.067,4.1-.831-.97-1.247-1.3-2.036-.706a5.133,5.133,0,0,1,1.011,1.814c.166.831,1.053,1.413,1.3,2.1a10.817,10.817,0,0,1-.316,3.72A4.142,4.142,0,0,0,215.294,121.9Z" transform="translate(-204.797 -109.364)"/><path class="v" d="M215.294,121.9a4.143,4.143,0,0,0,2.048.147c0-1.327-.009-2.806.107-4.735.249-4.155-.873-6.441-1.8-7.272a2.706,2.706,0,0,0-3.117-.318c-.6.526.859,2.438,1.067,4.1-.831-.97-1.247-1.3-2.036-.706a5.133,5.133,0,0,1,1.011,1.814c.166.831,1.053,1.413,1.3,2.1a10.817,10.817,0,0,1-.316,3.72A4.142,4.142,0,0,0,215.294,121.9Z" transform="translate(-204.797 -109.364)"/><path class="t" d="M208.676,125.981a4.142,4.142,0,0,1-1.734-1.147c-.091.439-.191.857-.293,1.213,0,0-3.214-4.4-3.933-5.236s-1.385-2.826-4.537-3.193l.381,7.764s6.372,7.258,8.56,8.477,2.909-.36,3.352-3.3a28.162,28.162,0,0,0,.253-4.434A4.143,4.143,0,0,1,208.676,125.981Z" transform="translate(-198.178 -113.446)"/><path class="d" d="M213.327,138.263a8.615,8.615,0,0,1,.492-4.7l-.547-.748A6.324,6.324,0,0,0,213.327,138.263Z" transform="translate(-205.348 -120.958)"/></g><path class="q" d="M172.366,116.643a19.719,19.719,0,0,0-5.776.394,76.763,76.763,0,0,0,0,13.048l-1.579,8.477c6.192,3.74,14.086,2.078,15.666,1,2.493-9.723,3.117-18.907,1.1-22.751l-4.923-.828Z" transform="translate(-149.25 -101.298)"/><g transform="translate(13.647 17.44)"><path class="w" d="M1.834,2.483a5.377,5.377,0,0,1-.508-.809.624.624,0,0,1-.043-.119L0,.54A8.415,8.415,0,0,1,1.415,0l.571.283a2.7,2.7,0,0,1,.873,0L3.233,0l.618.207L3.317,1.369a2.893,2.893,0,0,1-.466,1.114.65.65,0,0,1-.381.089A2.91,2.91,0,0,1,1.834,2.483Z" transform="translate(11.971 0)"/><g transform="translate(0 2.484)"><path class="c" d="M174.633,126.346c-1.09,4.337-6.174,7.165-10.367,6.862a2.549,2.549,0,0,0-1.682.436,7.445,7.445,0,0,0-1.622,1.582.667.667,0,0,0,.273,1.015,17.756,17.756,0,0,0,2.861.88,6.183,6.183,0,0,0,3.089-.08c7.615-2.2,8.673-7.082,8.466-10.7Z" transform="translate(-160.829 -126.346)"/><path class="d" d="M189.145,126.542c0-.065-.005-.131-.009-.2h-1.018c-.006.022-.013.043-.018.065a.979.979,0,0,0,1.045.131Z" transform="translate(-174.314 -126.346)"/></g></g><path class="d" d="M190.886,165.644a5.129,5.129,0,0,1-3.072,1.788l2.572,2.946a8.208,8.208,0,0,0-1.283-2.588A4.351,4.351,0,0,0,190.886,165.644Z" transform="translate(-160.525 -125.855)"/><path class="t" d="M189.219,118.8c1.174-.311,1.922.987,1.922.987.073-2.877-1.423-3.978-1.423-3.978Z" transform="translate(-161.22 -101.214)"/><g transform="translate(21.105)"><path class="r" d="M177.8,90.313l-1.571-1.037a1.412,1.412,0,0,1,1.081-.495.9.9,0,0,1,.826.956,2.874,2.874,0,0,1,1.706-2.191,5.474,5.474,0,0,1,2.758-.4c.938.064,1.865.242,2.8.277a9.25,9.25,0,0,0,3.2-.451.661.661,0,0,1,.85.8,4.573,4.573,0,0,1-.892,1.622,1.946,1.946,0,0,0,.668.074.663.663,0,0,1,.607,1.008,3.705,3.705,0,0,1-1.675,1.352c-2.49,3.935-9.211,7.445-9.211,7.445a1.4,1.4,0,0,1-1.073-.759,4.017,4.017,0,0,1-.381-1.31q-.433-2.587-.715-5.195a2.5,2.5,0,0,1,.047-1.1.87.87,0,0,1,.822-.623" transform="translate(-175.904 -86.935)"/><g transform="translate(2.011 9.237)"><path class="u" d="M180.1,105.436c-.18,1.622-.54,4.426-.54,4.426,1.413,1.911,4.155,2.327,4.883,3.7a22.33,22.33,0,0,0,.914-4.675l-4.675-3.678Z" transform="translate(-179.56 -105.207)"/><path class="v" d="M180.1,105.436c-.18,1.622-.54,4.426-.54,4.426,1.413,1.911,4.155,2.327,4.883,3.7a22.33,22.33,0,0,0,.914-4.675l-4.675-3.678Z" transform="translate(-179.56 -105.207)"/><path class="d" d="M181.66,105.207l-.119.047a5.2,5.2,0,0,0,4.565,5.4,16.851,16.851,0,0,0,.228-1.769Z" transform="translate(-180.538 -105.207)"/></g><path class="u" d="M187.844,95.713a17.084,17.084,0,0,1-.873,8.014,1.658,1.658,0,0,1-1.564,1.075c-3.55.007-6.349-1.212-6.838-4.369a1.331,1.331,0,0,1-1.547.416,2.8,2.8,0,0,1-1.432-1.981,1.189,1.189,0,0,1,.21-.854,1.165,1.165,0,0,1,1.338-.294,1.95,1.95,0,0,1,.985,1.045c.076.171.177.38.364.385s.305-.212.362-.4a6.766,6.766,0,0,0,.29-2.288,2.255,2.255,0,0,0,1.625-.306,2.212,2.212,0,0,0,.907-1.364,2.039,2.039,0,0,0,1.493,1.062,1.969,1.969,0,0,0,1.7-.6,2.425,2.425,0,0,0,1.358.7A2.8,2.8,0,0,0,187.844,95.713Z" transform="translate(-175.582 -90.822)"/><path class="x" d="M187.844,95.713a17.084,17.084,0,0,1-.873,8.014,1.658,1.658,0,0,1-1.564,1.075c-3.55.007-6.349-1.212-6.838-4.369a1.331,1.331,0,0,1-1.547.416,2.8,2.8,0,0,1-1.432-1.981,1.189,1.189,0,0,1,.21-.854,1.165,1.165,0,0,1,1.338-.294,1.95,1.95,0,0,1,.985,1.045c.076.171.177.38.364.385s.305-.212.362-.4a6.766,6.766,0,0,0,.29-2.288,2.255,2.255,0,0,0,1.625-.306,2.212,2.212,0,0,0,.907-1.364,2.039,2.039,0,0,0,1.493,1.062,1.969,1.969,0,0,0,1.7-.6,2.425,2.425,0,0,0,1.358.7A2.8,2.8,0,0,0,187.844,95.713Z" transform="translate(-175.582 -90.822)"/><path class="u" d="M193.45,102.67l1.624,2.047-1.536.509Z" transform="translate(-184.417 -94.716)"/><path class="y" d="M193.45,102.67l1.624,2.047-1.536.509Z" transform="translate(-184.417 -94.716)"/><path class="u" d="M190.814,109.651l1.277.421a.79.79,0,0,1-.873.381A.713.713,0,0,1,190.814,109.651Z" transform="translate(-183.11 -98.168)"/><path class="d" d="M190.814,109.651l1.277.421a.79.79,0,0,1-.873.381A.713.713,0,0,1,190.814,109.651Z" transform="translate(-183.11 -98.168)"/><path class="u" d="M191.645,110.638a.729.729,0,0,1-.421.017.643.643,0,0,1-.406-.588.733.733,0,0,1,.827.571Z" transform="translate(-183.116 -98.37)"/><path class="r" d="M188.958,102.995a.457.457,0,1,0,.441-.472A.457.457,0,0,0,188.958,102.995Z" transform="translate(-182.196 -94.643)"/><path class="r" d="M196.532,102.443a.457.457,0,1,0,.441-.472A.457.457,0,0,0,196.532,102.443Z" transform="translate(-185.941 -94.37)"/><path class="r" d="M197.288,99.142l1.036.665a.651.651,0,0,0-.222-.71A.772.772,0,0,0,197.288,99.142Z" transform="translate(-186.315 -92.901)"/><path class="r" d="M188.536,99.328l-.988.735a.652.652,0,0,1,.173-.723A.772.772,0,0,1,188.536,99.328Z" transform="translate(-181.475 -93.008)"/></g><path class="t" d="M178.07,113.709l.092-.721a.637.637,0,0,0-.181.021,7.872,7.872,0,0,0-1.435,1.731,12.792,12.792,0,0,0,3.158,4.031c1.441-.72,2.48-1.731,3.248-1.364C182.655,115.724,178.07,113.709,178.07,113.709Z" transform="translate(-154.954 -99.818)"/><path class="p" d="M174.033,142.366c3.459-4.857,11.078-16.095,10.635-25.27l1.571.264c.655,9.043-6.513,20.839-11.506,26.955Z" transform="translate(-153.711 -101.849)"/><g transform="translate(6.784 30.056)"><path class="z" d="M159.7,165.991l-10.575-8.908-1.863,6.586a.268.268,0,0,0,.053.241l0,.006.011.01.035.031,10.429,9.323a.275.275,0,0,1-.073-.274Z" transform="translate(-147.253 -151.677)"/><path class="aa" d="M159.7,165.991l-10.575-8.908-1.863,6.586a.268.268,0,0,0,.053.241l0,.006.011.01.035.031,10.429,9.323a.275.275,0,0,1-.073-.274Z" transform="translate(-147.253 -151.677)"/><path class="j" d="M170.98,172.15l1.656-5.853-1.656,5.853Z" transform="translate(-158.985 -156.233)"/><path class="j" d="M176.481,165.064l.011.01Z" transform="translate(-161.706 -155.624)"/><path class="j" d="M168.1,189.124h0Z" transform="translate(-157.559 -167.52)"/><path class="j" d="M176.509,165.089l-.006-.006,0,.007Z" transform="translate(-161.716 -155.633)"/><path class="j" d="M150.192,159.79h0Z" transform="translate(-148.706 -153.016)"/><path class="j" d="M168.1,189.128h0l-.006,0Z" transform="translate(-157.559 -167.521)"/><path class="j" d="M150.192,159.79h0Z" transform="translate(-148.706 -153.016)"/><path class="ab" d="M172.372,165.292a.378.378,0,0,0-.1-.313l0-.007-.011-.01a.378.378,0,0,0-.32-.1h0a1,1,0,0,0-.8.722l-1.656,5.853-1.531,5.412a.275.275,0,0,0,.073.274h0l.006,0a.275.275,0,0,0,.269.065l2.07-.624a.841.841,0,0,0,.591-.693Z" transform="translate(-157.477 -155.522)"/><path class="d" d="M172.372,165.292a.378.378,0,0,0-.1-.313l0-.007-.011-.01a.378.378,0,0,0-.32-.1h0a1,1,0,0,0-.8.722l-1.656,5.853-1.531,5.412a.275.275,0,0,0,.073.274h0l.006,0a.275.275,0,0,0,.269.065l2.07-.624a.841.841,0,0,0,.591-.693Z" transform="translate(-157.477 -155.522)"/><path class="c" d="M162.71,167.185l-1.869,6.708.295.281,1.807-6.653Z" transform="translate(-153.972 -156.672)"/><path class="c" d="M154.867,160.17,153,166.878l.295.281,1.807-6.653Z" transform="translate(-150.094 -153.204)"/><path class="ac" d="M153.253,146.5l-.005,0s-.012-.006-.016-.01a.375.375,0,0,0-.308-.091,1,1,0,0,0-.8.722l-1.429,5.05a1.634,1.634,0,0,0,.5,1.679l1.1.957,7.528,6.549a.924.924,0,0,0,1.495-.445l1.26-4.452a1,1,0,0,1,.8-.722h0a.378.378,0,0,1,.32.1Z" transform="translate(-148.922 -146.389)"/><path class="h" d="M153.253,146.5l-.005,0s-.012-.006-.016-.01a.375.375,0,0,0-.308-.091,1,1,0,0,0-.8.722l-1.429,5.05a1.634,1.634,0,0,0,.5,1.679l1.1.957,7.528,6.549a.924.924,0,0,0,1.495-.445l1.26-4.452a1,1,0,0,1,.8-.722h0a.378.378,0,0,1,.32.1Z" transform="translate(-148.922 -146.389)"/></g><g transform="translate(4.37 15.267)"><path class="u" d="M143.023,147.581l.339,5.111c.72,5.1,1.662,5.9,3.989,6.593s.97-2.241.665-2.782a5.971,5.971,0,0,1-.471-1.525c1.15,1.039,1.441.928,1.9.61.18-.138-.679-.887-.679-.887A11.316,11.316,0,0,0,147,152l.27-4.418Z" transform="translate(-142.747 -132.19)"/><path class="v" d="M143.023,147.581l.339,5.111c.72,5.1,1.662,5.9,3.989,6.593s.97-2.241.665-2.782a5.971,5.971,0,0,1-.471-1.525c1.15,1.039,1.441.928,1.9.61.18-.138-.679-.887-.679-.887A11.316,11.316,0,0,0,147,152l.27-4.418Z" transform="translate(-142.747 -132.19)"/><path class="t" d="M157.9,117.246c-3.279-.551-5.44,1.1-6.936,2.063-1.081.694-5.052,3.688-7.168,5.294a3.324,3.324,0,0,0-1.314,2.719l.116,5.4a4.48,4.48,0,0,0,4.488-.185l.388-3.961s4.61-2.243,7.707-3.656S158.661,119.555,157.9,117.246Z" transform="translate(-142.476 -117.136)"/></g></g><path class="n" d="M138.911,250.044a8.073,8.073,0,0,0-2.625-.426c-2.822,0-5.11,1.309-5.11,2.924s2.288,2.924,5.11,2.924a8.086,8.086,0,0,0,2.625-.426Z" transform="translate(-131.176 -167.378)"/></g><g transform="translate(142.211 28.893)"><path class="n" d="M360.114,223.221c7.305,4.218,7.344,11.056.086,15.273s-19.063,4.218-26.369,0-7.344-11.055-.085-15.273S352.809,219,360.114,223.221Z" transform="translate(-327.498 -167.17)"/><path class="ad" d="M408.812,131.41l-.807-.383c1.821,1.329,4.951,8.458,6.12,11.363a.152.152,0,1,0,.283-.114C414.011,141.289,411.064,133.991,408.812,131.41Z" transform="translate(-366.896 -123.146)"/><g transform="translate(6.953 46.864)"><g transform="translate(19.685 9.714)"><path class="s" d="M382.079,229.3l.724-1.24-.939-.6,0,0a1,1,0,0,0-1.043.087,3.174,3.174,0,0,0-1.44,2.493.989.989,0,0,0,.45.938v0l.923.588.762-1.306A3.468,3.468,0,0,0,382.079,229.3Z" transform="translate(-379.378 -227.357)"/><path class="ae" d="M382.677,228.731c.8-.461,1.447-.092,1.449.824a3.173,3.173,0,0,1-1.44,2.494c-.8.461-1.447.091-1.45-.826A3.174,3.174,0,0,1,382.677,228.731Z" transform="translate(-380.297 -227.938)"/></g><g transform="translate(5.479 9.36)"><path class="s" d="M352.8,228.6l-.724-1.241.94-.6,0,0a1,1,0,0,1,1.043.087,3.172,3.172,0,0,1,1.44,2.493.989.989,0,0,1-.45.938v0l-.923.588-.762-1.306A3.443,3.443,0,0,1,352.8,228.6Z" transform="translate(-351.674 -226.658)"/><path class="ae" d="M352.728,228.032c-.8-.461-1.447-.092-1.45.825a3.175,3.175,0,0,0,1.44,2.494c.8.461,1.447.092,1.449-.826A3.173,3.173,0,0,0,352.728,228.032Z" transform="translate(-351.278 -227.239)"/></g><path class="af" d="M363.748,224.427h2.68v4.618h0a.675.675,0,0,1-.4.549,2.088,2.088,0,0,1-1.894,0,.664.664,0,0,1-.39-.549h0Z" transform="translate(-351.965 -216.195)"/><g transform="translate(14.463 9.361)"><path class="ad" d="M376.073,226.986v1.1l-7.024,1.771v-2.331Z" transform="translate(-369.049 -226.821)"/><path class="a" d="M376.073,226.824l-.49-.166-6.533.344v.363Z" transform="translate(-369.049 -226.659)"/></g><g transform="translate(21.062 17.564)"><path class="s" d="M383.627,244.829l-.724-1.241.939-.6,0,0a1,1,0,0,1,1.043.087,3.174,3.174,0,0,1,1.44,2.493.99.99,0,0,1-.45.938v0l-.924.588-.762-1.306A3.482,3.482,0,0,1,383.627,244.829Z" transform="translate(-382.498 -242.886)"/><path class="ae" d="M383.551,244.26c-.8-.461-1.447-.092-1.449.824a3.174,3.174,0,0,0,1.44,2.495c.8.46,1.447.091,1.45-.826A3.174,3.174,0,0,0,383.551,244.26Z" transform="translate(-382.102 -243.467)"/></g><g transform="translate(10.138 20.71)"><path class="s" d="M363.195,251.053l.724-1.241-.939-.6,0,0a1,1,0,0,0-1.043.087,3.174,3.174,0,0,0-1.44,2.493.989.989,0,0,0,.45.938v0l.924.588.762-1.306A3.469,3.469,0,0,0,363.195,251.053Z" transform="translate(-360.494 -249.11)"/><path class="ae" d="M363.793,250.484c.8-.461,1.447-.092,1.449.824a3.174,3.174,0,0,1-1.44,2.494c-.8.461-1.447.091-1.45-.826A3.174,3.174,0,0,1,363.793,250.484Z" transform="translate(-361.413 -249.692)"/></g><g transform="translate(0 15.847)"><path class="s" d="M343.139,241.433l.724-1.241-.94-.6v0a1,1,0,0,0-1.043.087,3.174,3.174,0,0,0-1.44,2.493.989.989,0,0,0,.45.938v0l.923.588.763-1.306A3.453,3.453,0,0,0,343.139,241.433Z" transform="translate(-340.439 -239.49)"/><path class="ae" d="M343.738,240.864c.8-.461,1.447-.092,1.449.824a3.173,3.173,0,0,1-1.44,2.494c-.8.46-1.447.092-1.449-.826A3.174,3.174,0,0,1,343.738,240.864Z" transform="translate(-341.358 -240.072)"/></g><g transform="translate(13.77 10.93)"><path class="ad" d="M377.082,235.791v1.783l-9.4-5.081v-2.459Z" transform="translate(-367.678 -229.897)"/><path class="a" d="M377.626,235.351l-9.408-5.588-.54.138,9.4,5.756Z" transform="translate(-367.678 -229.762)"/><path class="ag" d="M386.825,242.6l-.544.306v-1.783l.544-.306Z" transform="translate(-376.877 -235.228)"/></g><path class="ad" d="M365.308,230.035l-1.146,9.09v1.625l1.146-8.156Z" transform="translate(-352.169 -218.967)"/><rect class="ag" width="0.663" height="1.625" transform="translate(11.33 20.157)"/><path class="a" d="M362.851,239.124l1.042-9.09h.767l-1.146,9.09Z" transform="translate(-351.521 -218.967)"/><path class="ad" d="M344.41,233.785v1.707l9.776-3.973V229.43Z" transform="translate(-342.403 -218.668)"/><path class="ag" d="M343.661,239.261l.379.252v-1.707l-.379-.245Z" transform="translate(-342.032 -222.689)"/><path class="a" d="M345.2,232.813l-1.163.518-.379-.245,10.155-4.575v.465Z" transform="translate(-342.032 -218.214)"/><path class="ad" d="M353.958,225.147v1.118l2.851,1.528,2.1-.946v-.458Z" transform="translate(-347.124 -216.551)"/><path class="a" d="M353.958,225.058l.226-.091,4.723,1.02v.312Z" transform="translate(-347.124 -216.462)"/><path class="ad" d="M362.062,208.142h4.384V215.7h0a1.1,1.1,0,0,1-.648.9,3.416,3.416,0,0,1-3.1,0,1.085,1.085,0,0,1-.637-.9h0Z" transform="translate(-351.131 -208.142)"/></g><path class="s" d="M327.3,162.374a2.825,2.825,0,0,0,.948.9l17.868,9.491a4.179,4.179,0,0,0,3.849.037l12.517-6.34a6.335,6.335,0,0,0,3.254-4l6.039-22.311c.1.032.2.064.3.093a2.447,2.447,0,0,0,.789.12c.012,0,.023,0,.035,0l-7.167,26.477a6.337,6.337,0,0,1-3.254,4l-12.517,6.34a4.179,4.179,0,0,1-3.849-.037l-17.868-9.491C326.464,166.627,326.3,163.9,327.3,162.374Z" transform="translate(-326.685 -127.657)"/><path class="ae" d="M328.731,176.024l12.947-6.642,17.05,8.771c-.556.135-1.118.246-1.677.358a12.744,12.744,0,0,0-4.235,1.4,4.514,4.514,0,0,0-2.312,3.62l.456,3.518h0l-.4.2a4.179,4.179,0,0,1-3.849-.037l-17.868-9.491a2.826,2.826,0,0,1-.948-.9A2.456,2.456,0,0,1,328.731,176.024Z" transform="translate(-327.285 -142.112)"/><path class="n" d="M328.731,176.024l12.947-6.642,17.05,8.771c-.556.135-1.118.246-1.677.358a12.744,12.744,0,0,0-4.235,1.4,4.514,4.514,0,0,0-2.312,3.62l.456,3.518h0l-.4.2a4.179,4.179,0,0,1-3.849-.037l-17.868-9.491a2.826,2.826,0,0,1-.948-.9A2.456,2.456,0,0,1,328.731,176.024Z" transform="translate(-327.285 -142.112)"/><path class="ae" d="M333.275,138.244s10.392,3.056,13.143.356c3.419-3.356,1.987-11.819,1.579-15.13s0-5.6.917-6.572,2.241-2.394,6.546-.611c-4.355,2.241-4.915,12.894-3.54,17.171-3.413,3.512-3.179,8.955-3.245,11.481,0,0-8.879,2.169-13.515,4.716Z" transform="translate(-329.944 -115.438)"/><path class="ah" d="M333.275,138.244s10.392,3.056,13.143.356c3.419-3.356,1.987-11.819,1.579-15.13s0-5.6.917-6.572,2.241-2.394,6.546-.611c-4.355,2.241-4.915,12.894-3.54,17.171-3.413,3.512-3.179,8.955-3.245,11.481,0,0-8.879,2.169-13.515,4.716Z" transform="translate(-329.944 -115.438)"/><path class="ae" d="M331.991,171.636l-2.128-1.148c0-5.844-.863-5.271-2.474-7.564s.859-3.719,2.718-2.7S332.715,164.31,331.991,171.636Z" transform="translate(-326.775 -137.419)"/><path class="h" d="M331.991,171.636l-2.128-1.148c0-5.844-.863-5.271-2.474-7.564s.859-3.719,2.718-2.7S332.715,164.31,331.991,171.636Z" transform="translate(-326.775 -137.419)"/><path class="ae" d="M375.525,117.119s11.641,5.044,17.309,7.845l-.413,2.068L373.854,118.6A4.961,4.961,0,0,1,375.525,117.119Z" transform="translate(-350.009 -116.269)"/><path class="ah" d="M375.525,117.119s11.641,5.044,17.309,7.845l-.413,2.068L373.854,118.6A4.961,4.961,0,0,1,375.525,117.119Z" transform="translate(-350.009 -116.269)"/><path class="ae" d="M366.983,135.739c-1.174-3.651-.935-11.944,1.869-15.689l18.567,8.431-4.244,21.27-6.725,4.008-12.712-6.539C363.8,144.694,363.57,139.251,366.983,135.739Z" transform="translate(-345.007 -117.718)"/><g transform="translate(24.275 17.142)"><g transform="translate(8.62 5.065)"><path class="ae" d="M392.329,159.445c-.315-.182-.571-.036-.572.326a1.254,1.254,0,0,0,.569.985c.314.182.571.036.572-.326A1.252,1.252,0,0,0,392.329,159.445Z" transform="translate(-391.757 -159.367)"/></g><g transform="translate(5.747 3.377)"><path class="ae" d="M386.645,156.105c-.315-.182-.571-.036-.572.325a1.254,1.254,0,0,0,.569.985c.315.182.571.036.572-.326A1.252,1.252,0,0,0,386.645,156.105Z" transform="translate(-386.073 -156.027)"/></g><g transform="translate(2.873 1.688)"><path class="ae" d="M380.961,152.765c-.314-.182-.571-.036-.572.325a1.254,1.254,0,0,0,.569.985c.315.181.571.036.572-.326A1.252,1.252,0,0,0,380.961,152.765Z" transform="translate(-380.389 -152.687)"/></g><path class="ae" d="M375.278,149.425c-.315-.182-.572-.036-.573.325a1.254,1.254,0,0,0,.569.985c.315.181.571.036.572-.326A1.253,1.253,0,0,0,375.278,149.425Z" transform="translate(-374.705 -149.347)"/></g><g class="ai" transform="translate(24.275 17.142)"><g transform="translate(8.62 5.065)"><path class="e" d="M392.329,159.445c-.315-.182-.571-.036-.572.326a1.254,1.254,0,0,0,.569.985c.314.182.571.036.572-.326A1.252,1.252,0,0,0,392.329,159.445Z" transform="translate(-391.757 -159.367)"/></g><g transform="translate(5.747 3.377)"><path class="e" d="M386.645,156.105c-.315-.182-.571-.036-.572.325a1.254,1.254,0,0,0,.569.985c.315.182.571.036.572-.326A1.252,1.252,0,0,0,386.645,156.105Z" transform="translate(-386.073 -156.027)"/></g><g transform="translate(2.873 1.688)"><path class="e" d="M380.961,152.765c-.314-.182-.571-.036-.572.325a1.254,1.254,0,0,0,.569.985c.315.181.571.036.572-.326A1.252,1.252,0,0,0,380.961,152.765Z" transform="translate(-380.389 -152.687)"/></g><path class="e" d="M375.278,149.425c-.315-.182-.572-.036-.573.325a1.254,1.254,0,0,0,.569.985c.315.181.571.036.572-.326A1.253,1.253,0,0,0,375.278,149.425Z" transform="translate(-374.705 -149.347)"/></g><g transform="translate(21.581 8.503)"><path class="s" d="M374.93,163.54a12.743,12.743,0,0,1,4.235-1.4c.559-.112,1.121-.223,1.677-.358a10.355,10.355,0,0,0,2.595-.946,9.129,9.129,0,0,0,4.093-5.506,20.44,20.44,0,0,0,.536-6.983c-.14-2.342-.43-4.681-.358-7.027a5.814,5.814,0,0,1,1.171-3.83,4.459,4.459,0,0,1,3.88-1.169,7.825,7.825,0,0,1,1.348.316l.617.72-.237.875-6.039,22.311a6.334,6.334,0,0,1-2.775,3.723c-.156.1-.314.192-.479.275l-12.119,6.139-.456-3.518A4.514,4.514,0,0,1,374.93,163.54Z" transform="translate(-370.979 -134.241)"/><g transform="translate(3.935)"><path class="ae" d="M377.16,159.16c4.432-1.263,8.788-1.428,10.393-4.612s1.719-7.578.917-15.22a11.623,11.623,0,0,1,.07-2.957c.472-2.859,2.193-4.081,4.171-4.111a7.7,7.7,0,0,1,5.3,1.993,2.384,2.384,0,0,1,.657.863,1.026,1.026,0,0,1-.13,1.033,1,1,0,0,1-.681.306c-.012,0-.023,0-.035,0a2.446,2.446,0,0,1-.789-.12c-.1-.029-.2-.061-.3-.093-.542-.171-1.075-.374-1.627-.51a3.566,3.566,0,0,0-2,0,2.125,2.125,0,0,0-1.281,1.43c-1.869,6.106.5,12.666-1.6,17.709-1.719,4.585-7.663,6.488-11.855,7.848h0a2.551,2.551,0,0,0,1.046-.762,1.762,1.762,0,0,0-.163-2.124A2.311,2.311,0,0,0,377.16,159.16Z" transform="translate(-377.16 -132.258)"/><path class="ah" d="M377.16,159.16c4.432-1.263,8.788-1.428,10.393-4.612s1.719-7.578.917-15.22a11.623,11.623,0,0,1,.07-2.957c.472-2.859,2.193-4.081,4.171-4.111a7.7,7.7,0,0,1,5.3,1.993,2.384,2.384,0,0,1,.657.863,1.026,1.026,0,0,1-.13,1.033,1,1,0,0,1-.681.306c-.012,0-.023,0-.035,0a2.446,2.446,0,0,1-.789-.12c-.1-.029-.2-.061-.3-.093-.542-.171-1.075-.374-1.627-.51a3.566,3.566,0,0,0-2,0,2.125,2.125,0,0,0-1.281,1.43c-1.869,6.106.5,12.666-1.6,17.709-1.719,4.585-7.663,6.488-11.855,7.848h0a2.551,2.551,0,0,0,1.046-.762,1.762,1.762,0,0,0-.163-2.124A2.311,2.311,0,0,0,377.16,159.16Z" transform="translate(-377.16 -132.258)"/></g><g transform="translate(0 26.868)"><path class="ae" d="M370.236,188.577a6.55,6.55,0,0,1,1.134-1.987,3.4,3.4,0,0,1,1.941-1.15,2.311,2.311,0,0,1,2.1.68,1.762,1.762,0,0,1,.163,2.124,2.55,2.55,0,0,1-1.046.762,10.013,10.013,0,0,0-.974.48,4.12,4.12,0,0,0-1.675,2.367,12.25,12.25,0,0,0-.387,2.932l-.016.191-2.076-1.152A12.717,12.717,0,0,1,370.236,188.577Z" transform="translate(-369.377 -185.406)"/><path class="h" d="M370.236,188.577a6.55,6.55,0,0,1,1.134-1.987,3.4,3.4,0,0,1,1.941-1.15,2.311,2.311,0,0,1,2.1.68,1.762,1.762,0,0,1,.163,2.124,2.55,2.55,0,0,1-1.046.762,10.013,10.013,0,0,0-.974.48,4.12,4.12,0,0,0-1.675,2.367,12.25,12.25,0,0,0-.387,2.932l-.016.191-2.076-1.152A12.717,12.717,0,0,1,370.236,188.577Z" transform="translate(-369.377 -185.406)"/></g></g><g transform="translate(30.331 17.837)"><path class="c" d="M406.887,151.085l-.333-.363-19.87,8.028,1.848,6.7.333.363,19.87-8.028Z" transform="translate(-386.684 -150.722)"/><path class="f" d="M386.684,166.6l1.848,6.7.333.363-1.848-6.7Z" transform="translate(-386.684 -158.575)"/><path class="h" d="M406.887,151.085l-.333-.363-19.87,8.028.333.363Z" transform="translate(-386.684 -150.722)"/><g class="aj" transform="translate(3.256 2.943)"><path class="e" d="M404.12,166.555l-.785-2.845a.259.259,0,0,0-.151-.174h0l-.009,0a.329.329,0,0,0-.051-.009.268.268,0,0,0-.057-.011h0l-.013,0a.35.35,0,0,0-.114.024.411.411,0,0,0-.118.073l0,0a.386.386,0,0,0-.081.1l0,0a.361.361,0,0,0-.028.082.33.33,0,0,0-.013.04.3.3,0,0,0,.008.126l.314,1.137-1.728.7h0l-.313-1.137a.259.259,0,0,0-.208-.186.273.273,0,0,0-.05-.01H400.7l-.014,0a.345.345,0,0,0-.11.022.423.423,0,0,0-.12.074v0a.393.393,0,0,0-.082.1l0,0a.338.338,0,0,0-.028.082.378.378,0,0,0-.013.039.318.318,0,0,0,.008.125l.785,2.845a.257.257,0,0,0,.056.105.241.241,0,0,0,.056.039.248.248,0,0,0,.03.021s.005,0,.009.006a.334.334,0,0,0,.076.014l.023,0a.134.134,0,0,0,.02,0,.378.378,0,0,0,.134-.028.37.37,0,0,0,.233-.421l-.318-1.156,1.727-.7h0l.319,1.156h0a.249.249,0,0,0,.127.155c.008,0,.014.013.023.016a.3.3,0,0,0,.074.014c.009,0,.018,0,.027.005s.011,0,.017,0a.4.4,0,0,0,.07-.015.372.372,0,0,0,.061-.013h0A.372.372,0,0,0,404.12,166.555Z" transform="translate(-396.684 -159.99)"/><path class="e" d="M396.747,169.429a.236.236,0,0,0-.144-.157l-.006,0a.3.3,0,0,0-.1-.018h-.016a.341.341,0,0,0-.1.019c-.007,0-.015,0-.022,0a.356.356,0,0,0-.1.062h0a.408.408,0,0,0-.07.079c-.017.027-.036.049-.054.074-.028.041-.057.082-.087.12-.008.01-.016.022-.024.031l-.008.008c-.031.036-.065.068-.1.1s-.04.044-.062.064l-.013.012-.011.009c-.029.024-.062.046-.094.068s-.061.049-.1.07l-.005,0-.011.006c-.033.02-.073.036-.108.054s-.09.049-.143.07l-.015,0a1.283,1.283,0,0,1-.162.049l-.039.012c-.015,0-.03.01-.045.013a1.067,1.067,0,0,1-1.265-.8v-.007a1.332,1.332,0,0,1-.036-.518v0a1.4,1.4,0,0,1,.054-.245c.006-.02.016-.038.023-.058a1.371,1.371,0,0,1,.075-.178,1.46,1.46,0,0,1,.115-.185l.024-.031a1.507,1.507,0,0,1,.15-.167l.009-.009c.017-.016.037-.028.055-.043a1.468,1.468,0,0,1,.4-.244,1.365,1.365,0,0,1,.946-.043.338.338,0,0,0,.21-.02.364.364,0,0,0,.234-.418.253.253,0,0,0-.075-.123h0a.293.293,0,0,0-.1-.056s-.008-.005-.012-.006c-.046-.012-.1-.018-.145-.027-.032-.006-.065-.014-.1-.018l-.076-.01a1.793,1.793,0,0,0-.282-.006,2.062,2.062,0,0,0-.382.063,2.785,2.785,0,0,0-.364.118,2.539,2.539,0,0,0-.381.193l-.012.008a2.4,2.4,0,0,0-.311.233l-.026.024a2.287,2.287,0,0,0-.243.258l-.034.043a2.308,2.308,0,0,0-.193.294l0,.005a2.025,2.025,0,0,0-.083.195c-.022.052-.049.1-.066.154a1.908,1.908,0,0,0-.042.19c-.013.058-.032.115-.039.174a1.928,1.928,0,0,0-.008.247c0,.041-.007.081,0,.122a1.813,1.813,0,0,0,.062.366l0,.011a1.654,1.654,0,0,0,.142.352c.019.035.045.065.067.1a1.517,1.517,0,0,0,.139.195,1.593,1.593,0,0,0,.131.122c.028.025.053.054.083.077s.037.024.055.036.027.015.04.023a1.55,1.55,0,0,0,.168.1c.015.007.026.017.041.023a1.868,1.868,0,0,0,1.455-.024,2.349,2.349,0,0,0,1.189-.989A.317.317,0,0,0,396.747,169.429Z" transform="translate(-393.124 -161.699)"/><path class="e" d="M409.611,165.271l-.785-2.845a.257.257,0,0,0-.189-.182.305.305,0,0,0-.069-.014h-.015l-.014,0a.352.352,0,0,0-.11.023.429.429,0,0,0-.12.074l0,0a.4.4,0,0,0-.082.1l0,0a.375.375,0,0,0-.028.083.284.284,0,0,0-.013.039.311.311,0,0,0,.007.125l.785,2.845a.259.259,0,0,0,.248.189h0c.007,0,.013,0,.02,0a.386.386,0,0,0,.134-.028A.369.369,0,0,0,409.611,165.271Z" transform="translate(-400.569 -159.355)"/><path class="e" d="M412.546,163.586h0l.687-.277,1.445-.584a.335.335,0,0,0,.209-.384.241.241,0,0,0-.241-.174h0a.323.323,0,0,0-.111.022l-1.817.734h0l-.251-.908,1.557-.629a.338.338,0,0,0,.215-.378.239.239,0,0,0-.139-.159h0a.255.255,0,0,0-.053-.01.231.231,0,0,0-.053-.01h-.005a.319.319,0,0,0-.11.022h0l-1.557.629h0l-.244-.883,1.79-.723a.364.364,0,0,0,.1-.065.317.317,0,0,0,.11-.311s0,0,0-.006a.207.207,0,0,0-.013-.024.232.232,0,0,0-.038-.07.24.24,0,0,0-.084-.058h-.006a.281.281,0,0,0-.092-.018h-.015a.319.319,0,0,0-.112.023l-2.1.85a.426.426,0,0,0-.12.074h0a.4.4,0,0,0-.082.1l0,0a.359.359,0,0,0-.028.081.325.325,0,0,0-.014.041.32.32,0,0,0,.008.125l.77,2.79a.278.278,0,0,0,.061.112s.006,0,.008.006a.265.265,0,0,0,.027.02.237.237,0,0,0,.051.036.164.164,0,0,0,.022.007.264.264,0,0,0,.036.007.305.305,0,0,0,.049.01c.006,0,.011,0,.017,0a.355.355,0,0,0,.07-.015l.01,0A.356.356,0,0,0,412.546,163.586Z" transform="translate(-402.144 -157.918)"/><path class="e" d="M420.881,158.1h0a.33.33,0,0,0-.107.022l-.007,0h0l-1.561.63h0l-.256-.926,1.794-.725a.342.342,0,0,0,.217-.386.237.237,0,0,0-.139-.159h0a.269.269,0,0,0-.1-.018H420.7a.321.321,0,0,0-.106.022l-.008,0h0l-2.112.853h0a.4.4,0,0,0-.117.072l0,0a.4.4,0,0,0-.08.1l0,0a.374.374,0,0,0-.025.073.346.346,0,0,0-.016.049.31.31,0,0,0,.006.106c0,.007,0,.013,0,.02h0l.777,2.819h0a.26.26,0,0,0,.059.106s.007,0,.009.007a.291.291,0,0,0,.026.018.269.269,0,0,0,.048.034s.005,0,.009.006a.3.3,0,0,0,.091.017l.008,0c.007,0,.013,0,.02,0a.313.313,0,0,0,.035-.008.35.35,0,0,0,.044-.009.319.319,0,0,0,.047-.01h0a.373.373,0,0,0,.046-.028l.012-.008a.26.26,0,0,0,.028-.017.3.3,0,0,0,.027-.017l.006,0h0a.352.352,0,0,0,.118-.349l-.306-1.108,1.561-.63a.345.345,0,0,0,.216-.39A.243.243,0,0,0,420.881,158.1Z" transform="translate(-405.54 -156.544)"/></g></g><path class="b" d="M399.5,130h-.031a2.012,2.012,0,0,0-.4.064c-2.625.667-5.111,6.732-7.184,17.5a.153.153,0,0,0,.121.179l.029,0a.152.152,0,0,0,.15-.124c1.226-6.37,3.82-17.16,7.3-17.319h.022a.613.613,0,0,1,.106.016,1.074,1.074,0,0,1,.421.2l.807.383C400.352,130.338,399.894,130,399.5,130Z" transform="translate(-358.926 -122.636)"/></g></svg>