<svg xmlns="http://www.w3.org/2000/svg" width="89.718" height="67.061" viewBox="0 0 89.718 67.061"><defs><style>.a{fill:#2e2e5e;}.b{fill:#08083d;}.c,.h{fill:#dcb7af;}.c{opacity:0.7;}.d{fill:#9ae5ad;}.e{fill:#f0e1d9;}.f{fill:#96aee9;}.g{fill:#f0f3fe;}.i{fill:#56225e;}.j{fill:#277548;}.k{fill:#23ce6b;}</style></defs><g transform="translate(0 11.364)"><path class="a" d="M166.031,160.181c2.853,1.646,2.881,4.335.027,5.981L112.42,197.33a11.392,11.392,0,0,1-10.316,0L80.7,184.984c-2.853-1.646-2.881-4.335-.027-5.981l53.638-31.168a11.392,11.392,0,0,1,10.316,0Zm-8.505,9.685L162,167.26l-29.6-17.093L84.764,177.85l29.6,17.093,43.158-25.077M92.721,190.389a6.218,6.218,0,0,0,5.57,0c1.536-.878,1.509-2.332-.027-3.21a6.218,6.218,0,0,0-5.57,0c-1.536.878-1.509,2.332.027,3.21m55.2-36.052a.756.756,0,0,0-.686,0,.219.219,0,0,0,0,.412l6.887,3.978a.756.756,0,0,0,.686,0,.219.219,0,0,0,0-.412l-6.887-3.978m-2.442-1.729a1.4,1.4,0,0,0-1.235,0,.381.381,0,0,0,0,.713,1.4,1.4,0,0,0,1.235,0c.357-.192.357-.521,0-.713m7.6,2.661a.874.874,0,0,0-.741,0c-.192.11-.192.3,0,.439a.874.874,0,0,0,.741,0c.219-.137.219-.329,0-.439" transform="translate(-78.481 -146.6)"/><path class="b" d="M168.018,207v.329a.165.165,0,0,1-.027.11.207.207,0,0,1-.027.11c0,.027-.027.082-.027.11s-.027.055-.027.11c0,.027-.027.082-.027.11s-.027.055-.027.082c-.027.027-.027.082-.055.11,0,.027-.027.055-.055.082s-.027.082-.055.11-.027.055-.055.082c-.027.055-.055.082-.082.137-.027.027-.027.055-.055.082a.482.482,0,0,1-.11.137l-.055.055a1.373,1.373,0,0,1-.192.219l-.055.055-.165.165-.082.082c-.027.027-.082.055-.11.082a.378.378,0,0,1-.11.082c-.027.027-.082.055-.11.082s-.082.055-.11.082a.6.6,0,0,1-.137.082c-.027.027-.082.055-.11.082-.055.027-.082.055-.137.082s-.11.082-.165.11l-53.611,31.2-.494.247c-.055.027-.082.055-.137.055a3.352,3.352,0,0,1-.466.192.1.1,0,0,0-.055.027c-.165.055-.357.137-.521.192-.11.027-.247.082-.384.11-.082.027-.192.055-.274.082l-.412.082a1.168,1.168,0,0,1-.3.055.165.165,0,0,0-.11.027l-.494.082a.205.205,0,0,0-.137.027c-.11,0-.192.027-.3.027-.165,0-.329.027-.494.027h-1.07a1.811,1.811,0,0,1-.384-.027c-.11,0-.219-.027-.329-.027s-.247-.027-.357-.027c-.11-.027-.219-.027-.329-.055a1.855,1.855,0,0,0-.384-.055c-.11-.027-.192-.027-.3-.055-.165-.027-.3-.082-.466-.11-.11-.027-.192-.055-.3-.082-.055-.027-.11-.027-.165-.055-.137-.055-.3-.11-.439-.165-.055-.027-.082-.027-.137-.055-.137-.055-.247-.11-.384-.165-.055-.027-.137-.055-.192-.082-.192-.082-.357-.192-.549-.274l-21.4-12.346a3.691,3.691,0,0,1-2.167-3.018v3.731a3.67,3.67,0,0,0,2.167,3.018l21.4,12.346a3.418,3.418,0,0,0,.549.274c.055.027.137.055.192.082a1.679,1.679,0,0,0,.329.137c.027,0,.027.027.055.027.055.027.082.027.137.055.137.055.3.11.439.165.055.027.11.027.165.055.027,0,.055.027.11.027.055.027.137.027.192.055.137.027.3.082.466.11.027,0,.082.027.11.027.055,0,.11.027.192.027a1.852,1.852,0,0,0,.384.055c.055,0,.11.027.165.027a.347.347,0,0,1,.165.027,1.566,1.566,0,0,0,.357.027c.055,0,.11.027.165.027h.165c.11,0,.247.027.357.027H107.6c.165,0,.329-.027.494-.027h.274a.206.206,0,0,0,.137-.027l.494-.082a.165.165,0,0,0,.11-.027h.055c.082-.027.165-.027.247-.055l.412-.082c.11-.027.192-.055.274-.082a2.021,2.021,0,0,0,.384-.11c.027,0,.055-.027.082-.027.137-.055.3-.11.439-.165a.1.1,0,0,0,.055-.027c.165-.055.3-.137.466-.192.055-.027.082-.055.137-.055l.494-.247L165.8,213.749c.027-.027.055-.027.082-.055s.055-.027.082-.055c.055-.027.082-.055.137-.082.027-.027.082-.055.11-.082a.379.379,0,0,0,.11-.082c.027-.027.082-.055.11-.082s.082-.055.11-.082a.379.379,0,0,1,.11-.082c.027-.027.082-.055.11-.082.027,0,.027-.027.055-.027l.027-.027.165-.165.055-.055c.055-.082.137-.137.192-.219h0c0-.027.027-.027.027-.055.027-.055.082-.082.11-.137.027-.027.027-.055.055-.082.027-.055.055-.082.082-.137l.027-.027c0-.027.027-.027.027-.055.027-.027.027-.082.055-.11s.027-.055.055-.082.027-.082.055-.11c0-.027.027-.027.027-.055s0-.027.027-.055c0-.027.027-.082.027-.11s.027-.055.027-.11c0-.027.027-.082.027-.11s0-.027.027-.055v-.027a.165.165,0,0,1,.027-.11v-.3h0Z" transform="translate(-78.3 -190.428)"/><path class="c" d="M199.26,176.72l-4.472,2.579L129.9,182.7l39.756-23.1Z" transform="translate(-115.743 -156.033)"/><path class="b" d="M133.336,293.367c1.4.823,1.427,2.14.027,2.936a5.526,5.526,0,0,1-5.076,0c-1.4-.823-1.427-2.14-.027-2.936A5.525,5.525,0,0,1,133.336,293.367Z" transform="translate(-113.801 -252.651)"/><path class="d" d="M305.856,177.922l-6.255,3.649.055-7.271Z" transform="translate(-238.883 -166.7)"/><path class="d" d="M240.085,181.361l-8.2,4.8L227.3,183.5l8.231-4.8Z" transform="translate(-186.419 -169.893)"/><path class="e" d="M301.866,175.732l-9.466,5.542.137-10.975,1.893,1.1-.055,7.271,6.255-3.649Z" transform="translate(-233.658 -163.798)"/><path class="f" d="M319.443,209.136l-4.582,2.661-2.661-1.536,4.582-2.661Z" transform="translate(-248.026 -190.864)"/><path class="f" d="M227.785,203.657l-4.308,2.5-2.744,1.619-3.869-2.25-6.365-3.7,2.716-1.619,6.393,3.731,4.308-2.524Z" transform="translate(-174.229 -185.494)"/><path class="e" d="M219.172,175.064l-9.795,5.734L195,172.458,216.812,159.7l2.552,1.482Zm-6.941,1.7,4.308-2.524-3.869-2.25-4.308,2.524-6.393-3.7-2.744,1.591,6.393,3.7,3.869,2.25,2.744-1.591m-.137-11.853-8.231,4.8,4.582,2.661,8.231-4.8-4.582-2.661" transform="translate(-162.982 -156.106)"/><path class="f" d="M310.533,212.529l-11.3,6.612-3.018,1.756-2.936-1.7-6.475-3.759,3.018-1.783,6.475,3.759,11.3-6.612Z" transform="translate(-229.595 -193.186)"/><path class="e" d="M136.9,223.416a3.621,3.621,0,0,0-1.262-.439l-6.036-3.512L145.76,210l14.377,8.341-15.913,9.328Zm-3.43-3.786,3.4,1.975,6.859,3.978,3.21-1.866-6.859-3.978,6.283-3.676,6.859,3.978,3.21-1.866-6.859-3.978-3.4-1.975-3.21,1.866-6.283,3.676-3.21,1.866m16.27,1.152-3.1-1.811-1.564.905,3.1,1.811,1.564-.905" transform="translate(-115.525 -192.605)"/><path class="d" d="M190.664,244.511l-1.564.905-3.1-1.783,1.564-.933Z" transform="translate(-156.451 -216.333)"/><path class="g" d="M123.2,245.443l1.783-1.043,6.036,3.512a4.884,4.884,0,0,0-2.963.357Z" transform="translate(-110.881 -217.567)"/><path class="e" d="M286.732,200.265l2.3,1.344-21.812,12.758L254,206.658,275.812,193.9l8.012,4.664-11.3,6.612-6.475-3.759-3.018,1.756,6.475,3.759,2.936,1.7,3.018-1.756ZM266.9,211.844l3.018-1.756-9.411-5.46-3.018,1.756,9.411,5.46m7.655-14.185L270,200.32l2.661,1.536,4.554-2.661-2.661-1.536" transform="translate(-205.794 -180.922)"/><path class="f" d="M279.129,238.46l-3.018,1.756-9.411-5.46L269.718,233Z" transform="translate(-215.009 -209.295)"/><path class="f" d="M166.637,224.054l-3.21,1.866-6.859-3.978-6.283,3.676,6.859,3.978-3.183,1.866-6.859-3.978-3.4-1.975,3.21-1.866,6.283-3.677,3.21-1.866,3.375,1.975Z" transform="translate(-125.756 -198.483)"/><path class="f" d="M275.134,271.582l-3.21,1.866h0l-2.524-1.454,3.183-1.893,2.524,1.482Z" transform="translate(-216.969 -236.216)"/><path class="e" d="M259.3,267.567,265.391,264l3.9,2.277-1.509.878-2.524-1.482-3.183,1.893,2.524,1.454-1.4.823Z" transform="translate(-209.64 -231.789)"/><path class="f" d="M209.417,271.916l-4.2,2.469-4.719-2.716,4.225-2.469Z" transform="translate(-166.972 -235.563)"/><path class="g" d="M213.848,194.439l-3.9-2.277-6.091,3.567,3.9,2.277-1.783,1.043-13.252-7.71-8.039,4.719-1.783-1.043,15.913-9.328-14.349-8.341,1.783-1.043,14.349,8.341,9.795-5.734.192-13.91,2.5,1.454-.137,10.975,9.466-5.542,1.783,1.043-21.785,12.758,13.224,7.71Z" transform="translate(-154.201 -159.952)"/><path class="g" d="M154.6,285.775l3.347-1.975,1.811,1.043-3.375,1.975Z" transform="translate(-133.666 -246.157)"/><path class="e" d="M189.4,265.719,197.439,261l13.252,7.71-2.3,1.344-5.24-3.046-6.667,3.9c.165-.549-.137-1.152-.878-1.591Zm7.271-2.469-4.2,2.469,4.692,2.744,4.2-2.469-4.692-2.744" transform="translate(-158.918 -229.613)"/><path class="e" d="M170.648,291.194a4.755,4.755,0,0,0,2.744.521l-4.28,2.524-8.011-4.664,3.375-1.975Z" transform="translate(-138.383 -248.914)"/><path class="d" d="M208.967,285.873l-13.5,7.9-5.268-3.046,4.28-2.524a3.869,3.869,0,0,0,1.7-.521,1.689,1.689,0,0,0,.85-.988l6.667-3.9Z" transform="translate(-159.498 -245.431)"/><path class="h" d="M243.527,253.279l-3.21,1.866-4.417-2.579,3.183-1.866Z" transform="translate(-192.66 -222.139)"/><path class="f" d="M232.745,252.157l-7.545-4.39,6.118-3.567,7.545,4.39Z" transform="translate(-184.896 -217.422)"/><path class="e" d="M238.863,248.59l-6.118,3.567-7.545-4.39,6.118-3.567Zm-6.31,1.838,3.21-1.866-4.445-2.579-3.21,1.866,4.445,2.579" transform="translate(-184.896 -217.422)"/><path class="e" d="M112.626,253.787l7.326,4.253-3.375,1.976L102.2,251.675l5.762-3.375,4.829,2.826a.688.688,0,0,0-.192.11C111.391,251.922,111.391,253.074,112.626,253.787Z" transform="translate(-95.643 -220.397)"/><path class="i" d="M220.226,256.438a.723.723,0,0,1,0,1.372,2.5,2.5,0,0,1-2.332,0,.723.723,0,0,1,0-1.372A2.5,2.5,0,0,1,220.226,256.438Z" transform="translate(-179.236 -226.093)"/><path class="g" d="M221.782,257.919a.381.381,0,0,1,0,.713,1.394,1.394,0,0,1-1.235,0,.381.381,0,0,1,0-.713A1.394,1.394,0,0,1,221.782,257.919Z" transform="translate(-181.34 -227.272)"/></g><g transform="translate(28.496 0)"><path class="j" d="M201.828,187.035a22.211,22.211,0,0,1,3.246-5.482,19.45,19.45,0,0,1,5.056-4.47,12.972,12.972,0,0,1,1.49-.745c2.235-.9,4.1-.8,5.428,0l2.608,1.49c-1.384-.8-3.193-.9-5.428,0a9.727,9.727,0,0,0-1.49.745,18.626,18.626,0,0,0-5.056,4.47,22.212,22.212,0,0,0-3.246,5.482A16.329,16.329,0,0,0,203,195.018a11.022,11.022,0,0,0,.373,2.98,9.766,9.766,0,0,0,1.011,1.969,18.522,18.522,0,0,0,2.395,3.193,23.766,23.766,0,0,1,4.949,7.823.545.545,0,0,0,.266.319l-2.608-1.49a.545.545,0,0,1-.266-.319,23.764,23.764,0,0,0-4.949-7.823,20.836,20.836,0,0,1-2.395-3.193,13.585,13.585,0,0,1-1.011-1.969,8.3,8.3,0,0,1-.373-2.98A18.128,18.128,0,0,1,201.828,187.035Z" transform="translate(-200.381 -175.699)"/><path class="k" d="M206.681,189.852a22.211,22.211,0,0,1,3.246-5.482,19.449,19.449,0,0,1,5.056-4.47,12.974,12.974,0,0,1,1.49-.745c3.087-1.224,5.375-.532,6.759,1.171a7.524,7.524,0,0,1,1.49,4.79,16.761,16.761,0,0,1-1.384,6.546c-.373,1.011-.745,2.022-1.171,2.98-1.224,2.98-2.555,5.854-3.672,8.888a74.563,74.563,0,0,0-2.448,7.61,2.482,2.482,0,0,1-1.064,1.49.663.663,0,0,1-1.064-.266,23.763,23.763,0,0,0-4.949-7.823,20.832,20.832,0,0,1-2.395-3.193,13.584,13.584,0,0,1-1.011-1.969,8.3,8.3,0,0,1-.373-2.98A18.709,18.709,0,0,1,206.681,189.852Zm8.3,5.162a9,9,0,0,0,4.1-7.078c0-2.608-1.863-3.619-4.1-2.342a9.06,9.06,0,0,0-4.1,7.078c0,2.555,1.863,3.619,4.1,2.342" transform="translate(-202.626 -177.026)"/><path class="g" d="M219.135,187.612a12.3,12.3,0,0,0-5.535,9.579c0,3.512,2.5,4.949,5.535,3.193a12.155,12.155,0,0,0,5.535-9.579C224.723,187.24,222.222,185.8,219.135,187.612Z" transform="translate(-206.565 -180.906)"/></g></svg>