<svg xmlns="http://www.w3.org/2000/svg" xmlns:xlink="http://www.w3.org/1999/xlink" width="320.571" height="273.819" viewBox="0 0 320.571 273.819"><defs><style>.a,.c,.g{fill:#fff;}.b,.d,.e{fill:none;stroke-miterlimit:10;}.b{stroke:#1d1d1b;stroke-width:1.157px;}.c,.d,.e{stroke:#fff;}.c{stroke-width:0.5px;}.d{stroke-width:0.627px;}.e{stroke-width:2.178px;}.f{opacity:0.3;}.g{font-size:63px;font-family:Bebas-Regular, Bebas;letter-spacing:-0.04em;}.h{fill:url(#a);}</style><linearGradient id="a" x1="-2.788" y1="-1.642" x2="11.228" y2="1.992" gradientUnits="objectBoundingBox"><stop offset="0" stop-color="#6184d8"/><stop offset="1" stop-color="#08083d"/></linearGradient></defs><g transform="translate(17.523)"><g transform="translate(9.56 0)"><path class="a" d="M91.053,0,86.785,8.65l-9.545,1.387,6.907,6.733-1.631,9.507,8.538-4.489,8.538,4.489L97.96,16.769l6.907-6.733L95.322,8.65Z" transform="translate(42.148 0)"/><path class="a" d="M91.053,160.153l-4.269,8.65-9.545,1.387,6.907,6.733-1.631,9.507,8.538-4.489,8.538,4.489-1.631-9.507,6.907-6.733L95.322,168.8Z" transform="translate(42.148 87.39)"/><path class="a" d="M110.817,256.516a125.517,125.517,0,0,1,.034-247.934l.277,1.768a123.728,123.728,0,0,0-.032,244.4Z" transform="translate(2.716 4.683)"/><path class="a" d="M112.4,266.811A133.21,133.21,0,0,1,112.431,3.66l.278,1.767a131.421,131.421,0,0,0-.032,259.619Z" transform="translate(0.001 1.997)"/><path class="a" d="M99.745,266.811l-.278-1.765A131.421,131.421,0,0,0,99.434,5.427l.277-1.767a133.21,133.21,0,0,1,.034,263.151Z" transform="translate(54.259 1.997)"/><path class="a" d="M108.964,244.448A116.5,116.5,0,0,1,109,14.353l.278,1.768a114.709,114.709,0,0,0-.032,226.56Z" transform="translate(5.899 7.832)"/><path class="a" d="M99.011,256.516l-.278-1.765A123.727,123.727,0,0,0,98.7,10.35l.278-1.768a125.517,125.517,0,0,1,.034,247.934Z" transform="translate(53.858 4.683)"/><path class="b" d="M160.966,88.788" transform="translate(87.835 48.448)"/><path class="a" d="M98.151,244.448l-.28-1.767a114.709,114.709,0,0,0-.032-226.56l.278-1.768a116.5,116.5,0,0,1,.034,230.1Z" transform="translate(53.389 7.832)"/><path class="a" d="M108.964,244.448A116.5,116.5,0,0,1,109,14.353l.278,1.768a114.709,114.709,0,0,0-.032,226.56Z" transform="translate(5.899 7.832)"/><g transform="translate(47.184 41.963)"><path class="c" d="M30.526,71.614l1.612-4.268,1.85.7-1.614,4.269Z" transform="translate(-30.526 -5.215)"/><path class="c" d="M42.836,60.926l-.379-.286,1.008-1.669.393.3a1.334,1.334,0,0,0,2.023-.083,1.193,1.193,0,0,0-.23-1.8c-.665-.507-1.357-.6-3.4-.27-2.706.448-3.867.278-5.031-.607a2.941,2.941,0,0,1-.747-4.413c1.162-1.527,2.88-1.652,4.467-.444l.272.207-1.006,1.668-.3-.229c-.816-.623-1.481-.626-1.906-.066s-.32,1.141.346,1.646,1.4.544,3.4.272c2.716-.368,3.866-.28,5.03.607a3.248,3.248,0,1,1-3.935,5.169Z" transform="translate(-27.659 -14.224)"/><path class="c" d="M51.845,50.838l-1.594,1.471L51.93,54.77,50.45,56.138,43.039,44.867l1.983-1.832,10.651,8.277L54.165,52.7Zm-1.512-1.244-4.38-3.535L49.132,50.7Z" transform="translate(-23.698 -18.481)"/><path class="c" d="M49.965,39.746l5.365-3.532L56.375,37.8l-1.841,1.213L60.8,48.538,59.12,49.644l-6.269-9.523L51.01,41.333Z" transform="translate(-19.919 -22.203)"/><path class="c" d="M59.333,33.351l1.832-.842,5.563,12.084-1.83.844Z" transform="translate(-14.807 -24.224)"/><path class="c" d="M69.384,40.3l-.13-.458,1.807-.731.136.475c.266.932.9,1.363,1.671,1.145a1.194,1.194,0,0,0,.893-1.58c-.229-.8-.726-1.3-2.56-2.255-2.436-1.261-3.266-2.093-3.666-3.5a3.067,3.067,0,1,1,5.889-1.662l.094.329-1.807.734-.1-.366c-.281-.986-.811-1.39-1.487-1.2s-.941.723-.711,1.526.8,1.277,2.56,2.255c2.4,1.334,3.264,2.093,3.666,3.5A3.251,3.251,0,1,1,69.384,40.3Z" transform="translate(-10.426 -25.993)"/><path class="c" d="M77.691,27.832l5.592-.6.2,1.889-3.591.385.417,3.873,2.833-.3.2,1.889-2.835.306.6,5.572-2,.215Z" transform="translate(-4.79 -27.104)"/><path class="c" d="M91.484,37.618,89.323,37.5l-.6,2.915L86.711,40.3l2.943-13.149,2.694.15L93.8,40.7l-2.048-.114Zm-.158-1.951-.5-5.6L89.7,35.578Z" transform="translate(0.132 -27.149)"/><path class="c" d="M96.939,38.215l1.692-7.175a3.154,3.154,0,0,1,6.139,1.447L104.412,34l-1.923-.454.359-1.516a1.163,1.163,0,1,0-2.257-.532L98.9,38.676a1.162,1.162,0,1,0,2.255.533l.436-1.849,1.923.453-.436,1.849a3.153,3.153,0,1,1-6.138-1.447Z" transform="translate(5.657 -26.362)"/><path class="c" d="M109.874,31.335l5.9,2.544-.753,1.744-2.025-.872-4.515,10.47-1.849-.8,4.513-10.473-2.025-.872Z" transform="translate(11.002 -24.865)"/><path class="c" d="M120.907,36.183l1.708,1.067-7.05,11.276-1.706-1.067Z" transform="translate(14.946 -22.219)"/><path class="c" d="M121.169,48.318l4.748-5.486a3.229,3.229,0,0,1,4.883,4.226l-4.747,5.486a3.229,3.229,0,0,1-4.884-4.226Zm3.36,2.909,4.748-5.487a1.219,1.219,0,1,0-1.838-1.59l-4.748,5.487a1.219,1.219,0,1,0,1.838,1.59Z" transform="translate(18.467 -19.237)"/><path class="c" d="M137.05,48.854l1.39,1.739-5.384,7.581,6.985-5.577,1.233,1.546-10.4,8.3-1.328-1.665,4.994-7.394L127.883,58.7l-1.232-1.546Z" transform="translate(21.926 -15.305)"/><path class="c" d="M140.686,66.478l1.682,4.238-1.836.73L138.85,67.2Z" transform="translate(28.583 -5.689)"/></g><path class="a" d="M153.182,90.1a4.406,4.406,0,1,1-4.407-4.407A4.408,4.408,0,0,1,153.182,90.1Z" transform="translate(78.779 46.76)"/><path class="a" d="M35.071,90.1a4.406,4.406,0,1,1-4.407-4.407A4.407,4.407,0,0,1,35.071,90.1Z" transform="translate(14.33 46.76)"/><g transform="translate(29.596 33.304)"><circle class="d" cx="67.815" cy="67.815" r="67.815" transform="translate(7.701 103.606) rotate(-45)"/><circle class="e" cx="73.26" cy="73.26" r="73.26" transform="translate(0 103.606) rotate(-45)"/><g transform="translate(49.73 60.298)"><g class="f" transform="translate(3.42 21.044)"><path class="a" d="M61.331,84.406h-7.8V79.6c5.329-.391,8.512-2.535,9.877-5h4.809v45.484H61.331Z" transform="translate(-53.533 -73.944)"/><path class="a" d="M65.682,109.975V85.153c0-6.561,4.418-10.98,11.045-10.98s11.047,4.419,11.047,10.98v24.822c0,6.561-4.419,10.98-11.047,10.98S65.682,116.537,65.682,109.975Zm15.2,0V85.153c0-2.858-1.624-4.482-4.159-4.482s-4.158,1.624-4.158,4.482v24.822c0,2.859,1.624,4.482,4.158,4.482S80.887,112.835,80.887,109.975Z" transform="translate(-46.904 -74.173)"/><path class="a" d="M82.243,109.975V85.153c0-6.561,4.419-10.98,11.047-10.98s11.045,4.419,11.045,10.98v24.822c0,6.561-4.418,10.98-11.045,10.98S82.243,116.537,82.243,109.975Zm15.2,0V85.153c0-2.858-1.624-4.482-4.158-4.482S89.13,82.3,89.13,85.153v24.822c0,2.859,1.624,4.482,4.159,4.482S97.448,112.835,97.448,109.975Z" transform="translate(-37.867 -74.173)"/><path class="a" d="M98.764,92.821V81.45c0-4.677,2.405-7.277,6.887-7.277s6.887,2.6,6.887,7.277V92.821c0,4.679-2.405,7.275-6.887,7.275S98.764,97.5,98.764,92.821Zm9.228.325V81.125c0-2.014-.91-2.859-2.34-2.859-1.495,0-2.34.845-2.34,2.859V93.146c0,2.014.845,2.858,2.34,2.858C107.081,96,107.992,95.16,107.992,93.146ZM123.13,74.822h4.549l-18.91,45.484h-4.547Zm-3.768,38.856V102.307c0-4.677,2.405-7.277,6.887-7.277s6.887,2.6,6.887,7.277v11.371c0,4.679-2.405,7.277-6.887,7.277S119.362,118.357,119.362,113.679Zm9.228.325V101.983c0-2.016-.91-2.858-2.34-2.858-1.495,0-2.34.842-2.34,2.858V114c0,2.014.845,2.859,2.34,2.859C127.679,116.863,128.589,116.017,128.589,114Z" transform="translate(-28.852 -74.173)"/></g><text class="g" transform="translate(0 63)"><tspan x="0" y="0">100%</tspan></text></g></g></g><g transform="translate(-17.523 169.419)"><path class="a" d="M84.785,129.455l-2.056,14.019H86.84Zm0,0-2.056,14.019H86.84Zm0,0-2.056,14.019H86.84Zm29.244-2.4h-2.643v10.093h2.643a2.838,2.838,0,0,0,3.107-3.107v-3.88A2.838,2.838,0,0,0,114.028,127.06Zm29,2.4-2.056,14.019h4.111Zm0,0-2.056,14.019h4.111Zm-29-2.4h-2.643v10.093h2.643a2.838,2.838,0,0,0,3.107-3.107v-3.88A2.838,2.838,0,0,0,114.028,127.06Zm-29.244,2.4-2.056,14.019H86.84Zm0,0-2.056,14.019H86.84Zm29.244-2.4h-2.643v10.093h2.643a2.838,2.838,0,0,0,3.107-3.107v-3.88A2.838,2.838,0,0,0,114.028,127.06Zm29,2.4-2.056,14.019h4.111Zm0,0-2.056,14.019h4.111Zm-29-2.4h-2.643v10.093h2.643a2.838,2.838,0,0,0,3.107-3.107v-3.88A2.838,2.838,0,0,0,114.028,127.06Zm-29.244,2.4-2.056,14.019H86.84Zm0,0-2.056,14.019H86.84Zm29.244-2.4h-2.643v10.093h2.643a2.838,2.838,0,0,0,3.107-3.107v-3.88A2.838,2.838,0,0,0,114.028,127.06Zm29,2.4-2.056,14.019h4.111Zm0,0-2.056,14.019h4.111Zm-29-2.4h-2.643v10.093h2.643a2.838,2.838,0,0,0,3.107-3.107v-3.88A2.838,2.838,0,0,0,114.028,127.06Zm-29.244,2.4-2.056,14.019H86.84Zm218.263-19.846H-17.523l13.9,30.6-13.9,29.507H303.048l-13.9-29.955ZM34.674,132.7H29.6v-2.813c0-2.118-1.19-3.308-3.06-3.308s-3.06,1.19-3.06,3.308v18.27c0,2.1,1.19,3.308,3.06,3.308s3.06-1.206,3.06-3.308v-5.935h-3.06v-4.776h8.13v10.711c0,4.838-3.246,8.084-8.13,8.084s-8.13-3.246-8.13-8.084v-18.27c0-4.838,3.246-8.1,8.13-8.1s8.13,3.261,8.13,8.1Zm29.058,15.7a7.423,7.423,0,0,1-7.806,7.837,7.5,7.5,0,0,1-7.9-7.837V122.268H53.1v26.137a2.837,2.837,0,1,0,5.657,0V122.268h4.977Zm24.885,7.357-1.113-7.4H82.049l-1.1,7.4h-5.07l5.549-33.495h6.8l5.549,33.495Zm29.089,0-3.679-13.818h-2.643v13.818h-5.07V122.268h7.945c4.838,0,7.945,3.169,7.945,7.991v3.694a7.6,7.6,0,0,1-3.493,6.832l4.266,14.977Zm29.151,0-1.113-7.4h-5.456l-1.1,7.4h-5.07l5.549-33.495h6.8l5.549,33.495Zm34.731,0h-5.348l-6.708-21.438v21.438h-4.977V122.268h5.6l6.461,22.489V122.268h4.977Zm28.718-28.7h-5.549v28.7h-5.07v-28.7H194.14v-4.792h16.168Zm26.941,0h-9.336V136.4h7.419v4.776h-7.419v9.815h9.336v4.776H222.843V122.268h14.406Zm27.281,0h-9.336V136.4h7.419v4.776h-7.419v9.815h9.336v4.776H250.124V122.268H264.53Zm-123.56,16.415h4.111l-2.056-14.019ZM114.028,127.06h-2.643v10.093h2.643a2.838,2.838,0,0,0,3.107-3.107v-3.88A2.838,2.838,0,0,0,114.028,127.06Zm-31.3,16.415H86.84l-2.056-14.019Zm2.056-14.019-2.056,14.019H86.84Zm29.244-2.4h-2.643v10.093h2.643a2.838,2.838,0,0,0,3.107-3.107v-3.88A2.838,2.838,0,0,0,114.028,127.06Zm29,2.4-2.056,14.019h4.111Zm0,0-2.056,14.019h4.111Zm-29-2.4h-2.643v10.093h2.643a2.838,2.838,0,0,0,3.107-3.107v-3.88A2.838,2.838,0,0,0,114.028,127.06Zm-29.244,2.4-2.056,14.019H86.84Zm0,0-2.056,14.019H86.84Zm29.244-2.4h-2.643v10.093h2.643a2.838,2.838,0,0,0,3.107-3.107v-3.88A2.838,2.838,0,0,0,114.028,127.06Zm29,2.4-2.056,14.019h4.111Zm0,0-2.056,14.019h4.111Zm-29-2.4h-2.643v10.093h2.643a2.838,2.838,0,0,0,3.107-3.107v-3.88A2.838,2.838,0,0,0,114.028,127.06Zm-29.244,2.4-2.056,14.019H86.84Zm0,0-2.056,14.019H86.84Zm29.244-2.4h-2.643v10.093h2.643a2.838,2.838,0,0,0,3.107-3.107v-3.88A2.838,2.838,0,0,0,114.028,127.06Zm0,0h-2.643v10.093h2.643a2.838,2.838,0,0,0,3.107-3.107v-3.88A2.838,2.838,0,0,0,114.028,127.06Zm-29.244,2.4-2.056,14.019H86.84Z" transform="translate(17.523 -109.609)"/><g transform="translate(35.937 12.18)"><path class="h" d="M16.918,128.4v-2.813c0-2.118-1.19-3.308-3.06-3.308s-3.06,1.19-3.06,3.308v18.27c0,2.1,1.19,3.308,3.06,3.308s3.06-1.206,3.06-3.308v-5.935h-3.06v-4.776h8.13v10.711c0,4.838-3.246,8.084-8.13,8.084s-8.13-3.246-8.13-8.084v-18.27c0-4.838,3.246-8.1,8.13-8.1s8.13,3.261,8.13,8.1V128.4Z" transform="translate(-5.727 -117.489)"/><path class="h" d="M40.591,117.8v26.137a7.423,7.423,0,0,1-7.806,7.837,7.5,7.5,0,0,1-7.9-7.837V117.8h5.07v26.137a2.837,2.837,0,1,0,5.657,0V117.8Z" transform="translate(4.728 -117.32)"/><path class="h" d="M55.257,117.8h-6.8l-5.549,33.495h5.07l1.1-7.4H54.53l1.113,7.4h5.163Zm-5.5,21.206,2.056-14.019,2.056,14.019Z" transform="translate(14.561 -117.32)"/><path class="h" d="M74.993,136.316a7.6,7.6,0,0,0,3.493-6.832V125.79c0-4.822-3.107-7.991-7.945-7.991H62.6v33.495h5.07V137.475H70.31l3.679,13.818h5.271Zm-1.577-6.739a2.838,2.838,0,0,1-3.107,3.107H67.667V122.591H70.31a2.838,2.838,0,0,1,3.107,3.107Z" transform="translate(25.305 -117.32)"/><path class="h" d="M92.937,117.8h-6.8l-5.549,33.495h5.07l1.1-7.4H92.21l1.113,7.4h5.163Zm-5.5,21.206,2.056-14.019,2.056,14.019Z" transform="translate(35.121 -117.32)"/><path class="h" d="M117.31,117.8v33.495h-5.348l-6.708-21.438v21.438h-4.977V117.8h5.6l6.461,22.489V117.8Z" transform="translate(45.866 -117.32)"/><path class="h" d="M135.585,117.8v4.792h-5.549v28.7h-5.07v-28.7h-5.549V117.8Z" transform="translate(56.31 -117.32)"/><path class="h" d="M143.057,122.591v9.336h7.419V136.7h-7.419v9.815h9.336v4.776H137.987V117.8h14.406v4.792Z" transform="translate(66.443 -117.32)"/><path class="h" d="M160.707,122.591v9.336h7.419V136.7h-7.419v9.815h9.336v4.776H155.637V117.8h14.406v4.792Z" transform="translate(76.074 -117.32)"/></g></g></g></svg>