<svg xmlns="http://www.w3.org/2000/svg" width="53.665" height="55.999" viewBox="0 0 53.665 55.999"><defs><style>.a{fill:#fff;}</style></defs><g transform="translate(0)"><g transform="translate(18.665 9.333)"><path class="a" d="M189.5,85.333a8.167,8.167,0,1,0,8.167,8.167A8.175,8.175,0,0,0,189.5,85.333Zm0,14a5.833,5.833,0,1,1,5.833-5.833A5.838,5.838,0,0,1,189.5,99.333Z" transform="translate(-181.329 -85.333)"/></g><g transform="translate(0 39.666)"><path class="a" d="M64.136,377.186l-9.333-14a1.169,1.169,0,0,0-.971-.52H42.516a1.167,1.167,0,1,0,0,2.333H53.209l7.777,11.667H14.015L21.792,365H32.483a1.167,1.167,0,0,0,0-2.333H21.166a1.173,1.173,0,0,0-.971.518l-9.333,14A1.169,1.169,0,0,0,11.833,379H63.165a1.167,1.167,0,0,0,.971-1.813Z" transform="translate(-10.667 -362.666)"/></g><g transform="translate(9.332)"><g transform="translate(0)"><path class="a" d="M113.5,0A17.518,17.518,0,0,0,96,17.5c0,9.31,15.9,30.16,16.576,31.042a1.162,1.162,0,0,0,1.848,0C115.1,47.66,131,26.81,131,17.5A17.518,17.518,0,0,0,113.5,0Zm0,45.884C110.07,41.248,98.329,24.817,98.329,17.5a15.166,15.166,0,1,1,30.333,0C128.662,24.817,116.921,41.248,113.5,45.884Z" transform="translate(-95.996)"/></g></g></g></svg>