<svg xmlns="http://www.w3.org/2000/svg" width="54.339" height="54.339" viewBox="0 0 54.339 54.339"><defs><style>.a{fill:#fff;}</style></defs><g transform="translate(0)"><g transform="translate(35.094 26.038)"><path class="a" d="M22.292,25.085a6.792,6.792,0,1,1,6.792-6.792A6.8,6.8,0,0,1,22.292,25.085Zm0-11.321a4.528,4.528,0,1,0,4.528,4.528A4.533,4.533,0,0,0,22.292,13.764Z" transform="translate(-15.5 -11.5)"/></g><g transform="translate(29.433 43.019)"><path class="a" d="M36.773,30.321a1.132,1.132,0,0,1-1.132-1.132V24.66a3.4,3.4,0,0,0-3.4-3.4H18.66a3.4,3.4,0,0,0-3.4,3.4v4.528a1.132,1.132,0,0,1-2.264,0V24.66A5.665,5.665,0,0,1,18.66,19H32.245a5.665,5.665,0,0,1,5.66,5.66v4.528A1.132,1.132,0,0,1,36.773,30.321Z" transform="translate(-13 -19)"/></g><g transform="translate(0)"><path class="a" d="M26.037,36.226a1.132,1.132,0,0,1-.768-.3l-7.032-6.491H5.66A5.665,5.665,0,0,1,0,23.773V5.66A5.665,5.665,0,0,1,5.66,0H28.3a5.665,5.665,0,0,1,5.66,5.66V23.773a5.665,5.665,0,0,1-5.66,5.66H27.169v5.66a1.134,1.134,0,0,1-1.132,1.132ZM5.66,2.264a3.4,3.4,0,0,0-3.4,3.4V23.773a3.4,3.4,0,0,0,3.4,3.4H18.679a1.122,1.122,0,0,1,.768.3l5.459,5.038V28.3a1.132,1.132,0,0,1,1.132-1.132H28.3a3.4,3.4,0,0,0,3.4-3.4V5.66a3.4,3.4,0,0,0-3.4-3.4Z" transform="translate(0)"/></g><g transform="translate(11.32 4.528)"><path class="a" d="M10.66,17.849a1.132,1.132,0,0,1-1.132-1.132v-.6A7.165,7.165,0,0,1,12.666,10.4a3.4,3.4,0,1,0-5.4-2.742A1.132,1.132,0,1,1,5,7.66a5.66,5.66,0,1,1,9.007,4.569,4.967,4.967,0,0,0-2.214,3.892v.6A1.132,1.132,0,0,1,10.66,17.849Z" transform="translate(-5 -2)"/></g><ellipse class="a" cx="1.114" cy="1.114" rx="1.114" ry="1.114" transform="translate(15.867 22.669)"/></g></svg>