<svg xmlns="http://www.w3.org/2000/svg" width="53.758" height="51.517" viewBox="0 0 53.758 51.517"><defs><style>.a{fill:#fff;}</style></defs><g transform="translate(0)"><g transform="translate(0 24.639)"><path class="a" d="M7.84,34.4H1.12A1.12,1.12,0,0,1,0,33.279V13.12A1.12,1.12,0,0,1,1.12,12c7.618,0,11.643,2.567,11.811,2.677a1.119,1.119,0,0,1,.473,1.214L8.924,33.554A1.115,1.115,0,0,1,7.84,34.4Zm-5.6-2.24H6.968l4.05-15.97A22.4,22.4,0,0,0,2.24,14.26Z" transform="translate(0 -12)"/></g><g transform="translate(7.346 36.958)"><path class="a" d="M25.052,32.059c-5.286,0-15.507-4.444-21.129-7.1a1.119,1.119,0,0,1,.954-2.025c4.39,2.07,15.144,6.881,20.175,6.881,5.45,0,18.289-6.4,21.982-8.3a4.829,4.829,0,0,0-4.063-1.778,26.924,26.924,0,0,0-7.224,1.628,28.424,28.424,0,0,1-7.9,1.731c-4.623,0-10.765-2.213-11.022-2.307a1.12,1.12,0,0,1,.766-2.105c.058.022,6.03,2.173,10.256,2.173a26.924,26.924,0,0,0,7.224-1.628,28.424,28.424,0,0,1,7.9-1.731c5.228,0,6.605,3.958,6.664,4.126A1.124,1.124,0,0,1,49.1,22.97C48.4,23.337,31.973,32.059,25.052,32.059Z" transform="translate(-3.28 -17.5)"/></g><g transform="translate(10.796 28.719)"><path class="a" d="M30.982,26.742a1.12,1.12,0,0,1-1.12-1.12V24.5A3.315,3.315,0,0,0,27.3,21.25L5.678,16.029a1.12,1.12,0,0,1-.827-1.353A1.132,1.132,0,0,1,6.2,13.849l21.613,5.219A5.548,5.548,0,0,1,32.1,24.5v1.12A1.12,1.12,0,0,1,30.982,26.742Z" transform="translate(-4.82 -13.822)"/></g><g transform="translate(32.477 6.721)"><path class="a" d="M18.98,12.959a1.122,1.122,0,0,1-.793-.327l-3.36-3.36a1.12,1.12,0,0,1,1.584-1.584L18.9,10.181,23.717,4.4a1.119,1.119,0,1,1,1.718,1.436l-5.6,6.72a1.114,1.114,0,0,1-.806.4Z" transform="translate(-14.5 -4.001)"/></g><g transform="translate(26.878 0)"><path class="a" d="M28.42,23.4H15.241A3.255,3.255,0,0,1,12,20.135V4.264A3.255,3.255,0,0,1,15.241,1H31.155A3.255,3.255,0,0,1,34.4,4.264V17.376a3.245,3.245,0,0,1-.945,2.3L30.716,22.44a3.206,3.206,0,0,1-2.3.959ZM15.241,3.24a1.013,1.013,0,0,0-1,1.024V20.138a1.012,1.012,0,0,0,1,1.021H28.42a.985.985,0,0,0,.7-.3L31.861,18.1a1.022,1.022,0,0,0,.3-.726V4.264a1.013,1.013,0,0,0-1-1.024Z" transform="translate(-12 -1)"/></g></g></svg>