<svg xmlns="http://www.w3.org/2000/svg" width="53.758" height="53.759" viewBox="0 0 53.758 53.759"><defs><style>.a{fill:#fff;}</style></defs><g transform="translate(0)"><path class="a" d="M25.68,31.359a15.68,15.68,0,1,1,15.68-15.68A15.7,15.7,0,0,1,25.68,31.359Zm0-29.119a13.44,13.44,0,1,0,13.44,13.44A13.453,13.453,0,0,0,25.68,2.24Z" transform="translate(12.4)"/><path class="a" d="M21.22,19.18h-5.6a1.12,1.12,0,0,1,0-2.24h5.6a2.24,2.24,0,0,0,0-4.48H18.98a4.48,4.48,0,0,1,0-8.96h5.6a1.12,1.12,0,0,1,0,2.24h-5.6a2.24,2.24,0,0,0,0,4.48h2.24a4.48,4.48,0,0,1,0,8.96Z" transform="translate(17.979 4.34)"/><path class="a" d="M17.62,15.1a1.12,1.12,0,0,1-1.12-1.12V10.62a1.12,1.12,0,1,1,2.24,0v3.36A1.12,1.12,0,0,1,17.62,15.1Z" transform="translate(20.459 11.78)"/><path class="a" d="M17.62,7.6A1.12,1.12,0,0,1,16.5,6.48V3.12a1.12,1.12,0,1,1,2.24,0V6.48A1.12,1.12,0,0,1,17.62,7.6Z" transform="translate(20.459 2.48)"/><path class="a" d="M7.84,34.4H1.12A1.12,1.12,0,0,1,0,33.28V13.12A1.12,1.12,0,0,1,1.12,12c7.618,0,11.643,2.567,11.811,2.677a1.124,1.124,0,0,1,.475,1.214L8.926,33.555A1.121,1.121,0,0,1,7.84,34.4Zm-5.6-2.24H6.968L11.02,16.189A22.471,22.471,0,0,0,2.24,14.26Z" transform="translate(0 14.879)"/><path class="a" d="M25.053,32.06c-5.286,0-15.507-4.444-21.132-7.1a1.12,1.12,0,1,1,.956-2.025c4.39,2.07,15.142,6.881,20.175,6.881,5.448,0,18.289-6.4,21.983-8.3a4.829,4.829,0,0,0-4.063-1.779,26.925,26.925,0,0,0-7.224,1.628,28.424,28.424,0,0,1-7.9,1.731c-4.623,0-10.763-2.213-11.023-2.307a1.12,1.12,0,0,1,.766-2.106c.058.022,6.03,2.173,10.257,2.173a26.925,26.925,0,0,0,7.224-1.628,28.425,28.425,0,0,1,7.9-1.731c5.226,0,6.606,3.958,6.662,4.126A1.122,1.122,0,0,1,49.1,22.97c-.7.367-17.127,9.09-24.046,9.09Z" transform="translate(4.066 21.699)"/><path class="a" d="M30.984,26.742a1.12,1.12,0,0,1-1.12-1.12V24.5A3.313,3.313,0,0,0,27.3,21.25L5.677,16.028a1.12,1.12,0,0,1-.827-1.353A1.135,1.135,0,0,1,6.2,13.849l21.615,5.219A5.548,5.548,0,0,1,32.1,24.5v1.12A1.12,1.12,0,0,1,30.984,26.742Z" transform="translate(5.975 17.139)"/></g></svg>