<svg xmlns="http://www.w3.org/2000/svg" width="55.152" height="83.075" viewBox="0 0 55.152 83.075"><defs><style>.a{fill:#fafafa;}.b{fill:#c6cbd9;}.c{fill:#e0e0e0;}.d{fill:#fff;}.e{fill:#23ce6b;}.f{fill:#27debf;}.g{fill:#3b3b62;}.h{fill:#292954;}.i{fill:#edf5fc;}.j{fill:#4e4e9e;}.k{fill:#7272af;}.l{fill:#ebebeb;}.m{fill:#263238;}.n{fill:#ffa8a7;}.o{fill:#f0f0f0;}.p{fill:#f28f8f;}.q{fill:#9ae5ad;}.r{fill:#277548;}.s{opacity:0.3;}.t{opacity:0.2;}</style></defs><g transform="translate(-40.977 -1521)"><g transform="translate(50.072 1521)"><path class="a" d="M148.034,32.686l.189-.094a1.14,1.14,0,0,1,1.1,0l30.82,17.782a1.181,1.181,0,0,1,.534.943V94.263a1.27,1.27,0,0,1-.534.943l-.189.094a1.14,1.14,0,0,1-1.1,0l-30.82-17.782a1.181,1.181,0,0,1-.534-.943V33.628A1.217,1.217,0,0,1,148.034,32.686Z" transform="translate(-147.5 -32.45)"/><path class="b" d="M248.916,112.723V91.234a1.059,1.059,0,0,0-.157-.534L247,91.737v43.481l.094.063a1.14,1.14,0,0,0,1.1,0l.189-.094a1.181,1.181,0,0,0,.534-.943Z" transform="translate(-215.74 -72.4)"/><path class="c" d="M148.034,35.024l30.82,17.782a1.181,1.181,0,0,1,.534.943V96.7c0,.346-.251.5-.534.314l-30.82-17.782a1.181,1.181,0,0,1-.534-.943V35.338C147.5,34.993,147.751,34.835,148.034,35.024Z" transform="translate(-147.5 -34.16)"/><path class="d" d="M160.234,51.424l23.154,13.384a1.181,1.181,0,0,1,.534.943v1.7c0,.346-.251.5-.534.314L160.234,54.377a1.181,1.181,0,0,1-.534-.943v-1.7C159.7,51.393,159.951,51.235,160.234,51.424Z" transform="translate(-155.867 -45.408)"/><path class="c" d="M162.8,74.262a7.05,7.05,0,0,1,3.2,5.529c0,2.042-1.414,2.859-3.2,1.854a7.05,7.05,0,0,1-3.2-5.529C159.631,74.074,161.045,73.257,162.8,74.262Z" transform="translate(-155.798 -60.832)"/><path class="e" d="M167.431,78.68c-.628-.346-1.131-.063-1.131.66a2.493,2.493,0,0,0,1.131,1.948c.628.346,1.131.063,1.131-.66A2.445,2.445,0,0,0,167.431,78.68Z" transform="translate(-160.394 -64.055)"/><path class="e" d="M165.382,87.513l-.628-.377c-1.005-.6-1.854-.126-1.854,1.068v.157a6.423,6.423,0,0,0,2.168,2.231,2.436,2.436,0,0,0,2.168.283v-.189A4.035,4.035,0,0,0,165.382,87.513Z" transform="translate(-158.062 -69.778)"/><path class="d" d="M160.291,103.283l5.027,2.89a1.473,1.473,0,0,1,.691,1.131c0,.408-.314.565-.691.346l-5.027-2.89a1.473,1.473,0,0,1-.691-1.131A.415.415,0,0,1,160.291,103.283Z" transform="translate(-155.798 -80.961)"/><path class="d" d="M160.291,112.583l5.027,2.89a1.473,1.473,0,0,1,.691,1.131c0,.408-.314.566-.691.346l-5.027-2.89a1.473,1.473,0,0,1-.691-1.131A.415.415,0,0,1,160.291,112.583Z" transform="translate(-155.798 -87.339)"/><path class="c" d="M160.291,121.983l5.027,2.89a1.473,1.473,0,0,1,.691,1.131c0,.408-.314.566-.691.346l-5.027-2.89a1.473,1.473,0,0,1-.691-1.131A.415.415,0,0,1,160.291,121.983Z" transform="translate(-155.798 -93.786)"/><path class="c" d="M160.291,131.383l5.027,2.89a1.473,1.473,0,0,1,.691,1.131c0,.408-.314.565-.691.346l-5.027-2.89a1.473,1.473,0,0,1-.691-1.131A.415.415,0,0,1,160.291,131.383Z" transform="translate(-155.798 -100.233)"/><path class="f" d="M160.291,145.486l5.027,2.89a1.535,1.535,0,0,1,.691,1.194v2.859c0,.44-.314.6-.691.408l-5.027-2.89a1.535,1.535,0,0,1-.691-1.194v-2.859C159.631,145.424,159.946,145.267,160.291,145.486Z" transform="translate(-155.798 -109.907)"/><path class="e" d="M192.791,84.483l12.693,7.32a1.473,1.473,0,0,1,.691,1.131c0,.408-.314.566-.691.346l-12.693-7.32a1.473,1.473,0,0,1-.691-1.131C192.131,84.42,192.414,84.263,192.791,84.483Z" transform="translate(-178.088 -68.067)"/><path class="e" d="M192.791,93.883l12.693,7.32a1.473,1.473,0,0,1,.691,1.131c0,.408-.314.566-.691.346l-12.693-7.32a1.473,1.473,0,0,1-.691-1.131C192.131,93.82,192.414,93.663,192.791,93.883Z" transform="translate(-178.088 -74.514)"/><path class="e" d="M192.791,103.213l12.693,7.32a1.473,1.473,0,0,1,.691,1.131c0,.408-.314.566-.691.346l-12.693-7.32a1.473,1.473,0,0,1-.691-1.131C192.131,103.15,192.414,103.024,192.791,103.213Z" transform="translate(-178.088 -80.922)"/><g transform="translate(14.076 45.028)"><path class="d" d="M399.883,364.528h0a.045.045,0,0,1-.042-.042,2.2,2.2,0,0,0-.3-1.271c-.014-.028-.014-.057.014-.071s.056-.014.071.014a2.333,2.333,0,0,1,.311,1.328C399.939,364.514,399.911,364.528,399.883,364.528Z" transform="translate(-367.959 -326.481)"/><path class="g" d="M200.705,140.2l3.362-1.949a1.34,1.34,0,0,0,.607-1.059V118.065a1.34,1.34,0,0,0-.607-1.059L181.2,103.8a1.347,1.347,0,0,0-1.229,0l-3.362,1.949a1.34,1.34,0,0,0-.607,1.059v19.126a1.34,1.34,0,0,0,.607,1.059L199.476,140.2A1.44,1.44,0,0,0,200.705,140.2Z" transform="translate(-176 -103.65)"/><path class="g" d="M347.57,202.007a1.26,1.26,0,0,0-.184-.607l-4.986,2.882v19.874a1.4,1.4,0,0,0,1.187-.014l3.362-1.949a1.34,1.34,0,0,0,.607-1.059Z" transform="translate(-318.895 -187.592)"/><path class="h" d="M199.476,136.186l-22.869-13.207c-.339-.2-.607-.042-.607.353v19.126a1.34,1.34,0,0,0,.607,1.059l22.869,13.207c.339.2.607.042.607-.353V137.245A1.319,1.319,0,0,0,199.476,136.186Z" transform="translate(-176 -120.175)"/><path class="i" d="M213.59,124.285a1.34,1.34,0,0,1,.607,1.059v19.832l.579-.325V125.02a1.34,1.34,0,0,0-.607-1.059l-23.49-13.56-.579.325Z" transform="translate(-188.108 -109.447)"/><path class="j" d="M318.125,182.889l-.41-.24a.659.659,0,0,0-.607,0l-1.554.89-.254-.085v.325h0c0,.071.042.127.127.184l.537.311a.659.659,0,0,0,.607,0l1.681-.975a.207.207,0,0,0,.127-.17h0V182.8Z" transform="translate(-295.623 -171.427)"/><path class="k" d="M318.252,180.66l-.537-.311a.659.659,0,0,0-.607,0l-1.681.975a.186.186,0,0,0,0,.353l.537.311a.659.659,0,0,0,.607,0l1.681-.975A.186.186,0,0,0,318.252,180.66Z" transform="translate(-295.623 -169.452)"/><path class="j" d="M220.625,126.689l-.41-.24a.659.659,0,0,0-.607,0l-1.554.89-.254-.085v.325h0c0,.071.042.127.127.184l.537.311a.659.659,0,0,0,.607,0l1.681-.975a.207.207,0,0,0,.127-.17h0V126.6Z" transform="translate(-211.896 -123.165)"/><path class="k" d="M220.852,124.36l-.537-.311a.659.659,0,0,0-.607,0l-1.681.975a.186.186,0,0,0,0,.353l.537.311a.659.659,0,0,0,.607,0l1.681-.975C221.022,124.628,221.022,124.459,220.852,124.36Z" transform="translate(-211.982 -121.104)"/><path class="k" d="M262.444,124.688v1.992l-1.144.664v-3.023c0-.155.113-.226.24-.141Z" transform="translate(-249.251 -121.249)"/><path class="g" d="M264.927,117.524v3.687l-.847.494-.579-.339v-3.023a.571.571,0,0,0-.24-.424l-4.336-2.5-.9-.523c-.141-.085-.24-.014-.24.141v3.023l-.579-.325v-3.729a.581.581,0,0,1,.24-.381l.367-.212a.512.512,0,0,1,.494,0l6.4,3.687A.556.556,0,0,1,264.927,117.524Z" transform="translate(-245.73 -111.98)"/><path class="h" d="M264.079,121.2v3.687l-.579-.339v-3.023a.571.571,0,0,0-.24-.424l-4.336-2.5-.9-.523c-.141-.085-.24-.014-.24.141v3.023l-.579-.325v-3.729c.014-.127.127-.17.24-.1l6.4,3.687A.571.571,0,0,1,264.079,121.2Z" transform="translate(-245.73 -115.165)"/></g></g><g transform="translate(40.977 1536.34)"><path class="l" d="M159.833,393.674a20.78,20.78,0,0,0,15.761,0c4.338-2.07,4.338-5.453,0-7.522a20.779,20.779,0,0,0-15.761,0C155.456,388.222,155.456,391.6,159.833,393.674Z" transform="translate(-156.55 -331.443)"/><ellipse class="m" cx="2.985" cy="2.985" rx="2.985" ry="2.985" transform="translate(7.383 0.741)"/><g transform="translate(0.923 0)"><rect class="n" width="2.109" height="3.622" transform="translate(14.54 54.391)"/><path class="n" d="M178.929,381.421l-2.109.08-.119-3.821,2.229-.08Z" transform="translate(-169.603 -327.229)"/><path class="h" d="M184.4,309.9c0,2.03.279,16.557.279,16.557a12.818,12.818,0,0,1,.478,3.861c-.159,3.025-.517,12.338-.517,12.338a2.775,2.775,0,0,1-2.348.04s-1.871-12.378-2.229-15.363c-.318-2.627-.876-9.711-.876-9.711l-1.154,8.557a11.875,11.875,0,0,1,.279,3.343c-.08,1.393-.915,9.99-.915,9.99a2.884,2.884,0,0,1-2.428.2s-1.075-12.258-1.075-13.532c-.04-1.433.716-16.238.716-16.238H184.4Z" transform="translate(-167.915 -286.473)"/><path class="d" d="M184.194,278.25s.8.478.8,2.388v4.139l.08,7.8A9.391,9.391,0,0,1,175,291.9s.159-10.03.159-11.661a3.7,3.7,0,0,1,3.423-3.94l3.264.756Z" transform="translate(-168.58 -266.245)"/><g transform="translate(0 9.985)"><path class="n" d="M165.408,288.773a79.872,79.872,0,0,0,1.473-9.273l-2.706,4.338s-.6,3.383-.915,5.134a35.765,35.765,0,0,1-1.672,5.612,1.876,1.876,0,0,1-.756.6,6.266,6.266,0,0,0-1.274.955c-.358.279-.637.358-.6.438a.506.506,0,0,0,.637.318,3.629,3.629,0,0,0,.8-.318,5.334,5.334,0,0,1-.915,1.234c-.836.836-.955,1.393.557,1.592.955.119,1.751-.4,2.706-2.388a13.452,13.452,0,0,0,.915-2.269C164.254,292.753,165.089,290.047,165.408,288.773Z" transform="translate(-158.868 -278.157)"/><path class="h" d="M171.79,276.195a2.028,2.028,0,0,0-2.149.6c-.4.438-.8,1.114-1.473,5.333-.6,3.662-2.269,9.711-2.269,9.711a2.576,2.576,0,0,0,2.308.836l2.985-10.945Z" transform="translate(-163.101 -276.125)"/></g><path class="g" d="M177.939,276.443a4.411,4.411,0,0,0-1.433,2.229c-.279,1.313-.358,16.278-.358,16.278a6.622,6.622,0,0,1-2.348-.876V280.422C173.8,278.512,174.238,275.527,177.939,276.443Z" transform="translate(-167.857 -266.229)"/><path class="h" d="M189.41,278.6s-1.751,1.831-1.791,6.328-.119,12.338-.119,12.338a8.624,8.624,0,0,0,5.333-.677s-.239-11.223-.279-12.9c-.04-1.91.517-3.542-.557-4.1A18.964,18.964,0,0,0,189.41,278.6Z" transform="translate(-176.105 -267.63)"/><g transform="translate(6.654)"><path class="m" d="M193.774,265.7a26.2,26.2,0,0,1-.677,2.667,1.119,1.119,0,0,1-.6.478l.04-1.592Z" transform="translate(-185.769 -259.864)"/><path class="m" d="M193.618,257.49a1.143,1.143,0,0,1,.915.318c.4.4.159,1.672-.318,2.945l-.915.119Z" transform="translate(-186.25 -254.918)"/><path class="n" d="M182.775,258.869c.2.119.438-.239.677-.478a.783.783,0,0,1,1.313.2,1.687,1.687,0,0,1-.915,2.03c-.995.318-1.154-.318-1.154-.318l-.08,3.622-3.463,2.308a4.934,4.934,0,0,1,.2-2.388v-1.114a8.831,8.831,0,0,1-1.353.08,1.825,1.825,0,0,1-1.433-1.473,11.009,11.009,0,0,1-.2-4.816c.318-2.746,3.542-2.786,5.293-1.711C183.412,255.844,182.775,258.869,182.775,258.869Z" transform="translate(-175.964 -252.914)"/><path class="o" d="M183.6,279.464l3.5-2.826V276.2a1.315,1.315,0,0,1,.915,1.274l-2.109,3.224-.876-1.672Z" transform="translate(-180.411 -266.185)"/><path class="o" d="M181.19,275.6a1.712,1.712,0,0,0-1.075.637,21.879,21.879,0,0,0-.915,2.826l1.114-.876.677.876a7.345,7.345,0,0,1,.2-2.388Z" transform="translate(-177.762 -265.824)"/><path class="m" d="M182.4,257.311c.08,0,.438-.6.677-.8.318-.279-.08-2.905-.08-2.905a1.184,1.184,0,0,0-.318-1.313c-.438-.478-1.154-.517-2.388-.716-.637-.119-1.632-.279-2.269-.4-.756-.159-1.433-.279-1.95.159a1.427,1.427,0,0,0-.4,1.552.619.619,0,0,0,.239.318,1.428,1.428,0,0,0,.557.4,2.679,2.679,0,0,0,1.512.438,15.53,15.53,0,0,0,3.264-.08c.358-.04.4.279.6,1.194C181.96,255.957,182.08,257.271,182.4,257.311Z" transform="translate(-175.587 -251.037)"/><path class="m" d="M193.994,256.569l1.114-.6a.608.608,0,0,0-.836-.279A.653.653,0,0,0,193.994,256.569Z" transform="translate(-186.626 -253.798)"/><path class="p" d="M184.2,273.433a12.054,12.054,0,0,0,2.229-.637,1.688,1.688,0,0,0,.8-.8,2.975,2.975,0,0,1-.438.915c-.438.557-2.547.915-2.547.915Z" transform="translate(-180.772 -263.657)"/><g transform="translate(0.782 3.907)"><ellipse class="m" cx="0.318" cy="0.358" rx="0.318" ry="0.358" transform="translate(3.043 1.252)"/><path class="m" d="M186,261.474l.716.4a.41.41,0,1,0-.716-.4Z" transform="translate(-182.638 -261.098)"/><path class="p" d="M183.356,270.7l-.756.279a.414.414,0,0,0,.517.239A.383.383,0,0,0,183.356,270.7Z" transform="translate(-180.591 -266.781)"/><path class="m" d="M177.651,261.509l.637-.478a.4.4,0,0,0-.637.478Z" transform="translate(-177.553 -260.853)"/><ellipse class="m" cx="0.318" cy="0.358" rx="0.318" ry="0.358" transform="translate(0.297 1.173)"/><path class="p" d="M180.754,263.9l-.119,1.99-1.035-.358Z" transform="translate(-178.785 -262.687)"/></g></g><path class="m" d="M190.365,393.715V393.4c-.2.08-.677,1.871-1.512,2.627-.677.6-1.592,1.313-1.791,1.99-.239.716,1.274,1.075,1.871.995a4.5,4.5,0,0,0,2.308-1.114c.318-.478.478-1.154.716-1.512s.836-.716.995-1.114a2.316,2.316,0,0,0-.119-1.114c-.08-.358-.2-.8-.318-.756v.239a1.858,1.858,0,0,1-1.075.358C191.081,393.993,190.365,393.953,190.365,393.715Z" transform="translate(-175.826 -336.736)"/><path class="m" d="M169.329,385.617c-.119,0-.2.159-.438.438a3.622,3.622,0,0,1-1.234.876c-.8.4-2.308.995-3.025,1.313-.438.2-.4.716.04,1.035a3.992,3.992,0,0,0,2.826.239c.716-.159,1.632-.8,2.229-.8a4.079,4.079,0,0,0,2.109-.279c.438-.279.279-.915.119-1.473-.119-.6-.318-1.512-.478-1.473v.2a2.137,2.137,0,0,1-2.109.239Z" transform="translate(-162.152 -331.982)"/></g><path class="g" d="M182.645,326.772A8.114,8.114,0,0,1,179.7,325.1a5.723,5.723,0,0,0,2.269,2.03l-.358,7.443Z" transform="translate(-170.486 -295.623)"/><path class="m" d="M183.912,282.938A.986.986,0,0,0,183,282.5a.586.586,0,0,0-.6.6,2.562,2.562,0,0,0,.2.955,1.429,1.429,0,0,1,.876.08A2.647,2.647,0,0,0,183.912,282.938Z" transform="translate(-172.112 -269.978)"/><path class="m" d="M181.816,286.232s-.716,6.01-.716,6.368.756,2.428,1.154,2.428c.438,0,1.114-1.871,1.154-2.149,0-.279-.716-6.567-.716-6.567A.727.727,0,0,0,181.816,286.232Z" transform="translate(-171.329 -272.158)"/><path class="q" d="M192.431,342.986l-1.552-.876a.607.607,0,0,1-.279-.478v-8.8a.552.552,0,0,1,.279-.478l10.507-6.05a.68.68,0,0,1,.557,0l1.552.876a.607.607,0,0,1,.279.478v8.8a.552.552,0,0,1-.279.478l-10.507,6.05A.68.68,0,0,1,192.431,342.986Z" transform="translate(-177.048 -296.316)"/><path class="p" d="M190.6,342.279a.738.738,0,0,1,.08-.279l2.308,1.313v9.114a.68.68,0,0,1-.557,0l-1.552-.876a.607.607,0,0,1-.279-.478Z" transform="translate(-177.048 -305.797)"/><path class="r" d="M190.6,342.279a.738.738,0,0,1,.08-.279l2.308,1.313v9.114a.68.68,0,0,1-.557,0l-1.552-.876a.607.607,0,0,1-.279-.478Z" transform="translate(-177.048 -305.797)"/><path class="e" d="M196.179,335.4l10.507-6.05c.159-.08.279,0,.279.159v8.8a.552.552,0,0,1-.279.478l-10.507,6.05c-.159.08-.279,0-.279-.159v-8.8A.552.552,0,0,1,196.179,335.4Z" transform="translate(-180.239 -298.165)"/><path class="f" d="M193.457,333.568a.607.607,0,0,0-.279.478v9.114L192.9,343v-9.114a.552.552,0,0,1,.279-.478l10.786-6.209.279.159Z" transform="translate(-178.433 -296.887)"/><path class="s" d="M193.457,333.568a.607.607,0,0,0-.279.478v9.114L192.9,343v-9.114a.552.552,0,0,1,.279-.478l10.786-6.209.279.159Z" transform="translate(-178.433 -296.887)"/><path class="f" d="M193.4,333.509l10.786-6.209.279.159-10.786,6.209a.479.479,0,0,0-.2.2l-.279-.159h0A.479.479,0,0,1,193.4,333.509Z" transform="translate(-178.614 -296.948)"/><path class="t" d="M193.4,333.509l10.786-6.209.279.159-10.786,6.209a.479.479,0,0,0-.2.2l-.279-.159h0A.479.479,0,0,1,193.4,333.509Z" transform="translate(-178.614 -296.948)"/><g transform="translate(16.377 34.979)"><path class="f" d="M197.74,339.074l.2-.119a.34.34,0,0,1,.279,0l.716.4.119-.04v.159h0c0,.04,0,.04-.04.08l-.239.159a.34.34,0,0,1-.279,0l-.756-.438c-.04-.04-.04-.04-.04-.08h0v-.159Z" transform="translate(-197.7 -338.925)"/><path class="t" d="M197.74,339.074l.2-.119a.34.34,0,0,1,.279,0l.716.4.119-.04v.159h0c0,.04,0,.04-.04.08l-.239.159a.34.34,0,0,1-.279,0l-.756-.438c-.04-.04-.04-.04-.04-.08h0v-.159Z" transform="translate(-197.7 -338.925)"/></g><path class="f" d="M197.51,338.714l.239-.159a.34.34,0,0,1,.279,0l.756.438a.083.083,0,0,1,0,.159l-.239.159a.34.34,0,0,1-.279,0l-.756-.438C197.43,338.833,197.43,338.794,197.51,338.714Z" transform="translate(-181.172 -303.705)"/><g transform="translate(22.347 31.795)"><path class="f" d="M212.74,331.074l.2-.119a.34.34,0,0,1,.279,0l.716.4.119-.04v.159h0c0,.04,0,.04-.04.08l-.239.159a.34.34,0,0,1-.279,0l-.756-.438c-.04-.04-.04-.04-.04-.08h0v-.159Z" transform="translate(-212.7 -330.925)"/><path class="t" d="M212.74,331.074l.2-.119a.34.34,0,0,1,.279,0l.716.4.119-.04v.159h0c0,.04,0,.04-.04.08l-.239.159a.34.34,0,0,1-.279,0l-.756-.438c-.04-.04-.04-.04-.04-.08h0v-.159Z" transform="translate(-212.7 -330.925)"/></g><path class="f" d="M212.51,330.714l.239-.159a.34.34,0,0,1,.279,0l.756.438a.083.083,0,0,1,0,.159l-.239.159a.34.34,0,0,1-.279,0l-.756-.438C212.43,330.833,212.43,330.794,212.51,330.714Z" transform="translate(-190.202 -298.889)"/><path class="f" d="M208.5,329.715v.915l.517.318v-1.393c0-.08-.04-.119-.119-.08Z" transform="translate(-187.824 -298.248)"/><path class="s" d="M208.5,329.715v.915l.517.318v-1.393c0-.08-.04-.119-.119-.08Z" transform="translate(-187.824 -298.248)"/><path class="f" d="M201.6,329.625v1.711l.4.239.279-.159v-1.393a.219.219,0,0,1,.119-.2l1.99-1.154.4-.239c.08-.04.119,0,.119.08V329.9l.279-.159v-1.751c0-.08-.04-.159-.119-.159l-.159-.08a.254.254,0,0,0-.239,0l-2.945,1.711C201.64,329.466,201.6,329.546,201.6,329.625Z" transform="translate(-183.67 -297.203)"/><path class="f" d="M202.5,330.185V331.9l.279-.159v-1.393a.219.219,0,0,1,.119-.2l1.99-1.154.4-.239c.08-.04.119,0,.119.08v1.393l.279-.159v-1.751c0-.04-.04-.08-.119-.04l-2.945,1.711A.338.338,0,0,0,202.5,330.185Z" transform="translate(-184.212 -297.525)"/><path class="t" d="M202.5,330.185V331.9l.279-.159v-1.393a.219.219,0,0,1,.119-.2l1.99-1.154.4-.239c.08-.04.119,0,.119.08v1.393l.279-.159v-1.751c0-.04-.04-.08-.119-.04l-2.945,1.711A.338.338,0,0,0,202.5,330.185Z" transform="translate(-184.212 -297.525)"/><path class="n" d="M204.695,322.259v.756a20.7,20.7,0,0,1,.318,2.109c.04.239-.279.756-.836,1-.239.119-.677.517-.836.517a1.9,1.9,0,0,1-.478-.2l.239-.119s.318-.478-.04-.756l-.716.4a1.417,1.417,0,0,1,0-.637c.08-.358.08-.836.119-1.194a2.446,2.446,0,0,1,.358-.836L202.7,322.1Z" transform="translate(-184.098 -293.817)"/><path class="h" d="M196.128,280.3a8.342,8.342,0,0,1,1.791.876c.438.358,3.025,7.761,3.1,8.4.119.677-.279,7.681-.279,7.681a2.366,2.366,0,0,1-2.348.159l-.4-7-2.229-5.771A5.651,5.651,0,0,1,196.128,280.3Z" transform="translate(-179.989 -268.653)"/></g></g></svg>