<svg xmlns="http://www.w3.org/2000/svg" width="30.995" height="25.184" viewBox="0 0 30.995 25.184"><defs><style>.a{fill:#03a9f4;}</style></defs><path class="a" d="M31,50.981a13.248,13.248,0,0,1-3.661,1,6.319,6.319,0,0,0,2.8-3.512A12.7,12.7,0,0,1,26.1,50.011a6.354,6.354,0,0,0-10.992,4.345,6.543,6.543,0,0,0,.147,1.449,17.986,17.986,0,0,1-13.1-6.647,6.356,6.356,0,0,0,1.953,8.493,6.275,6.275,0,0,1-2.871-.783v.07a6.383,6.383,0,0,0,5.091,6.244,6.342,6.342,0,0,1-1.666.209,5.618,5.618,0,0,1-1.2-.108A6.415,6.415,0,0,0,9.4,67.709a12.768,12.768,0,0,1-7.879,2.71A11.9,11.9,0,0,1,0,70.332a17.889,17.889,0,0,0,9.748,2.852c11.693,0,18.086-9.686,18.086-18.082,0-.281-.01-.552-.023-.821A12.676,12.676,0,0,0,31,50.981Z" transform="translate(0 -48)"/></svg>