<svg xmlns="http://www.w3.org/2000/svg" width="89.829" height="69.076" viewBox="0 0 89.829 69.076"><defs><style>.a{fill:#23ce6b;}.b{fill:#757575;}.c{fill:#333;}.d{fill:#d5d5d5;}.e{fill:#ffa4a4;}.f{fill:#6184d8;}.g{fill:#96aee9;}.h{fill:#a4a3a2;}.i{fill:#c1c1c1;}.j{fill:#79b1db;}.k{fill:#93bfe7;}.l{fill:#5b9ac1;}.m{fill:#becdf2;}.n{fill:#d5def5;}.o{fill:#fff;}.p{fill:#a8d3f4;}.q{fill:#4e4e9e;}.r{fill:#08083d;}.s{fill:#4c649c;}.t{fill:#292954;}.u{fill:#dfdfdf;}.v{fill:#8b5e4c;}.w{fill:#b8826c;}.x{fill:#45458a;}.y{fill:#e5dbcf;}.z{fill:#889baa;}</style></defs><path class="a" d="M45.231,84.617,0,57.971,44.6,32.7l.176.106L89.829,59.1ZM1.408,57.971,45.231,83.807l43.19-24.743L44.6,33.511Z" transform="translate(0 -23.926)"/><path class="a" d="M127.954,94.477l-.354-.637,21.263-11.888-15.5-9.128L155.691,60.3l.354.637L134.817,72.824l15.461,9.128Z" transform="translate(-82.791 -41.865)"/><path class="a" d="M37.5,77.294l-.6-.743L62.16,62.293,17.9,36.5l.354-.6L63.575,62.293Z" transform="translate(-11.567 -25.994)"/><g transform="translate(4.529 0)"><path class="b" d="M52.956,17.806,41.1,10.978l-6.333,3.609L23.166,7.9,12.8,13.879,36.257,27.43,46.623,21.45h0Z" transform="translate(-12.8 -7.9)"/><g transform="translate(0.849 0.531)"><path class="c" d="M36.428,17.042,42.619,13.4l10.225,5.8.778-.389-11-6.227-6.191,3.609L24.788,9.4,15.2,14.884l.743.425,8.845-5.059Z" transform="translate(-15.2 -9.4)"/><path class="d" d="M54.2,20.751l-10.225-5.8-6.191,3.644L26.145,11.8,17.3,16.859,39.2,29.49Z" transform="translate(-16.557 -10.951)"/></g><path class="e" d="M52.956,64.142,41.1,57.278l-6.333,3.644L23.166,54.2,12.8,60.215l23.457,13.55L46.623,67.75h0Z" transform="translate(-12.8 -37.819)"/><path class="f" d="M95.8,39.7,79.1,49.323V64.395l16.7-9.623Z" transform="translate(-55.643 -28.449)"/><path class="g" d="M12.8,28.6V43.672l23.457,13.55V42.15Z" transform="translate(-12.8 -21.276)"/><path class="h" d="M95.8,35.9,79.1,45.523V47.5l16.7-9.623Z" transform="translate(-55.643 -25.994)"/><path class="i" d="M12.8,24.8v2.017L36.257,40.332V38.35Z" transform="translate(-12.8 -18.821)"/><g transform="translate(31.806 14.895)"><path class="j" d="M105.53,57.3l-2.83,1.627v1.38l2.83-1.627Z" transform="translate(-102.7 -54.717)"/><path class="j" d="M118.23,50l-2.83,1.627v1.38l2.83-1.627Z" transform="translate(-110.907 -50)"/><path class="j" d="M105.53,64.1l-2.83,1.663v1.344l2.83-1.627Z" transform="translate(-102.7 -59.111)"/><path class="j" d="M118.23,56.8l-2.83,1.663v1.38l2.83-1.663Z" transform="translate(-110.907 -54.394)"/></g><g transform="translate(31.806 20.343)"><path class="j" d="M105.53,72.6l-2.83,1.663v1.38l2.83-1.663Z" transform="translate(-102.7 -70.053)"/><path class="j" d="M118.23,65.4l-2.83,1.627v1.38l2.83-1.663Z" transform="translate(-110.907 -65.4)"/><path class="j" d="M105.53,79.5l-2.83,1.627v1.38l2.83-1.627Z" transform="translate(-102.7 -74.511)"/><path class="j" d="M118.23,72.2l-2.83,1.627v1.38l2.83-1.627Z" transform="translate(-110.907 -69.794)"/></g><g transform="translate(0 9.659)"><path class="k" d="M20.6,39.8V52.5l2.264,1.309v-12.7Z" transform="translate(-17.84 -38.173)"/><path class="k" d="M13.5,35.7V48.4l2.229,1.309V36.974Z" transform="translate(-13.252 -35.523)"/><path class="k" d="M27.8,43.9V56.6l2.3,1.344v-12.7Z" transform="translate(-22.493 -40.822)"/><path class="j" d="M12.8,35.2V47.937l.248.142v-12.7Z" transform="translate(-12.8 -35.2)"/><path class="j" d="M19.8,39.3V52.037l.283.142v-12.7Z" transform="translate(-17.323 -37.849)"/><path class="j" d="M27,43.5V56.2l.283.142v-12.7Z" transform="translate(-21.976 -40.563)"/><g transform="translate(23.457 10.26)"><path class="j" d="M79.1,87.881v3.644l3.432-1.981V85.9Z" transform="translate(-79.1 -78.223)"/><path class="j" d="M92.613,84.044V80.4L89.5,82.2v3.609Z" transform="translate(-85.821 -74.669)"/><path class="j" d="M92.613,67.844V64.2L89.5,66v3.609Z" transform="translate(-85.821 -64.2)"/><path class="j" d="M79.1,71.681v3.644l3.432-1.981V69.7Z" transform="translate(-79.1 -67.754)"/><path class="l" d="M88.8,89.286l.248-.177V85.5l-.248.142Z" transform="translate(-85.368 -77.964)"/><path class="l" d="M89.048,69.3l-.248.142v3.644l.248-.177Z" transform="translate(-85.368 -67.496)"/></g><g transform="translate(11.781 7.43)"><path class="k" d="M53.5,76.7v3.644L56.189,81.9V78.257Z" transform="translate(-50.882 -69.447)"/><path class="k" d="M46.1,72.4v3.644l2.335,1.344V73.78Z" transform="translate(-46.1 -66.669)"/><path class="k" d="M73.413,91.848V88.2L70.3,86.4v3.644Z" transform="translate(-61.738 -75.715)"/><path class="k" d="M61.9,81.6v3.609l2.689,1.557V83.121Z" transform="translate(-56.31 -72.614)"/><path class="k" d="M64.589,70.565V66.921L61.9,65.4v3.609Z" transform="translate(-56.31 -62.145)"/><path class="k" d="M73.413,75.648V72L70.3,70.2v3.644Z" transform="translate(-61.738 -65.247)"/><path class="k" d="M46.1,56.2v3.644l2.335,1.344V57.58Z" transform="translate(-46.1 -56.2)"/><path class="k" d="M56.189,65.7V62.057L53.5,60.5v3.644Z" transform="translate(-50.882 -58.979)"/><path class="j" d="M52.7,76.3v3.609l.283.177V76.442Z" transform="translate(-50.365 -69.189)"/><path class="j" d="M52.983,60.242,52.7,60.1v3.609l.283.177Z" transform="translate(-50.365 -58.72)"/><path class="j" d="M61.1,81.1v3.644l.283.142V81.277Z" transform="translate(-55.793 -72.29)"/><path class="j" d="M61.383,68.686V65.077L61.1,64.9v3.644Z" transform="translate(-55.793 -61.822)"/><path class="j" d="M69.5,89.544l.283.177V86.077L69.5,85.9Z" transform="translate(-61.221 -75.392)"/><path class="j" d="M69.783,73.521V69.877L69.5,69.7v3.644Z" transform="translate(-61.221 -64.924)"/></g><path class="j" d="M34.3,47.7V60.4l.283.142v-12.7Z" transform="translate(-26.693 -43.278)"/></g><path class="j" d="M20.654,48.429,12.8,43.9v.318l7.854,4.529Z" transform="translate(-12.8 -31.163)"/><path class="j" d="M20.654,57.729,12.8,53.2v.318l7.854,4.529Z" transform="translate(-12.8 -37.173)"/><path class="j" d="M20.654,66.229,12.8,61.7v.283l7.854,4.564Z" transform="translate(-12.8 -42.666)"/><path class="j" d="M20.654,74.829,12.8,70.3v.318l7.854,4.529Z" transform="translate(-12.8 -48.223)"/><path class="j" d="M20.654,39.729,12.8,35.2v.318l7.854,4.529Z" transform="translate(-12.8 -25.541)"/><g transform="translate(26.995 5.979)"><path class="g" d="M91.966,28.2,89.1,29.863l4.316,2.512,2.866-1.627Z" transform="translate(-89.1 -26.997)"/><path class="m" d="M103.912,33,101.4,34.453v-1.2l2.512-1.451Z" transform="translate(-97.048 -29.323)"/><path class="n" d="M90.3,30.7l3.927,2.264v-1.2L90.3,29.5Z" transform="translate(-89.875 -27.837)"/><path class="o" d="M92.812,25.4,90.3,26.851l3.927,2.264,2.512-1.451Z" transform="translate(-89.875 -25.188)"/><path class="m" d="M104.04,30.989l-1.84,1.1v-.425l1.84-1.061Z" transform="translate(-97.565 -28.548)"/><path class="n" d="M92.2,28.225l3.538,2.052v-.425L92.2,27.8Z" transform="translate(-91.103 -26.739)"/><path class="o" d="M94.04,24.8,92.2,25.861l3.538,2.052,1.84-1.061Z" transform="translate(-91.103 -24.8)"/></g><g transform="translate(4.812 4.67)"><path class="g" d="M28.983,22.5l1.7.955L28.1,24.977l-1.7-.991Z" transform="translate(-26.4 -22.005)"/><path class="m" d="M33.394,24.072,31.2,25.346v-.672L33.394,23.4Z" transform="translate(-29.502 -22.586)"/><path class="n" d="M27.2,25.372l1.415.814v-.672L27.2,24.7Z" transform="translate(-26.917 -23.426)"/><path class="o" d="M29.394,21.1l1.415.814-2.194,1.274L27.2,22.374Z" transform="translate(-26.917 -21.1)"/></g><g transform="translate(8.385 2.547)"><path class="g" d="M39.083,16.4l1.7.991L38.2,18.877l-1.7-.955Z" transform="translate(-36.5 -15.94)"/><path class="m" d="M43.594,18.072,41.4,19.346v-.672L43.594,17.4Z" transform="translate(-39.666 -16.586)"/><path class="n" d="M37.4,19.372l1.415.814v-.672L37.4,18.7Z" transform="translate(-37.082 -17.426)"/><path class="o" d="M39.594,15.1l1.415.814-2.194,1.274L37.4,16.374Z" transform="translate(-37.082 -15.1)"/></g></g><g transform="translate(24.341 35.43)"><g transform="translate(0 6.651)"><path class="k" d="M89.967,145.6,84.2,154.056l3.255,1.911,5.767-8.491Z" transform="translate(-78.999 -139.161)"/><path class="k" d="M77.367,138.2,71.6,146.691l1.734,1.026,5.767-8.491Z" transform="translate(-70.857 -134.379)"/><path class="p" d="M69.5,127.4v2.76l1.344-1.946Z" transform="translate(-69.5 -127.4)"/><path class="k" d="M105.5,166.491l11.286,6.616V161.255L111.267,158Z" transform="translate(-92.763 -147.174)"/><path class="k" d="M100.867,151.9,95.1,160.391l.991.566,5.767-8.456Z" transform="translate(-86.043 -143.232)"/><path class="p" d="M82.267,141.1,76.5,149.591l2.724,1.557,5.767-8.456Z" transform="translate(-74.023 -136.253)"/><path class="p" d="M103.667,153.6,97.9,162.056l2.689,1.592,5.767-8.491Z" transform="translate(-87.852 -144.331)"/><path class="p" d="M99.167,150.9,93.4,159.391l.6.354,5.767-8.491Z" transform="translate(-84.944 -142.586)"/><path class="p" d="M70.844,129.7,69.5,131.646v9.093l.743.46,5.767-8.491Z" transform="translate(-69.5 -128.886)"/></g><path class="j" d="M157.991,133.6,137.4,145.488V157.34l20.591-11.888Z" transform="translate(-113.377 -124.755)"/><g transform="translate(3.113 6.156)"><path class="j" d="M78.442,140.293l-.142-.106V126h.142Z" transform="translate(-78.3 -126)"/><path class="j" d="M88.442,145.512l-.142-.071V130.9h.142Z" transform="translate(-84.762 -129.166)"/><path class="j" d="M98.442,150.989l-.142-.071V136.2h.142Z" transform="translate(-91.224 -132.591)"/><path class="j" d="M108.442,156.207l-.142-.071V141.1h.142Z" transform="translate(-97.686 -135.758)"/><path class="j" d="M117.242,161.859l-.142-.071V147h.142Z" transform="translate(-103.373 -139.57)"/><path class="j" d="M127.206,167.272l-.106-.071v-15h.106Z" transform="translate(-109.835 -142.931)"/></g><g transform="translate(24.023 8.208)"><path class="l" d="M186.2,146.093l.106-.106V131.8H186.2Z" transform="translate(-168.935 -131.8)"/><path class="l" d="M176.2,151.376l.142-.071V136.8H176.2Z" transform="translate(-162.473 -135.031)"/><path class="l" d="M166.2,156.789l.142-.071V142H166.2Z" transform="translate(-156.011 -138.391)"/><path class="l" d="M156.2,162.042l.142-.106V146.9H156.2Z" transform="translate(-149.549 -141.558)"/><path class="l" d="M147.4,167.659l.142-.071V152.8H147.4Z" transform="translate(-143.862 -145.37)"/><path class="l" d="M137.4,173.107l.142-.106V158H137.4Z" transform="translate(-137.4 -148.731)"/></g><path class="j" d="M137.141,172.526l-.141-.106V157.1h.141Z" transform="translate(-113.119 -139.941)"/><path class="q" d="M69.5,127.4v.849l24.023,14.046v-.814Z" transform="translate(-69.5 -120.749)"/><path class="j" d="M69.5,144.7v.354L93.523,159.1v-.354Z" transform="translate(-69.5 -131.928)"/><path class="r" d="M157.991,133.6,137.4,145.488v.778l20.591-11.888Z" transform="translate(-113.377 -124.755)"/><path class="q" d="M69.5,160v1.415l24.023,14.046v-1.415Z" transform="translate(-69.5 -141.815)"/><path class="r" d="M157.991,166.1,137.4,177.988v1.38l20.591-11.888Z" transform="translate(-113.377 -145.757)"/><path class="l" d="M157.991,150.8,137.4,162.652v.318l20.591-11.852Z" transform="translate(-113.377 -135.87)"/><path class="s" d="M102.085,110.475l-8.88,5.13L81.034,108.6,69.5,115.251l24.023,14.081,20.591-11.888Z" transform="translate(-69.5 -108.6)"/><path class="t" d="M103.636,112.11l-8.845,5.13L82.585,110.2,71.9,116.321l23.174,13.55L114.78,118.55Z" transform="translate(-71.051 -109.634)"/><g transform="translate(4.564 5.484)"><path class="h" d="M90.657,128.884l-1.557.885v-.885L90.657,128Z" transform="translate(-86.73 -126.62)"/><path class="i" d="M82.4,127.484l2.37,1.38v-.884L82.4,126.6Z" transform="translate(-82.4 -125.715)"/><path class="u" d="M83.957,124.1l-1.557.884,2.37,1.38,1.557-.884Z" transform="translate(-82.4 -124.1)"/><ellipse class="v" cx="0.849" cy="0.46" rx="0.849" ry="0.46" transform="translate(0.814 0.495)"/><ellipse class="w" cx="0.531" cy="0.283" rx="0.531" ry="0.283" transform="translate(1.132 0.637)"/></g><g transform="translate(7.89 3.609)"><path class="h" d="M100.021,123.585l-1.521.884v-.884l1.521-.884Z" transform="translate(-96.13 -121.32)"/><path class="i" d="M91.8,122.184l2.37,1.38v-.885L91.8,121.3Z" transform="translate(-91.8 -120.416)"/><path class="u" d="M93.321,118.8l-1.521.884,2.37,1.38,1.521-.884Z" transform="translate(-91.8 -118.8)"/><ellipse class="v" cx="0.849" cy="0.46" rx="0.849" ry="0.46" transform="translate(0.778 0.495)"/><ellipse class="w" cx="0.531" cy="0.283" rx="0.531" ry="0.283" transform="translate(1.097 0.672)"/></g><g transform="translate(10.932 1.875)"><path class="h" d="M108.657,118.685l-1.557.884v-.884l1.557-.884Z" transform="translate(-104.73 -116.42)"/><path class="i" d="M100.4,117.285l2.37,1.38v-.884l-2.37-1.38Z" transform="translate(-100.4 -115.516)"/><path class="u" d="M101.957,113.9l-1.557.884,2.37,1.38,1.557-.884Z" transform="translate(-100.4 -113.9)"/><ellipse class="v" cx="0.849" cy="0.46" rx="0.849" ry="0.46" transform="translate(0.814 0.495)"/><ellipse class="w" cx="0.531" cy="0.283" rx="0.531" ry="0.283" transform="translate(1.132 0.637)"/></g><g transform="translate(31.382 6.758)"><path class="u" d="M164.568,127.7l-6.368,3.609,2.866,1.663,6.368-3.609Z" transform="translate(-158.2 -127.7)"/><path class="h" d="M172.668,133.114l-6.368,3.609v-.778l6.368-3.644Z" transform="translate(-163.434 -130.673)"/><path class="i" d="M158.2,138.714l2.866,1.627v-.778L158.2,137.9Z" transform="translate(-158.2 -134.291)"/></g><g transform="translate(21.865 12.064)"><path class="u" d="M137.668,142.7l-6.368,3.609,2.83,1.663,6.368-3.609Z" transform="translate(-131.3 -142.7)"/><path class="h" d="M145.668,148.114l-6.368,3.609v-.778l6.368-3.644Z" transform="translate(-136.47 -145.673)"/><path class="i" d="M131.3,153.714l2.83,1.627v-.778L131.3,152.9Z" transform="translate(-131.3 -149.291)"/></g></g><g transform="translate(51.584 4.387)"><path class="g" d="M162.349,39.3,147.1,30.489,164.719,20.3,180,29.11Z" transform="translate(-147.1 -20.3)"/><g transform="translate(1.026 0.566)"><path class="r" d="M180.356,30.5l.637-.354L166.735,21.9,150,31.523l.637.354,16.1-9.234Z" transform="translate(-150 -21.9)"/><path class="f" d="M181.519,31.854,167.9,24l-16.1,9.234,13.621,7.854Z" transform="translate(-151.163 -23.257)"/></g><path class="i" d="M147.1,51.7V62.845l15.249,8.81V60.51Z" transform="translate(-147.1 -40.591)"/><path class="h" d="M207.854,47.9V59.009L190.2,69.2V58.054Z" transform="translate(-174.951 -38.135)"/><path class="x" d="M147.1,49.1v1.238l15.249,8.81V57.91Z" transform="translate(-147.1 -38.911)"/><path class="r" d="M207.854,45.2v1.274L190.2,56.628V55.389Z" transform="translate(-174.951 -36.39)"/><g transform="translate(1.274 12.914)"><g transform="translate(0 5.378)"><path class="o" d="M156.148,75.149,150.7,72v3.326l5.448,3.149Z" transform="translate(-150.7 -72)"/><g transform="translate(0.142 0.283)"><path class="y" d="M151.206,72.871,151.1,72.8v2.972l1.557.92v-.106l-1.451-.849Z" transform="translate(-151.1 -72.8)"/><path class="k" d="M151.4,73v2.866l1.451.849V73.849Z" transform="translate(-151.294 -72.929)"/></g><g transform="translate(1.911 1.309)"><path class="y" d="M156.206,75.771,156.1,75.7v2.972l1.557.92v-.071l-1.451-.884Z" transform="translate(-156.1 -75.7)"/><path class="k" d="M156.4,75.9v2.866l1.451.885v-2.9Z" transform="translate(-156.294 -75.829)"/></g><g transform="translate(3.679 2.335)"><path class="y" d="M161.206,78.671,161.1,78.6v2.972l1.557.92v-.106l-1.451-.849Z" transform="translate(-161.1 -78.6)"/><path class="k" d="M161.4,78.8v2.866l1.451.849V79.649Z" transform="translate(-161.294 -78.729)"/></g></g><path class="o" d="M156.148,59.949,150.7,56.8v3.326l5.448,3.149Z" transform="translate(-150.7 -56.8)"/><g transform="translate(0.142 0.283)"><path class="y" d="M151.206,57.671,151.1,57.6v2.972l1.557.92v-.106l-1.451-.849Z" transform="translate(-151.1 -57.6)"/><path class="k" d="M151.4,57.8v2.866l1.451.849V58.649Z" transform="translate(-151.294 -57.729)"/></g><g transform="translate(1.911 1.309)"><path class="y" d="M156.206,60.571,156.1,60.5v2.972l1.557.92v-.106l-1.451-.849Z" transform="translate(-156.1 -60.5)"/><path class="k" d="M156.4,60.7v2.866l1.451.849V61.549Z" transform="translate(-156.294 -60.629)"/></g><g transform="translate(3.679 2.335)"><path class="y" d="M161.206,63.471,161.1,63.4v2.972l1.557.92v-.106l-1.451-.849Z" transform="translate(-161.1 -63.4)"/><path class="k" d="M161.4,63.6v2.866l1.451.849V64.449Z" transform="translate(-161.294 -63.529)"/></g></g><g transform="translate(8.526 17.194)"><g transform="translate(0 5.378)"><path class="o" d="M176.648,87.249,171.2,84.1v3.361l5.448,3.149Z" transform="translate(-171.2 -84.1)"/><g transform="translate(0.142 0.318)"><path class="y" d="M171.706,85.035,171.6,85v2.972l1.592.884v-.071l-1.486-.849Z" transform="translate(-171.6 -85)"/><path class="k" d="M171.9,85.1V88l1.486.849v-2.9Z" transform="translate(-171.794 -85.065)"/></g><g transform="translate(1.911 1.344)"><path class="y" d="M176.706,87.971,176.6,87.9v2.972l1.592.92v-.106l-1.486-.849Z" transform="translate(-176.6 -87.9)"/><path class="k" d="M176.9,88.1v2.866l1.486.849V88.949Z" transform="translate(-176.794 -88.029)"/></g><g transform="translate(3.679 2.37)"><path class="y" d="M181.706,90.835,181.6,90.8v2.972l1.592.884v-.071l-1.486-.849Z" transform="translate(-181.6 -90.8)"/><path class="k" d="M181.9,90.9v2.9l1.486.849v-2.9Z" transform="translate(-181.794 -90.865)"/></g></g><path class="o" d="M176.648,72.049,171.2,68.9v3.361l5.448,3.149Z" transform="translate(-171.2 -68.9)"/><g transform="translate(0.142 0.318)"><path class="y" d="M171.706,69.835,171.6,69.8v2.972l1.592.884v-.071l-1.486-.849Z" transform="translate(-171.6 -69.8)"/><path class="k" d="M171.9,69.9v2.9l1.486.849v-2.9Z" transform="translate(-171.794 -69.865)"/></g><g transform="translate(1.911 1.344)"><path class="y" d="M176.706,72.735,176.6,72.7v2.972l1.592.92v-.106l-1.486-.849Z" transform="translate(-176.6 -72.7)"/><path class="k" d="M176.9,72.8v2.9l1.486.849V73.685Z" transform="translate(-176.794 -72.765)"/></g><g transform="translate(3.679 2.37)"><path class="y" d="M181.706,75.635,181.6,75.6v2.972l1.592.884v-.071l-1.486-.849Z" transform="translate(-181.6 -75.6)"/><path class="k" d="M181.9,75.7v2.9l1.486.849v-2.9Z" transform="translate(-181.794 -75.665)"/></g></g><path class="r" d="M193.868,55.8a1.8,1.8,0,0,0-.672-.566,1.308,1.308,0,0,0-.389-.177,1.994,1.994,0,0,0-.425-.142,6.075,6.075,0,0,0-1.2-.212h-.389c-1.8,0-3.29.778-3.29,1.769a.961.961,0,0,0,.212.6,2.021,2.021,0,0,0,.637.566,1.308,1.308,0,0,0,.389.177,2,2,0,0,0,.425.142,6.075,6.075,0,0,0,1.2.212h.425c1.8,0,3.29-.778,3.29-1.769A.841.841,0,0,0,193.868,55.8Z" transform="translate(-173.207 -42.529)"/><path class="r" d="M212.268,45.6a1.794,1.794,0,0,0-.672-.566,1.308,1.308,0,0,0-.389-.177,1.994,1.994,0,0,0-.425-.142,6.074,6.074,0,0,0-1.2-.212h-.389c-1.8,0-3.29.778-3.29,1.769a.961.961,0,0,0,.212.6,2.021,2.021,0,0,0,.637.566,1.309,1.309,0,0,0,.389.177,2,2,0,0,0,.425.142,6.075,6.075,0,0,0,1.2.212h.425c1.8,0,3.29-.778,3.29-1.769A.961.961,0,0,0,212.268,45.6Z" transform="translate(-185.097 -35.938)"/><g transform="translate(21.192 7.076)"><path class="u" d="M212.572,44.4H207.3v1.521h0a1.213,1.213,0,0,0,.637.955l.035.035a3.688,3.688,0,0,0,1.061.425h.035a4.9,4.9,0,0,0,1.061.106h.071a6.584,6.584,0,0,0,1.2-.142h.035a2.886,2.886,0,0,0,1.1-.531.035.035,0,0,0,.035-.035,1.156,1.156,0,0,0,.425-.778h0V44.435h-.425Z" transform="translate(-207.194 -42.949)"/><path class="i" d="M212.59,41.255a2.146,2.146,0,0,0-.6-.5,1.257,1.257,0,0,0-.318-.142c-.106-.035-.248-.106-.389-.142a4.783,4.783,0,0,0-1.026-.177H209.9c-1.592,0-2.9.672-2.9,1.521a1.053,1.053,0,0,0,.177.531,1.966,1.966,0,0,0,.566.5c.106.071.212.106.318.177.106.035.248.106.354.142a3.335,3.335,0,0,0,1.061.177h.354c1.592,0,2.9-.672,2.9-1.521A.569.569,0,0,0,212.59,41.255Z" transform="translate(-207 -40.3)"/><g transform="translate(0.425 0.212)"><path class="h" d="M210.677,41.183h.283a5.789,5.789,0,0,1,.884.142l.318.106a.711.711,0,0,1,.283.142,3.476,3.476,0,0,1,.531.425,1.257,1.257,0,0,1,.141.318c0-.035.035-.106.035-.142a.745.745,0,0,0-.177-.46,1.093,1.093,0,0,0-.531-.425,2.1,2.1,0,0,0-.283-.142l-.318-.106a3.557,3.557,0,0,0-.884-.142h-.283c-1.38,0-2.477.6-2.477,1.309a.213.213,0,0,0,.035.142C208.377,41.678,209.4,41.183,210.677,41.183Z" transform="translate(-208.2 -40.9)"/><path class="u" d="M208.9,43.675a2.1,2.1,0,0,0,.283.142l.318.106a7.062,7.062,0,0,0,.92.177h.318c1.274,0,2.335-.5,2.477-1.168a1.258,1.258,0,0,0-.142-.318,1.093,1.093,0,0,0-.531-.425,2.1,2.1,0,0,0-.283-.142l-.318-.106a3.557,3.557,0,0,0-.884-.142h-.283c-1.274,0-2.335.5-2.477,1.168a1.258,1.258,0,0,0,.142.318A2.871,2.871,0,0,0,208.9,43.675Z" transform="translate(-208.265 -41.482)"/></g></g><g transform="translate(14.753 10.649)"><path class="u" d="M194.307,54.5H189v1.521h0a1.213,1.213,0,0,0,.637.955l.035.035a3.689,3.689,0,0,0,1.061.425h.035a4.9,4.9,0,0,0,1.061.106h.071a6.584,6.584,0,0,0,1.2-.142h.035a2.886,2.886,0,0,0,1.1-.531.035.035,0,0,0,.035-.035,1.156,1.156,0,0,0,.425-.778h0V54.535h-.389Z" transform="translate(-188.929 -53.049)"/><path class="i" d="M194.39,51.355a2.146,2.146,0,0,0-.6-.5,1.257,1.257,0,0,0-.318-.142c-.106-.035-.248-.106-.389-.142a4.783,4.783,0,0,0-1.026-.177H191.7c-1.592,0-2.9.672-2.9,1.521a1.053,1.053,0,0,0,.177.531,1.966,1.966,0,0,0,.566.5c.106.071.212.106.318.177.106.035.248.106.354.142a3.335,3.335,0,0,0,1.061.177h.354c1.592,0,2.9-.672,2.9-1.521A.805.805,0,0,0,194.39,51.355Z" transform="translate(-188.8 -50.4)"/><g transform="translate(0.425 0.212)"><path class="h" d="M192.477,51.283h.283a5.792,5.792,0,0,1,.884.142l.318.106a.711.711,0,0,1,.283.142,3.48,3.48,0,0,1,.531.425,1.258,1.258,0,0,1,.142.318c0-.035.035-.106.035-.142a.745.745,0,0,0-.177-.46,1.093,1.093,0,0,0-.531-.425,2.1,2.1,0,0,0-.283-.142l-.318-.106A3.557,3.557,0,0,0,192.76,51h-.283c-1.38,0-2.477.6-2.477,1.309a.213.213,0,0,0,.035.142C190.142,51.814,191.2,51.283,192.477,51.283Z" transform="translate(-190 -51)"/><path class="u" d="M190.7,53.775a2.1,2.1,0,0,0,.283.142l.318.106a7.063,7.063,0,0,0,.92.177h.318c1.274,0,2.335-.5,2.477-1.168a1.258,1.258,0,0,0-.142-.318,1.093,1.093,0,0,0-.531-.425,2.1,2.1,0,0,0-.283-.142l-.318-.106a3.557,3.557,0,0,0-.885-.142h-.283c-1.274,0-2.335.5-2.477,1.168a1.257,1.257,0,0,0,.142.318A1.841,1.841,0,0,0,190.7,53.775Z" transform="translate(-190.065 -51.582)"/></g></g><g transform="translate(17.018 23.846)"><path class="y" d="M195.2,88.868l2.017-1.168v5.059L195.2,93.891Z" transform="translate(-195.2 -87.7)"/></g><g transform="translate(17.23 24.164)"><path class="z" d="M197.392,88.6l-1.592.92v4.847l1.592-.92Z" transform="translate(-195.8 -88.6)"/></g><g transform="translate(26.605 11.534)"><path class="o" d="M222.3,56.049l5.448-3.149v3.326L222.3,59.41Z" transform="translate(-222.3 -52.9)"/><g transform="translate(3.75 0.283)"><path class="y" d="M234.351,53.771l.106-.071v2.972l-1.557.92v-.106l1.451-.849Z" transform="translate(-232.9 -53.7)"/><path class="k" d="M234.351,53.9v2.866l-1.451.849V54.749Z" transform="translate(-232.9 -53.829)"/></g><g transform="translate(1.981 1.344)"><path class="y" d="M229.351,56.735l.106-.035v2.972l-1.557.884v-.071l1.451-.849Z" transform="translate(-227.9 -56.7)"/><path class="k" d="M229.351,56.8v2.9l-1.451.849v-2.9Z" transform="translate(-227.9 -56.765)"/></g><g transform="translate(0.212 2.335)"><path class="y" d="M224.351,59.571l.106-.071v2.972l-1.557.92v-.106l1.451-.849Z" transform="translate(-222.9 -59.5)"/><path class="k" d="M224.351,59.7v2.866l-1.451.849V60.549Z" transform="translate(-222.9 -59.629)"/></g></g><g transform="translate(19.954 17.548)"><path class="o" d="M203.5,70.961v.884l1.84-1.061V69.9Z" transform="translate(-203.5 -69.9)"/><g transform="translate(0.142 0.248)"><path class="y" d="M205.351,70.635l.106-.035v.566l-1.557.92V71.98l1.451-.849Z" transform="translate(-203.9 -70.6)"/><path class="k" d="M205.351,70.7v.5l-1.451.849v-.5Z" transform="translate(-203.9 -70.665)"/></g></g><g transform="translate(22.431 16.062)"><path class="o" d="M210.5,66.8v.884l1.84-1.061V65.7Z" transform="translate(-210.5 -65.7)"/><g transform="translate(0.142 0.248)"><path class="y" d="M212.351,66.471l.106-.071V67l-1.557.884v-.071l1.451-.849Z" transform="translate(-210.9 -66.4)"/><path class="k" d="M212.351,66.6v.5l-1.451.849v-.5Z" transform="translate(-210.9 -66.529)"/></g></g><g transform="translate(19.954 22.218)"><path class="o" d="M203.5,84.161v.92l1.84-1.1V83.1Z" transform="translate(-203.5 -83.1)"/><g transform="translate(0.142 0.248)"><path class="y" d="M205.351,83.835l.106-.035v.566l-1.557.92V85.18l1.451-.849Z" transform="translate(-203.9 -83.8)"/><path class="k" d="M205.351,83.9v.5l-1.451.849v-.46Z" transform="translate(-203.9 -83.865)"/></g></g><g transform="translate(22.431 20.768)"><path class="o" d="M210.5,80.061v.884l1.84-1.061V79Z" transform="translate(-210.5 -79)"/><g transform="translate(0.142 0.212)"><path class="y" d="M212.351,79.671l.106-.071v.6l-1.557.92v-.106l1.451-.849Z" transform="translate(-210.9 -79.6)"/><path class="k" d="M212.351,79.8v.5l-1.451.849v-.5Z" transform="translate(-210.9 -79.729)"/></g></g><g transform="translate(26.605 16.31)"><path class="o" d="M222.3,69.584l5.448-3.184v3.361L222.3,72.91Z" transform="translate(-222.3 -66.4)"/><g transform="translate(3.75 0.318)"><path class="y" d="M234.351,67.371l.106-.071v2.972l-1.557.92v-.106l1.451-.849Z" transform="translate(-232.9 -67.3)"/><path class="k" d="M234.351,67.5v2.866l-1.451.849V68.349Z" transform="translate(-232.9 -67.429)"/></g><g transform="translate(1.981 1.344)"><path class="y" d="M229.351,70.271l.106-.071v2.972l-1.557.92v-.106l1.451-.849Z" transform="translate(-227.9 -70.2)"/><path class="k" d="M229.351,70.4v2.866l-1.451.849V71.249Z" transform="translate(-227.9 -70.329)"/></g><g transform="translate(0.212 2.37)"><path class="y" d="M224.351,73.171l.106-.071v2.972l-1.557.92v-.106l1.451-.849Z" transform="translate(-222.9 -73.1)"/><path class="k" d="M224.351,73.3v2.866l-1.451.849V74.149Z" transform="translate(-222.9 -73.229)"/></g></g></g></svg>