<svg xmlns="http://www.w3.org/2000/svg" width="36.63" height="25.184" viewBox="0 0 36.63 25.184"><defs><style>.a{fill:#f44336;}.b{fill:#fafafa;}</style></defs><g transform="translate(0)"><path class="a" d="M35.074,82.427c-.994-1.767-2.072-2.093-4.267-2.216C28.613,80.062,23.1,80,18.32,80s-10.3.062-12.5.208c-2.191.126-3.272.449-4.274,2.218C.527,84.192,0,87.232,0,92.585V92.6c0,5.33.527,8.393,1.55,10.14,1,1.767,2.081,2.088,4.272,2.237,2.193.128,7.711.2,12.5.2s10.293-.076,12.489-.2c2.2-.149,3.274-.469,4.267-2.237,1.033-1.747,1.555-4.81,1.555-10.14v-.018C36.63,87.232,36.109,84.192,35.074,82.427Z" transform="translate(0 -80)"/><path class="b" d="M192,173.736V160l11.447,6.868Z" transform="translate(-178.263 -154.276)"/></g></svg>